G04 #@! TF.GenerationSoftware,KiCad,Pcbnew,9.0.4*
G04 #@! TF.CreationDate,2026-09-29T14:32:55+03:00*
G04 #@! TF.ProjectId,cable_tester,6361626c-655f-4746-9573-7465722e6b69,rev?*
G04 #@! TF.SameCoordinates,Original*
G04 #@! TF.FileFunction,Copper,L2,Bot*
G04 #@! TF.FilePolarity,Positive*
%FSLAX46Y46*%
G04 Gerber Fmt 4.6, Leading zero omitted, Abs format (unit mm)*
G04 Created by KiCad (PCBNEW 9.0.4) date 2026-09-29 14:32:55*
%MOMM*%
%LPD*%
G01*
G04 APERTURE LIST*
G04 #@! TA.AperFunction,ComponentPad*
%ADD10C,2.000000*%
G04 #@! TD*
G04 #@! TA.AperFunction,ComponentPad*
%ADD11R,1.700000X1.700000*%
G04 #@! TD*
G04 #@! TA.AperFunction,ComponentPad*
%ADD12C,1.700000*%
G04 #@! TD*
G04 #@! TA.AperFunction,ComponentPad*
%ADD13R,2.000000X2.000000*%
G04 #@! TD*
G04 #@! TA.AperFunction,ViaPad*
%ADD14C,0.800000*%
G04 #@! TD*
G04 #@! TA.AperFunction,ViaPad*
%ADD15C,0.600000*%
G04 #@! TD*
G04 #@! TA.AperFunction,Conductor*
%ADD16C,0.500000*%
G04 #@! TD*
G04 #@! TA.AperFunction,Conductor*
%ADD17C,0.250000*%
G04 #@! TD*
G04 APERTURE END LIST*
D10*
X99000000Y-75000000D03*
X105500000Y-75000000D03*
X99000000Y-79500000D03*
X105500000Y-79500000D03*
D11*
X10000000Y-8500000D03*
D12*
X10000000Y-5960000D03*
X12540000Y-8500000D03*
X12540000Y-5960000D03*
X15080000Y-8500000D03*
X15080000Y-5960000D03*
X17620000Y-8500000D03*
X17620000Y-5960000D03*
X20160000Y-8500000D03*
X20160000Y-5960000D03*
X22700000Y-8500000D03*
X22700000Y-5960000D03*
X25240000Y-8500000D03*
X25240000Y-5960000D03*
X27780000Y-8500000D03*
X27780000Y-5960000D03*
X30320000Y-8500000D03*
X30320000Y-5960000D03*
X32860000Y-8500000D03*
X32860000Y-5960000D03*
X35400000Y-8500000D03*
X35400000Y-5960000D03*
X37940000Y-8500000D03*
X37940000Y-5960000D03*
X40480000Y-8500000D03*
X40480000Y-5960000D03*
X43020000Y-8500000D03*
X43020000Y-5960000D03*
X45560000Y-8500000D03*
X45560000Y-5960000D03*
X48100000Y-8500000D03*
X48100000Y-5960000D03*
X50640000Y-8500000D03*
X50640000Y-5960000D03*
X53180000Y-8500000D03*
X53180000Y-5960000D03*
X55720000Y-8500000D03*
X55720000Y-5960000D03*
X58260000Y-8500000D03*
X58260000Y-5960000D03*
D11*
X103000000Y-44000000D03*
D12*
X103000000Y-46540000D03*
X103000000Y-49080000D03*
X103000000Y-51620000D03*
D13*
X121000000Y-74000000D03*
D10*
X128600000Y-74000000D03*
D14*
X48396800Y-48254000D03*
D15*
X102000000Y-36700600D03*
D14*
X48750800Y-44641800D03*
X125091800Y-15816800D03*
X124468800Y-4263800D03*
X99370300Y-64854700D03*
X102525100Y-59985700D03*
D15*
X104411600Y-52459000D03*
X109236000Y-50819000D03*
X107675000Y-64971400D03*
D14*
X60089300Y-71650000D03*
X113406400Y-84606400D03*
X92446600Y-70646600D03*
D15*
X6500000Y-35500000D03*
X104453400Y-34046600D03*
X73500000Y-16500000D03*
D14*
X56569600Y-65154000D03*
X36963800Y-43692600D03*
D15*
X5500000Y-47000000D03*
X67500000Y-85500000D03*
X73500000Y-40500000D03*
X33000000Y-85500000D03*
X32000000Y-35000000D03*
X130500000Y-9000000D03*
X5500000Y-72500000D03*
D14*
X46351400Y-45650000D03*
X25834800Y-70736200D03*
X105170100Y-50754600D03*
D15*
X105000000Y-23000000D03*
D14*
X111740400Y-68860000D03*
X23180200Y-48171300D03*
D15*
X91000000Y-17000000D03*
X130000000Y-48000000D03*
X78500000Y-32000000D03*
X33500000Y-77000000D03*
D14*
X109563400Y-10083200D03*
D15*
X28000000Y-40000000D03*
D14*
X23349600Y-30158700D03*
D15*
X68500000Y-67500000D03*
X38500000Y-64543500D03*
D14*
X47362300Y-30129600D03*
D15*
X104000000Y-9500000D03*
D14*
X15224200Y-65583800D03*
X102939400Y-55010600D03*
X26941600Y-66719200D03*
D15*
X56000000Y-45000000D03*
D14*
X105067200Y-21918000D03*
D15*
X18004600Y-16713100D03*
X17655100Y-19125200D03*
X20378400Y-29919700D03*
X21418600Y-19400000D03*
X17501500Y-20395400D03*
X13455300Y-34911100D03*
X19773300Y-20833100D03*
X12674600Y-36180800D03*
X26729200Y-17597500D03*
X23304600Y-17124900D03*
X12676400Y-37450800D03*
X27122200Y-18375200D03*
X22950800Y-19125200D03*
X12799800Y-38862100D03*
X26872400Y-19400000D03*
X24726700Y-20872300D03*
X26870800Y-20882200D03*
X14998700Y-39990800D03*
X32002200Y-17624500D03*
X41641600Y-39686300D03*
X28366100Y-18458700D03*
X42212100Y-39122800D03*
X32080700Y-18600000D03*
X28394300Y-19400000D03*
X32945500Y-19770600D03*
X42579500Y-38114600D03*
X17228900Y-39644400D03*
X10805700Y-17800000D03*
X7161000Y-18600000D03*
X30026700Y-20869900D03*
X32450000Y-20409100D03*
X41492100Y-37469200D03*
X43017400Y-35555000D03*
X37305800Y-17801200D03*
X33709500Y-17328400D03*
X33367000Y-18968800D03*
X43017400Y-32575400D03*
X37466500Y-19624800D03*
X35490900Y-20714300D03*
X42605700Y-17800000D03*
X39456700Y-28400300D03*
X40204300Y-28870900D03*
X42605500Y-18650200D03*
X38995400Y-19253800D03*
X41286900Y-10406400D03*
X38964700Y-20408600D03*
X41122900Y-21013200D03*
X37413000Y-34911800D03*
X37039400Y-36180800D03*
X47905700Y-17800000D03*
X9174800Y-20838100D03*
X18252700Y-38821200D03*
X7197000Y-19498400D03*
X44279800Y-18375200D03*
X48900700Y-19501200D03*
X37403400Y-37450800D03*
X43511200Y-18004400D03*
X48098800Y-19771000D03*
X36881700Y-39180200D03*
X44473300Y-20864400D03*
X46915500Y-21810400D03*
X39020300Y-39990800D03*
X53884400Y-17865700D03*
X67327300Y-39990800D03*
X49579800Y-18375200D03*
X48940300Y-17859000D03*
X53375800Y-19624800D03*
X65669300Y-37449600D03*
X54807300Y-21938200D03*
X67115700Y-36431800D03*
X53143700Y-20733500D03*
X63092800Y-18074800D03*
X67316100Y-34909700D03*
X54749900Y-18374100D03*
X59048800Y-18874800D03*
X67304500Y-33632200D03*
X56804500Y-17231200D03*
X58641900Y-19624800D03*
X66860800Y-32365200D03*
X11191400Y-19624800D03*
X18832000Y-38242000D03*
X7183100Y-20390200D03*
X54895900Y-20200000D03*
X19328200Y-37469200D03*
X10834600Y-20407900D03*
X16105700Y-17800000D03*
X19297800Y-36199200D03*
X19105900Y-34285000D03*
X16101700Y-18641500D03*
X14541400Y-10474800D03*
X12278400Y-19400000D03*
X18810000Y-33057100D03*
X16266400Y-19624800D03*
X14126700Y-20833500D03*
X19419000Y-30937900D03*
X16333300Y-20462500D03*
X21405700Y-17800000D03*
X17394100Y-27987100D03*
X103737300Y-35912300D03*
X105480000Y-20435000D03*
X16289000Y-45070800D03*
X33227800Y-46357600D03*
X105278400Y-17723400D03*
X99988500Y-35175000D03*
X89505700Y-72605700D03*
X114546800Y-81367600D03*
X18933400Y-69959600D03*
X21450100Y-69286000D03*
X20562800Y-71650000D03*
X21964000Y-70248800D03*
X50844300Y-71885000D03*
X60172800Y-68350000D03*
X98679000Y-60000000D03*
X125127000Y-53728700D03*
X25564400Y-54207900D03*
X16388700Y-69286000D03*
X16045200Y-84950000D03*
X15179200Y-56605900D03*
X51266400Y-32389200D03*
X18812000Y-56614700D03*
X18125000Y-83575200D03*
X15195900Y-57600000D03*
X52074400Y-33659200D03*
X19191000Y-57375200D03*
X19375000Y-83570500D03*
X16001100Y-60460400D03*
X51834700Y-34929200D03*
X19175300Y-58361200D03*
X20625000Y-83562600D03*
X16826700Y-59838500D03*
X51761700Y-36199200D03*
X19877200Y-58989600D03*
X22478200Y-83749900D03*
X27626900Y-56800000D03*
X51771400Y-37469200D03*
X31820800Y-56608000D03*
X27687600Y-57638800D03*
X23943000Y-85566900D03*
X32027300Y-57556300D03*
X51772600Y-38740300D03*
X48045200Y-84950000D03*
X28179800Y-58400000D03*
X73072500Y-54885900D03*
X91288700Y-41279200D03*
X49557900Y-83706600D03*
X29826700Y-59872900D03*
X31817100Y-59200000D03*
X90896200Y-40009200D03*
X47826700Y-56166100D03*
X51374900Y-83591500D03*
X49818700Y-56608000D03*
X90125600Y-38739200D03*
X52195000Y-83569200D03*
X46194300Y-57600000D03*
X67926900Y-57375200D03*
X91328200Y-37469200D03*
X53875000Y-83596800D03*
X46168700Y-58543800D03*
X90896200Y-36209700D03*
X50220500Y-58128500D03*
X55941200Y-84950000D03*
X47826700Y-59836800D03*
X67630800Y-58573200D03*
X90655200Y-35407900D03*
X77826700Y-56163200D03*
X80056700Y-85489800D03*
X81984900Y-32430200D03*
X79818500Y-56608200D03*
X81643600Y-83603100D03*
X76194300Y-57600000D03*
X80187300Y-57375200D03*
X82028200Y-33659200D03*
X76195400Y-58636900D03*
X83376500Y-83574500D03*
X80187300Y-58623200D03*
X81751100Y-34929200D03*
X84360600Y-83585300D03*
X77826700Y-59834900D03*
X81821800Y-35867900D03*
X79817100Y-59390400D03*
X89191400Y-56618100D03*
X85875000Y-83566300D03*
X91173300Y-56164300D03*
X84907100Y-35746500D03*
X89194300Y-57600000D03*
X87954800Y-84950000D03*
X92820200Y-57600000D03*
X84689700Y-38737600D03*
D16*
X48396800Y-48254000D02*
X48750800Y-47900000D01*
X103000000Y-46540000D02*
X104354900Y-45185100D01*
X104208000Y-36700600D02*
X102000000Y-36700600D01*
X104354900Y-36847500D02*
X104208000Y-36700600D01*
X104354900Y-45185100D02*
X104354900Y-36847500D01*
X125091800Y-15816800D02*
X104208000Y-36700600D01*
X48750800Y-47900000D02*
X48750800Y-44641800D01*
X121000000Y-74000000D02*
X121000000Y-72548300D01*
X125976900Y-67571400D02*
X121000000Y-72548300D01*
X99370300Y-63140500D02*
X99370300Y-64854700D01*
X102525100Y-59985700D02*
X99370300Y-63140500D01*
X124468800Y-4263800D02*
X125976900Y-5771900D01*
X125976900Y-5771900D02*
X125976900Y-67571400D01*
D17*
X98048200Y-58822400D02*
X104411600Y-52459000D01*
X98048200Y-74048200D02*
X98048200Y-58822400D01*
X99000000Y-75000000D02*
X98048200Y-74048200D01*
X109236000Y-63410400D02*
X107675000Y-64971400D01*
X109236000Y-50819000D02*
X109236000Y-63410400D01*
D16*
X99000000Y-77200000D02*
X92446600Y-70646600D01*
X109563400Y-17421800D02*
X109563400Y-10083200D01*
X111740400Y-68860000D02*
X111740400Y-76328100D01*
X47362300Y-30129600D02*
X50128800Y-30129600D01*
X102939400Y-55010600D02*
X105170100Y-52779900D01*
X15224200Y-59015300D02*
X15224200Y-65583800D01*
X36883500Y-43692600D02*
X36963800Y-43692600D01*
X108568500Y-79768500D02*
X113406400Y-84606400D01*
X105067200Y-21918000D02*
X109563400Y-17421800D01*
X25834800Y-70736200D02*
X25834800Y-67826000D01*
X58581500Y-67165900D02*
X58581500Y-70142200D01*
X25834800Y-67826000D02*
X26941600Y-66719200D01*
X108568500Y-79500000D02*
X108568500Y-79768500D01*
X23180200Y-51059300D02*
X15224200Y-59015300D01*
X58581500Y-70142200D02*
X60089300Y-71650000D01*
X105170100Y-52779900D02*
X105170100Y-50754600D01*
X23349600Y-30158700D02*
X36883500Y-43692600D01*
X99000000Y-79500000D02*
X99000000Y-77200000D01*
X50128800Y-30129600D02*
X52831400Y-32832200D01*
X56569600Y-65154000D02*
X58581500Y-67165900D01*
X52831400Y-32832200D02*
X52831400Y-39170000D01*
X52831400Y-39170000D02*
X46351400Y-45650000D01*
X23180200Y-48171300D02*
X23180200Y-51059300D01*
X108568500Y-79500000D02*
X105500000Y-79500000D01*
X111740400Y-76328100D02*
X108568500Y-79500000D01*
D17*
X18888500Y-7231500D02*
X18888500Y-15829200D01*
X18888500Y-15829200D02*
X18004600Y-16713100D01*
X20160000Y-5960000D02*
X18888500Y-7231500D01*
X22700000Y-8500000D02*
X22700000Y-14080300D01*
X22700000Y-14080300D02*
X17655100Y-19125200D01*
X20378400Y-29919700D02*
X20378400Y-23063900D01*
X21418600Y-22023700D02*
X21418600Y-19400000D01*
X20378400Y-23063900D02*
X21418600Y-22023700D01*
X21430000Y-7230000D02*
X22700000Y-5960000D01*
X17501500Y-20395400D02*
X17022000Y-19915900D01*
X17022000Y-19915900D02*
X17022000Y-18633300D01*
X17022000Y-18633300D02*
X21430000Y-14225300D01*
X21430000Y-14225300D02*
X21430000Y-7230000D01*
X19751700Y-30179200D02*
X20079600Y-30507100D01*
X18466100Y-39494300D02*
X18038500Y-39494300D01*
X18038500Y-39494300D02*
X13455300Y-34911100D01*
X19773300Y-20833100D02*
X19751700Y-20854700D01*
X20079600Y-37880800D02*
X18466100Y-39494300D01*
X20079600Y-30507100D02*
X20079600Y-37880800D01*
X19751700Y-20854700D02*
X19751700Y-30179200D01*
X26244100Y-18082600D02*
X26729200Y-17597500D01*
X20677100Y-30507300D02*
X21005100Y-30179300D01*
X18306500Y-40292800D02*
X20677100Y-37922200D01*
X20677100Y-37922200D02*
X20677100Y-30507300D01*
X24874100Y-22252100D02*
X26244100Y-20882100D01*
X21005100Y-30179300D02*
X21005100Y-26001300D01*
X24754300Y-22252100D02*
X24874100Y-22252100D01*
X16786600Y-40292800D02*
X18306500Y-40292800D01*
X26244100Y-20882100D02*
X26244100Y-18082600D01*
X21005100Y-26001300D02*
X24754300Y-22252100D01*
X12674600Y-36180800D02*
X16786600Y-40292800D01*
X24022400Y-7177600D02*
X25240000Y-5960000D01*
X23304600Y-17124900D02*
X24022400Y-16407100D01*
X24022400Y-16407100D02*
X24022400Y-7177600D01*
X27950800Y-24376100D02*
X22443200Y-29883700D01*
X14627300Y-41647900D02*
X12114600Y-39135200D01*
X27610200Y-18863200D02*
X27610200Y-20094900D01*
X27122200Y-18375200D02*
X27610200Y-18863200D01*
X12114600Y-38012600D02*
X12676400Y-37450800D01*
X27610200Y-20094900D02*
X27950800Y-20435500D01*
X12114600Y-39135200D02*
X12114600Y-38012600D01*
X22443200Y-38072500D02*
X18867800Y-41647900D01*
X22443200Y-29883700D02*
X22443200Y-38072500D01*
X18867800Y-41647900D02*
X14627300Y-41647900D01*
X27950800Y-20435500D02*
X27950800Y-24376100D01*
X25979500Y-14974100D02*
X26244100Y-14709500D01*
X26495700Y-9784300D02*
X26497800Y-9784300D01*
X26205100Y-10074900D02*
X26495700Y-9784300D01*
X22950800Y-20064300D02*
X24410200Y-21523700D01*
X26497800Y-9784300D02*
X26961700Y-9320400D01*
X25792400Y-20694900D02*
X25792400Y-14974100D01*
X26244100Y-14709500D02*
X26244100Y-10113900D01*
X26961700Y-9320400D02*
X26961700Y-9318300D01*
X24963600Y-21523700D02*
X25792400Y-20694900D01*
X24410200Y-21523700D02*
X24963600Y-21523700D01*
X26961700Y-9318300D02*
X27780000Y-8500000D01*
X26244100Y-10113900D02*
X26205100Y-10074900D01*
X22950800Y-19125200D02*
X22950800Y-20064300D01*
X25792400Y-14974100D02*
X25979500Y-14974100D01*
X21580500Y-38296400D02*
X21580500Y-30881500D01*
X12799800Y-38862100D02*
X15133900Y-41196200D01*
X21908500Y-30553500D02*
X21908500Y-26732400D01*
X27497600Y-20621200D02*
X26872400Y-19996000D01*
X21908500Y-26732400D02*
X27497600Y-21143300D01*
X15133900Y-41196200D02*
X18680700Y-41196200D01*
X18680700Y-41196200D02*
X21580500Y-38296400D01*
X21580500Y-30881500D02*
X21908500Y-30553500D01*
X27497600Y-21143300D02*
X27497600Y-20621200D01*
X26872400Y-19996000D02*
X26872400Y-19400000D01*
X26458000Y-7282000D02*
X27780000Y-5960000D01*
X26458000Y-9064600D02*
X26458000Y-7282000D01*
X24726700Y-20872300D02*
X24726700Y-10795900D01*
X24726700Y-10795900D02*
X26458000Y-9064600D01*
X21456800Y-30366400D02*
X21456800Y-26308200D01*
X26870800Y-20894200D02*
X26870800Y-20882200D01*
X21128800Y-30694400D02*
X21456800Y-30366400D01*
X21456800Y-26308200D02*
X26870800Y-20894200D01*
X18493600Y-40744500D02*
X21128800Y-38109300D01*
X15752400Y-40744500D02*
X18493600Y-40744500D01*
X14998700Y-39990800D02*
X15752400Y-40744500D01*
X21128800Y-38109300D02*
X21128800Y-30694400D01*
X36710600Y-33168600D02*
X39000500Y-35458500D01*
X32002200Y-17624500D02*
X31326800Y-18299900D01*
X41342600Y-38845000D02*
X41342600Y-39387300D01*
X41342600Y-39387300D02*
X41641600Y-39686300D01*
X39000500Y-36502900D02*
X41342600Y-38845000D01*
X39000500Y-35458500D02*
X39000500Y-36502900D01*
X31326800Y-27914000D02*
X36581400Y-33168600D01*
X31326800Y-18299900D02*
X31326800Y-27914000D01*
X36581400Y-33168600D02*
X36710600Y-33168600D01*
X29050000Y-17774800D02*
X28366100Y-18458700D01*
X29050000Y-7230000D02*
X29050000Y-17774800D01*
X30320000Y-5960000D02*
X29050000Y-7230000D01*
X31823200Y-25382400D02*
X31823200Y-18857500D01*
X42212100Y-39122800D02*
X42212100Y-39075700D01*
X31823200Y-18857500D02*
X32080700Y-18600000D01*
X39452200Y-36315800D02*
X39452200Y-33011400D01*
X42212100Y-39075700D02*
X39452200Y-36315800D01*
X39452200Y-33011400D02*
X31823200Y-25382400D01*
X28394300Y-19400000D02*
X28394300Y-20124000D01*
X29772500Y-21502200D02*
X30306200Y-21502200D01*
X28394300Y-20124000D02*
X29772500Y-21502200D01*
X32860000Y-15806700D02*
X32860000Y-8500000D01*
X30306200Y-21502200D02*
X30813700Y-20994700D01*
X30813700Y-17853000D02*
X32860000Y-15806700D01*
X30813700Y-20994700D02*
X30813700Y-17853000D01*
X40604200Y-35695000D02*
X42579500Y-37670300D01*
X35865900Y-26973300D02*
X40604200Y-31711600D01*
X42579500Y-37670300D02*
X42579500Y-38114600D01*
X40604200Y-31711600D02*
X40604200Y-35695000D01*
X32945500Y-19770600D02*
X35865900Y-22691000D01*
X35865900Y-22691000D02*
X35865900Y-26973300D01*
X8545200Y-20060500D02*
X10805700Y-17800000D01*
X17228900Y-39644400D02*
X8545200Y-30960700D01*
X8545200Y-30960700D02*
X8545200Y-20060500D01*
X7161000Y-8799000D02*
X7161000Y-18600000D01*
X10000000Y-5960000D02*
X7161000Y-8799000D01*
X31590000Y-12455000D02*
X30026700Y-14018300D01*
X30026700Y-14018300D02*
X30026700Y-20869900D01*
X32860000Y-5960000D02*
X31590000Y-7230000D01*
X31590000Y-7230000D02*
X31590000Y-12455000D01*
X32450000Y-20409100D02*
X32450000Y-24998200D01*
X40106600Y-32654800D02*
X40106600Y-36083700D01*
X40106600Y-36083700D02*
X41492100Y-37469200D01*
X32450000Y-24998200D02*
X40106600Y-32654800D01*
X41988800Y-32356000D02*
X41988800Y-34526400D01*
X36824500Y-18282500D02*
X36824500Y-26887600D01*
X38378300Y-28846900D02*
X39010100Y-29478700D01*
X37305800Y-17801200D02*
X36824500Y-18282500D01*
X38378300Y-28441400D02*
X38378300Y-28846900D01*
X39111500Y-29478700D02*
X41988800Y-32356000D01*
X41988800Y-34526400D02*
X43017400Y-35555000D01*
X39010100Y-29478700D02*
X39111500Y-29478700D01*
X36824500Y-26887600D02*
X38378300Y-28441400D01*
X34130000Y-7230000D02*
X34130000Y-16907900D01*
X34130000Y-16907900D02*
X33709500Y-17328400D01*
X35400000Y-5960000D02*
X34130000Y-7230000D01*
X37940000Y-14395800D02*
X33367000Y-18968800D01*
X37940000Y-8500000D02*
X37940000Y-14395800D01*
X38830000Y-28120800D02*
X38830000Y-28659800D01*
X37466500Y-26757300D02*
X38830000Y-28120800D01*
X39469000Y-29027000D02*
X43017400Y-32575400D01*
X37466500Y-19624800D02*
X37466500Y-26757300D01*
X38830000Y-28659800D02*
X39197200Y-29027000D01*
X39197200Y-29027000D02*
X39469000Y-29027000D01*
X39130600Y-15089900D02*
X35490900Y-18729600D01*
X37940000Y-5960000D02*
X39130600Y-7150600D01*
X39130600Y-7150600D02*
X39130600Y-15089900D01*
X35490900Y-18729600D02*
X35490900Y-20714300D01*
X42468900Y-17800000D02*
X42605700Y-17800000D01*
X39456700Y-28400300D02*
X39456700Y-20812200D01*
X39456700Y-20812200D02*
X42468900Y-17800000D01*
X42605500Y-18650200D02*
X42576400Y-18650200D01*
X40204300Y-21022300D02*
X40204300Y-28870900D01*
X42576400Y-18650200D02*
X40204300Y-21022300D01*
X41286900Y-10406400D02*
X41286900Y-16962300D01*
X41286900Y-16962300D02*
X38995400Y-19253800D01*
X41913600Y-10146800D02*
X41750000Y-9983200D01*
X41750000Y-7230000D02*
X43020000Y-5960000D01*
X41750000Y-9983200D02*
X41750000Y-7230000D01*
X38964700Y-20408600D02*
X41913600Y-17459700D01*
X41913600Y-17459700D02*
X41913600Y-10146800D01*
X44095900Y-23986200D02*
X41122900Y-21013200D01*
X41680800Y-40540600D02*
X42603000Y-39618400D01*
X42838800Y-38741800D02*
X43644200Y-37936400D01*
X37413000Y-34911800D02*
X37413000Y-35554300D01*
X42603000Y-39618400D02*
X42603000Y-39618200D01*
X41609400Y-40540600D02*
X41680800Y-40540600D01*
X44095900Y-31406800D02*
X44095900Y-23986200D01*
X37413000Y-35554300D02*
X40890900Y-39032200D01*
X42603000Y-39618200D02*
X42838800Y-39382400D01*
X43644200Y-37936400D02*
X43644200Y-31858500D01*
X43644200Y-31858500D02*
X44095900Y-31406800D01*
X40890900Y-39822100D02*
X41609400Y-40540600D01*
X42838800Y-39382400D02*
X42838800Y-38741800D01*
X40890900Y-39032200D02*
X40890900Y-39822100D01*
X40439200Y-40009200D02*
X41422300Y-40992300D01*
X46504800Y-19839600D02*
X47905700Y-18438700D01*
X47905700Y-18438700D02*
X47905700Y-17800000D01*
X44648300Y-22473700D02*
X46504800Y-20617200D01*
X43290500Y-38928900D02*
X44095900Y-38123500D01*
X41867900Y-40992300D02*
X43054700Y-39805500D01*
X46504800Y-20617200D02*
X46504800Y-19839600D01*
X43290500Y-39569500D02*
X43290500Y-38928900D01*
X41422300Y-40992300D02*
X41867900Y-40992300D01*
X43054700Y-39805500D02*
X43054700Y-39805300D01*
X43054700Y-39805300D02*
X43290500Y-39569500D01*
X40439200Y-39580600D02*
X40439200Y-40009200D01*
X44095900Y-38123500D02*
X44095900Y-32270500D01*
X44648300Y-31718100D02*
X44648300Y-22473700D01*
X44095900Y-32270500D02*
X44648300Y-31718100D01*
X37039400Y-36180800D02*
X40439200Y-39580600D01*
X16714400Y-37282900D02*
X16714400Y-36431800D01*
X16714400Y-36431800D02*
X9174800Y-28892200D01*
X18252700Y-38821200D02*
X16714400Y-37282900D01*
X9174800Y-28892200D02*
X9174800Y-20838100D01*
X12540000Y-14155400D02*
X7197000Y-19498400D01*
X12540000Y-8500000D02*
X12540000Y-14155400D01*
X44279800Y-7240200D02*
X45560000Y-5960000D01*
X44279800Y-18375200D02*
X44279800Y-7240200D01*
X39828200Y-40116400D02*
X41155800Y-41444000D01*
X43742200Y-39118000D02*
X45098500Y-37761700D01*
X42055000Y-41444000D02*
X43506500Y-39992500D01*
X45098500Y-37761700D02*
X45098500Y-31906800D01*
X46956500Y-20882800D02*
X46956500Y-20026800D01*
X43506500Y-39992500D02*
X43506500Y-39992300D01*
X43506500Y-39992300D02*
X43742200Y-39756600D01*
X41155800Y-41444000D02*
X42055000Y-41444000D01*
X43742200Y-39756600D02*
X43742200Y-39118000D01*
X39828200Y-39875600D02*
X39828200Y-40116400D01*
X45100000Y-22739300D02*
X46956500Y-20882800D01*
X37403400Y-37450800D02*
X39828200Y-39875600D01*
X48503500Y-19104000D02*
X48900700Y-19501200D01*
X46956500Y-20026800D02*
X47879300Y-19104000D01*
X45100000Y-31905300D02*
X45100000Y-22739300D01*
X45098500Y-31906800D02*
X45100000Y-31905300D01*
X47879300Y-19104000D02*
X48503500Y-19104000D01*
X48100000Y-8500000D02*
X48100000Y-16564200D01*
X46779500Y-17884700D02*
X46779500Y-18679100D01*
X44712600Y-21542300D02*
X44201300Y-21542300D01*
X46779500Y-18679100D02*
X46001400Y-19457200D01*
X43511200Y-20852200D02*
X43511200Y-18004400D01*
X46001400Y-20253500D02*
X44712600Y-21542300D01*
X44201300Y-21542300D02*
X43511200Y-20852200D01*
X48100000Y-16564200D02*
X46779500Y-17884700D01*
X46001400Y-19457200D02*
X46001400Y-20253500D01*
X40048900Y-42347400D02*
X42429200Y-42347400D01*
X46003400Y-32279500D02*
X46003400Y-30094200D01*
X44409900Y-40366700D02*
X44409900Y-40366500D01*
X46001900Y-32281000D02*
X46003400Y-32279500D01*
X36881700Y-39180200D02*
X40048900Y-42347400D01*
X42429200Y-42347400D02*
X44409900Y-40366700D01*
X44645600Y-40130800D02*
X44645600Y-39545900D01*
X44645600Y-39545900D02*
X46001900Y-38189600D01*
X46001900Y-38189600D02*
X46001900Y-32281000D01*
X48098800Y-27998800D02*
X48098800Y-19771000D01*
X44409900Y-40366500D02*
X44645600Y-40130800D01*
X46003400Y-30094200D02*
X48098800Y-27998800D01*
X46923300Y-17102100D02*
X44473300Y-19552100D01*
X48100000Y-5960000D02*
X46923300Y-7136700D01*
X44473300Y-19552100D02*
X44473300Y-20864400D01*
X46923300Y-7136700D02*
X46923300Y-17102100D01*
X40925200Y-41895700D02*
X42242100Y-41895700D01*
X42242100Y-41895700D02*
X43958200Y-40179600D01*
X44193900Y-39305200D02*
X45550200Y-37948900D01*
X43958200Y-40179600D02*
X43958200Y-40179400D01*
X44193900Y-39943700D02*
X44193900Y-39305200D01*
X45551700Y-23174200D02*
X46915500Y-21810400D01*
X45550200Y-32093900D02*
X45551700Y-32092400D01*
X45551700Y-32092400D02*
X45551700Y-23174200D01*
X45550200Y-37948900D02*
X45550200Y-32093900D01*
X39020300Y-39990800D02*
X40925200Y-41895700D01*
X43958200Y-40179400D02*
X44193900Y-39943700D01*
X54074500Y-22671000D02*
X54074500Y-18550000D01*
X67966000Y-39352100D02*
X67966000Y-36323600D01*
X67327300Y-39990800D02*
X67966000Y-39352100D01*
X67207300Y-35803800D02*
X54074500Y-22671000D01*
X67966000Y-36323600D02*
X67446200Y-35803800D01*
X53884400Y-18359900D02*
X53884400Y-17865700D01*
X67446200Y-35803800D02*
X67207300Y-35803800D01*
X54074500Y-18550000D02*
X53884400Y-18359900D01*
X49449700Y-7150300D02*
X49449700Y-15724000D01*
X49449700Y-15724000D02*
X49579800Y-15854100D01*
X49579800Y-15854100D02*
X49579800Y-18375200D01*
X50640000Y-5960000D02*
X49449700Y-7150300D01*
X53180000Y-15670900D02*
X49823400Y-19027500D01*
X48940300Y-18636500D02*
X48940300Y-17859000D01*
X49331300Y-19027500D02*
X48940300Y-18636500D01*
X49823400Y-19027500D02*
X49331300Y-19027500D01*
X53180000Y-8500000D02*
X53180000Y-15670900D01*
X52496000Y-24276300D02*
X65669300Y-37449600D01*
X52496000Y-20409700D02*
X52496000Y-24276300D01*
X53280900Y-19624800D02*
X52496000Y-20409700D01*
X53375800Y-19624800D02*
X53280900Y-19624800D01*
X53180000Y-5960000D02*
X54366300Y-4773700D01*
X58763300Y-4773700D02*
X59436700Y-5447100D01*
X59436700Y-5447100D02*
X59436700Y-17308800D01*
X59436700Y-17308800D02*
X54807300Y-21938200D01*
X54366300Y-4773700D02*
X58763300Y-4773700D01*
X53143700Y-20733500D02*
X53143700Y-22459800D01*
X53143700Y-22459800D02*
X67115700Y-36431800D01*
X67944000Y-31923100D02*
X67944000Y-34281800D01*
X63092800Y-18074800D02*
X63092800Y-27071900D01*
X63092800Y-27071900D02*
X67944000Y-31923100D01*
X67944000Y-34281800D02*
X67316100Y-34909700D01*
X54524700Y-7155300D02*
X54524700Y-18148900D01*
X54524700Y-18148900D02*
X54749900Y-18374100D01*
X55720000Y-5960000D02*
X54524700Y-7155300D01*
X59048800Y-18874800D02*
X62280500Y-22106500D01*
X62280500Y-26898500D02*
X67492300Y-32110300D01*
X62280500Y-22106500D02*
X62280500Y-26898500D01*
X67492300Y-33444400D02*
X67304500Y-33632200D01*
X67492300Y-32110300D02*
X67492300Y-33444400D01*
X58260000Y-15775700D02*
X56804500Y-17231200D01*
X58260000Y-8500000D02*
X58260000Y-15775700D01*
X58641900Y-19624800D02*
X58641900Y-24146300D01*
X58641900Y-24146300D02*
X66860800Y-32365200D01*
X10186400Y-26798600D02*
X14803100Y-31415300D01*
X10643200Y-19624800D02*
X10186400Y-20081600D01*
X14803100Y-31415300D02*
X14803100Y-33881700D01*
X18832000Y-37910600D02*
X18832000Y-38242000D01*
X11191400Y-19624800D02*
X10643200Y-19624800D01*
X14803100Y-33881700D02*
X18832000Y-37910600D01*
X10186400Y-20081600D02*
X10186400Y-26798600D01*
X7183100Y-20390200D02*
X7257200Y-20390200D01*
X7257200Y-20390200D02*
X13730600Y-13916800D01*
X13730600Y-13916800D02*
X13730600Y-7150600D01*
X13730600Y-7150600D02*
X12540000Y-5960000D01*
X58260000Y-5960000D02*
X56990000Y-7230000D01*
X56990000Y-7230000D02*
X56990000Y-12411500D01*
X56990000Y-12411500D02*
X55431900Y-13969600D01*
X55431900Y-13969600D02*
X55431900Y-19664000D01*
X55431900Y-19664000D02*
X54895900Y-20200000D01*
X10834600Y-20407900D02*
X10834600Y-26621000D01*
X15254800Y-33395800D02*
X19328200Y-37469200D01*
X10834600Y-26621000D02*
X15254800Y-31041200D01*
X15254800Y-31041200D02*
X15254800Y-33395800D01*
X16885800Y-31993900D02*
X14803100Y-29911200D01*
X16885800Y-33787200D02*
X16885800Y-31993900D01*
X19297800Y-36199200D02*
X16885800Y-33787200D01*
X14803100Y-18973300D02*
X15976400Y-17800000D01*
X15976400Y-17800000D02*
X16105700Y-17800000D01*
X14803100Y-29911200D02*
X14803100Y-18973300D01*
X17389200Y-31858500D02*
X15254800Y-29724100D01*
X15254800Y-29724100D02*
X15254800Y-19488400D01*
X17389200Y-32568300D02*
X17389200Y-31858500D01*
X15254800Y-19488400D02*
X16101700Y-18641500D01*
X19105900Y-34285000D02*
X17389200Y-32568300D01*
X14541400Y-10474800D02*
X14541400Y-14175300D01*
X14541400Y-14175300D02*
X12278400Y-16438300D01*
X12278400Y-16438300D02*
X12278400Y-19400000D01*
X15706500Y-29537000D02*
X15706500Y-20184700D01*
X18810000Y-33057100D02*
X18810000Y-32640500D01*
X15706500Y-20184700D02*
X16266400Y-19624800D01*
X18810000Y-32640500D02*
X15706500Y-29537000D01*
X16350000Y-7230000D02*
X16350000Y-15388600D01*
X17620000Y-5960000D02*
X16350000Y-7230000D01*
X14126700Y-17611900D02*
X14126700Y-20833500D01*
X16350000Y-15388600D02*
X14126700Y-17611900D01*
X16333300Y-27852200D02*
X19419000Y-30937900D01*
X16333300Y-20462500D02*
X16333300Y-27852200D01*
X17394100Y-21811600D02*
X17394100Y-27987100D01*
X21405700Y-17800000D02*
X17394100Y-21811600D01*
X101873900Y-35912300D02*
X103737300Y-35912300D01*
X31941000Y-45070800D02*
X33227800Y-46357600D01*
X103000000Y-49080000D02*
X101342500Y-47422500D01*
X101342500Y-36443700D02*
X101873900Y-35912300D01*
X103737300Y-35912300D02*
X103737300Y-22177700D01*
X16289000Y-45070800D02*
X31941000Y-45070800D01*
X103737300Y-22177700D02*
X105480000Y-20435000D01*
X101342500Y-47422500D02*
X101342500Y-36443700D01*
X99988500Y-48608500D02*
X99988500Y-35175000D01*
X99988500Y-23013300D02*
X99988500Y-35175000D01*
X103000000Y-51620000D02*
X99988500Y-48608500D01*
X105278400Y-17723400D02*
X99988500Y-23013300D01*
X102257000Y-85357000D02*
X89505700Y-72605700D01*
X114546800Y-81367600D02*
X114546800Y-84554200D01*
X114546800Y-84554200D02*
X113744000Y-85357000D01*
X113744000Y-85357000D02*
X102257000Y-85357000D01*
X19607000Y-69286000D02*
X18933400Y-69959600D01*
X21450100Y-69286000D02*
X19607000Y-69286000D01*
X20562800Y-71650000D02*
X21964000Y-70248800D01*
X51356800Y-72397500D02*
X50844300Y-71885000D01*
X60853700Y-71945000D02*
X60401200Y-72397500D01*
X60401200Y-72397500D02*
X51356800Y-72397500D01*
X60172800Y-68350000D02*
X60853700Y-69030900D01*
X60853700Y-69030900D02*
X60853700Y-71945000D01*
X98679000Y-60000000D02*
X99003900Y-60000000D01*
X108812900Y-50191000D02*
X121589300Y-50191000D01*
X99003900Y-60000000D02*
X108812900Y-50191000D01*
X121589300Y-50191000D02*
X125127000Y-53728700D01*
X25564400Y-54207900D02*
X25564400Y-60110300D01*
X25564400Y-60110300D02*
X16388700Y-69286000D01*
X13990300Y-82895100D02*
X16045200Y-84950000D01*
X15179200Y-56605900D02*
X13990300Y-57794800D01*
X13990300Y-57794800D02*
X13990300Y-82895100D01*
X44861600Y-40553800D02*
X44861600Y-40553600D01*
X44861600Y-40553600D02*
X45097300Y-40317900D01*
X42070600Y-42799100D02*
X42616300Y-42799100D01*
X46453600Y-38416100D02*
X46453600Y-37202000D01*
X46453600Y-37202000D02*
X51266400Y-32389200D01*
X18812000Y-56614700D02*
X28442400Y-46984300D01*
X45097300Y-40317900D02*
X45097300Y-39772400D01*
X45097300Y-39772400D02*
X46453600Y-38416100D01*
X42616300Y-42799100D02*
X44861600Y-40553800D01*
X28442400Y-46984300D02*
X37885400Y-46984300D01*
X37885400Y-46984300D02*
X42070600Y-42799100D01*
X14475900Y-58320000D02*
X15195900Y-57600000D01*
X18125000Y-83575200D02*
X14475900Y-79926100D01*
X14475900Y-79926100D02*
X14475900Y-58320000D01*
X29130100Y-47436100D02*
X38618100Y-47436100D01*
X19191000Y-57375200D02*
X29130100Y-47436100D01*
X45549000Y-40505200D02*
X45549000Y-40184600D01*
X38618100Y-47436100D02*
X45549000Y-40505200D01*
X45549000Y-40184600D02*
X52074400Y-33659200D01*
X15310200Y-66525600D02*
X16001100Y-65834700D01*
X15310200Y-79505700D02*
X15310200Y-66525600D01*
X16001100Y-65834700D02*
X16001100Y-60460400D01*
X19375000Y-83570500D02*
X15310200Y-79505700D01*
X19175300Y-58361200D02*
X26825700Y-50710800D01*
X26825700Y-50710800D02*
X36053200Y-50710800D01*
X36053200Y-50710700D02*
X51834700Y-34929200D01*
X36053200Y-50710800D02*
X36053200Y-50710700D01*
X20625000Y-83562600D02*
X15761900Y-78699500D01*
X16826700Y-67839700D02*
X16826700Y-59838500D01*
X15761900Y-78699500D02*
X15761900Y-68904500D01*
X15761900Y-68904500D02*
X16826700Y-67839700D01*
X27224100Y-51642700D02*
X35797500Y-51642700D01*
X35797500Y-51642700D02*
X51241000Y-36199200D01*
X51241000Y-36199200D02*
X51761700Y-36199200D01*
X19877200Y-58989600D02*
X27224100Y-51642700D01*
X26162700Y-58264200D02*
X27626900Y-56800000D01*
X22590700Y-83637400D02*
X22590700Y-67683900D01*
X26162700Y-64111900D02*
X26162700Y-58264200D01*
X22590700Y-67683900D02*
X26162700Y-64111900D01*
X22478200Y-83749900D02*
X22590700Y-83637400D01*
X31820800Y-56608000D02*
X50959600Y-37469200D01*
X50959600Y-37469200D02*
X51771400Y-37469200D01*
X27668300Y-66418200D02*
X27326800Y-66076700D01*
X23943000Y-85566900D02*
X27326800Y-82183100D01*
X27326800Y-67361700D02*
X27668300Y-67020200D01*
X27668300Y-67020200D02*
X27668300Y-66418200D01*
X27326800Y-57999600D02*
X27687600Y-57638800D01*
X27326800Y-66076700D02*
X27326800Y-57999600D01*
X27326800Y-82183100D02*
X27326800Y-67361700D01*
X50843200Y-38740400D02*
X32027300Y-57556300D01*
X51772600Y-38740400D02*
X50843200Y-38740400D01*
X51772600Y-38740300D02*
X51772600Y-38740400D01*
X48045200Y-84950000D02*
X28179800Y-65084600D01*
X28179800Y-65084600D02*
X28179800Y-58400000D01*
X73072500Y-54885900D02*
X89854200Y-38104200D01*
X90440300Y-38104200D02*
X91523000Y-39186900D01*
X91523000Y-39186900D02*
X91523000Y-41044900D01*
X91523000Y-41044900D02*
X91288700Y-41279200D01*
X89854200Y-38104200D02*
X90440300Y-38104200D01*
X29826700Y-63975400D02*
X29826700Y-59872900D01*
X49557900Y-83706600D02*
X29826700Y-63975400D01*
X35509100Y-55508000D02*
X31817100Y-59200000D01*
X70802000Y-60103400D02*
X50549400Y-60103400D01*
X48076600Y-55508000D02*
X35509100Y-55508000D01*
X48732700Y-58286700D02*
X48732700Y-56164100D01*
X90896200Y-40009200D02*
X70802000Y-60103400D01*
X50549400Y-60103400D02*
X48732700Y-58286700D01*
X48732700Y-56164100D02*
X48076600Y-55508000D01*
X46698800Y-56166100D02*
X47826700Y-56166100D01*
X51374900Y-83591500D02*
X45029600Y-77246200D01*
X45029600Y-57835300D02*
X46698800Y-56166100D01*
X45029600Y-77246200D02*
X45029600Y-57835300D01*
X90015500Y-38739200D02*
X73699200Y-55055500D01*
X69193000Y-59651700D02*
X50771900Y-59651700D01*
X73699200Y-55055500D02*
X73699200Y-55145500D01*
X49592300Y-56834400D02*
X49818700Y-56608000D01*
X90125600Y-38739200D02*
X90015500Y-38739200D01*
X49592300Y-58472100D02*
X49592300Y-56834400D01*
X50771900Y-59651700D02*
X49592300Y-58472100D01*
X73699200Y-55145500D02*
X69193000Y-59651700D01*
X45511300Y-58283000D02*
X46194300Y-57600000D01*
X52195000Y-83569200D02*
X52195000Y-82852600D01*
X52195000Y-82852600D02*
X45511300Y-76168900D01*
X45511300Y-76168900D02*
X45511300Y-58283000D01*
X91523000Y-35389400D02*
X91523000Y-37274400D01*
X91523000Y-37274400D02*
X91328200Y-37469200D01*
X90395700Y-34781200D02*
X90914800Y-34781200D01*
X67926900Y-57375200D02*
X67926900Y-57250000D01*
X90914800Y-34781200D02*
X91523000Y-35389400D01*
X67926900Y-57250000D02*
X90395700Y-34781200D01*
X49585300Y-79307100D02*
X53875000Y-83596800D01*
X46168700Y-58543800D02*
X46168700Y-66091400D01*
X49585300Y-69508000D02*
X49585300Y-79307100D01*
X46168700Y-66091400D02*
X49585300Y-69508000D01*
X50220500Y-58128500D02*
X51292000Y-59200000D01*
X90862500Y-36209700D02*
X90896200Y-36209700D01*
X68275000Y-58797200D02*
X90862500Y-36209700D01*
X67973000Y-59200000D02*
X68275000Y-58898000D01*
X51292000Y-59200000D02*
X67973000Y-59200000D01*
X68275000Y-58898000D02*
X68275000Y-58797200D01*
X50128100Y-74197300D02*
X50128100Y-62138200D01*
X55941200Y-84950000D02*
X55941200Y-80010400D01*
X50128100Y-62138200D02*
X47826700Y-59836800D01*
X55941200Y-80010400D02*
X50128100Y-74197300D01*
X90655200Y-35548800D02*
X90655200Y-35407900D01*
X67630800Y-58573200D02*
X90655200Y-35548800D01*
X80056700Y-85489800D02*
X74738100Y-80171200D01*
X74738100Y-80171200D02*
X74738100Y-58142700D01*
X76717600Y-56163200D02*
X77826700Y-56163200D01*
X74738100Y-58142700D02*
X76717600Y-56163200D01*
X90112000Y-34296100D02*
X89805600Y-34296100D01*
X80168600Y-36460000D02*
X80168600Y-34246500D01*
X86371800Y-37729900D02*
X81438500Y-37729900D01*
X81438500Y-37729900D02*
X80168600Y-36460000D01*
X80168600Y-34246500D02*
X81984900Y-32430200D01*
X89805600Y-34296100D02*
X86371800Y-37729900D01*
X91974700Y-44452000D02*
X91974700Y-35174900D01*
X90113500Y-34297600D02*
X90112000Y-34296100D01*
X91974700Y-35174900D02*
X91097400Y-34297600D01*
X91097400Y-34297600D02*
X90113500Y-34297600D01*
X79818500Y-56608200D02*
X91974700Y-44452000D01*
X81643600Y-83603100D02*
X75211500Y-77171000D01*
X75211500Y-77171000D02*
X75211500Y-58582800D01*
X75211500Y-58582800D02*
X76194300Y-57600000D01*
X80684500Y-35002900D02*
X82028200Y-33659200D01*
X91840000Y-34401400D02*
X91840000Y-34399400D01*
X92426400Y-45136100D02*
X92426400Y-34987800D01*
X92426400Y-34987800D02*
X91840000Y-34401400D01*
X90300600Y-33845900D02*
X90299100Y-33844400D01*
X91840000Y-34399400D02*
X91286500Y-33845900D01*
X80684500Y-36312900D02*
X80684500Y-35002900D01*
X89618500Y-33844400D02*
X86184700Y-37278200D01*
X86184700Y-37278200D02*
X81649800Y-37278200D01*
X80187300Y-57375200D02*
X92426400Y-45136100D01*
X81649800Y-37278200D02*
X80684500Y-36312900D01*
X90299100Y-33844400D02*
X89618500Y-33844400D01*
X91286500Y-33845900D02*
X90300600Y-33845900D01*
X77532900Y-58636900D02*
X76195400Y-58636900D01*
X83376500Y-64480500D02*
X77532900Y-58636900D01*
X83376500Y-83574500D02*
X83376500Y-64480500D01*
X92291700Y-34214300D02*
X92291700Y-34212300D01*
X81857100Y-36826500D02*
X81156800Y-36126200D01*
X92878100Y-34800700D02*
X92291700Y-34214300D01*
X90487700Y-33394200D02*
X90486200Y-33392700D01*
X92878100Y-45932400D02*
X92878100Y-34800700D01*
X81156800Y-35523500D02*
X81751100Y-34929200D01*
X89431400Y-33392700D02*
X85997600Y-36826500D01*
X92291700Y-34212300D02*
X91473600Y-33394200D01*
X91473600Y-33394200D02*
X90487700Y-33394200D01*
X85997600Y-36826500D02*
X81857100Y-36826500D01*
X80187300Y-58623200D02*
X92878100Y-45932400D01*
X81156800Y-36126200D02*
X81156800Y-35523500D01*
X90486200Y-33392700D02*
X89431400Y-33392700D01*
X83097600Y-84241900D02*
X82749700Y-83894000D01*
X82749700Y-64757900D02*
X77826700Y-59834900D01*
X82749700Y-83894000D02*
X82749700Y-64757900D01*
X83704000Y-84241900D02*
X83097600Y-84241900D01*
X84360600Y-83585300D02*
X83704000Y-84241900D01*
X92743400Y-34027200D02*
X92743400Y-34025200D01*
X85810500Y-36374800D02*
X82328700Y-36374800D01*
X90674800Y-32942500D02*
X90673300Y-32941000D01*
X93329800Y-46415600D02*
X93329800Y-34613600D01*
X89244300Y-32941000D02*
X85810500Y-36374800D01*
X91660700Y-32942500D02*
X90674800Y-32942500D01*
X80355000Y-59390400D02*
X93329800Y-46415600D01*
X90673300Y-32941000D02*
X89244300Y-32941000D01*
X79817100Y-59390400D02*
X80355000Y-59390400D01*
X92743400Y-34025200D02*
X91660700Y-32942500D01*
X93329800Y-34613600D02*
X92743400Y-34027200D01*
X82328700Y-36374800D02*
X81821800Y-35867900D01*
X86662700Y-59146800D02*
X89191400Y-56618100D01*
X85875000Y-83566300D02*
X86662700Y-82778600D01*
X86662700Y-82778600D02*
X86662700Y-59146800D01*
X91846300Y-32489300D02*
X88164300Y-32489300D01*
X93819500Y-53518100D02*
X93819500Y-34462500D01*
X93819500Y-34462500D02*
X91846300Y-32489300D01*
X88164300Y-32489300D02*
X84907100Y-35746500D01*
X91173300Y-56164300D02*
X93819500Y-53518100D01*
X87954800Y-58839500D02*
X89194300Y-57600000D01*
X87954800Y-84950000D02*
X87954800Y-58839500D01*
X79689600Y-36669000D02*
X81758200Y-38737600D01*
X91837600Y-31772300D02*
X81708700Y-31772300D01*
X94308400Y-56111800D02*
X94308400Y-34243100D01*
X79689600Y-33791400D02*
X79689600Y-36669000D01*
X92820200Y-57600000D02*
X94308400Y-56111800D01*
X94308400Y-34243100D02*
X91837600Y-31772300D01*
X81708700Y-31772300D02*
X79689600Y-33791400D01*
X81758200Y-38737600D02*
X84689700Y-38737600D01*
G04 #@! TA.AperFunction,Conductor*
G36*
X125347801Y-16500172D02*
G01*
X125402978Y-16543035D01*
X125426222Y-16608925D01*
X125426400Y-16615561D01*
X125426400Y-53025641D01*
X125420863Y-53044494D01*
X125420273Y-53064137D01*
X125411222Y-53077330D01*
X125406715Y-53092680D01*
X125391865Y-53105547D01*
X125380748Y-53121753D01*
X125366000Y-53127959D01*
X125353911Y-53138435D01*
X125334462Y-53141231D01*
X125316349Y-53148854D01*
X125293378Y-53147138D01*
X125284753Y-53148379D01*
X125281071Y-53147793D01*
X125275639Y-53146844D01*
X125206057Y-53128200D01*
X125168863Y-53128200D01*
X125158280Y-53126352D01*
X125136195Y-53115452D01*
X125112570Y-53108515D01*
X125097446Y-53096327D01*
X125095625Y-53095429D01*
X125094962Y-53094326D01*
X125091928Y-53091881D01*
X121850565Y-49850517D01*
X121850564Y-49850516D01*
X121850563Y-49850515D01*
X121753537Y-49794497D01*
X121645318Y-49765500D01*
X108868919Y-49765500D01*
X108756882Y-49765500D01*
X108648663Y-49794497D01*
X108648660Y-49794498D01*
X108551640Y-49850513D01*
X108551634Y-49850517D01*
X99001584Y-59400566D01*
X98940261Y-59434051D01*
X98881812Y-59432660D01*
X98758057Y-59399500D01*
X98599943Y-59399500D01*
X98597700Y-59399500D01*
X98589014Y-59396949D01*
X98580053Y-59398238D01*
X98556012Y-59387259D01*
X98530661Y-59379815D01*
X98524733Y-59372974D01*
X98516497Y-59369213D01*
X98502207Y-59346978D01*
X98484906Y-59327011D01*
X98482618Y-59316496D01*
X98478723Y-59310435D01*
X98473700Y-59275500D01*
X98473700Y-59050010D01*
X98493385Y-58982971D01*
X98510019Y-58962329D01*
X104376529Y-53095819D01*
X104437852Y-53062334D01*
X104464210Y-53059500D01*
X104490655Y-53059500D01*
X104490657Y-53059500D01*
X104643384Y-53018577D01*
X104780316Y-52939520D01*
X104892120Y-52827716D01*
X104971177Y-52690784D01*
X105012100Y-52538057D01*
X105012100Y-52379943D01*
X104971177Y-52227216D01*
X104968741Y-52222997D01*
X104892124Y-52090290D01*
X104892118Y-52090282D01*
X104780317Y-51978481D01*
X104780309Y-51978475D01*
X104643390Y-51899426D01*
X104643386Y-51899424D01*
X104643384Y-51899423D01*
X104490657Y-51858500D01*
X104332543Y-51858500D01*
X104302395Y-51866577D01*
X104232546Y-51864915D01*
X104174684Y-51825752D01*
X104147180Y-51761523D01*
X104147830Y-51727402D01*
X104150500Y-51710547D01*
X104150500Y-51529448D01*
X104134019Y-51425397D01*
X104122171Y-51350591D01*
X104082034Y-51227059D01*
X104066212Y-51178363D01*
X104066211Y-51178360D01*
X104020162Y-51087986D01*
X103983996Y-51017006D01*
X103897575Y-50898057D01*
X103877558Y-50870505D01*
X103877554Y-50870500D01*
X103749499Y-50742445D01*
X103749494Y-50742441D01*
X103602997Y-50636006D01*
X103602996Y-50636005D01*
X103602994Y-50636004D01*
X103551300Y-50609664D01*
X103441639Y-50553788D01*
X103441636Y-50553787D01*
X103269410Y-50497829D01*
X103109321Y-50472473D01*
X103046186Y-50442544D01*
X103009255Y-50383232D01*
X103010253Y-50313370D01*
X103048863Y-50255137D01*
X103109321Y-50227527D01*
X103179425Y-50216422D01*
X103269409Y-50202171D01*
X103441639Y-50146211D01*
X103602994Y-50063996D01*
X103749501Y-49957553D01*
X103877553Y-49829501D01*
X103983996Y-49682994D01*
X104066211Y-49521639D01*
X104122171Y-49349409D01*
X104136765Y-49257259D01*
X104150500Y-49170551D01*
X104150500Y-48989448D01*
X104131542Y-48869759D01*
X104122171Y-48810591D01*
X104094191Y-48724476D01*
X104066212Y-48638363D01*
X104066211Y-48638360D01*
X104022453Y-48552482D01*
X103983996Y-48477006D01*
X103970396Y-48458287D01*
X103877558Y-48330505D01*
X103877554Y-48330500D01*
X103749499Y-48202445D01*
X103749494Y-48202441D01*
X103602997Y-48096006D01*
X103602996Y-48096005D01*
X103602994Y-48096004D01*
X103512073Y-48049677D01*
X103441639Y-48013788D01*
X103441636Y-48013787D01*
X103269410Y-47957829D01*
X103109321Y-47932473D01*
X103046186Y-47902544D01*
X103009255Y-47843232D01*
X103010253Y-47773370D01*
X103048863Y-47715137D01*
X103109321Y-47687527D01*
X103179425Y-47676422D01*
X103269409Y-47662171D01*
X103441639Y-47606211D01*
X103602994Y-47523996D01*
X103749501Y-47417553D01*
X103877553Y-47289501D01*
X103983996Y-47142994D01*
X104066211Y-46981639D01*
X104122171Y-46809409D01*
X104136765Y-46717259D01*
X104150500Y-46630551D01*
X104150500Y-46449448D01*
X104121904Y-46268906D01*
X104130858Y-46199613D01*
X104156693Y-46161830D01*
X104795410Y-45523115D01*
X104867884Y-45397585D01*
X104905400Y-45257574D01*
X104905400Y-45112626D01*
X104905400Y-36833086D01*
X104925085Y-36766047D01*
X104941714Y-36745410D01*
X125145471Y-16541652D01*
X125162065Y-16532591D01*
X125175676Y-16519459D01*
X125205173Y-16509052D01*
X125206792Y-16508169D01*
X125208792Y-16507751D01*
X125278213Y-16493943D01*
X125347801Y-16500172D01*
G37*
G04 #@! TD.AperFunction*
G04 #@! TA.AperFunction,Conductor*
G36*
X103747439Y-37270785D02*
G01*
X103793194Y-37323589D01*
X103804400Y-37375100D01*
X103804400Y-42526000D01*
X103784715Y-42593039D01*
X103731911Y-42638794D01*
X103680400Y-42650000D01*
X103250000Y-42650000D01*
X103250000Y-43566988D01*
X103192993Y-43534075D01*
X103065826Y-43500000D01*
X102934174Y-43500000D01*
X102807007Y-43534075D01*
X102750000Y-43566988D01*
X102750000Y-42650000D01*
X102102155Y-42650000D01*
X102042627Y-42656401D01*
X102042617Y-42656403D01*
X101935332Y-42696418D01*
X101865641Y-42701402D01*
X101804318Y-42667916D01*
X101770834Y-42606593D01*
X101768000Y-42580236D01*
X101768000Y-37421718D01*
X101787685Y-37354679D01*
X101840489Y-37308924D01*
X101909647Y-37298980D01*
X101918252Y-37300745D01*
X101920941Y-37301099D01*
X101920943Y-37301100D01*
X101920945Y-37301100D01*
X102079055Y-37301100D01*
X102079057Y-37301100D01*
X102231784Y-37260177D01*
X102231785Y-37260176D01*
X102239635Y-37258073D01*
X102239820Y-37258765D01*
X102278363Y-37251100D01*
X103680400Y-37251100D01*
X103747439Y-37270785D01*
G37*
G04 #@! TD.AperFunction*
G04 #@! TA.AperFunction,Conductor*
G36*
X134442539Y-520185D02*
G01*
X134488294Y-572989D01*
X134499500Y-624500D01*
X134499500Y-89375500D01*
X134479815Y-89442539D01*
X134427011Y-89488294D01*
X134375500Y-89499500D01*
X624500Y-89499500D01*
X557461Y-89479815D01*
X511706Y-89427011D01*
X500500Y-89375500D01*
X500500Y-86378711D01*
X1649500Y-86378711D01*
X1649500Y-86621288D01*
X1681161Y-86861785D01*
X1743947Y-87096104D01*
X1836773Y-87320205D01*
X1836776Y-87320212D01*
X1958064Y-87530289D01*
X1958066Y-87530292D01*
X1958067Y-87530293D01*
X2105733Y-87722736D01*
X2105739Y-87722743D01*
X2277256Y-87894260D01*
X2277262Y-87894265D01*
X2469711Y-88041936D01*
X2679788Y-88163224D01*
X2903900Y-88256054D01*
X3138211Y-88318838D01*
X3318586Y-88342584D01*
X3378711Y-88350500D01*
X3378712Y-88350500D01*
X3621289Y-88350500D01*
X3669388Y-88344167D01*
X3861789Y-88318838D01*
X4096100Y-88256054D01*
X4320212Y-88163224D01*
X4530289Y-88041936D01*
X4722738Y-87894265D01*
X4894265Y-87722738D01*
X5041936Y-87530289D01*
X5163224Y-87320212D01*
X5256054Y-87096100D01*
X5318838Y-86861789D01*
X5350500Y-86621288D01*
X5350500Y-86378712D01*
X5350500Y-86378711D01*
X129649500Y-86378711D01*
X129649500Y-86621288D01*
X129681161Y-86861785D01*
X129743947Y-87096104D01*
X129836773Y-87320205D01*
X129836776Y-87320212D01*
X129958064Y-87530289D01*
X129958066Y-87530292D01*
X129958067Y-87530293D01*
X130105733Y-87722736D01*
X130105739Y-87722743D01*
X130277256Y-87894260D01*
X130277262Y-87894265D01*
X130469711Y-88041936D01*
X130679788Y-88163224D01*
X130903900Y-88256054D01*
X131138211Y-88318838D01*
X131318586Y-88342584D01*
X131378711Y-88350500D01*
X131378712Y-88350500D01*
X131621289Y-88350500D01*
X131669388Y-88344167D01*
X131861789Y-88318838D01*
X132096100Y-88256054D01*
X132320212Y-88163224D01*
X132530289Y-88041936D01*
X132722738Y-87894265D01*
X132894265Y-87722738D01*
X133041936Y-87530289D01*
X133163224Y-87320212D01*
X133256054Y-87096100D01*
X133318838Y-86861789D01*
X133350500Y-86621288D01*
X133350500Y-86378712D01*
X133318838Y-86138211D01*
X133256054Y-85903900D01*
X133163224Y-85679788D01*
X133041936Y-85469711D01*
X132938658Y-85335116D01*
X132894266Y-85277263D01*
X132894260Y-85277256D01*
X132722743Y-85105739D01*
X132722736Y-85105733D01*
X132530293Y-84958067D01*
X132530292Y-84958066D01*
X132530289Y-84958064D01*
X132320212Y-84836776D01*
X132268758Y-84815463D01*
X132096104Y-84743947D01*
X131861785Y-84681161D01*
X131621289Y-84649500D01*
X131621288Y-84649500D01*
X131378712Y-84649500D01*
X131378711Y-84649500D01*
X131138214Y-84681161D01*
X130903895Y-84743947D01*
X130679794Y-84836773D01*
X130679785Y-84836777D01*
X130469706Y-84958067D01*
X130277263Y-85105733D01*
X130277256Y-85105739D01*
X130105739Y-85277256D01*
X130105733Y-85277263D01*
X129958067Y-85469706D01*
X129958064Y-85469710D01*
X129958064Y-85469711D01*
X129945746Y-85491047D01*
X129836777Y-85679785D01*
X129836773Y-85679794D01*
X129743947Y-85903895D01*
X129681161Y-86138214D01*
X129649500Y-86378711D01*
X5350500Y-86378711D01*
X5318838Y-86138211D01*
X5256054Y-85903900D01*
X5163224Y-85679788D01*
X5041936Y-85469711D01*
X4938658Y-85335116D01*
X4894266Y-85277263D01*
X4894260Y-85277256D01*
X4722743Y-85105739D01*
X4722736Y-85105733D01*
X4530293Y-84958067D01*
X4530292Y-84958066D01*
X4530289Y-84958064D01*
X4320212Y-84836776D01*
X4268758Y-84815463D01*
X4096104Y-84743947D01*
X3861785Y-84681161D01*
X3621289Y-84649500D01*
X3621288Y-84649500D01*
X3378712Y-84649500D01*
X3378711Y-84649500D01*
X3138214Y-84681161D01*
X2903895Y-84743947D01*
X2679794Y-84836773D01*
X2679785Y-84836777D01*
X2469706Y-84958067D01*
X2277263Y-85105733D01*
X2277256Y-85105739D01*
X2105739Y-85277256D01*
X2105733Y-85277263D01*
X1958067Y-85469706D01*
X1958064Y-85469710D01*
X1958064Y-85469711D01*
X1945746Y-85491047D01*
X1836777Y-85679785D01*
X1836773Y-85679794D01*
X1743947Y-85903895D01*
X1681161Y-86138214D01*
X1649500Y-86378711D01*
X500500Y-86378711D01*
X500500Y-18520943D01*
X6560500Y-18520943D01*
X6560500Y-18679057D01*
X6600367Y-18827841D01*
X6601423Y-18831783D01*
X6601426Y-18831790D01*
X6680475Y-18968709D01*
X6680481Y-18968717D01*
X6694941Y-18983177D01*
X6728426Y-19044500D01*
X6723442Y-19114192D01*
X6714648Y-19132857D01*
X6637423Y-19266615D01*
X6637423Y-19266616D01*
X6596500Y-19419343D01*
X6596500Y-19577457D01*
X6634700Y-19720019D01*
X6637423Y-19730183D01*
X6637423Y-19730184D01*
X6720321Y-19873769D01*
X6736793Y-19941669D01*
X6713940Y-20007696D01*
X6705533Y-20017635D01*
X6702575Y-20021490D01*
X6623526Y-20158409D01*
X6623523Y-20158416D01*
X6582600Y-20311143D01*
X6582600Y-20469257D01*
X6621850Y-20615738D01*
X6623523Y-20621983D01*
X6623526Y-20621990D01*
X6702575Y-20758909D01*
X6702579Y-20758914D01*
X6702580Y-20758916D01*
X6814384Y-20870720D01*
X6814386Y-20870721D01*
X6814390Y-20870724D01*
X6934967Y-20940338D01*
X6951316Y-20949777D01*
X7104043Y-20990700D01*
X7104045Y-20990700D01*
X7262155Y-20990700D01*
X7262157Y-20990700D01*
X7414884Y-20949777D01*
X7551816Y-20870720D01*
X7663620Y-20758916D01*
X7742677Y-20621984D01*
X7776359Y-20496280D01*
X7784374Y-20482396D01*
X7787300Y-20468950D01*
X7808445Y-20440702D01*
X7908021Y-20341126D01*
X7969343Y-20307644D01*
X8039034Y-20312628D01*
X8094967Y-20354500D01*
X8119384Y-20419965D01*
X8119700Y-20428810D01*
X8119700Y-30904682D01*
X8119700Y-31016718D01*
X8148697Y-31124937D01*
X8204715Y-31221963D01*
X8204717Y-31221965D01*
X12430718Y-35447966D01*
X12464203Y-35509289D01*
X12459219Y-35578981D01*
X12417347Y-35634914D01*
X12405037Y-35643034D01*
X12305887Y-35700277D01*
X12305882Y-35700281D01*
X12194081Y-35812082D01*
X12194075Y-35812090D01*
X12115026Y-35949009D01*
X12115023Y-35949016D01*
X12074100Y-36101743D01*
X12074100Y-36259857D01*
X12112027Y-36401400D01*
X12115023Y-36412583D01*
X12115026Y-36412590D01*
X12194075Y-36549509D01*
X12194079Y-36549514D01*
X12194080Y-36549516D01*
X12305884Y-36661320D01*
X12388350Y-36708931D01*
X12436566Y-36759498D01*
X12449790Y-36828105D01*
X12423822Y-36892970D01*
X12388351Y-36923706D01*
X12307687Y-36970277D01*
X12307682Y-36970281D01*
X12195881Y-37082082D01*
X12195875Y-37082090D01*
X12116826Y-37219009D01*
X12116823Y-37219016D01*
X12075900Y-37371743D01*
X12075900Y-37398190D01*
X12056215Y-37465229D01*
X12039581Y-37485871D01*
X11774117Y-37751334D01*
X11774113Y-37751340D01*
X11718098Y-37848360D01*
X11718097Y-37848363D01*
X11689100Y-37956582D01*
X11689100Y-39079182D01*
X11689100Y-39191218D01*
X11718097Y-39299437D01*
X11774115Y-39396463D01*
X14286815Y-41909163D01*
X14366037Y-41988385D01*
X14398132Y-42006915D01*
X14463063Y-42044403D01*
X14571281Y-42073400D01*
X14571282Y-42073400D01*
X14571283Y-42073400D01*
X18923816Y-42073400D01*
X18923818Y-42073400D01*
X19032037Y-42044403D01*
X19129063Y-41988385D01*
X22783685Y-38333763D01*
X22839703Y-38236737D01*
X22868700Y-38128519D01*
X22868700Y-38016482D01*
X22868700Y-30111310D01*
X22888385Y-30044271D01*
X22905019Y-30023629D01*
X25507758Y-27420890D01*
X28291285Y-24637363D01*
X28347303Y-24540337D01*
X28376300Y-24432118D01*
X28376300Y-24320081D01*
X28376300Y-21007110D01*
X28395985Y-20940071D01*
X28448789Y-20894316D01*
X28517947Y-20884372D01*
X28581503Y-20913397D01*
X28587981Y-20919429D01*
X29511237Y-21842685D01*
X29608263Y-21898703D01*
X29716481Y-21927700D01*
X29716482Y-21927700D01*
X29716483Y-21927700D01*
X30362216Y-21927700D01*
X30362218Y-21927700D01*
X30470437Y-21898703D01*
X30567463Y-21842685D01*
X30689621Y-21720526D01*
X30750941Y-21687043D01*
X30820633Y-21692027D01*
X30876567Y-21733898D01*
X30900984Y-21799362D01*
X30901300Y-21808209D01*
X30901300Y-27857982D01*
X30901300Y-27970018D01*
X30930297Y-28078237D01*
X30986315Y-28175263D01*
X36240915Y-33429863D01*
X36320137Y-33509085D01*
X36417163Y-33565103D01*
X36505543Y-33588784D01*
X36561129Y-33620877D01*
X37137482Y-34197230D01*
X37170967Y-34258553D01*
X37165983Y-34328245D01*
X37124111Y-34384178D01*
X37111802Y-34392298D01*
X37044284Y-34431279D01*
X36932481Y-34543082D01*
X36932475Y-34543090D01*
X36853426Y-34680009D01*
X36853423Y-34680016D01*
X36812500Y-34832743D01*
X36812500Y-34990857D01*
X36852861Y-35141484D01*
X36853423Y-35143583D01*
X36853426Y-35143590D01*
X36932475Y-35280509D01*
X36932481Y-35280517D01*
X36951181Y-35299217D01*
X36965884Y-35326144D01*
X36982477Y-35351963D01*
X36983368Y-35358163D01*
X36984666Y-35360540D01*
X36987500Y-35386898D01*
X36987500Y-35477875D01*
X36967815Y-35544914D01*
X36915011Y-35590669D01*
X36895600Y-35597647D01*
X36807616Y-35621223D01*
X36807614Y-35621223D01*
X36807614Y-35621224D01*
X36807609Y-35621226D01*
X36670690Y-35700275D01*
X36670682Y-35700281D01*
X36558881Y-35812082D01*
X36558875Y-35812090D01*
X36479826Y-35949009D01*
X36479823Y-35949016D01*
X36438900Y-36101743D01*
X36438900Y-36259857D01*
X36476827Y-36401400D01*
X36479823Y-36412583D01*
X36479826Y-36412590D01*
X36558875Y-36549509D01*
X36558879Y-36549514D01*
X36558880Y-36549516D01*
X36670684Y-36661320D01*
X36670686Y-36661321D01*
X36670690Y-36661324D01*
X36714969Y-36686888D01*
X36807616Y-36740377D01*
X36960343Y-36781300D01*
X36960345Y-36781300D01*
X36960561Y-36781358D01*
X37020222Y-36817723D01*
X37050751Y-36880570D01*
X37042456Y-36949946D01*
X37016150Y-36988814D01*
X36922878Y-37082086D01*
X36922875Y-37082090D01*
X36843826Y-37219009D01*
X36843823Y-37219016D01*
X36802900Y-37371743D01*
X36802900Y-37529857D01*
X36843502Y-37681384D01*
X36843823Y-37682583D01*
X36843826Y-37682590D01*
X36922875Y-37819509D01*
X36922879Y-37819514D01*
X36922880Y-37819516D01*
X37034684Y-37931320D01*
X37034686Y-37931321D01*
X37034690Y-37931324D01*
X37171337Y-38010216D01*
X37171616Y-38010377D01*
X37324343Y-38051300D01*
X37350790Y-38051300D01*
X37417829Y-38070985D01*
X37438471Y-38087619D01*
X38670170Y-39319318D01*
X38703655Y-39380641D01*
X38698671Y-39450333D01*
X38657982Y-39505370D01*
X38651583Y-39510280D01*
X38539781Y-39622082D01*
X38539775Y-39622090D01*
X38460726Y-39759009D01*
X38460723Y-39759014D01*
X38432106Y-39865815D01*
X38395740Y-39925476D01*
X38332893Y-39956004D01*
X38263518Y-39947709D01*
X38224650Y-39921402D01*
X37518519Y-39215271D01*
X37485034Y-39153948D01*
X37482200Y-39127590D01*
X37482200Y-39101145D01*
X37482200Y-39101143D01*
X37441277Y-38948416D01*
X37411691Y-38897171D01*
X37362224Y-38811490D01*
X37362218Y-38811482D01*
X37250417Y-38699681D01*
X37250409Y-38699675D01*
X37113490Y-38620626D01*
X37113486Y-38620624D01*
X37113484Y-38620623D01*
X36960757Y-38579700D01*
X36802643Y-38579700D01*
X36649916Y-38620623D01*
X36649909Y-38620626D01*
X36512990Y-38699675D01*
X36512982Y-38699681D01*
X36401181Y-38811482D01*
X36401175Y-38811490D01*
X36322126Y-38948409D01*
X36322123Y-38948416D01*
X36281200Y-39101143D01*
X36281200Y-39259257D01*
X36321159Y-39408384D01*
X36322123Y-39411983D01*
X36322125Y-39411989D01*
X36401175Y-39548909D01*
X36401179Y-39548914D01*
X36401180Y-39548916D01*
X36512984Y-39660720D01*
X36512986Y-39660721D01*
X36512990Y-39660724D01*
X36639773Y-39733921D01*
X36649916Y-39739777D01*
X36802643Y-39780700D01*
X36829090Y-39780700D01*
X36896129Y-39800385D01*
X36916771Y-39817019D01*
X39787637Y-42687885D01*
X39884663Y-42743903D01*
X39992881Y-42772900D01*
X39992882Y-42772900D01*
X41195690Y-42772900D01*
X41262729Y-42792585D01*
X41308484Y-42845389D01*
X41318428Y-42914547D01*
X41289403Y-42978103D01*
X41283371Y-42984581D01*
X37745471Y-46522481D01*
X37684148Y-46555966D01*
X37657790Y-46558800D01*
X33952300Y-46558800D01*
X33885261Y-46539115D01*
X33839506Y-46486311D01*
X33828300Y-46434800D01*
X33828300Y-46278545D01*
X33828300Y-46278543D01*
X33787377Y-46125816D01*
X33732710Y-46031129D01*
X33708324Y-45988890D01*
X33708318Y-45988882D01*
X33596517Y-45877081D01*
X33596509Y-45877075D01*
X33459590Y-45798026D01*
X33459586Y-45798024D01*
X33459584Y-45798023D01*
X33306857Y-45757100D01*
X33306856Y-45757100D01*
X33280410Y-45757100D01*
X33213371Y-45737415D01*
X33192729Y-45720781D01*
X32202265Y-44730317D01*
X32202263Y-44730315D01*
X32105237Y-44674297D01*
X31997018Y-44645300D01*
X31997017Y-44645300D01*
X16764098Y-44645300D01*
X16697059Y-44625615D01*
X16676417Y-44608981D01*
X16657717Y-44590281D01*
X16657709Y-44590275D01*
X16520790Y-44511226D01*
X16520786Y-44511224D01*
X16520784Y-44511223D01*
X16368057Y-44470300D01*
X16209943Y-44470300D01*
X16057216Y-44511223D01*
X16057209Y-44511226D01*
X15920290Y-44590275D01*
X15920282Y-44590281D01*
X15808481Y-44702082D01*
X15808475Y-44702090D01*
X15729426Y-44839009D01*
X15729423Y-44839016D01*
X15688500Y-44991743D01*
X15688500Y-45149857D01*
X15727934Y-45297025D01*
X15729423Y-45302583D01*
X15729426Y-45302590D01*
X15808475Y-45439509D01*
X15808479Y-45439514D01*
X15808480Y-45439516D01*
X15920284Y-45551320D01*
X15920286Y-45551321D01*
X15920290Y-45551324D01*
X16057209Y-45630373D01*
X16057216Y-45630377D01*
X16209943Y-45671300D01*
X16209945Y-45671300D01*
X16368055Y-45671300D01*
X16368057Y-45671300D01*
X16520784Y-45630377D01*
X16657716Y-45551320D01*
X16676417Y-45532619D01*
X16737740Y-45499134D01*
X16764098Y-45496300D01*
X31713390Y-45496300D01*
X31780429Y-45515985D01*
X31801071Y-45532619D01*
X32590981Y-46322529D01*
X32605684Y-46349456D01*
X32622277Y-46375275D01*
X32623168Y-46381475D01*
X32624466Y-46383852D01*
X32627300Y-46410210D01*
X32627300Y-46434800D01*
X32607615Y-46501839D01*
X32554811Y-46547594D01*
X32503300Y-46558800D01*
X28386381Y-46558800D01*
X28307869Y-46579837D01*
X28307868Y-46579836D01*
X28278164Y-46587796D01*
X28278159Y-46587798D01*
X28181140Y-46643812D01*
X28181134Y-46643817D01*
X18847071Y-55977881D01*
X18785748Y-56011366D01*
X18759390Y-56014200D01*
X18732943Y-56014200D01*
X18580216Y-56055123D01*
X18580209Y-56055126D01*
X18443290Y-56134175D01*
X18443282Y-56134181D01*
X18331481Y-56245982D01*
X18331475Y-56245990D01*
X18252426Y-56382909D01*
X18252423Y-56382916D01*
X18211500Y-56535643D01*
X18211500Y-56693757D01*
X18250682Y-56839984D01*
X18252423Y-56846483D01*
X18252426Y-56846490D01*
X18331475Y-56983409D01*
X18331479Y-56983414D01*
X18331480Y-56983416D01*
X18443284Y-57095220D01*
X18443286Y-57095221D01*
X18443290Y-57095224D01*
X18534999Y-57148172D01*
X18583215Y-57198738D01*
X18596439Y-57267345D01*
X18592776Y-57287647D01*
X18590500Y-57296143D01*
X18590500Y-57454257D01*
X18625686Y-57585571D01*
X18631423Y-57606983D01*
X18631426Y-57606990D01*
X18710475Y-57743909D01*
X18710481Y-57743917D01*
X18739232Y-57772668D01*
X18772717Y-57833991D01*
X18767733Y-57903683D01*
X18739234Y-57948028D01*
X18694782Y-57992481D01*
X18694775Y-57992490D01*
X18615726Y-58129409D01*
X18615723Y-58129416D01*
X18574800Y-58282143D01*
X18574800Y-58440257D01*
X18607738Y-58563181D01*
X18615723Y-58592983D01*
X18615726Y-58592990D01*
X18694775Y-58729909D01*
X18694779Y-58729914D01*
X18694780Y-58729916D01*
X18806584Y-58841720D01*
X18806586Y-58841721D01*
X18806590Y-58841724D01*
X18924643Y-58909881D01*
X18943516Y-58920777D01*
X19096243Y-58961700D01*
X19096245Y-58961700D01*
X19153874Y-58961700D01*
X19220913Y-58981385D01*
X19266668Y-59034189D01*
X19274332Y-59060877D01*
X19274597Y-59060807D01*
X19276700Y-59068655D01*
X19276700Y-59068657D01*
X19316043Y-59215488D01*
X19317623Y-59221383D01*
X19317626Y-59221390D01*
X19396675Y-59358309D01*
X19396679Y-59358314D01*
X19396680Y-59358316D01*
X19508484Y-59470120D01*
X19508486Y-59470121D01*
X19508490Y-59470124D01*
X19616156Y-59532284D01*
X19645416Y-59549177D01*
X19798143Y-59590100D01*
X19798145Y-59590100D01*
X19956255Y-59590100D01*
X19956257Y-59590100D01*
X20108984Y-59549177D01*
X20245916Y-59470120D01*
X20357720Y-59358316D01*
X20436777Y-59221384D01*
X20477700Y-59068657D01*
X20477700Y-59042209D01*
X20497385Y-58975170D01*
X20514014Y-58954533D01*
X24900561Y-54567985D01*
X24909180Y-54563279D01*
X24915167Y-54555486D01*
X24939343Y-54546809D01*
X24961882Y-54534502D01*
X24971681Y-54535202D01*
X24980929Y-54531884D01*
X25005952Y-54537653D01*
X25031574Y-54539486D01*
X25041255Y-54545793D01*
X25049013Y-54547582D01*
X25064175Y-54560725D01*
X25077003Y-54569082D01*
X25083195Y-54575429D01*
X25083880Y-54576616D01*
X25103145Y-54595881D01*
X25103663Y-54596412D01*
X25119697Y-54626662D01*
X25136066Y-54656640D01*
X25136188Y-54657775D01*
X25136384Y-54658145D01*
X25136315Y-54658960D01*
X25138900Y-54682998D01*
X25138900Y-59882690D01*
X25119215Y-59949729D01*
X25102581Y-59970371D01*
X17463881Y-67609071D01*
X17402558Y-67642556D01*
X17332866Y-67637572D01*
X17276933Y-67595700D01*
X17252516Y-67530236D01*
X17252200Y-67521390D01*
X17252200Y-60313598D01*
X17271885Y-60246559D01*
X17288519Y-60225917D01*
X17307220Y-60207216D01*
X17386277Y-60070284D01*
X17427200Y-59917557D01*
X17427200Y-59759443D01*
X17386277Y-59606716D01*
X17385296Y-59605016D01*
X17307224Y-59469790D01*
X17307218Y-59469782D01*
X17195417Y-59357981D01*
X17195409Y-59357975D01*
X17058490Y-59278926D01*
X17058486Y-59278924D01*
X17058484Y-59278923D01*
X16905757Y-59238000D01*
X16747643Y-59238000D01*
X16594916Y-59278923D01*
X16594909Y-59278926D01*
X16457990Y-59357975D01*
X16457982Y-59357981D01*
X16346181Y-59469782D01*
X16346175Y-59469790D01*
X16267126Y-59606709D01*
X16267123Y-59606716D01*
X16248050Y-59677900D01*
X16224097Y-59767293D01*
X16221403Y-59766571D01*
X16198624Y-59818053D01*
X16140296Y-59856519D01*
X16087777Y-59860903D01*
X16080157Y-59859900D01*
X15922043Y-59859900D01*
X15769316Y-59900823D01*
X15769309Y-59900826D01*
X15632390Y-59979875D01*
X15632382Y-59979881D01*
X15520581Y-60091682D01*
X15520575Y-60091690D01*
X15441526Y-60228609D01*
X15441523Y-60228616D01*
X15400600Y-60381343D01*
X15400600Y-60539457D01*
X15432707Y-60659280D01*
X15441523Y-60692183D01*
X15441526Y-60692190D01*
X15520575Y-60829109D01*
X15520581Y-60829117D01*
X15539281Y-60847817D01*
X15572766Y-60909140D01*
X15575600Y-60935498D01*
X15575600Y-65607090D01*
X15555915Y-65674129D01*
X15539281Y-65694771D01*
X15113081Y-66120971D01*
X15051758Y-66154456D01*
X14982066Y-66149472D01*
X14926133Y-66107600D01*
X14901716Y-66042136D01*
X14901400Y-66033290D01*
X14901400Y-58547610D01*
X14921085Y-58480571D01*
X14937719Y-58459929D01*
X15160829Y-58236819D01*
X15222152Y-58203334D01*
X15248510Y-58200500D01*
X15274955Y-58200500D01*
X15274957Y-58200500D01*
X15427684Y-58159577D01*
X15564616Y-58080520D01*
X15676420Y-57968716D01*
X15755477Y-57831784D01*
X15796400Y-57679057D01*
X15796400Y-57520943D01*
X15755477Y-57368216D01*
X15730247Y-57324516D01*
X15676424Y-57231290D01*
X15676418Y-57231282D01*
X15627417Y-57182281D01*
X15593932Y-57120958D01*
X15598916Y-57051266D01*
X15627417Y-57006919D01*
X15641766Y-56992570D01*
X15659720Y-56974616D01*
X15738777Y-56837684D01*
X15779700Y-56684957D01*
X15779700Y-56526843D01*
X15738777Y-56374116D01*
X15707233Y-56319480D01*
X15659724Y-56237190D01*
X15659718Y-56237182D01*
X15547917Y-56125381D01*
X15547909Y-56125375D01*
X15410990Y-56046326D01*
X15410986Y-56046324D01*
X15410984Y-56046323D01*
X15258257Y-56005400D01*
X15100143Y-56005400D01*
X14947416Y-56046323D01*
X14947409Y-56046326D01*
X14810490Y-56125375D01*
X14810482Y-56125381D01*
X14698681Y-56237182D01*
X14698675Y-56237190D01*
X14619626Y-56374109D01*
X14619623Y-56374116D01*
X14578700Y-56526843D01*
X14578700Y-56553290D01*
X14559015Y-56620329D01*
X14542381Y-56640971D01*
X13649817Y-57533534D01*
X13649813Y-57533540D01*
X13593798Y-57630560D01*
X13593797Y-57630563D01*
X13564800Y-57738782D01*
X13564800Y-82839082D01*
X13564800Y-82951118D01*
X13593797Y-83059337D01*
X13649815Y-83156363D01*
X13649817Y-83156365D01*
X15408381Y-84914929D01*
X15441866Y-84976252D01*
X15444700Y-85002610D01*
X15444700Y-85029057D01*
X15465246Y-85105733D01*
X15485623Y-85181783D01*
X15485626Y-85181790D01*
X15564675Y-85318709D01*
X15564679Y-85318714D01*
X15564680Y-85318716D01*
X15676484Y-85430520D01*
X15676486Y-85430521D01*
X15676490Y-85430524D01*
X15744365Y-85469711D01*
X15813416Y-85509577D01*
X15966143Y-85550500D01*
X15966145Y-85550500D01*
X16124255Y-85550500D01*
X16124257Y-85550500D01*
X16276984Y-85509577D01*
X16413916Y-85430520D01*
X16525720Y-85318716D01*
X16604777Y-85181784D01*
X16645700Y-85029057D01*
X16645700Y-84870943D01*
X16604777Y-84718216D01*
X16583384Y-84681162D01*
X16525724Y-84581290D01*
X16525718Y-84581282D01*
X16413917Y-84469481D01*
X16413909Y-84469475D01*
X16276990Y-84390426D01*
X16276986Y-84390424D01*
X16276984Y-84390423D01*
X16124257Y-84349500D01*
X16124256Y-84349500D01*
X16097810Y-84349500D01*
X16030771Y-84329815D01*
X16010129Y-84313181D01*
X14452119Y-82755171D01*
X14418634Y-82693848D01*
X14415800Y-82667490D01*
X14415800Y-80767110D01*
X14435485Y-80700071D01*
X14488289Y-80654316D01*
X14557447Y-80644372D01*
X14621003Y-80673397D01*
X14627481Y-80679429D01*
X17488181Y-83540129D01*
X17521666Y-83601452D01*
X17524500Y-83627810D01*
X17524500Y-83654257D01*
X17563816Y-83800984D01*
X17565423Y-83806983D01*
X17565426Y-83806990D01*
X17644475Y-83943909D01*
X17644479Y-83943914D01*
X17644480Y-83943916D01*
X17756284Y-84055720D01*
X17756286Y-84055721D01*
X17756290Y-84055724D01*
X17885075Y-84130077D01*
X17893216Y-84134777D01*
X18045943Y-84175700D01*
X18045945Y-84175700D01*
X18204055Y-84175700D01*
X18204057Y-84175700D01*
X18356784Y-84134777D01*
X18493716Y-84055720D01*
X18605520Y-83943916D01*
X18643969Y-83877318D01*
X18694534Y-83829103D01*
X18763141Y-83815879D01*
X18828006Y-83841846D01*
X18858743Y-83877318D01*
X18894477Y-83939212D01*
X18894479Y-83939215D01*
X18894480Y-83939216D01*
X19006284Y-84051020D01*
X19006286Y-84051021D01*
X19006290Y-84051024D01*
X19140964Y-84128777D01*
X19143216Y-84130077D01*
X19295943Y-84171000D01*
X19295945Y-84171000D01*
X19454055Y-84171000D01*
X19454057Y-84171000D01*
X19606784Y-84130077D01*
X19743716Y-84051020D01*
X19855520Y-83939216D01*
X19894893Y-83871018D01*
X19945458Y-83822803D01*
X20014065Y-83809579D01*
X20078930Y-83835546D01*
X20109667Y-83871019D01*
X20144475Y-83931309D01*
X20144479Y-83931314D01*
X20144480Y-83931316D01*
X20256284Y-84043120D01*
X20256286Y-84043121D01*
X20256290Y-84043124D01*
X20387036Y-84118609D01*
X20393216Y-84122177D01*
X20545943Y-84163100D01*
X20545945Y-84163100D01*
X20704055Y-84163100D01*
X20704057Y-84163100D01*
X20856784Y-84122177D01*
X20993716Y-84043120D01*
X21105520Y-83931316D01*
X21184577Y-83794384D01*
X21225500Y-83641657D01*
X21225500Y-83483543D01*
X21184577Y-83330816D01*
X21152355Y-83275005D01*
X21105524Y-83193890D01*
X21105518Y-83193882D01*
X20993717Y-83082081D01*
X20993709Y-83082075D01*
X20856790Y-83003026D01*
X20856786Y-83003024D01*
X20856784Y-83003023D01*
X20704057Y-82962100D01*
X20704056Y-82962100D01*
X20677610Y-82962100D01*
X20610571Y-82942415D01*
X20589929Y-82925781D01*
X16223719Y-78559571D01*
X16190234Y-78498248D01*
X16187400Y-78471890D01*
X16187400Y-70010500D01*
X16207085Y-69943461D01*
X16259889Y-69897706D01*
X16311400Y-69886500D01*
X16467755Y-69886500D01*
X16467757Y-69886500D01*
X16620484Y-69845577D01*
X16757416Y-69766520D01*
X16869220Y-69654716D01*
X16948277Y-69517784D01*
X16989200Y-69365057D01*
X16989200Y-69338609D01*
X17008885Y-69271570D01*
X17025519Y-69250928D01*
X25525519Y-60750928D01*
X25586842Y-60717443D01*
X25656534Y-60722427D01*
X25712467Y-60764299D01*
X25736884Y-60829763D01*
X25737200Y-60838609D01*
X25737200Y-63884290D01*
X25717515Y-63951329D01*
X25700881Y-63971971D01*
X22250217Y-67422634D01*
X22250213Y-67422640D01*
X22194198Y-67519660D01*
X22194197Y-67519663D01*
X22165200Y-67627882D01*
X22165200Y-68860813D01*
X22145515Y-68927852D01*
X22092711Y-68973607D01*
X22023553Y-68983551D01*
X21959997Y-68954526D01*
X21933814Y-68922816D01*
X21933235Y-68921814D01*
X21930620Y-68917284D01*
X21818816Y-68805480D01*
X21818814Y-68805479D01*
X21818809Y-68805475D01*
X21681890Y-68726426D01*
X21681886Y-68726424D01*
X21681884Y-68726423D01*
X21529157Y-68685500D01*
X21371043Y-68685500D01*
X21218316Y-68726423D01*
X21218309Y-68726426D01*
X21081390Y-68805475D01*
X21081382Y-68805481D01*
X21062683Y-68824181D01*
X21001360Y-68857666D01*
X20975002Y-68860500D01*
X19663018Y-68860500D01*
X19550981Y-68860500D01*
X19442763Y-68889497D01*
X19442761Y-68889498D01*
X19442760Y-68889498D01*
X19345740Y-68945513D01*
X19345734Y-68945517D01*
X18968471Y-69322781D01*
X18907148Y-69356266D01*
X18880790Y-69359100D01*
X18854343Y-69359100D01*
X18701616Y-69400023D01*
X18701609Y-69400026D01*
X18564690Y-69479075D01*
X18564682Y-69479081D01*
X18452881Y-69590882D01*
X18452875Y-69590890D01*
X18373826Y-69727809D01*
X18373823Y-69727816D01*
X18332900Y-69880543D01*
X18332900Y-70038657D01*
X18368025Y-70169743D01*
X18373823Y-70191383D01*
X18373826Y-70191390D01*
X18452875Y-70328309D01*
X18452879Y-70328314D01*
X18452880Y-70328316D01*
X18564684Y-70440120D01*
X18564686Y-70440121D01*
X18564690Y-70440124D01*
X18701609Y-70519173D01*
X18701616Y-70519177D01*
X18854343Y-70560100D01*
X18854345Y-70560100D01*
X19012455Y-70560100D01*
X19012457Y-70560100D01*
X19165184Y-70519177D01*
X19302116Y-70440120D01*
X19413920Y-70328316D01*
X19492977Y-70191384D01*
X19533900Y-70038657D01*
X19533900Y-70012209D01*
X19542544Y-69982768D01*
X19549068Y-69952782D01*
X19552822Y-69947766D01*
X19553585Y-69945170D01*
X19570219Y-69924528D01*
X19746928Y-69747819D01*
X19808251Y-69714334D01*
X19834609Y-69711500D01*
X20975002Y-69711500D01*
X21042041Y-69731185D01*
X21062683Y-69747819D01*
X21081384Y-69766520D01*
X21081386Y-69766521D01*
X21081390Y-69766524D01*
X21218309Y-69845573D01*
X21218316Y-69845577D01*
X21315043Y-69871494D01*
X21319940Y-69874479D01*
X21325667Y-69874859D01*
X21349441Y-69892461D01*
X21374700Y-69907857D01*
X21377207Y-69913019D01*
X21381821Y-69916435D01*
X21392305Y-69944098D01*
X21405230Y-69970704D01*
X21405079Y-69977803D01*
X21406583Y-69981770D01*
X21404527Y-70003911D01*
X21404251Y-70016986D01*
X21403568Y-70020204D01*
X21363500Y-70169743D01*
X21363500Y-70209192D01*
X21360804Y-70221908D01*
X21350142Y-70241680D01*
X21343815Y-70263229D01*
X21327821Y-70283076D01*
X21327643Y-70283407D01*
X21327484Y-70283494D01*
X21327181Y-70283871D01*
X20597871Y-71013181D01*
X20536548Y-71046666D01*
X20510190Y-71049500D01*
X20483743Y-71049500D01*
X20331016Y-71090423D01*
X20331009Y-71090426D01*
X20194090Y-71169475D01*
X20194082Y-71169481D01*
X20082281Y-71281282D01*
X20082275Y-71281290D01*
X20003226Y-71418209D01*
X20003223Y-71418216D01*
X19962300Y-71570943D01*
X19962300Y-71729057D01*
X19967063Y-71746830D01*
X20003223Y-71881783D01*
X20003226Y-71881790D01*
X20082275Y-72018709D01*
X20082279Y-72018714D01*
X20082280Y-72018716D01*
X20194084Y-72130520D01*
X20194086Y-72130521D01*
X20194090Y-72130524D01*
X20325269Y-72206259D01*
X20331016Y-72209577D01*
X20483743Y-72250500D01*
X20483745Y-72250500D01*
X20641855Y-72250500D01*
X20641857Y-72250500D01*
X20794584Y-72209577D01*
X20931516Y-72130520D01*
X21043320Y-72018716D01*
X21122377Y-71881784D01*
X21163300Y-71729057D01*
X21163300Y-71702610D01*
X21182985Y-71635571D01*
X21199619Y-71614929D01*
X21928929Y-70885619D01*
X21955856Y-70870915D01*
X21981675Y-70854323D01*
X21987875Y-70853431D01*
X21990252Y-70852134D01*
X22016610Y-70849300D01*
X22041200Y-70849300D01*
X22108239Y-70868985D01*
X22153994Y-70921789D01*
X22165200Y-70973300D01*
X22165200Y-83165621D01*
X22145515Y-83232660D01*
X22114354Y-83262375D01*
X22115933Y-83264432D01*
X22109481Y-83269382D01*
X21997681Y-83381182D01*
X21997675Y-83381190D01*
X21918626Y-83518109D01*
X21918623Y-83518116D01*
X21877700Y-83670843D01*
X21877700Y-83828957D01*
X21914719Y-83967112D01*
X21918623Y-83981683D01*
X21918626Y-83981690D01*
X21997675Y-84118609D01*
X21997679Y-84118614D01*
X21997680Y-84118616D01*
X22109484Y-84230420D01*
X22109486Y-84230421D01*
X22109490Y-84230424D01*
X22242297Y-84307099D01*
X22246416Y-84309477D01*
X22399143Y-84350400D01*
X22399145Y-84350400D01*
X22557255Y-84350400D01*
X22557257Y-84350400D01*
X22709984Y-84309477D01*
X22846916Y-84230420D01*
X22958720Y-84118616D01*
X23037777Y-83981684D01*
X23078700Y-83828957D01*
X23078700Y-83670843D01*
X23037777Y-83518116D01*
X23032811Y-83509514D01*
X23016200Y-83447517D01*
X23016200Y-67911510D01*
X23035885Y-67844471D01*
X23052519Y-67823829D01*
X24768748Y-66107600D01*
X26503185Y-64373163D01*
X26559203Y-64276137D01*
X26588200Y-64167918D01*
X26588200Y-64055881D01*
X26588200Y-58491810D01*
X26596844Y-58462369D01*
X26603368Y-58432383D01*
X26607122Y-58427367D01*
X26607885Y-58424771D01*
X26624519Y-58404129D01*
X26689619Y-58339029D01*
X26750942Y-58305544D01*
X26820634Y-58310528D01*
X26876567Y-58352400D01*
X26900984Y-58417864D01*
X26901300Y-58426710D01*
X26901300Y-66020682D01*
X26901300Y-66132718D01*
X26907790Y-66156937D01*
X26930297Y-66240936D01*
X26930298Y-66240939D01*
X26942111Y-66261400D01*
X26986315Y-66337963D01*
X26986317Y-66337965D01*
X27206481Y-66558129D01*
X27221184Y-66585056D01*
X27237777Y-66610875D01*
X27238668Y-66617075D01*
X27239966Y-66619452D01*
X27242800Y-66645810D01*
X27242800Y-66792590D01*
X27223115Y-66859629D01*
X27206481Y-66880271D01*
X26986317Y-67100434D01*
X26986313Y-67100440D01*
X26930298Y-67197460D01*
X26930297Y-67197463D01*
X26901300Y-67305682D01*
X26901300Y-81955490D01*
X26881615Y-82022529D01*
X26864981Y-82043171D01*
X23978071Y-84930081D01*
X23916748Y-84963566D01*
X23890390Y-84966400D01*
X23863943Y-84966400D01*
X23711216Y-85007323D01*
X23711209Y-85007326D01*
X23574290Y-85086375D01*
X23574282Y-85086381D01*
X23462481Y-85198182D01*
X23462475Y-85198190D01*
X23383426Y-85335109D01*
X23383423Y-85335116D01*
X23342500Y-85487843D01*
X23342500Y-85645957D01*
X23379087Y-85782499D01*
X23383423Y-85798683D01*
X23383426Y-85798690D01*
X23462475Y-85935609D01*
X23462479Y-85935614D01*
X23462480Y-85935616D01*
X23574284Y-86047420D01*
X23574286Y-86047421D01*
X23574290Y-86047424D01*
X23648553Y-86090299D01*
X23711216Y-86126477D01*
X23863943Y-86167400D01*
X23863945Y-86167400D01*
X24022055Y-86167400D01*
X24022057Y-86167400D01*
X24174784Y-86126477D01*
X24311716Y-86047420D01*
X24423520Y-85935616D01*
X24502577Y-85798684D01*
X24543500Y-85645957D01*
X24543500Y-85619510D01*
X24563185Y-85552471D01*
X24579819Y-85531829D01*
X26095857Y-84015791D01*
X27667285Y-82444363D01*
X27723303Y-82347337D01*
X27752300Y-82239118D01*
X27752300Y-82127081D01*
X27752300Y-67589310D01*
X27771985Y-67522271D01*
X27788619Y-67501629D01*
X27867614Y-67422634D01*
X28008785Y-67281463D01*
X28064803Y-67184437D01*
X28093800Y-67076218D01*
X28093800Y-66964182D01*
X28093800Y-66362182D01*
X28064803Y-66253963D01*
X28008785Y-66156937D01*
X27929563Y-66077715D01*
X27788619Y-65936771D01*
X27755134Y-65875448D01*
X27752300Y-65849090D01*
X27752300Y-65558210D01*
X27771985Y-65491171D01*
X27824789Y-65445416D01*
X27893947Y-65435472D01*
X27957503Y-65464497D01*
X27963981Y-65470529D01*
X47408381Y-84914929D01*
X47441866Y-84976252D01*
X47444700Y-85002610D01*
X47444700Y-85029057D01*
X47465246Y-85105733D01*
X47485623Y-85181783D01*
X47485626Y-85181790D01*
X47564675Y-85318709D01*
X47564679Y-85318714D01*
X47564680Y-85318716D01*
X47676484Y-85430520D01*
X47676486Y-85430521D01*
X47676490Y-85430524D01*
X47744365Y-85469711D01*
X47813416Y-85509577D01*
X47966143Y-85550500D01*
X47966145Y-85550500D01*
X48124255Y-85550500D01*
X48124257Y-85550500D01*
X48276984Y-85509577D01*
X48413916Y-85430520D01*
X48525720Y-85318716D01*
X48604777Y-85181784D01*
X48645700Y-85029057D01*
X48645700Y-84870943D01*
X48604777Y-84718216D01*
X48583384Y-84681162D01*
X48525724Y-84581290D01*
X48525718Y-84581282D01*
X48413917Y-84469481D01*
X48413909Y-84469475D01*
X48276990Y-84390426D01*
X48276986Y-84390424D01*
X48276984Y-84390423D01*
X48124257Y-84349500D01*
X48124256Y-84349500D01*
X48097810Y-84349500D01*
X48030771Y-84329815D01*
X48010129Y-84313181D01*
X28641619Y-64944671D01*
X28608134Y-64883348D01*
X28605300Y-64856990D01*
X28605300Y-59793843D01*
X29226200Y-59793843D01*
X29226200Y-59951957D01*
X29263642Y-60091690D01*
X29267123Y-60104683D01*
X29267126Y-60104690D01*
X29346175Y-60241609D01*
X29346181Y-60241617D01*
X29364881Y-60260317D01*
X29398366Y-60321640D01*
X29401200Y-60347998D01*
X29401200Y-63919382D01*
X29401200Y-64031418D01*
X29430197Y-64139637D01*
X29486215Y-64236663D01*
X29486217Y-64236665D01*
X48921081Y-83671529D01*
X48954566Y-83732852D01*
X48957400Y-83759210D01*
X48957400Y-83785657D01*
X48996430Y-83931317D01*
X48998323Y-83938383D01*
X48998326Y-83938390D01*
X49077375Y-84075309D01*
X49077379Y-84075314D01*
X49077380Y-84075316D01*
X49189184Y-84187120D01*
X49189186Y-84187121D01*
X49189190Y-84187124D01*
X49264179Y-84230418D01*
X49326116Y-84266177D01*
X49478843Y-84307100D01*
X49478845Y-84307100D01*
X49636955Y-84307100D01*
X49636957Y-84307100D01*
X49789684Y-84266177D01*
X49926616Y-84187120D01*
X50038420Y-84075316D01*
X50117477Y-83938384D01*
X50158400Y-83785657D01*
X50158400Y-83627543D01*
X50117477Y-83474816D01*
X50054085Y-83365016D01*
X50038424Y-83337890D01*
X50038418Y-83337882D01*
X49926617Y-83226081D01*
X49926609Y-83226075D01*
X49789690Y-83147026D01*
X49789686Y-83147024D01*
X49789684Y-83147023D01*
X49636957Y-83106100D01*
X49636956Y-83106100D01*
X49610510Y-83106100D01*
X49543471Y-83086415D01*
X49522829Y-83069781D01*
X30288519Y-63835471D01*
X30255034Y-63774148D01*
X30252200Y-63747790D01*
X30252200Y-60347998D01*
X30271885Y-60280959D01*
X30288519Y-60260317D01*
X30307220Y-60241616D01*
X30386277Y-60104684D01*
X30427200Y-59951957D01*
X30427200Y-59793843D01*
X30386277Y-59641116D01*
X30344478Y-59568717D01*
X30307224Y-59504190D01*
X30307218Y-59504182D01*
X30195417Y-59392381D01*
X30195409Y-59392375D01*
X30058490Y-59313326D01*
X30058486Y-59313324D01*
X30058484Y-59313323D01*
X29905757Y-59272400D01*
X29747643Y-59272400D01*
X29594916Y-59313323D01*
X29594909Y-59313326D01*
X29457990Y-59392375D01*
X29457982Y-59392381D01*
X29346181Y-59504182D01*
X29346175Y-59504190D01*
X29267126Y-59641109D01*
X29267123Y-59641116D01*
X29226200Y-59793843D01*
X28605300Y-59793843D01*
X28605300Y-58875098D01*
X28624985Y-58808059D01*
X28641619Y-58787417D01*
X28660320Y-58768716D01*
X28739377Y-58631784D01*
X28780300Y-58479057D01*
X28780300Y-58320943D01*
X28739377Y-58168216D01*
X28732786Y-58156800D01*
X28660324Y-58031290D01*
X28660318Y-58031282D01*
X28548517Y-57919481D01*
X28548509Y-57919475D01*
X28411590Y-57840426D01*
X28411585Y-57840423D01*
X28399216Y-57837109D01*
X28380004Y-57831961D01*
X28320345Y-57795596D01*
X28289817Y-57732749D01*
X28288100Y-57712187D01*
X28288100Y-57559745D01*
X28288100Y-57559743D01*
X28247177Y-57407016D01*
X28199546Y-57324516D01*
X28168124Y-57270090D01*
X28168118Y-57270082D01*
X28159814Y-57261778D01*
X28126329Y-57200455D01*
X28131313Y-57130763D01*
X28140104Y-57112103D01*
X28186477Y-57031784D01*
X28227400Y-56879057D01*
X28227400Y-56720943D01*
X28186477Y-56568216D01*
X28166155Y-56533017D01*
X28107424Y-56431290D01*
X28107418Y-56431282D01*
X27995617Y-56319481D01*
X27995609Y-56319475D01*
X27858690Y-56240426D01*
X27858686Y-56240424D01*
X27858684Y-56240423D01*
X27705957Y-56199500D01*
X27547843Y-56199500D01*
X27395116Y-56240423D01*
X27395109Y-56240426D01*
X27258190Y-56319475D01*
X27258182Y-56319481D01*
X27146381Y-56431282D01*
X27146375Y-56431290D01*
X27067326Y-56568209D01*
X27067323Y-56568216D01*
X27026400Y-56720943D01*
X27026400Y-56747390D01*
X27006715Y-56814429D01*
X26990081Y-56835071D01*
X26201581Y-57623571D01*
X26140258Y-57657056D01*
X26070566Y-57652072D01*
X26014633Y-57610200D01*
X25990216Y-57544736D01*
X25989900Y-57535890D01*
X25989900Y-54682998D01*
X26009585Y-54615959D01*
X26026219Y-54595317D01*
X26044920Y-54576616D01*
X26123977Y-54439684D01*
X26164900Y-54286957D01*
X26164900Y-54128843D01*
X26123977Y-53976116D01*
X26123973Y-53976109D01*
X26044924Y-53839190D01*
X26044918Y-53839182D01*
X25927369Y-53721633D01*
X25929169Y-53719832D01*
X25895474Y-53673674D01*
X25891327Y-53603927D01*
X25924485Y-53544061D01*
X27364029Y-52104519D01*
X27425352Y-52071034D01*
X27451710Y-52068200D01*
X35459490Y-52068200D01*
X35526529Y-52087885D01*
X35572284Y-52140689D01*
X35582228Y-52209847D01*
X35553203Y-52273403D01*
X35547171Y-52279881D01*
X31855871Y-55971181D01*
X31794548Y-56004666D01*
X31768190Y-56007500D01*
X31741743Y-56007500D01*
X31589016Y-56048423D01*
X31589009Y-56048426D01*
X31452090Y-56127475D01*
X31452082Y-56127481D01*
X31340281Y-56239282D01*
X31340275Y-56239290D01*
X31261226Y-56376209D01*
X31261223Y-56376216D01*
X31220300Y-56528943D01*
X31220300Y-56687057D01*
X31260661Y-56837684D01*
X31261223Y-56839783D01*
X31261226Y-56839790D01*
X31340275Y-56976709D01*
X31340281Y-56976717D01*
X31452082Y-57088518D01*
X31452081Y-57088518D01*
X31452083Y-57088519D01*
X31452084Y-57088520D01*
X31458611Y-57092288D01*
X31506827Y-57142850D01*
X31520054Y-57211457D01*
X31504003Y-57261676D01*
X31467723Y-57324515D01*
X31467723Y-57324516D01*
X31426800Y-57477243D01*
X31426800Y-57635357D01*
X31463593Y-57772668D01*
X31467723Y-57788083D01*
X31467726Y-57788090D01*
X31546775Y-57925009D01*
X31546779Y-57925014D01*
X31546780Y-57925016D01*
X31658584Y-58036820D01*
X31658586Y-58036821D01*
X31658590Y-58036824D01*
X31787169Y-58111058D01*
X31795516Y-58115877D01*
X31948243Y-58156800D01*
X31948245Y-58156800D01*
X31959190Y-58156800D01*
X32026229Y-58176485D01*
X32071984Y-58229289D01*
X32081928Y-58298447D01*
X32052903Y-58362003D01*
X32046871Y-58368481D01*
X31852171Y-58563181D01*
X31790848Y-58596666D01*
X31764490Y-58599500D01*
X31738043Y-58599500D01*
X31585316Y-58640423D01*
X31585309Y-58640426D01*
X31448390Y-58719475D01*
X31448382Y-58719481D01*
X31336581Y-58831282D01*
X31336575Y-58831290D01*
X31257526Y-58968209D01*
X31257523Y-58968216D01*
X31216600Y-59120943D01*
X31216600Y-59279057D01*
X31248535Y-59398238D01*
X31257523Y-59431783D01*
X31257526Y-59431790D01*
X31336575Y-59568709D01*
X31336579Y-59568714D01*
X31336580Y-59568716D01*
X31448384Y-59680520D01*
X31448386Y-59680521D01*
X31448390Y-59680524D01*
X31585084Y-59759443D01*
X31585316Y-59759577D01*
X31738043Y-59800500D01*
X31738045Y-59800500D01*
X31896155Y-59800500D01*
X31896157Y-59800500D01*
X32048884Y-59759577D01*
X32185816Y-59680520D01*
X32297620Y-59568716D01*
X32376677Y-59431784D01*
X32417600Y-59279057D01*
X32417600Y-59252610D01*
X32437285Y-59185571D01*
X32453919Y-59164929D01*
X35649029Y-55969819D01*
X35710352Y-55936334D01*
X35736710Y-55933500D01*
X46030291Y-55933500D01*
X46097330Y-55953185D01*
X46143085Y-56005989D01*
X46153029Y-56075147D01*
X46124004Y-56138703D01*
X46117975Y-56145177D01*
X45088874Y-57174277D01*
X44750896Y-57512255D01*
X44750895Y-57512255D01*
X44750896Y-57512256D01*
X44689114Y-57574038D01*
X44689113Y-57574040D01*
X44633098Y-57671060D01*
X44633097Y-57671063D01*
X44604100Y-57779282D01*
X44604100Y-77190182D01*
X44604100Y-77302218D01*
X44633097Y-77410437D01*
X44689115Y-77507463D01*
X44689116Y-77507464D01*
X44689117Y-77507465D01*
X50738081Y-83556428D01*
X50771566Y-83617751D01*
X50774400Y-83644109D01*
X50774400Y-83670557D01*
X50813664Y-83817090D01*
X50815323Y-83823283D01*
X50815326Y-83823290D01*
X50894375Y-83960209D01*
X50894379Y-83960214D01*
X50894380Y-83960216D01*
X51006184Y-84072020D01*
X51006186Y-84072021D01*
X51006190Y-84072024D01*
X51114883Y-84134777D01*
X51143116Y-84151077D01*
X51295843Y-84192000D01*
X51295845Y-84192000D01*
X51453955Y-84192000D01*
X51453957Y-84192000D01*
X51606684Y-84151077D01*
X51742264Y-84072800D01*
X51810162Y-84056328D01*
X51866261Y-84072800D01*
X51963216Y-84128777D01*
X52115943Y-84169700D01*
X52115945Y-84169700D01*
X52274055Y-84169700D01*
X52274057Y-84169700D01*
X52426784Y-84128777D01*
X52563716Y-84049720D01*
X52675520Y-83937916D01*
X52754577Y-83800984D01*
X52795500Y-83648257D01*
X52795500Y-83490143D01*
X52779443Y-83430217D01*
X52781106Y-83360373D01*
X52820268Y-83302510D01*
X52884496Y-83275005D01*
X52953398Y-83286591D01*
X52986899Y-83310447D01*
X53238181Y-83561729D01*
X53271666Y-83623052D01*
X53274500Y-83649410D01*
X53274500Y-83675857D01*
X53314005Y-83823290D01*
X53315423Y-83828583D01*
X53315426Y-83828590D01*
X53394475Y-83965509D01*
X53394479Y-83965514D01*
X53394480Y-83965516D01*
X53506284Y-84077320D01*
X53506286Y-84077321D01*
X53506290Y-84077324D01*
X53641286Y-84155263D01*
X53643216Y-84156377D01*
X53795943Y-84197300D01*
X53795945Y-84197300D01*
X53954055Y-84197300D01*
X53954057Y-84197300D01*
X54106784Y-84156377D01*
X54243716Y-84077320D01*
X54355520Y-83965516D01*
X54434577Y-83828584D01*
X54475500Y-83675857D01*
X54475500Y-83517743D01*
X54434577Y-83365016D01*
X54427938Y-83353516D01*
X54355524Y-83228090D01*
X54355518Y-83228082D01*
X54243717Y-83116281D01*
X54243709Y-83116275D01*
X54106790Y-83037226D01*
X54106786Y-83037224D01*
X54106784Y-83037223D01*
X53954057Y-82996300D01*
X53954056Y-82996300D01*
X53927610Y-82996300D01*
X53860571Y-82976615D01*
X53839929Y-82959981D01*
X50047119Y-79167171D01*
X50013634Y-79105848D01*
X50010800Y-79079490D01*
X50010800Y-74981110D01*
X50030485Y-74914071D01*
X50083289Y-74868316D01*
X50152447Y-74858372D01*
X50216003Y-74887397D01*
X50222481Y-74893429D01*
X55479381Y-80150329D01*
X55512866Y-80211652D01*
X55515700Y-80238010D01*
X55515700Y-84474902D01*
X55496015Y-84541941D01*
X55479381Y-84562583D01*
X55460681Y-84581282D01*
X55460675Y-84581290D01*
X55381626Y-84718209D01*
X55381623Y-84718216D01*
X55340700Y-84870943D01*
X55340700Y-85029057D01*
X55361246Y-85105733D01*
X55381623Y-85181783D01*
X55381626Y-85181790D01*
X55460675Y-85318709D01*
X55460679Y-85318714D01*
X55460680Y-85318716D01*
X55572484Y-85430520D01*
X55572486Y-85430521D01*
X55572490Y-85430524D01*
X55640365Y-85469711D01*
X55709416Y-85509577D01*
X55862143Y-85550500D01*
X55862145Y-85550500D01*
X56020255Y-85550500D01*
X56020257Y-85550500D01*
X56172984Y-85509577D01*
X56309916Y-85430520D01*
X56421720Y-85318716D01*
X56500777Y-85181784D01*
X56541700Y-85029057D01*
X56541700Y-84870943D01*
X56500777Y-84718216D01*
X56479384Y-84681162D01*
X56421724Y-84581290D01*
X56421718Y-84581282D01*
X56403019Y-84562583D01*
X56369534Y-84501260D01*
X56366700Y-84474902D01*
X56366700Y-79954384D01*
X56366700Y-79954382D01*
X56337703Y-79846163D01*
X56281685Y-79749137D01*
X56202463Y-79669915D01*
X50589919Y-74057371D01*
X50556434Y-73996048D01*
X50553600Y-73969690D01*
X50553600Y-72590390D01*
X50559018Y-72571936D01*
X50559464Y-72552709D01*
X50568659Y-72539104D01*
X50573285Y-72523351D01*
X50587818Y-72510757D01*
X50598589Y-72494822D01*
X50613680Y-72488347D01*
X50626089Y-72477596D01*
X50645123Y-72474859D01*
X50662800Y-72467276D01*
X50686249Y-72468945D01*
X50695247Y-72467652D01*
X50698085Y-72468094D01*
X50703947Y-72469075D01*
X50765243Y-72485500D01*
X50802002Y-72485500D01*
X50812175Y-72487204D01*
X50834705Y-72498130D01*
X50858729Y-72505185D01*
X50873056Y-72516730D01*
X50875041Y-72517693D01*
X50875805Y-72518946D01*
X50879371Y-72521819D01*
X51016315Y-72658763D01*
X51095537Y-72737985D01*
X51167592Y-72779586D01*
X51192563Y-72794003D01*
X51300781Y-72823000D01*
X51300782Y-72823000D01*
X51300783Y-72823000D01*
X60457216Y-72823000D01*
X60457218Y-72823000D01*
X60565437Y-72794003D01*
X60662463Y-72737985D01*
X61194185Y-72206263D01*
X61250203Y-72109237D01*
X61279200Y-72001018D01*
X61279200Y-71888981D01*
X61279200Y-68974882D01*
X61250203Y-68866663D01*
X61194185Y-68769637D01*
X61114963Y-68690415D01*
X60809619Y-68385071D01*
X60776134Y-68323748D01*
X60773300Y-68297390D01*
X60773300Y-68270945D01*
X60773300Y-68270943D01*
X60732377Y-68118216D01*
X60724112Y-68103900D01*
X60653324Y-67981290D01*
X60653318Y-67981282D01*
X60541517Y-67869481D01*
X60541509Y-67869475D01*
X60404590Y-67790426D01*
X60404586Y-67790424D01*
X60404584Y-67790423D01*
X60251857Y-67749500D01*
X60093743Y-67749500D01*
X59941016Y-67790423D01*
X59941009Y-67790426D01*
X59804090Y-67869475D01*
X59804082Y-67869481D01*
X59692281Y-67981282D01*
X59692275Y-67981290D01*
X59613226Y-68118209D01*
X59613223Y-68118216D01*
X59572300Y-68270943D01*
X59572300Y-68429056D01*
X59613223Y-68581783D01*
X59613226Y-68581790D01*
X59692275Y-68718709D01*
X59692279Y-68718714D01*
X59692280Y-68718716D01*
X59804084Y-68830520D01*
X59804086Y-68830521D01*
X59804090Y-68830524D01*
X59866686Y-68866663D01*
X59941016Y-68909577D01*
X60093743Y-68950500D01*
X60120190Y-68950500D01*
X60187229Y-68970185D01*
X60207871Y-68986819D01*
X60391881Y-69170829D01*
X60425366Y-69232152D01*
X60428200Y-69258510D01*
X60428200Y-71717390D01*
X60419555Y-71746830D01*
X60413032Y-71776817D01*
X60409277Y-71781832D01*
X60408515Y-71784429D01*
X60391881Y-71805071D01*
X60261271Y-71935681D01*
X60199948Y-71969166D01*
X60173590Y-71972000D01*
X51584410Y-71972000D01*
X51517371Y-71952315D01*
X51496729Y-71935681D01*
X51481119Y-71920071D01*
X51447634Y-71858748D01*
X51444800Y-71832390D01*
X51444800Y-71805945D01*
X51444800Y-71805943D01*
X51403877Y-71653216D01*
X51356377Y-71570943D01*
X51324824Y-71516290D01*
X51324818Y-71516282D01*
X51213017Y-71404481D01*
X51213009Y-71404475D01*
X51076090Y-71325426D01*
X51076086Y-71325424D01*
X51076084Y-71325423D01*
X50923357Y-71284500D01*
X50765243Y-71284500D01*
X50765241Y-71284500D01*
X50709692Y-71299384D01*
X50639842Y-71297721D01*
X50581980Y-71258557D01*
X50554477Y-71194328D01*
X50553600Y-71179609D01*
X50553600Y-62082184D01*
X50553600Y-62082182D01*
X50524603Y-61973963D01*
X50468585Y-61876937D01*
X50389363Y-61797715D01*
X48463519Y-59871871D01*
X48430034Y-59810548D01*
X48427200Y-59784190D01*
X48427200Y-59757745D01*
X48427200Y-59757743D01*
X48386277Y-59605016D01*
X48365320Y-59568717D01*
X48307224Y-59468090D01*
X48307218Y-59468082D01*
X48195417Y-59356281D01*
X48195409Y-59356275D01*
X48058490Y-59277226D01*
X48058486Y-59277224D01*
X48058484Y-59277223D01*
X47905757Y-59236300D01*
X47747643Y-59236300D01*
X47594916Y-59277223D01*
X47594909Y-59277226D01*
X47457990Y-59356275D01*
X47457982Y-59356281D01*
X47346181Y-59468082D01*
X47346175Y-59468090D01*
X47267126Y-59605009D01*
X47267123Y-59605016D01*
X47226200Y-59757743D01*
X47226200Y-59915857D01*
X47263402Y-60054695D01*
X47267123Y-60068583D01*
X47267126Y-60068590D01*
X47346175Y-60205509D01*
X47346179Y-60205514D01*
X47346180Y-60205516D01*
X47457984Y-60317320D01*
X47457986Y-60317321D01*
X47457990Y-60317324D01*
X47511120Y-60347998D01*
X47594916Y-60396377D01*
X47747643Y-60437300D01*
X47774090Y-60437300D01*
X47841129Y-60456985D01*
X47861771Y-60473619D01*
X49666281Y-62278129D01*
X49699766Y-62339452D01*
X49702600Y-62365810D01*
X49702600Y-68724190D01*
X49682915Y-68791229D01*
X49630111Y-68836984D01*
X49560953Y-68846928D01*
X49497397Y-68817903D01*
X49490919Y-68811871D01*
X46630519Y-65951471D01*
X46597034Y-65890148D01*
X46594200Y-65863790D01*
X46594200Y-59018898D01*
X46613885Y-58951859D01*
X46630519Y-58931217D01*
X46649220Y-58912516D01*
X46728277Y-58775584D01*
X46769200Y-58622857D01*
X46769200Y-58464743D01*
X46728277Y-58312016D01*
X46686928Y-58240397D01*
X46649224Y-58175090D01*
X46649218Y-58175082D01*
X46646517Y-58172381D01*
X46644966Y-58169541D01*
X46644274Y-58168639D01*
X46644414Y-58168531D01*
X46613032Y-58111058D01*
X46618016Y-58041366D01*
X46646517Y-57997019D01*
X46651055Y-57992481D01*
X46674820Y-57968716D01*
X46753877Y-57831784D01*
X46794800Y-57679057D01*
X46794800Y-57520943D01*
X46753877Y-57368216D01*
X46728647Y-57324516D01*
X46674824Y-57231290D01*
X46674818Y-57231282D01*
X46563017Y-57119481D01*
X46556565Y-57114530D01*
X46557959Y-57112712D01*
X46517908Y-57070709D01*
X46504683Y-57002102D01*
X46530649Y-56937237D01*
X46540441Y-56926205D01*
X46651021Y-56815626D01*
X46838728Y-56627919D01*
X46900051Y-56594434D01*
X46926409Y-56591600D01*
X47351602Y-56591600D01*
X47418641Y-56611285D01*
X47439283Y-56627919D01*
X47457984Y-56646620D01*
X47457986Y-56646621D01*
X47457990Y-56646624D01*
X47591798Y-56723877D01*
X47594916Y-56725677D01*
X47747643Y-56766600D01*
X47747645Y-56766600D01*
X47905755Y-56766600D01*
X47905757Y-56766600D01*
X48058484Y-56725677D01*
X48121200Y-56689467D01*
X48189100Y-56672995D01*
X48255127Y-56695848D01*
X48298318Y-56750769D01*
X48307200Y-56796855D01*
X48307200Y-58230682D01*
X48307200Y-58342718D01*
X48333387Y-58440448D01*
X48336197Y-58450936D01*
X48336198Y-58450939D01*
X48352432Y-58479057D01*
X48392215Y-58547963D01*
X50288137Y-60443885D01*
X50385163Y-60499903D01*
X50493382Y-60528900D01*
X50493384Y-60528900D01*
X70858016Y-60528900D01*
X70858018Y-60528900D01*
X70966237Y-60499903D01*
X71063263Y-60443885D01*
X90500499Y-41006648D01*
X90561820Y-40973165D01*
X90631512Y-40978149D01*
X90687445Y-41020021D01*
X90711862Y-41085485D01*
X90707953Y-41126424D01*
X90688200Y-41200143D01*
X90688200Y-41358256D01*
X90729123Y-41510983D01*
X90729126Y-41510990D01*
X90808175Y-41647909D01*
X90808179Y-41647914D01*
X90808180Y-41647916D01*
X90919984Y-41759720D01*
X90919986Y-41759721D01*
X90919990Y-41759724D01*
X91028198Y-41822197D01*
X91056916Y-41838777D01*
X91209643Y-41879700D01*
X91209645Y-41879700D01*
X91367754Y-41879700D01*
X91367757Y-41879700D01*
X91393108Y-41872907D01*
X91462956Y-41874570D01*
X91520819Y-41913732D01*
X91548323Y-41977961D01*
X91549200Y-41992682D01*
X91549200Y-44224390D01*
X91529515Y-44291429D01*
X91512881Y-44312071D01*
X79853571Y-55971381D01*
X79792248Y-56004866D01*
X79765890Y-56007700D01*
X79739443Y-56007700D01*
X79586716Y-56048623D01*
X79586709Y-56048626D01*
X79449790Y-56127675D01*
X79449782Y-56127681D01*
X79337981Y-56239482D01*
X79337975Y-56239490D01*
X79258926Y-56376409D01*
X79258923Y-56376416D01*
X79218000Y-56529143D01*
X79218000Y-56687257D01*
X79258870Y-56839784D01*
X79258923Y-56839983D01*
X79258926Y-56839990D01*
X79337975Y-56976909D01*
X79337979Y-56976914D01*
X79337980Y-56976916D01*
X79449784Y-57088720D01*
X79449785Y-57088721D01*
X79449787Y-57088722D01*
X79534175Y-57137443D01*
X79582390Y-57188009D01*
X79595614Y-57256616D01*
X79591952Y-57276913D01*
X79586800Y-57296143D01*
X79586800Y-57454257D01*
X79621986Y-57585571D01*
X79627723Y-57606983D01*
X79627726Y-57606990D01*
X79706775Y-57743909D01*
X79706779Y-57743914D01*
X79706780Y-57743916D01*
X79818584Y-57855720D01*
X79818586Y-57855721D01*
X79818590Y-57855724D01*
X79881098Y-57891813D01*
X79929314Y-57942379D01*
X79942538Y-58010986D01*
X79916570Y-58075851D01*
X79881098Y-58106587D01*
X79818590Y-58142675D01*
X79818582Y-58142681D01*
X79706781Y-58254482D01*
X79706775Y-58254490D01*
X79627726Y-58391409D01*
X79627723Y-58391416D01*
X79586800Y-58544143D01*
X79586800Y-58702257D01*
X79591808Y-58720950D01*
X79590146Y-58790798D01*
X79550984Y-58848661D01*
X79534034Y-58860429D01*
X79448387Y-58909877D01*
X79448382Y-58909881D01*
X79336581Y-59021682D01*
X79336575Y-59021690D01*
X79257526Y-59158609D01*
X79257523Y-59158616D01*
X79216600Y-59311343D01*
X79216600Y-59419490D01*
X79196915Y-59486529D01*
X79144111Y-59532284D01*
X79074953Y-59542228D01*
X79011397Y-59513203D01*
X79004919Y-59507171D01*
X77794165Y-58296417D01*
X77794164Y-58296416D01*
X77794163Y-58296415D01*
X77697137Y-58240397D01*
X77588918Y-58211400D01*
X77588917Y-58211400D01*
X76731498Y-58211400D01*
X76664459Y-58191715D01*
X76618704Y-58138911D01*
X76608760Y-58069753D01*
X76637785Y-58006197D01*
X76643817Y-57999719D01*
X76651055Y-57992481D01*
X76674820Y-57968716D01*
X76753877Y-57831784D01*
X76794800Y-57679057D01*
X76794800Y-57520943D01*
X76753877Y-57368216D01*
X76728647Y-57324516D01*
X76674824Y-57231290D01*
X76674818Y-57231282D01*
X76563018Y-57119482D01*
X76563017Y-57119481D01*
X76563016Y-57119480D01*
X76563013Y-57119478D01*
X76562056Y-57118744D01*
X76561449Y-57117913D01*
X76557269Y-57113733D01*
X76557920Y-57113081D01*
X76520852Y-57062316D01*
X76516697Y-56992570D01*
X76549857Y-56932690D01*
X76857531Y-56625016D01*
X76918852Y-56591534D01*
X76945210Y-56588700D01*
X77351602Y-56588700D01*
X77418641Y-56608385D01*
X77439282Y-56625018D01*
X77457984Y-56643720D01*
X77457986Y-56643721D01*
X77457990Y-56643724D01*
X77550540Y-56697157D01*
X77594916Y-56722777D01*
X77747643Y-56763700D01*
X77747645Y-56763700D01*
X77905755Y-56763700D01*
X77905757Y-56763700D01*
X78058484Y-56722777D01*
X78195416Y-56643720D01*
X78307220Y-56531916D01*
X78386277Y-56394984D01*
X78427200Y-56242257D01*
X78427200Y-56084143D01*
X78386277Y-55931416D01*
X78369775Y-55902834D01*
X78307224Y-55794490D01*
X78307218Y-55794482D01*
X78195417Y-55682681D01*
X78195409Y-55682675D01*
X78058490Y-55603626D01*
X78058486Y-55603624D01*
X78058484Y-55603623D01*
X77905757Y-55562700D01*
X77747643Y-55562700D01*
X77594916Y-55603623D01*
X77594909Y-55603626D01*
X77457990Y-55682675D01*
X77457982Y-55682681D01*
X77439283Y-55701381D01*
X77377960Y-55734866D01*
X77351602Y-55737700D01*
X76661582Y-55737700D01*
X76553363Y-55766697D01*
X76553360Y-55766698D01*
X76456340Y-55822713D01*
X76456334Y-55822717D01*
X74397617Y-57881434D01*
X74397613Y-57881440D01*
X74341598Y-57978460D01*
X74341597Y-57978463D01*
X74312600Y-58086682D01*
X74312600Y-80115182D01*
X74312600Y-80227218D01*
X74341597Y-80335437D01*
X74397615Y-80432463D01*
X76925133Y-82959981D01*
X79419881Y-85454728D01*
X79453366Y-85516051D01*
X79456200Y-85542409D01*
X79456200Y-85568857D01*
X79485926Y-85679794D01*
X79497123Y-85721583D01*
X79497126Y-85721590D01*
X79576175Y-85858509D01*
X79576179Y-85858514D01*
X79576180Y-85858516D01*
X79687984Y-85970320D01*
X79687986Y-85970321D01*
X79687990Y-85970324D01*
X79821523Y-86047418D01*
X79824916Y-86049377D01*
X79977643Y-86090300D01*
X79977645Y-86090300D01*
X80135755Y-86090300D01*
X80135757Y-86090300D01*
X80288484Y-86049377D01*
X80425416Y-85970320D01*
X80537220Y-85858516D01*
X80616277Y-85721584D01*
X80657200Y-85568857D01*
X80657200Y-85410743D01*
X80616277Y-85258016D01*
X80581737Y-85198190D01*
X80537224Y-85121090D01*
X80537218Y-85121082D01*
X80425417Y-85009281D01*
X80425409Y-85009275D01*
X80288490Y-84930226D01*
X80288486Y-84930224D01*
X80288484Y-84930223D01*
X80135757Y-84889300D01*
X80135756Y-84889300D01*
X80109309Y-84889300D01*
X80042270Y-84869615D01*
X80021628Y-84852981D01*
X75199919Y-80031271D01*
X75166434Y-79969948D01*
X75163600Y-79943590D01*
X75163600Y-78024210D01*
X75183285Y-77957171D01*
X75236089Y-77911416D01*
X75305247Y-77901472D01*
X75368803Y-77930497D01*
X75375281Y-77936529D01*
X81006781Y-83568029D01*
X81040266Y-83629352D01*
X81043100Y-83655710D01*
X81043100Y-83682157D01*
X81082435Y-83828955D01*
X81084023Y-83834883D01*
X81084026Y-83834890D01*
X81163075Y-83971809D01*
X81163079Y-83971814D01*
X81163080Y-83971816D01*
X81274884Y-84083620D01*
X81274886Y-84083621D01*
X81274890Y-84083624D01*
X81398974Y-84155263D01*
X81411816Y-84162677D01*
X81564543Y-84203600D01*
X81564545Y-84203600D01*
X81722655Y-84203600D01*
X81722657Y-84203600D01*
X81875384Y-84162677D01*
X82012316Y-84083620D01*
X82124120Y-83971816D01*
X82124120Y-83971815D01*
X82129867Y-83966069D01*
X82130910Y-83967112D01*
X82180099Y-83931195D01*
X82249845Y-83927040D01*
X82310766Y-83961251D01*
X82341823Y-84015790D01*
X82353197Y-84058236D01*
X82353198Y-84058239D01*
X82363058Y-84075317D01*
X82409215Y-84155263D01*
X82757115Y-84503163D01*
X82836337Y-84582385D01*
X82933363Y-84638403D01*
X83041582Y-84667400D01*
X83041584Y-84667400D01*
X83760016Y-84667400D01*
X83760018Y-84667400D01*
X83868237Y-84638403D01*
X83965263Y-84582385D01*
X84325529Y-84222119D01*
X84386852Y-84188634D01*
X84413210Y-84185800D01*
X84439655Y-84185800D01*
X84439657Y-84185800D01*
X84592384Y-84144877D01*
X84729316Y-84065820D01*
X84841120Y-83954016D01*
X84920177Y-83817084D01*
X84961100Y-83664357D01*
X84961100Y-83506243D01*
X84956009Y-83487243D01*
X85274500Y-83487243D01*
X85274500Y-83645357D01*
X85314432Y-83794383D01*
X85315423Y-83798083D01*
X85315426Y-83798090D01*
X85394475Y-83935009D01*
X85394479Y-83935014D01*
X85394480Y-83935016D01*
X85506284Y-84046820D01*
X85506286Y-84046821D01*
X85506290Y-84046824D01*
X85630627Y-84118609D01*
X85643216Y-84125877D01*
X85795943Y-84166800D01*
X85795945Y-84166800D01*
X85954055Y-84166800D01*
X85954057Y-84166800D01*
X86106784Y-84125877D01*
X86243716Y-84046820D01*
X86355520Y-83935016D01*
X86434577Y-83798084D01*
X86475500Y-83645357D01*
X86475500Y-83618910D01*
X86495185Y-83551871D01*
X86511819Y-83531229D01*
X86756457Y-83286591D01*
X87003185Y-83039863D01*
X87059203Y-82942837D01*
X87088200Y-82834618D01*
X87088200Y-82722582D01*
X87088200Y-59374410D01*
X87107885Y-59307371D01*
X87124519Y-59286729D01*
X87317619Y-59093629D01*
X87378942Y-59060144D01*
X87448634Y-59065128D01*
X87504567Y-59107000D01*
X87528984Y-59172464D01*
X87529300Y-59181310D01*
X87529300Y-84474902D01*
X87509615Y-84541941D01*
X87492981Y-84562583D01*
X87474281Y-84581282D01*
X87474275Y-84581290D01*
X87395226Y-84718209D01*
X87395223Y-84718216D01*
X87354300Y-84870943D01*
X87354300Y-85029057D01*
X87374846Y-85105733D01*
X87395223Y-85181783D01*
X87395226Y-85181790D01*
X87474275Y-85318709D01*
X87474279Y-85318714D01*
X87474280Y-85318716D01*
X87586084Y-85430520D01*
X87586086Y-85430521D01*
X87586090Y-85430524D01*
X87653965Y-85469711D01*
X87723016Y-85509577D01*
X87875743Y-85550500D01*
X87875745Y-85550500D01*
X88033855Y-85550500D01*
X88033857Y-85550500D01*
X88186584Y-85509577D01*
X88323516Y-85430520D01*
X88435320Y-85318716D01*
X88514377Y-85181784D01*
X88555300Y-85029057D01*
X88555300Y-84870943D01*
X88514377Y-84718216D01*
X88492984Y-84681162D01*
X88435324Y-84581290D01*
X88435318Y-84581282D01*
X88416619Y-84562583D01*
X88383134Y-84501260D01*
X88380300Y-84474902D01*
X88380300Y-72526643D01*
X88905200Y-72526643D01*
X88905200Y-72684757D01*
X88934473Y-72794003D01*
X88946123Y-72837483D01*
X88946126Y-72837490D01*
X89025175Y-72974409D01*
X89025179Y-72974414D01*
X89025180Y-72974416D01*
X89136984Y-73086220D01*
X89136986Y-73086221D01*
X89136990Y-73086224D01*
X89252272Y-73152781D01*
X89273916Y-73165277D01*
X89426643Y-73206200D01*
X89453090Y-73206200D01*
X89520129Y-73225885D01*
X89540771Y-73242519D01*
X101916515Y-85618263D01*
X101995737Y-85697485D01*
X102037478Y-85721584D01*
X102092763Y-85753503D01*
X102200981Y-85782500D01*
X102200982Y-85782500D01*
X102200983Y-85782500D01*
X113800016Y-85782500D01*
X113800018Y-85782500D01*
X113908237Y-85753503D01*
X114005263Y-85697485D01*
X114887285Y-84815463D01*
X114943303Y-84718437D01*
X114972300Y-84610218D01*
X114972300Y-84498181D01*
X114972300Y-81842698D01*
X114991985Y-81775659D01*
X115008619Y-81755017D01*
X115027320Y-81736316D01*
X115106377Y-81599384D01*
X115147300Y-81446657D01*
X115147300Y-81288543D01*
X115106377Y-81135816D01*
X115106373Y-81135809D01*
X115027324Y-80998890D01*
X115027318Y-80998882D01*
X114915517Y-80887081D01*
X114915509Y-80887075D01*
X114778590Y-80808026D01*
X114778586Y-80808024D01*
X114778584Y-80808023D01*
X114625857Y-80767100D01*
X114467743Y-80767100D01*
X114315016Y-80808023D01*
X114315009Y-80808026D01*
X114178090Y-80887075D01*
X114178082Y-80887081D01*
X114066281Y-80998882D01*
X114066275Y-80998890D01*
X113987226Y-81135809D01*
X113987223Y-81135816D01*
X113946300Y-81288543D01*
X113946300Y-81446656D01*
X113987223Y-81599383D01*
X113987226Y-81599390D01*
X114066275Y-81736309D01*
X114066281Y-81736317D01*
X114084981Y-81755017D01*
X114118466Y-81816340D01*
X114121300Y-81842698D01*
X114121300Y-84326590D01*
X114101615Y-84393629D01*
X114084981Y-84414271D01*
X113604071Y-84895181D01*
X113542748Y-84928666D01*
X113516390Y-84931500D01*
X102484610Y-84931500D01*
X102417571Y-84911815D01*
X102396929Y-84895181D01*
X98700052Y-81198304D01*
X98666567Y-81136981D01*
X98671551Y-81067289D01*
X98713423Y-81011356D01*
X98778887Y-80986939D01*
X98807131Y-80988150D01*
X98881948Y-81000000D01*
X99118052Y-81000000D01*
X99351247Y-80963065D01*
X99575802Y-80890102D01*
X99786163Y-80782918D01*
X99786169Y-80782914D01*
X99869104Y-80722658D01*
X99869105Y-80722658D01*
X99170233Y-80023787D01*
X99212292Y-80012518D01*
X99337708Y-79940110D01*
X99440110Y-79837708D01*
X99512518Y-79712292D01*
X99523787Y-79670234D01*
X100222658Y-80369105D01*
X100222658Y-80369104D01*
X100282914Y-80286169D01*
X100282918Y-80286163D01*
X100390102Y-80075802D01*
X100463065Y-79851247D01*
X100500000Y-79618052D01*
X100500000Y-79381947D01*
X104000000Y-79381947D01*
X104000000Y-79618052D01*
X104036934Y-79851247D01*
X104109897Y-80075802D01*
X104217087Y-80286174D01*
X104277338Y-80369104D01*
X104277340Y-80369105D01*
X104976212Y-79670233D01*
X104987482Y-79712292D01*
X105059890Y-79837708D01*
X105162292Y-79940110D01*
X105287708Y-80012518D01*
X105329765Y-80023787D01*
X104630893Y-80722658D01*
X104713828Y-80782914D01*
X104924197Y-80890102D01*
X105148752Y-80963065D01*
X105148751Y-80963065D01*
X105381948Y-81000000D01*
X105618052Y-81000000D01*
X105851247Y-80963065D01*
X106075802Y-80890102D01*
X106286163Y-80782918D01*
X106286169Y-80782914D01*
X106369104Y-80722658D01*
X106369105Y-80722658D01*
X105670233Y-80023787D01*
X105712292Y-80012518D01*
X105837708Y-79940110D01*
X105940110Y-79837708D01*
X106012518Y-79712292D01*
X106023787Y-79670234D01*
X106722658Y-80369105D01*
X106722658Y-80369104D01*
X106782914Y-80286169D01*
X106782918Y-80286163D01*
X106890102Y-80075802D01*
X106963065Y-79851247D01*
X107000000Y-79618052D01*
X107000000Y-79381947D01*
X106963065Y-79148752D01*
X106890102Y-78924197D01*
X106782914Y-78713828D01*
X106722658Y-78630894D01*
X106722658Y-78630893D01*
X106023787Y-79329765D01*
X106012518Y-79287708D01*
X105940110Y-79162292D01*
X105837708Y-79059890D01*
X105712292Y-78987482D01*
X105670234Y-78976212D01*
X106369105Y-78277340D01*
X106369104Y-78277338D01*
X106286174Y-78217087D01*
X106075802Y-78109897D01*
X105851247Y-78036934D01*
X105851248Y-78036934D01*
X105618052Y-78000000D01*
X105381948Y-78000000D01*
X105148752Y-78036934D01*
X104924197Y-78109897D01*
X104713830Y-78217084D01*
X104630894Y-78277340D01*
X105329766Y-78976212D01*
X105287708Y-78987482D01*
X105162292Y-79059890D01*
X105059890Y-79162292D01*
X104987482Y-79287708D01*
X104976212Y-79329766D01*
X104277340Y-78630894D01*
X104217084Y-78713830D01*
X104109897Y-78924197D01*
X104036934Y-79148752D01*
X104000000Y-79381947D01*
X100500000Y-79381947D01*
X100463065Y-79148752D01*
X100390102Y-78924197D01*
X100282914Y-78713828D01*
X100222658Y-78630894D01*
X100222658Y-78630893D01*
X99523787Y-79329765D01*
X99512518Y-79287708D01*
X99440110Y-79162292D01*
X99337708Y-79059890D01*
X99212292Y-78987482D01*
X99170234Y-78976212D01*
X99869105Y-78277340D01*
X99869104Y-78277339D01*
X99786174Y-78217087D01*
X99575802Y-78109897D01*
X99351247Y-78036934D01*
X99351248Y-78036934D01*
X99118052Y-78000000D01*
X98881948Y-78000000D01*
X98648752Y-78036934D01*
X98424197Y-78109897D01*
X98213830Y-78217084D01*
X98130894Y-78277340D01*
X98829766Y-78976212D01*
X98787708Y-78987482D01*
X98662292Y-79059890D01*
X98559890Y-79162292D01*
X98487482Y-79287708D01*
X98476212Y-79329766D01*
X97777340Y-78630894D01*
X97717084Y-78713830D01*
X97609897Y-78924197D01*
X97536934Y-79148752D01*
X97500000Y-79381947D01*
X97500000Y-79618047D01*
X97511850Y-79692869D01*
X97502894Y-79762163D01*
X97457897Y-79815614D01*
X97391146Y-79836253D01*
X97323832Y-79817528D01*
X97301695Y-79799947D01*
X90142519Y-72640771D01*
X90109034Y-72579448D01*
X90106200Y-72553090D01*
X90106200Y-72526645D01*
X90106200Y-72526643D01*
X90065277Y-72373916D01*
X90043280Y-72335815D01*
X89986224Y-72236990D01*
X89986218Y-72236982D01*
X89874417Y-72125181D01*
X89874409Y-72125175D01*
X89737490Y-72046126D01*
X89737486Y-72046124D01*
X89737484Y-72046123D01*
X89584757Y-72005200D01*
X89426643Y-72005200D01*
X89273916Y-72046123D01*
X89273909Y-72046126D01*
X89136990Y-72125175D01*
X89136982Y-72125181D01*
X89025181Y-72236982D01*
X89025175Y-72236990D01*
X88946126Y-72373909D01*
X88946123Y-72373916D01*
X88905200Y-72526643D01*
X88380300Y-72526643D01*
X88380300Y-59067110D01*
X88399985Y-59000071D01*
X88416619Y-58979429D01*
X88629666Y-58766382D01*
X97622700Y-58766382D01*
X97622700Y-73992182D01*
X97622700Y-74104218D01*
X97651697Y-74212437D01*
X97707715Y-74309463D01*
X97707717Y-74309465D01*
X97766728Y-74368476D01*
X97800213Y-74429799D01*
X97795486Y-74495888D01*
X97796285Y-74496148D01*
X97795237Y-74499371D01*
X97795229Y-74499491D01*
X97795055Y-74499931D01*
X97731523Y-74695461D01*
X97731523Y-74695464D01*
X97699500Y-74897648D01*
X97699500Y-75102351D01*
X97731522Y-75304534D01*
X97794781Y-75499223D01*
X97887715Y-75681613D01*
X98008028Y-75847213D01*
X98152786Y-75991971D01*
X98307749Y-76104556D01*
X98318390Y-76112287D01*
X98434607Y-76171503D01*
X98500776Y-76205218D01*
X98500778Y-76205218D01*
X98500781Y-76205220D01*
X98605137Y-76239127D01*
X98695465Y-76268477D01*
X98796557Y-76284488D01*
X98897648Y-76300500D01*
X98897649Y-76300500D01*
X99102351Y-76300500D01*
X99102352Y-76300500D01*
X99304534Y-76268477D01*
X99499219Y-76205220D01*
X99681610Y-76112287D01*
X99796286Y-76028971D01*
X99847213Y-75991971D01*
X99847215Y-75991968D01*
X99847219Y-75991966D01*
X99991966Y-75847219D01*
X99991968Y-75847215D01*
X99991971Y-75847213D01*
X100044732Y-75774590D01*
X100112287Y-75681610D01*
X100205220Y-75499219D01*
X100268477Y-75304534D01*
X100300500Y-75102352D01*
X100300500Y-74897648D01*
X104199500Y-74897648D01*
X104199500Y-75102351D01*
X104231522Y-75304534D01*
X104294781Y-75499223D01*
X104387715Y-75681613D01*
X104508028Y-75847213D01*
X104652786Y-75991971D01*
X104807749Y-76104556D01*
X104818390Y-76112287D01*
X104934607Y-76171503D01*
X105000776Y-76205218D01*
X105000778Y-76205218D01*
X105000781Y-76205220D01*
X105105137Y-76239127D01*
X105195465Y-76268477D01*
X105296557Y-76284488D01*
X105397648Y-76300500D01*
X105397649Y-76300500D01*
X105602351Y-76300500D01*
X105602352Y-76300500D01*
X105804534Y-76268477D01*
X105999219Y-76205220D01*
X106181610Y-76112287D01*
X106296286Y-76028971D01*
X106347213Y-75991971D01*
X106347215Y-75991968D01*
X106347219Y-75991966D01*
X106491966Y-75847219D01*
X106491968Y-75847215D01*
X106491971Y-75847213D01*
X106544732Y-75774590D01*
X106612287Y-75681610D01*
X106705220Y-75499219D01*
X106768477Y-75304534D01*
X106800500Y-75102352D01*
X106800500Y-74897648D01*
X106768477Y-74695466D01*
X106768476Y-74695464D01*
X106705218Y-74500776D01*
X106637807Y-74368476D01*
X106612287Y-74318390D01*
X106602220Y-74304534D01*
X106491971Y-74152786D01*
X106347213Y-74008028D01*
X106181613Y-73887715D01*
X106181612Y-73887714D01*
X106181610Y-73887713D01*
X106124653Y-73858691D01*
X105999223Y-73794781D01*
X105804534Y-73731522D01*
X105629995Y-73703878D01*
X105602352Y-73699500D01*
X105397648Y-73699500D01*
X105373329Y-73703351D01*
X105195465Y-73731522D01*
X105000776Y-73794781D01*
X104818386Y-73887715D01*
X104652786Y-74008028D01*
X104508028Y-74152786D01*
X104387715Y-74318386D01*
X104294781Y-74500776D01*
X104231522Y-74695465D01*
X104199500Y-74897648D01*
X100300500Y-74897648D01*
X100268477Y-74695466D01*
X100268476Y-74695464D01*
X100205218Y-74500776D01*
X100137807Y-74368476D01*
X100112287Y-74318390D01*
X100102220Y-74304534D01*
X99991971Y-74152786D01*
X99847213Y-74008028D01*
X99681613Y-73887715D01*
X99681612Y-73887714D01*
X99681610Y-73887713D01*
X99624653Y-73858691D01*
X99499223Y-73794781D01*
X99304534Y-73731522D01*
X99129995Y-73703878D01*
X99102352Y-73699500D01*
X98897648Y-73699500D01*
X98830254Y-73710174D01*
X98695464Y-73731523D01*
X98695461Y-73731523D01*
X98636018Y-73750838D01*
X98566177Y-73752833D01*
X98506344Y-73716752D01*
X98475516Y-73654051D01*
X98473700Y-73632907D01*
X98473700Y-65144000D01*
X98493385Y-65076961D01*
X98546189Y-65031206D01*
X98615347Y-65021262D01*
X98678903Y-65050287D01*
X98712261Y-65096548D01*
X98749521Y-65186504D01*
X98749528Y-65186517D01*
X98826185Y-65301241D01*
X98826188Y-65301245D01*
X98923754Y-65398811D01*
X98923758Y-65398814D01*
X99038482Y-65475471D01*
X99038495Y-65475478D01*
X99165967Y-65528278D01*
X99165972Y-65528280D01*
X99165976Y-65528280D01*
X99165977Y-65528281D01*
X99301304Y-65555200D01*
X99301307Y-65555200D01*
X99439295Y-65555200D01*
X99561089Y-65530973D01*
X99574628Y-65528280D01*
X99702111Y-65475475D01*
X99816842Y-65398814D01*
X99914414Y-65301242D01*
X99991075Y-65186511D01*
X100043880Y-65059028D01*
X100058504Y-64985509D01*
X100070800Y-64923695D01*
X100070800Y-64785704D01*
X100043881Y-64650377D01*
X100043880Y-64650376D01*
X100043880Y-64650372D01*
X100043878Y-64650367D01*
X99991078Y-64522895D01*
X99991071Y-64522882D01*
X99941698Y-64448990D01*
X99920820Y-64382312D01*
X99920800Y-64380099D01*
X99920800Y-63419886D01*
X99940485Y-63352847D01*
X99957114Y-63332210D01*
X102578771Y-60710552D01*
X102640092Y-60677069D01*
X102642112Y-60676647D01*
X102729428Y-60659280D01*
X102856911Y-60606475D01*
X102971642Y-60529814D01*
X103069214Y-60432242D01*
X103145875Y-60317511D01*
X103145953Y-60317324D01*
X103161015Y-60280959D01*
X103198680Y-60190028D01*
X103218242Y-60091684D01*
X103225600Y-60054695D01*
X103225600Y-59916704D01*
X103198681Y-59781377D01*
X103198680Y-59781376D01*
X103198680Y-59781372D01*
X103189461Y-59759116D01*
X103145878Y-59653895D01*
X103145871Y-59653882D01*
X103069214Y-59539158D01*
X103069211Y-59539154D01*
X102971645Y-59441588D01*
X102971641Y-59441585D01*
X102856917Y-59364928D01*
X102856904Y-59364921D01*
X102729432Y-59312121D01*
X102729422Y-59312118D01*
X102594095Y-59285200D01*
X102594093Y-59285200D01*
X102456107Y-59285200D01*
X102456105Y-59285200D01*
X102320777Y-59312118D01*
X102320767Y-59312121D01*
X102193295Y-59364921D01*
X102193282Y-59364928D01*
X102078558Y-59441585D01*
X102078554Y-59441588D01*
X101980988Y-59539154D01*
X101980985Y-59539158D01*
X101904328Y-59653882D01*
X101904321Y-59653895D01*
X101851521Y-59781367D01*
X101851518Y-59781377D01*
X101834180Y-59868540D01*
X101801794Y-59930451D01*
X101800244Y-59932029D01*
X98929791Y-62802483D01*
X98929789Y-62802486D01*
X98857316Y-62928014D01*
X98857316Y-62928015D01*
X98819800Y-63068025D01*
X98819800Y-63068027D01*
X98819800Y-64380099D01*
X98816368Y-64393915D01*
X98817296Y-64404892D01*
X98808264Y-64426545D01*
X98805390Y-64438117D01*
X98802422Y-64443722D01*
X98749525Y-64522889D01*
X98710024Y-64618251D01*
X98707290Y-64623417D01*
X98686819Y-64644422D01*
X98668420Y-64667255D01*
X98662720Y-64669152D01*
X98658526Y-64673456D01*
X98629948Y-64680059D01*
X98602126Y-64689320D01*
X98596304Y-64687834D01*
X98590450Y-64689187D01*
X98562843Y-64679293D01*
X98534427Y-64672041D01*
X98530332Y-64667642D01*
X98524676Y-64665616D01*
X98506800Y-64642368D01*
X98486816Y-64620904D01*
X98485272Y-64614370D01*
X98482087Y-64610228D01*
X98480858Y-64595694D01*
X98473700Y-64565399D01*
X98473700Y-60724500D01*
X98493385Y-60657461D01*
X98546189Y-60611706D01*
X98597700Y-60600500D01*
X98758055Y-60600500D01*
X98758057Y-60600500D01*
X98910784Y-60559577D01*
X99047716Y-60480520D01*
X99094915Y-60433320D01*
X99150505Y-60401227D01*
X99168137Y-60396503D01*
X99265163Y-60340485D01*
X108517662Y-51087984D01*
X108535529Y-51078228D01*
X108550516Y-51064446D01*
X108565570Y-51061824D01*
X108578983Y-51054501D01*
X108599291Y-51055953D01*
X108619350Y-51052461D01*
X108633431Y-51058394D01*
X108648675Y-51059485D01*
X108664974Y-51071686D01*
X108683736Y-51079593D01*
X108698122Y-51096502D01*
X108704608Y-51101357D01*
X108707628Y-51105571D01*
X108710332Y-51109517D01*
X108755480Y-51187716D01*
X108782300Y-51214536D01*
X108788787Y-51224002D01*
X108796203Y-51246747D01*
X108807666Y-51267740D01*
X108809938Y-51288872D01*
X108810446Y-51290430D01*
X108810204Y-51291351D01*
X108810500Y-51294098D01*
X108810500Y-63182790D01*
X108790815Y-63249829D01*
X108774181Y-63270471D01*
X107710071Y-64334581D01*
X107648748Y-64368066D01*
X107622390Y-64370900D01*
X107595943Y-64370900D01*
X107443216Y-64411823D01*
X107443209Y-64411826D01*
X107306290Y-64490875D01*
X107306282Y-64490881D01*
X107194481Y-64602682D01*
X107194475Y-64602690D01*
X107115426Y-64739609D01*
X107115423Y-64739616D01*
X107074500Y-64892343D01*
X107074500Y-65050457D01*
X107110956Y-65186511D01*
X107115423Y-65203183D01*
X107115426Y-65203190D01*
X107194475Y-65340109D01*
X107194479Y-65340114D01*
X107194480Y-65340116D01*
X107306284Y-65451920D01*
X107306286Y-65451921D01*
X107306290Y-65451924D01*
X107374269Y-65491171D01*
X107443216Y-65530977D01*
X107595943Y-65571900D01*
X107595945Y-65571900D01*
X107754055Y-65571900D01*
X107754057Y-65571900D01*
X107906784Y-65530977D01*
X108043716Y-65451920D01*
X108155520Y-65340116D01*
X108234577Y-65203184D01*
X108275500Y-65050457D01*
X108275500Y-65024008D01*
X108295185Y-64956969D01*
X108311814Y-64936331D01*
X109487053Y-63761092D01*
X109487058Y-63761089D01*
X109497261Y-63750885D01*
X109497263Y-63750885D01*
X109576485Y-63671663D01*
X109632503Y-63574637D01*
X109661500Y-63466418D01*
X109661500Y-51294098D01*
X109681185Y-51227059D01*
X109697819Y-51206417D01*
X109716520Y-51187716D01*
X109795577Y-51050784D01*
X109836500Y-50898057D01*
X109836500Y-50740500D01*
X109856185Y-50673461D01*
X109908989Y-50627706D01*
X109960500Y-50616500D01*
X121361690Y-50616500D01*
X121428729Y-50636185D01*
X121449371Y-50652819D01*
X124490181Y-53693628D01*
X124523666Y-53754951D01*
X124526500Y-53781309D01*
X124526500Y-53807757D01*
X124534923Y-53839190D01*
X124567423Y-53960483D01*
X124567426Y-53960490D01*
X124646475Y-54097409D01*
X124646479Y-54097414D01*
X124646480Y-54097416D01*
X124758284Y-54209220D01*
X124758286Y-54209221D01*
X124758290Y-54209224D01*
X124860318Y-54268129D01*
X124895216Y-54288277D01*
X125047943Y-54329200D01*
X125047945Y-54329200D01*
X125206055Y-54329200D01*
X125206057Y-54329200D01*
X125270307Y-54311984D01*
X125340155Y-54313646D01*
X125398018Y-54352807D01*
X125425523Y-54417035D01*
X125426400Y-54431758D01*
X125426400Y-67292013D01*
X125406715Y-67359052D01*
X125390081Y-67379694D01*
X120559491Y-72210283D01*
X120559489Y-72210285D01*
X120544072Y-72236990D01*
X120516074Y-72285485D01*
X120487016Y-72335815D01*
X120449500Y-72475825D01*
X120449500Y-72475827D01*
X120449500Y-72575500D01*
X120429815Y-72642539D01*
X120377011Y-72688294D01*
X120325500Y-72699500D01*
X119955143Y-72699500D01*
X119955117Y-72699502D01*
X119930012Y-72702413D01*
X119930008Y-72702415D01*
X119827235Y-72747793D01*
X119747794Y-72827234D01*
X119702415Y-72930006D01*
X119702415Y-72930008D01*
X119699500Y-72955131D01*
X119699500Y-75044856D01*
X119699502Y-75044882D01*
X119702413Y-75069987D01*
X119702415Y-75069991D01*
X119747793Y-75172764D01*
X119747794Y-75172765D01*
X119827235Y-75252206D01*
X119930009Y-75297585D01*
X119955135Y-75300500D01*
X122044864Y-75300499D01*
X122044879Y-75300497D01*
X122044882Y-75300497D01*
X122069987Y-75297586D01*
X122069988Y-75297585D01*
X122069991Y-75297585D01*
X122172765Y-75252206D01*
X122252206Y-75172765D01*
X122297585Y-75069991D01*
X122300500Y-75044865D01*
X122300499Y-73897648D01*
X127299500Y-73897648D01*
X127299500Y-74102352D01*
X127299796Y-74104218D01*
X127331522Y-74304534D01*
X127394781Y-74499223D01*
X127487715Y-74681613D01*
X127608028Y-74847213D01*
X127752786Y-74991971D01*
X127907749Y-75104556D01*
X127918390Y-75112287D01*
X128034607Y-75171503D01*
X128100776Y-75205218D01*
X128100778Y-75205218D01*
X128100781Y-75205220D01*
X128205137Y-75239127D01*
X128295465Y-75268477D01*
X128396557Y-75284488D01*
X128497648Y-75300500D01*
X128497649Y-75300500D01*
X128702351Y-75300500D01*
X128702352Y-75300500D01*
X128904534Y-75268477D01*
X129099219Y-75205220D01*
X129281610Y-75112287D01*
X129374590Y-75044732D01*
X129447213Y-74991971D01*
X129447215Y-74991968D01*
X129447219Y-74991966D01*
X129591966Y-74847219D01*
X129591968Y-74847215D01*
X129591971Y-74847213D01*
X129644732Y-74774590D01*
X129712287Y-74681610D01*
X129805220Y-74499219D01*
X129868477Y-74304534D01*
X129900500Y-74102352D01*
X129900500Y-73897648D01*
X129898926Y-73887713D01*
X129868477Y-73695465D01*
X129805218Y-73500776D01*
X129771503Y-73434607D01*
X129712287Y-73318390D01*
X129704556Y-73307749D01*
X129591971Y-73152786D01*
X129447213Y-73008028D01*
X129281613Y-72887715D01*
X129281612Y-72887714D01*
X129281610Y-72887713D01*
X129224653Y-72858691D01*
X129099223Y-72794781D01*
X128904534Y-72731522D01*
X128720756Y-72702415D01*
X128702352Y-72699500D01*
X128497648Y-72699500D01*
X128479244Y-72702415D01*
X128295465Y-72731522D01*
X128100776Y-72794781D01*
X127918386Y-72887715D01*
X127752786Y-73008028D01*
X127608028Y-73152786D01*
X127487715Y-73318386D01*
X127394781Y-73500776D01*
X127331522Y-73695465D01*
X127301074Y-73887713D01*
X127299500Y-73897648D01*
X122300499Y-73897648D01*
X122300499Y-72955136D01*
X122300497Y-72955117D01*
X122297586Y-72930012D01*
X122297585Y-72930010D01*
X122297585Y-72930009D01*
X122252206Y-72827235D01*
X122172765Y-72747794D01*
X122135915Y-72731523D01*
X122069992Y-72702415D01*
X122044868Y-72699500D01*
X122044865Y-72699500D01*
X121926686Y-72699500D01*
X121859647Y-72679815D01*
X121813892Y-72627011D01*
X121803948Y-72557853D01*
X121832973Y-72494297D01*
X121839005Y-72487819D01*
X123998515Y-70328309D01*
X126417410Y-67909415D01*
X126486108Y-67790426D01*
X126489881Y-67783891D01*
X126489881Y-67783889D01*
X126489884Y-67783885D01*
X126489939Y-67783681D01*
X126527400Y-67643875D01*
X126527400Y-5699425D01*
X126489884Y-5559415D01*
X126472961Y-5530104D01*
X126466182Y-5518363D01*
X126425213Y-5447401D01*
X126417410Y-5433885D01*
X125193654Y-4210129D01*
X125160169Y-4148806D01*
X125159746Y-4146778D01*
X125142380Y-4059472D01*
X125110120Y-3981588D01*
X125089578Y-3931995D01*
X125089571Y-3931982D01*
X125012914Y-3817258D01*
X125012911Y-3817254D01*
X124915345Y-3719688D01*
X124915341Y-3719685D01*
X124800617Y-3643028D01*
X124800604Y-3643021D01*
X124673132Y-3590221D01*
X124673122Y-3590218D01*
X124537795Y-3563300D01*
X124537793Y-3563300D01*
X124399807Y-3563300D01*
X124399805Y-3563300D01*
X124264477Y-3590218D01*
X124264467Y-3590221D01*
X124136995Y-3643021D01*
X124136982Y-3643028D01*
X124022258Y-3719685D01*
X124022254Y-3719688D01*
X123924688Y-3817254D01*
X123924685Y-3817258D01*
X123848028Y-3931982D01*
X123848021Y-3931995D01*
X123795221Y-4059467D01*
X123795218Y-4059477D01*
X123768300Y-4194804D01*
X123768300Y-4194807D01*
X123768300Y-4332793D01*
X123768300Y-4332795D01*
X123768299Y-4332795D01*
X123795218Y-4468122D01*
X123795221Y-4468132D01*
X123848021Y-4595604D01*
X123848028Y-4595617D01*
X123924685Y-4710341D01*
X123924688Y-4710345D01*
X124022254Y-4807911D01*
X124022258Y-4807914D01*
X124136982Y-4884571D01*
X124136995Y-4884578D01*
X124264467Y-4937378D01*
X124264472Y-4937380D01*
X124351642Y-4954719D01*
X124413549Y-4987102D01*
X124415129Y-4988654D01*
X125390081Y-5963606D01*
X125423566Y-6024929D01*
X125426400Y-6051287D01*
X125426400Y-15018038D01*
X125406715Y-15085077D01*
X125353911Y-15130832D01*
X125284753Y-15140776D01*
X125278209Y-15139655D01*
X125160796Y-15116300D01*
X125160793Y-15116300D01*
X125022807Y-15116300D01*
X125022805Y-15116300D01*
X124887477Y-15143218D01*
X124887467Y-15143221D01*
X124759995Y-15196021D01*
X124759982Y-15196028D01*
X124645258Y-15272685D01*
X124645254Y-15272688D01*
X124547688Y-15370254D01*
X124547685Y-15370258D01*
X124471028Y-15484982D01*
X124471021Y-15484995D01*
X124418221Y-15612467D01*
X124418218Y-15612477D01*
X124400880Y-15699640D01*
X124368494Y-15761551D01*
X124366944Y-15763129D01*
X104467030Y-35663043D01*
X104448600Y-35673106D01*
X104432996Y-35687156D01*
X104418552Y-35689513D01*
X104405707Y-35696528D01*
X104384761Y-35695030D01*
X104364039Y-35698413D01*
X104350614Y-35692588D01*
X104336015Y-35691544D01*
X104319204Y-35678959D01*
X104299943Y-35670602D01*
X104286145Y-35654210D01*
X104280082Y-35649672D01*
X104276327Y-35644373D01*
X104274032Y-35640947D01*
X104217820Y-35543584D01*
X104190532Y-35516296D01*
X104183778Y-35506213D01*
X104176792Y-35483995D01*
X104165634Y-35463560D01*
X104163173Y-35440679D01*
X104162822Y-35439560D01*
X104162988Y-35438951D01*
X104162800Y-35437202D01*
X104162800Y-22405310D01*
X104182485Y-22338271D01*
X104199119Y-22317629D01*
X105444929Y-21071819D01*
X105506252Y-21038334D01*
X105532610Y-21035500D01*
X105559055Y-21035500D01*
X105559057Y-21035500D01*
X105711784Y-20994577D01*
X105848716Y-20915520D01*
X105960520Y-20803716D01*
X106039577Y-20666784D01*
X106080500Y-20514057D01*
X106080500Y-20355943D01*
X106039577Y-20203216D01*
X106034681Y-20194736D01*
X105960524Y-20066290D01*
X105960518Y-20066282D01*
X105848717Y-19954481D01*
X105848709Y-19954475D01*
X105711790Y-19875426D01*
X105711786Y-19875424D01*
X105711784Y-19875423D01*
X105559057Y-19834500D01*
X105400943Y-19834500D01*
X105248216Y-19875423D01*
X105248209Y-19875426D01*
X105111290Y-19954475D01*
X105111282Y-19954481D01*
X104999481Y-20066282D01*
X104999475Y-20066290D01*
X104920426Y-20203209D01*
X104920423Y-20203216D01*
X104879500Y-20355943D01*
X104879500Y-20382390D01*
X104859815Y-20449429D01*
X104843181Y-20470071D01*
X103396817Y-21916434D01*
X103396813Y-21916440D01*
X103340798Y-22013460D01*
X103340797Y-22013463D01*
X103311800Y-22121682D01*
X103311800Y-35362800D01*
X103292115Y-35429839D01*
X103239311Y-35475594D01*
X103187800Y-35486800D01*
X101817882Y-35486800D01*
X101709663Y-35515797D01*
X101709660Y-35515798D01*
X101612640Y-35571813D01*
X101612634Y-35571817D01*
X101002017Y-36182434D01*
X101002013Y-36182440D01*
X100945998Y-36279460D01*
X100945997Y-36279463D01*
X100917000Y-36387682D01*
X100917000Y-47366482D01*
X100917000Y-47478518D01*
X100945997Y-47586737D01*
X101002015Y-47683763D01*
X101002017Y-47683765D01*
X101885655Y-48567403D01*
X101919140Y-48628726D01*
X101915905Y-48693402D01*
X101877829Y-48810589D01*
X101849500Y-48989448D01*
X101849500Y-49170551D01*
X101877829Y-49349410D01*
X101933787Y-49521636D01*
X101933788Y-49521639D01*
X102016005Y-49682996D01*
X102023167Y-49692854D01*
X102046646Y-49758661D01*
X102030820Y-49826714D01*
X101980713Y-49875408D01*
X101912235Y-49889283D01*
X101847126Y-49863933D01*
X101835167Y-49853419D01*
X100450319Y-48468571D01*
X100416834Y-48407248D01*
X100414000Y-48380890D01*
X100414000Y-35650098D01*
X100433685Y-35583059D01*
X100450319Y-35562417D01*
X100459506Y-35553230D01*
X100469020Y-35543716D01*
X100548077Y-35406784D01*
X100589000Y-35254057D01*
X100589000Y-35095943D01*
X100548077Y-34943216D01*
X100529447Y-34910948D01*
X100469024Y-34806290D01*
X100469018Y-34806282D01*
X100450319Y-34787583D01*
X100416834Y-34726260D01*
X100414000Y-34699902D01*
X100414000Y-23240909D01*
X100433685Y-23173870D01*
X100450319Y-23153228D01*
X105243328Y-18360219D01*
X105304651Y-18326734D01*
X105331009Y-18323900D01*
X105357455Y-18323900D01*
X105357457Y-18323900D01*
X105510184Y-18282977D01*
X105647116Y-18203920D01*
X105758920Y-18092116D01*
X105837977Y-17955184D01*
X105878900Y-17802457D01*
X105878900Y-17644343D01*
X105837977Y-17491616D01*
X105827250Y-17473036D01*
X105758924Y-17354690D01*
X105758918Y-17354682D01*
X105647117Y-17242881D01*
X105647109Y-17242875D01*
X105510190Y-17163826D01*
X105510186Y-17163824D01*
X105510184Y-17163823D01*
X105357457Y-17122900D01*
X105199343Y-17122900D01*
X105046616Y-17163823D01*
X105046609Y-17163826D01*
X104909690Y-17242875D01*
X104909682Y-17242881D01*
X104797881Y-17354682D01*
X104797875Y-17354690D01*
X104718826Y-17491609D01*
X104718823Y-17491616D01*
X104677900Y-17644343D01*
X104677900Y-17670789D01*
X104658215Y-17737828D01*
X104641581Y-17758470D01*
X99709795Y-22690255D01*
X99709796Y-22690256D01*
X99648014Y-22752038D01*
X99648013Y-22752040D01*
X99591998Y-22849060D01*
X99591997Y-22849063D01*
X99563000Y-22957282D01*
X99563000Y-34699902D01*
X99543315Y-34766941D01*
X99526681Y-34787583D01*
X99507981Y-34806282D01*
X99507975Y-34806290D01*
X99428926Y-34943209D01*
X99428923Y-34943216D01*
X99388000Y-35095943D01*
X99388000Y-35254057D01*
X99421225Y-35378052D01*
X99428923Y-35406783D01*
X99428926Y-35406790D01*
X99507975Y-35543709D01*
X99507981Y-35543717D01*
X99526681Y-35562417D01*
X99560166Y-35623740D01*
X99563000Y-35650098D01*
X99563000Y-48552482D01*
X99563000Y-48664518D01*
X99591997Y-48772737D01*
X99648015Y-48869763D01*
X99648017Y-48869765D01*
X101885655Y-51107403D01*
X101919140Y-51168726D01*
X101915905Y-51233402D01*
X101877829Y-51350589D01*
X101849500Y-51529448D01*
X101849500Y-51710551D01*
X101877829Y-51889410D01*
X101933787Y-52061636D01*
X101933788Y-52061639D01*
X101974067Y-52140689D01*
X102009305Y-52209847D01*
X102016006Y-52222997D01*
X102122441Y-52369494D01*
X102122445Y-52369499D01*
X102250500Y-52497554D01*
X102250505Y-52497558D01*
X102306248Y-52538057D01*
X102397006Y-52603996D01*
X102502484Y-52657740D01*
X102558360Y-52686211D01*
X102558363Y-52686212D01*
X102644476Y-52714191D01*
X102730591Y-52742171D01*
X102801836Y-52753455D01*
X102909449Y-52770500D01*
X102909454Y-52770500D01*
X103090550Y-52770500D01*
X103158488Y-52759738D01*
X103198163Y-52753455D01*
X103267456Y-52762409D01*
X103320908Y-52807405D01*
X103341548Y-52874156D01*
X103322824Y-52941470D01*
X103305242Y-52963609D01*
X97786937Y-58481915D01*
X97707717Y-58561134D01*
X97707713Y-58561140D01*
X97651698Y-58658160D01*
X97651697Y-58658163D01*
X97622700Y-58766382D01*
X88629666Y-58766382D01*
X89159229Y-58236819D01*
X89220552Y-58203334D01*
X89246910Y-58200500D01*
X89273355Y-58200500D01*
X89273357Y-58200500D01*
X89426084Y-58159577D01*
X89563016Y-58080520D01*
X89674820Y-57968716D01*
X89753877Y-57831784D01*
X89794800Y-57679057D01*
X89794800Y-57520943D01*
X89753877Y-57368216D01*
X89728647Y-57324516D01*
X89674824Y-57231290D01*
X89674818Y-57231282D01*
X89638816Y-57195279D01*
X89605331Y-57133956D01*
X89610317Y-57064264D01*
X89638816Y-57019919D01*
X89671920Y-56986816D01*
X89750977Y-56849884D01*
X89791900Y-56697157D01*
X89791900Y-56539043D01*
X89750977Y-56386316D01*
X89743327Y-56373065D01*
X89671924Y-56249390D01*
X89671918Y-56249382D01*
X89560117Y-56137581D01*
X89560109Y-56137575D01*
X89423190Y-56058526D01*
X89423186Y-56058524D01*
X89423184Y-56058523D01*
X89270457Y-56017600D01*
X89112343Y-56017600D01*
X88959616Y-56058523D01*
X88959609Y-56058526D01*
X88822690Y-56137575D01*
X88822682Y-56137581D01*
X88710881Y-56249382D01*
X88710875Y-56249390D01*
X88631826Y-56386309D01*
X88631823Y-56386316D01*
X88590900Y-56539043D01*
X88590900Y-56565490D01*
X88571215Y-56632529D01*
X88554581Y-56653171D01*
X86322217Y-58885534D01*
X86322213Y-58885540D01*
X86266198Y-58982560D01*
X86266197Y-58982563D01*
X86237200Y-59090782D01*
X86237200Y-82550990D01*
X86217515Y-82618029D01*
X86200881Y-82638671D01*
X85910071Y-82929481D01*
X85848748Y-82962966D01*
X85822390Y-82965800D01*
X85795943Y-82965800D01*
X85643216Y-83006723D01*
X85643209Y-83006726D01*
X85506290Y-83085775D01*
X85506282Y-83085781D01*
X85394481Y-83197582D01*
X85394475Y-83197590D01*
X85315426Y-83334509D01*
X85315423Y-83334516D01*
X85274500Y-83487243D01*
X84956009Y-83487243D01*
X84920177Y-83353516D01*
X84920173Y-83353509D01*
X84841124Y-83216590D01*
X84841118Y-83216582D01*
X84729317Y-83104781D01*
X84729309Y-83104775D01*
X84592390Y-83025726D01*
X84592386Y-83025724D01*
X84592384Y-83025723D01*
X84439657Y-82984800D01*
X84281543Y-82984800D01*
X84128816Y-83025723D01*
X84128815Y-83025723D01*
X83987999Y-83107023D01*
X83920099Y-83123495D01*
X83854072Y-83100642D01*
X83810882Y-83045720D01*
X83802000Y-82999635D01*
X83802000Y-64424483D01*
X83802000Y-64424482D01*
X83800106Y-64417415D01*
X83773003Y-64316263D01*
X83749836Y-64276137D01*
X83716985Y-64219237D01*
X83637763Y-64140015D01*
X83633432Y-64135684D01*
X83633421Y-64135674D01*
X79700329Y-60202581D01*
X79666844Y-60141258D01*
X79671828Y-60071566D01*
X79713700Y-60015633D01*
X79779164Y-59991216D01*
X79788010Y-59990900D01*
X79896155Y-59990900D01*
X79896157Y-59990900D01*
X80048884Y-59949977D01*
X80185816Y-59870920D01*
X80204517Y-59852219D01*
X80265840Y-59818734D01*
X80292198Y-59815900D01*
X80411016Y-59815900D01*
X80411018Y-59815900D01*
X80519237Y-59786903D01*
X80616263Y-59730885D01*
X93182319Y-47164829D01*
X93243642Y-47131344D01*
X93313334Y-47136328D01*
X93369267Y-47178200D01*
X93393684Y-47243664D01*
X93394000Y-47252510D01*
X93394000Y-53290490D01*
X93374315Y-53357529D01*
X93357681Y-53378171D01*
X91208371Y-55527481D01*
X91147048Y-55560966D01*
X91120690Y-55563800D01*
X91094243Y-55563800D01*
X90941516Y-55604723D01*
X90941509Y-55604726D01*
X90804590Y-55683775D01*
X90804582Y-55683781D01*
X90692781Y-55795582D01*
X90692775Y-55795590D01*
X90613726Y-55932509D01*
X90613723Y-55932516D01*
X90572800Y-56085243D01*
X90572800Y-56243357D01*
X90613429Y-56394984D01*
X90613723Y-56396083D01*
X90613726Y-56396090D01*
X90692775Y-56533009D01*
X90692779Y-56533014D01*
X90692780Y-56533016D01*
X90804584Y-56644820D01*
X90804586Y-56644821D01*
X90804590Y-56644824D01*
X90939604Y-56722773D01*
X90941516Y-56723877D01*
X91094243Y-56764800D01*
X91094245Y-56764800D01*
X91252355Y-56764800D01*
X91252357Y-56764800D01*
X91405084Y-56723877D01*
X91542016Y-56644820D01*
X91653820Y-56533016D01*
X91732877Y-56396084D01*
X91773800Y-56243357D01*
X91773800Y-56216910D01*
X91793485Y-56149871D01*
X91810119Y-56129229D01*
X93671219Y-54268129D01*
X93732542Y-54234644D01*
X93802234Y-54239628D01*
X93858167Y-54281500D01*
X93882584Y-54346964D01*
X93882900Y-54355810D01*
X93882900Y-55884190D01*
X93863215Y-55951229D01*
X93846581Y-55971871D01*
X92855271Y-56963181D01*
X92793948Y-56996666D01*
X92767590Y-56999500D01*
X92741143Y-56999500D01*
X92588416Y-57040423D01*
X92588409Y-57040426D01*
X92451490Y-57119475D01*
X92451482Y-57119481D01*
X92339681Y-57231282D01*
X92339675Y-57231290D01*
X92260626Y-57368209D01*
X92260623Y-57368216D01*
X92219700Y-57520943D01*
X92219700Y-57679057D01*
X92250927Y-57795596D01*
X92260623Y-57831783D01*
X92260626Y-57831790D01*
X92339675Y-57968709D01*
X92339679Y-57968714D01*
X92339680Y-57968716D01*
X92451484Y-58080520D01*
X92451486Y-58080521D01*
X92451490Y-58080524D01*
X92583604Y-58156799D01*
X92588416Y-58159577D01*
X92741143Y-58200500D01*
X92741145Y-58200500D01*
X92899255Y-58200500D01*
X92899257Y-58200500D01*
X93051984Y-58159577D01*
X93188916Y-58080520D01*
X93300720Y-57968716D01*
X93379777Y-57831784D01*
X93420700Y-57679057D01*
X93420700Y-57652610D01*
X93440385Y-57585571D01*
X93457019Y-57564929D01*
X94047339Y-56974609D01*
X94648885Y-56373063D01*
X94704903Y-56276037D01*
X94733900Y-56167818D01*
X94733900Y-56055781D01*
X94733900Y-34187082D01*
X94704903Y-34078863D01*
X94648885Y-33981837D01*
X94569663Y-33902615D01*
X92098863Y-31431815D01*
X92001837Y-31375797D01*
X91893618Y-31346800D01*
X81764719Y-31346800D01*
X81652682Y-31346800D01*
X81544463Y-31375797D01*
X81544460Y-31375798D01*
X81447440Y-31431813D01*
X81447434Y-31431817D01*
X79349117Y-33530134D01*
X79349113Y-33530140D01*
X79293098Y-33627160D01*
X79293097Y-33627163D01*
X79264100Y-33735382D01*
X79264100Y-36612982D01*
X79264100Y-36725018D01*
X79286925Y-36810200D01*
X79293097Y-36833236D01*
X79293098Y-36833239D01*
X79302948Y-36850300D01*
X79349115Y-36930263D01*
X81496937Y-39078085D01*
X81593963Y-39134103D01*
X81702181Y-39163100D01*
X81702182Y-39163100D01*
X84214602Y-39163100D01*
X84281641Y-39182785D01*
X84302283Y-39199419D01*
X84320984Y-39218120D01*
X84320986Y-39218121D01*
X84320990Y-39218124D01*
X84456019Y-39296082D01*
X84457916Y-39297177D01*
X84610643Y-39338100D01*
X84610645Y-39338100D01*
X84768755Y-39338100D01*
X84768757Y-39338100D01*
X84921484Y-39297177D01*
X84949265Y-39281137D01*
X85017163Y-39264664D01*
X85083191Y-39287516D01*
X85126382Y-39342436D01*
X85133024Y-39411989D01*
X85101009Y-39474093D01*
X85098946Y-39476205D01*
X67806599Y-56768551D01*
X67751014Y-56800644D01*
X67695118Y-56815622D01*
X67695109Y-56815626D01*
X67558190Y-56894675D01*
X67558182Y-56894681D01*
X67446381Y-57006482D01*
X67446375Y-57006490D01*
X67367326Y-57143409D01*
X67367323Y-57143416D01*
X67326400Y-57296143D01*
X67326400Y-57454257D01*
X67361586Y-57585571D01*
X67367323Y-57606983D01*
X67367326Y-57606990D01*
X67446375Y-57743909D01*
X67446381Y-57743917D01*
X67497214Y-57794750D01*
X67530699Y-57856073D01*
X67525715Y-57925765D01*
X67483843Y-57981698D01*
X67441629Y-58002204D01*
X67419818Y-58008048D01*
X67399014Y-58013623D01*
X67399009Y-58013626D01*
X67262090Y-58092675D01*
X67262082Y-58092681D01*
X67150281Y-58204482D01*
X67150275Y-58204490D01*
X67071226Y-58341409D01*
X67071223Y-58341416D01*
X67030300Y-58494143D01*
X67030300Y-58650500D01*
X67010615Y-58717539D01*
X66957811Y-58763294D01*
X66906300Y-58774500D01*
X51519610Y-58774500D01*
X51452571Y-58754815D01*
X51431929Y-58738181D01*
X50857319Y-58163571D01*
X50823834Y-58102248D01*
X50821000Y-58075890D01*
X50821000Y-58049445D01*
X50821000Y-58049443D01*
X50780077Y-57896716D01*
X50772532Y-57883648D01*
X50701024Y-57759790D01*
X50701018Y-57759782D01*
X50589217Y-57647981D01*
X50589209Y-57647975D01*
X50452290Y-57568926D01*
X50452286Y-57568924D01*
X50452284Y-57568923D01*
X50299557Y-57528000D01*
X50141800Y-57528000D01*
X50133114Y-57525449D01*
X50124153Y-57526738D01*
X50100112Y-57515759D01*
X50074761Y-57508315D01*
X50068833Y-57501474D01*
X50060597Y-57497713D01*
X50046307Y-57475478D01*
X50029006Y-57455511D01*
X50026718Y-57444996D01*
X50022823Y-57438935D01*
X50017800Y-57404000D01*
X50017800Y-57258038D01*
X50037485Y-57190999D01*
X50079798Y-57150652D01*
X50187416Y-57088520D01*
X50299220Y-56976716D01*
X50378277Y-56839784D01*
X50419200Y-56687057D01*
X50419200Y-56528943D01*
X50378277Y-56376216D01*
X50376454Y-56373059D01*
X50299224Y-56239290D01*
X50299218Y-56239282D01*
X50187417Y-56127481D01*
X50187409Y-56127475D01*
X50050490Y-56048426D01*
X50050486Y-56048424D01*
X50050484Y-56048423D01*
X49897757Y-56007500D01*
X49739643Y-56007500D01*
X49586916Y-56048423D01*
X49586909Y-56048426D01*
X49449990Y-56127475D01*
X49449982Y-56127481D01*
X49369881Y-56207583D01*
X49308558Y-56241068D01*
X49238866Y-56236084D01*
X49182933Y-56194212D01*
X49158516Y-56128748D01*
X49158200Y-56119902D01*
X49158200Y-56108084D01*
X49158200Y-56108082D01*
X49129203Y-55999863D01*
X49073185Y-55902837D01*
X48993963Y-55823615D01*
X48337863Y-55167515D01*
X48240837Y-55111497D01*
X48132618Y-55082500D01*
X35565118Y-55082500D01*
X35453081Y-55082500D01*
X35453079Y-55082500D01*
X35421656Y-55090920D01*
X35351806Y-55089257D01*
X35293944Y-55050094D01*
X35266441Y-54985865D01*
X35278028Y-54916963D01*
X35301880Y-54883467D01*
X41862352Y-48322995D01*
X47696299Y-48322995D01*
X47723218Y-48458322D01*
X47723221Y-48458332D01*
X47776021Y-48585804D01*
X47776028Y-48585817D01*
X47852685Y-48700541D01*
X47852688Y-48700545D01*
X47950254Y-48798111D01*
X47950258Y-48798114D01*
X48064982Y-48874771D01*
X48064995Y-48874778D01*
X48192467Y-48927578D01*
X48192472Y-48927580D01*
X48192476Y-48927580D01*
X48192477Y-48927581D01*
X48327804Y-48954500D01*
X48327807Y-48954500D01*
X48465795Y-48954500D01*
X48556841Y-48936389D01*
X48601128Y-48927580D01*
X48728611Y-48874775D01*
X48843342Y-48798114D01*
X48940914Y-48700542D01*
X49017575Y-48585811D01*
X49070380Y-48458328D01*
X49087719Y-48371157D01*
X49120101Y-48309249D01*
X49121655Y-48307668D01*
X49191308Y-48238016D01*
X49191308Y-48238015D01*
X49191310Y-48238014D01*
X49263784Y-48112485D01*
X49280614Y-48049677D01*
X49280616Y-48049671D01*
X49290230Y-48013787D01*
X49301300Y-47972475D01*
X49301300Y-45116399D01*
X49320985Y-45049360D01*
X49322198Y-45047508D01*
X49371575Y-44973611D01*
X49424380Y-44846128D01*
X49433189Y-44801841D01*
X49451300Y-44710795D01*
X49451300Y-44572804D01*
X49424381Y-44437477D01*
X49424380Y-44437476D01*
X49424380Y-44437472D01*
X49408900Y-44400099D01*
X49371578Y-44309995D01*
X49371571Y-44309982D01*
X49294914Y-44195258D01*
X49294911Y-44195254D01*
X49197345Y-44097688D01*
X49197341Y-44097685D01*
X49082617Y-44021028D01*
X49082604Y-44021021D01*
X48955132Y-43968221D01*
X48955122Y-43968218D01*
X48819795Y-43941300D01*
X48819793Y-43941300D01*
X48681807Y-43941300D01*
X48681805Y-43941300D01*
X48546477Y-43968218D01*
X48546467Y-43968221D01*
X48418995Y-44021021D01*
X48418982Y-44021028D01*
X48304258Y-44097685D01*
X48304254Y-44097688D01*
X48206688Y-44195254D01*
X48206685Y-44195258D01*
X48130028Y-44309982D01*
X48130021Y-44309995D01*
X48077221Y-44437467D01*
X48077218Y-44437477D01*
X48050300Y-44572804D01*
X48050300Y-44572807D01*
X48050300Y-44710793D01*
X48050300Y-44710795D01*
X48050299Y-44710795D01*
X48077218Y-44846122D01*
X48077221Y-44846132D01*
X48130022Y-44973606D01*
X48130023Y-44973607D01*
X48130025Y-44973611D01*
X48142141Y-44991743D01*
X48179402Y-45047508D01*
X48200280Y-45114185D01*
X48200300Y-45116399D01*
X48200300Y-47494323D01*
X48180615Y-47561362D01*
X48127811Y-47607117D01*
X48123753Y-47608884D01*
X48064991Y-47633223D01*
X48064982Y-47633228D01*
X47950258Y-47709885D01*
X47950254Y-47709888D01*
X47852688Y-47807454D01*
X47852685Y-47807458D01*
X47776028Y-47922182D01*
X47776021Y-47922195D01*
X47723221Y-48049667D01*
X47723218Y-48049677D01*
X47696300Y-48185004D01*
X47696300Y-48185007D01*
X47696300Y-48322993D01*
X47696300Y-48322995D01*
X47696299Y-48322995D01*
X41862352Y-48322995D01*
X50983129Y-39202219D01*
X51010056Y-39187515D01*
X51035875Y-39170923D01*
X51042075Y-39170031D01*
X51044452Y-39168734D01*
X51070810Y-39165900D01*
X51297602Y-39165900D01*
X51364641Y-39185585D01*
X51385283Y-39202219D01*
X51403884Y-39220820D01*
X51403886Y-39220821D01*
X51403890Y-39220824D01*
X51508359Y-39281138D01*
X51540816Y-39299877D01*
X51693543Y-39340800D01*
X51693545Y-39340800D01*
X51851655Y-39340800D01*
X51851657Y-39340800D01*
X52004384Y-39299877D01*
X52141316Y-39220820D01*
X52253120Y-39109016D01*
X52332177Y-38972084D01*
X52373100Y-38819357D01*
X52373100Y-38661243D01*
X52332177Y-38508516D01*
X52323441Y-38493384D01*
X52253124Y-38371590D01*
X52253118Y-38371582D01*
X52141317Y-38259781D01*
X52141312Y-38259777D01*
X52058195Y-38211790D01*
X52009980Y-38161223D01*
X51996756Y-38092616D01*
X52022724Y-38027752D01*
X52058192Y-37997018D01*
X52140116Y-37949720D01*
X52251920Y-37837916D01*
X52330977Y-37700984D01*
X52371900Y-37548257D01*
X52371900Y-37390143D01*
X52330977Y-37237416D01*
X52303507Y-37189836D01*
X52251924Y-37100490D01*
X52251918Y-37100482D01*
X52140117Y-36988681D01*
X52140112Y-36988677D01*
X52053698Y-36938786D01*
X52005482Y-36888219D01*
X51992259Y-36819612D01*
X52018228Y-36754747D01*
X52053694Y-36724014D01*
X52130416Y-36679720D01*
X52242220Y-36567916D01*
X52321277Y-36430984D01*
X52362200Y-36278257D01*
X52362200Y-36120143D01*
X52321277Y-35967416D01*
X52284070Y-35902971D01*
X52242224Y-35830490D01*
X52242218Y-35830482D01*
X52130417Y-35718681D01*
X52130416Y-35718680D01*
X52085348Y-35692660D01*
X52037133Y-35642094D01*
X52023909Y-35573487D01*
X52049877Y-35508622D01*
X52085347Y-35477886D01*
X52203416Y-35409720D01*
X52315220Y-35297916D01*
X52394277Y-35160984D01*
X52435200Y-35008257D01*
X52435200Y-34850143D01*
X52394277Y-34697416D01*
X52349550Y-34619945D01*
X52315224Y-34560490D01*
X52315218Y-34560482D01*
X52197669Y-34442933D01*
X52199584Y-34441017D01*
X52166227Y-34395330D01*
X52162074Y-34325584D01*
X52196287Y-34264664D01*
X52250821Y-34233611D01*
X52306184Y-34218777D01*
X52443116Y-34139720D01*
X52554920Y-34027916D01*
X52633977Y-33890984D01*
X52674900Y-33738257D01*
X52674900Y-33580143D01*
X52633977Y-33427416D01*
X52613247Y-33391510D01*
X52554924Y-33290490D01*
X52554918Y-33290482D01*
X52443117Y-33178681D01*
X52443109Y-33178675D01*
X52306190Y-33099626D01*
X52306186Y-33099624D01*
X52306184Y-33099623D01*
X52153457Y-33058700D01*
X51995343Y-33058700D01*
X51842616Y-33099623D01*
X51842609Y-33099626D01*
X51705690Y-33178675D01*
X51705682Y-33178681D01*
X51593881Y-33290482D01*
X51593875Y-33290490D01*
X51514826Y-33427409D01*
X51514823Y-33427416D01*
X51473900Y-33580143D01*
X51473900Y-33606590D01*
X51454215Y-33673629D01*
X51437581Y-33694271D01*
X47090781Y-38041071D01*
X47029458Y-38074556D01*
X46959766Y-38069572D01*
X46903833Y-38027700D01*
X46879416Y-37962236D01*
X46879100Y-37953390D01*
X46879100Y-37429610D01*
X46898785Y-37362571D01*
X46915419Y-37341929D01*
X51231329Y-33026019D01*
X51292652Y-32992534D01*
X51319010Y-32989700D01*
X51345455Y-32989700D01*
X51345457Y-32989700D01*
X51498184Y-32948777D01*
X51635116Y-32869720D01*
X51746920Y-32757916D01*
X51825977Y-32620984D01*
X51866900Y-32468257D01*
X51866900Y-32310143D01*
X51825977Y-32157416D01*
X51807350Y-32125152D01*
X51746924Y-32020490D01*
X51746918Y-32020482D01*
X51635117Y-31908681D01*
X51635109Y-31908675D01*
X51498190Y-31829626D01*
X51498186Y-31829624D01*
X51498184Y-31829623D01*
X51345457Y-31788700D01*
X51187343Y-31788700D01*
X51034616Y-31829623D01*
X51034609Y-31829626D01*
X50897690Y-31908675D01*
X50897682Y-31908681D01*
X50785881Y-32020482D01*
X50785875Y-32020490D01*
X50706826Y-32157409D01*
X50706823Y-32157416D01*
X50665900Y-32310143D01*
X50665900Y-32336590D01*
X50646215Y-32403629D01*
X50629581Y-32424271D01*
X46639081Y-36414771D01*
X46577758Y-36448256D01*
X46508066Y-36443272D01*
X46452133Y-36401400D01*
X46427716Y-36335936D01*
X46427400Y-36327090D01*
X46427400Y-32355038D01*
X46428461Y-32338850D01*
X46428898Y-32335522D01*
X46428900Y-32335519D01*
X46428900Y-32223482D01*
X46428900Y-30321810D01*
X46448585Y-30254771D01*
X46465219Y-30234129D01*
X47436458Y-29262890D01*
X48439285Y-28260063D01*
X48495303Y-28163037D01*
X48524300Y-28054818D01*
X48524300Y-27942782D01*
X48524300Y-20246098D01*
X48531360Y-20222052D01*
X48534360Y-20197173D01*
X48541959Y-20185956D01*
X48543985Y-20179059D01*
X48552759Y-20167055D01*
X48556486Y-20162549D01*
X48579320Y-20139716D01*
X48588426Y-20123943D01*
X48595065Y-20115919D01*
X48615730Y-20101961D01*
X48633781Y-20084749D01*
X48644185Y-20082743D01*
X48652966Y-20076813D01*
X48677897Y-20076244D01*
X48702387Y-20071523D01*
X48722684Y-20075184D01*
X48821643Y-20101700D01*
X48821646Y-20101700D01*
X48979755Y-20101700D01*
X48979757Y-20101700D01*
X49132484Y-20060777D01*
X49269416Y-19981720D01*
X49381220Y-19869916D01*
X49460277Y-19732984D01*
X49501200Y-19580257D01*
X49501200Y-19577000D01*
X49501977Y-19574353D01*
X49502261Y-19572197D01*
X49502597Y-19572241D01*
X49520885Y-19509961D01*
X49573689Y-19464206D01*
X49625200Y-19453000D01*
X49879416Y-19453000D01*
X49879418Y-19453000D01*
X49987637Y-19424003D01*
X50084663Y-19367985D01*
X53431053Y-16021592D01*
X53431058Y-16021589D01*
X53441261Y-16011385D01*
X53441263Y-16011385D01*
X53520485Y-15932163D01*
X53576503Y-15835137D01*
X53586432Y-15798082D01*
X53586433Y-15798080D01*
X53596220Y-15761551D01*
X53605500Y-15726919D01*
X53605500Y-15614882D01*
X53605500Y-9650421D01*
X53625185Y-9583382D01*
X53673203Y-9539937D01*
X53782994Y-9483996D01*
X53902315Y-9397305D01*
X53968121Y-9373825D01*
X54036175Y-9389651D01*
X54084870Y-9439756D01*
X54099200Y-9497623D01*
X54099200Y-17141676D01*
X54079515Y-17208715D01*
X54026711Y-17254470D01*
X53971584Y-17262731D01*
X53971584Y-17265200D01*
X53805343Y-17265200D01*
X53652616Y-17306123D01*
X53652609Y-17306126D01*
X53515690Y-17385175D01*
X53515682Y-17385181D01*
X53403881Y-17496982D01*
X53403875Y-17496990D01*
X53324826Y-17633909D01*
X53324823Y-17633916D01*
X53283900Y-17786643D01*
X53283900Y-17944757D01*
X53322814Y-18089984D01*
X53324823Y-18097483D01*
X53324826Y-18097490D01*
X53403875Y-18234409D01*
X53403881Y-18234417D01*
X53422581Y-18253117D01*
X53456066Y-18314440D01*
X53458900Y-18340798D01*
X53458900Y-18415918D01*
X53487042Y-18520944D01*
X53487897Y-18524136D01*
X53487898Y-18524139D01*
X53502770Y-18549898D01*
X53543915Y-18621163D01*
X53543917Y-18621165D01*
X53612681Y-18689929D01*
X53627384Y-18716856D01*
X53643977Y-18742675D01*
X53644868Y-18748875D01*
X53646166Y-18751252D01*
X53649000Y-18777610D01*
X53649000Y-18914720D01*
X53629315Y-18981759D01*
X53576511Y-19027514D01*
X53507353Y-19037458D01*
X53492909Y-19034495D01*
X53454861Y-19024300D01*
X53454857Y-19024300D01*
X53296743Y-19024300D01*
X53144016Y-19065223D01*
X53144009Y-19065226D01*
X53007090Y-19144275D01*
X53007082Y-19144281D01*
X52895281Y-19256082D01*
X52895275Y-19256090D01*
X52816226Y-19393009D01*
X52816221Y-19393020D01*
X52790153Y-19490305D01*
X52758060Y-19545891D01*
X52217295Y-20086655D01*
X52217296Y-20086656D01*
X52155514Y-20148438D01*
X52155513Y-20148440D01*
X52099498Y-20245460D01*
X52099497Y-20245463D01*
X52070500Y-20353682D01*
X52070500Y-24220282D01*
X52070500Y-24332318D01*
X52099497Y-24440537D01*
X52155515Y-24537563D01*
X52155517Y-24537565D01*
X65032481Y-37414529D01*
X65065966Y-37475852D01*
X65068800Y-37502210D01*
X65068800Y-37528657D01*
X65107240Y-37672115D01*
X65109723Y-37681383D01*
X65109726Y-37681390D01*
X65188775Y-37818309D01*
X65188779Y-37818314D01*
X65188780Y-37818316D01*
X65300584Y-37930120D01*
X65300586Y-37930121D01*
X65300590Y-37930124D01*
X65417651Y-37997708D01*
X65437516Y-38009177D01*
X65590243Y-38050100D01*
X65590245Y-38050100D01*
X65748355Y-38050100D01*
X65748357Y-38050100D01*
X65901084Y-38009177D01*
X66038016Y-37930120D01*
X66149820Y-37818316D01*
X66228877Y-37681384D01*
X66269800Y-37528657D01*
X66269800Y-37370543D01*
X66228877Y-37217816D01*
X66212723Y-37189836D01*
X66149824Y-37080890D01*
X66149818Y-37080882D01*
X66038017Y-36969081D01*
X66038009Y-36969075D01*
X65901090Y-36890026D01*
X65901086Y-36890024D01*
X65901084Y-36890023D01*
X65748357Y-36849100D01*
X65748356Y-36849100D01*
X65721910Y-36849100D01*
X65654871Y-36829415D01*
X65634229Y-36812781D01*
X52957819Y-24136371D01*
X52924334Y-24075048D01*
X52921500Y-24048690D01*
X52921500Y-23138710D01*
X52941185Y-23071671D01*
X52993989Y-23025916D01*
X53063147Y-23015972D01*
X53126703Y-23044997D01*
X53133181Y-23051029D01*
X66478881Y-36396729D01*
X66512366Y-36458052D01*
X66515200Y-36484410D01*
X66515200Y-36510857D01*
X66555518Y-36661324D01*
X66556123Y-36663583D01*
X66556126Y-36663590D01*
X66635175Y-36800509D01*
X66635179Y-36800514D01*
X66635180Y-36800516D01*
X66746984Y-36912320D01*
X66746986Y-36912321D01*
X66746990Y-36912324D01*
X66847376Y-36970281D01*
X66883916Y-36991377D01*
X67036643Y-37032300D01*
X67036645Y-37032300D01*
X67194755Y-37032300D01*
X67194757Y-37032300D01*
X67347484Y-36991377D01*
X67354499Y-36987326D01*
X67422398Y-36970853D01*
X67488425Y-36993704D01*
X67531617Y-37048625D01*
X67540500Y-37094713D01*
X67540500Y-39124490D01*
X67531855Y-39153930D01*
X67525332Y-39183917D01*
X67521577Y-39188932D01*
X67520815Y-39191529D01*
X67504181Y-39212171D01*
X67362371Y-39353981D01*
X67301048Y-39387466D01*
X67274690Y-39390300D01*
X67248243Y-39390300D01*
X67095516Y-39431223D01*
X67095509Y-39431226D01*
X66958590Y-39510275D01*
X66958582Y-39510281D01*
X66846781Y-39622082D01*
X66846775Y-39622090D01*
X66767726Y-39759009D01*
X66767724Y-39759014D01*
X66767723Y-39759016D01*
X66726800Y-39911743D01*
X66726800Y-40069857D01*
X66743892Y-40133643D01*
X66767723Y-40222583D01*
X66767726Y-40222590D01*
X66846775Y-40359509D01*
X66846779Y-40359514D01*
X66846780Y-40359516D01*
X66958584Y-40471320D01*
X66958586Y-40471321D01*
X66958590Y-40471324D01*
X67095509Y-40550373D01*
X67095516Y-40550377D01*
X67248243Y-40591300D01*
X67248245Y-40591300D01*
X67406355Y-40591300D01*
X67406357Y-40591300D01*
X67559084Y-40550377D01*
X67696016Y-40471320D01*
X67807820Y-40359516D01*
X67886877Y-40222584D01*
X67927800Y-40069857D01*
X67927800Y-40043410D01*
X67947485Y-39976371D01*
X67964119Y-39955729D01*
X68119463Y-39800385D01*
X68306485Y-39613363D01*
X68362503Y-39516337D01*
X68391500Y-39408119D01*
X68391500Y-39296082D01*
X68391500Y-36267582D01*
X68391500Y-36267580D01*
X68388910Y-36257918D01*
X68388907Y-36257907D01*
X68362504Y-36159365D01*
X68362503Y-36159364D01*
X68362503Y-36159363D01*
X68353161Y-36143182D01*
X68306485Y-36062337D01*
X68227263Y-35983115D01*
X68227262Y-35983114D01*
X68222932Y-35978784D01*
X68222921Y-35978774D01*
X67747273Y-35503124D01*
X67713788Y-35441801D01*
X67718772Y-35372109D01*
X67747272Y-35327763D01*
X67796620Y-35278416D01*
X67875677Y-35141484D01*
X67916600Y-34988757D01*
X67916600Y-34962310D01*
X67936285Y-34895271D01*
X67952919Y-34874629D01*
X68101288Y-34726260D01*
X68284485Y-34543063D01*
X68340503Y-34446037D01*
X68369500Y-34337818D01*
X68369500Y-34225781D01*
X68369500Y-31867082D01*
X68340503Y-31758863D01*
X68284485Y-31661837D01*
X68205263Y-31582615D01*
X63554619Y-26931971D01*
X63521134Y-26870648D01*
X63518300Y-26844290D01*
X63518300Y-18549898D01*
X63537985Y-18482859D01*
X63554619Y-18462217D01*
X63562579Y-18454257D01*
X63573320Y-18443516D01*
X63652377Y-18306584D01*
X63693300Y-18153857D01*
X63693300Y-17995743D01*
X63652377Y-17843016D01*
X63631056Y-17806086D01*
X63573324Y-17706090D01*
X63573318Y-17706082D01*
X63461517Y-17594281D01*
X63461509Y-17594275D01*
X63324590Y-17515226D01*
X63324586Y-17515224D01*
X63324584Y-17515223D01*
X63171857Y-17474300D01*
X63013743Y-17474300D01*
X62861016Y-17515223D01*
X62861009Y-17515226D01*
X62724090Y-17594275D01*
X62724082Y-17594281D01*
X62612281Y-17706082D01*
X62612275Y-17706090D01*
X62533226Y-17843009D01*
X62533223Y-17843016D01*
X62492300Y-17995743D01*
X62492300Y-18153857D01*
X62530426Y-18296143D01*
X62533223Y-18306583D01*
X62533226Y-18306590D01*
X62612275Y-18443509D01*
X62612281Y-18443517D01*
X62630981Y-18462217D01*
X62664466Y-18523540D01*
X62667300Y-18549898D01*
X62667300Y-21592190D01*
X62647615Y-21659229D01*
X62594811Y-21704984D01*
X62525653Y-21714928D01*
X62462097Y-21685903D01*
X62455619Y-21679871D01*
X59685619Y-18909871D01*
X59652134Y-18848548D01*
X59649300Y-18822190D01*
X59649300Y-18795745D01*
X59649300Y-18795743D01*
X59608377Y-18643016D01*
X59603708Y-18634929D01*
X59529324Y-18506090D01*
X59529318Y-18506082D01*
X59417517Y-18394281D01*
X59417509Y-18394275D01*
X59280588Y-18315224D01*
X59276277Y-18313439D01*
X59221873Y-18269598D01*
X59199809Y-18203303D01*
X59217089Y-18135604D01*
X59236046Y-18111200D01*
X59687753Y-17659492D01*
X59687758Y-17659489D01*
X59697961Y-17649285D01*
X59697963Y-17649285D01*
X59777185Y-17570063D01*
X59833203Y-17473037D01*
X59842269Y-17439201D01*
X59862200Y-17364819D01*
X59862200Y-17252782D01*
X59862200Y-7437486D01*
X113399500Y-7437486D01*
X113399500Y-7622514D01*
X113406300Y-7665446D01*
X113428445Y-7805265D01*
X113485619Y-7981232D01*
X113485620Y-7981235D01*
X113569622Y-8146096D01*
X113678379Y-8295787D01*
X113809213Y-8426621D01*
X113958904Y-8535378D01*
X113985370Y-8548863D01*
X114123764Y-8619379D01*
X114123767Y-8619380D01*
X114171103Y-8634760D01*
X114299736Y-8676555D01*
X114482486Y-8705500D01*
X114482487Y-8705500D01*
X114667513Y-8705500D01*
X114667514Y-8705500D01*
X114850264Y-8676555D01*
X115026235Y-8619379D01*
X115191096Y-8535378D01*
X115340787Y-8426621D01*
X115471621Y-8295787D01*
X115580378Y-8146096D01*
X115664379Y-7981235D01*
X115721555Y-7805264D01*
X115750500Y-7622514D01*
X115750500Y-7437486D01*
X118249500Y-7437486D01*
X118249500Y-7622514D01*
X118256300Y-7665446D01*
X118278445Y-7805265D01*
X118335619Y-7981232D01*
X118335620Y-7981235D01*
X118419622Y-8146096D01*
X118528379Y-8295787D01*
X118659213Y-8426621D01*
X118808904Y-8535378D01*
X118835370Y-8548863D01*
X118973764Y-8619379D01*
X118973767Y-8619380D01*
X119021103Y-8634760D01*
X119149736Y-8676555D01*
X119332486Y-8705500D01*
X119332487Y-8705500D01*
X119517513Y-8705500D01*
X119517514Y-8705500D01*
X119700264Y-8676555D01*
X119876235Y-8619379D01*
X120041096Y-8535378D01*
X120190787Y-8426621D01*
X120321621Y-8295787D01*
X120430378Y-8146096D01*
X120514379Y-7981235D01*
X120571555Y-7805264D01*
X120600500Y-7622514D01*
X120600500Y-7437486D01*
X120571555Y-7254736D01*
X120542967Y-7166750D01*
X120514380Y-7078767D01*
X120514379Y-7078764D01*
X120447567Y-6947639D01*
X120430378Y-6913904D01*
X120321621Y-6764213D01*
X120190787Y-6633379D01*
X120041096Y-6524622D01*
X119876235Y-6440620D01*
X119876232Y-6440619D01*
X119700265Y-6383445D01*
X119608889Y-6368972D01*
X119517514Y-6354500D01*
X119332486Y-6354500D01*
X119271569Y-6364148D01*
X119149734Y-6383445D01*
X118973767Y-6440619D01*
X118973764Y-6440620D01*
X118808903Y-6524622D01*
X118756085Y-6562997D01*
X118659213Y-6633379D01*
X118659211Y-6633381D01*
X118659210Y-6633381D01*
X118528381Y-6764210D01*
X118528381Y-6764211D01*
X118528379Y-6764213D01*
X118490045Y-6816975D01*
X118419622Y-6913903D01*
X118335620Y-7078764D01*
X118335619Y-7078767D01*
X118278445Y-7254734D01*
X118266279Y-7331548D01*
X118249500Y-7437486D01*
X115750500Y-7437486D01*
X115721555Y-7254736D01*
X115692967Y-7166750D01*
X115664380Y-7078767D01*
X115664379Y-7078764D01*
X115597567Y-6947639D01*
X115580378Y-6913904D01*
X115471621Y-6764213D01*
X115340787Y-6633379D01*
X115191096Y-6524622D01*
X115026235Y-6440620D01*
X115026232Y-6440619D01*
X114850265Y-6383445D01*
X114758889Y-6368972D01*
X114667514Y-6354500D01*
X114482486Y-6354500D01*
X114421569Y-6364148D01*
X114299734Y-6383445D01*
X114123767Y-6440619D01*
X114123764Y-6440620D01*
X113958903Y-6524622D01*
X113906085Y-6562997D01*
X113809213Y-6633379D01*
X113809211Y-6633381D01*
X113809210Y-6633381D01*
X113678381Y-6764210D01*
X113678381Y-6764211D01*
X113678379Y-6764213D01*
X113640045Y-6816975D01*
X113569622Y-6913903D01*
X113485620Y-7078764D01*
X113485619Y-7078767D01*
X113428445Y-7254734D01*
X113416279Y-7331548D01*
X113399500Y-7437486D01*
X59862200Y-7437486D01*
X59862200Y-5391082D01*
X59853069Y-5357006D01*
X59833203Y-5282863D01*
X59797717Y-5221400D01*
X59777185Y-5185837D01*
X59697963Y-5106615D01*
X59024563Y-4433215D01*
X58927537Y-4377197D01*
X58819318Y-4348200D01*
X54422319Y-4348200D01*
X54310282Y-4348200D01*
X54202063Y-4377197D01*
X54202060Y-4377198D01*
X54105040Y-4433213D01*
X54105034Y-4433217D01*
X53692595Y-4845655D01*
X53631272Y-4879140D01*
X53566596Y-4875905D01*
X53542337Y-4868022D01*
X53449409Y-4837828D01*
X53270551Y-4809500D01*
X53270546Y-4809500D01*
X53089454Y-4809500D01*
X53089449Y-4809500D01*
X52910589Y-4837829D01*
X52738363Y-4893787D01*
X52738360Y-4893788D01*
X52577002Y-4976006D01*
X52430505Y-5082441D01*
X52430500Y-5082445D01*
X52302445Y-5210500D01*
X52302441Y-5210505D01*
X52196006Y-5357002D01*
X52113788Y-5518360D01*
X52113787Y-5518363D01*
X52057829Y-5690589D01*
X52032473Y-5850678D01*
X52002544Y-5913813D01*
X51943232Y-5950744D01*
X51873369Y-5949746D01*
X51815137Y-5911136D01*
X51787527Y-5850678D01*
X51763570Y-5699425D01*
X51762171Y-5690591D01*
X51719550Y-5559415D01*
X51706212Y-5518363D01*
X51706211Y-5518360D01*
X51670055Y-5447401D01*
X51623996Y-5357006D01*
X51610396Y-5338287D01*
X51517558Y-5210505D01*
X51517554Y-5210500D01*
X51389499Y-5082445D01*
X51389494Y-5082441D01*
X51242997Y-4976006D01*
X51242996Y-4976005D01*
X51242994Y-4976004D01*
X51167187Y-4937378D01*
X51081639Y-4893788D01*
X51081636Y-4893787D01*
X50909410Y-4837829D01*
X50730551Y-4809500D01*
X50730546Y-4809500D01*
X50549454Y-4809500D01*
X50549449Y-4809500D01*
X50370589Y-4837829D01*
X50198363Y-4893787D01*
X50198360Y-4893788D01*
X50037002Y-4976006D01*
X49890505Y-5082441D01*
X49890500Y-5082445D01*
X49762445Y-5210500D01*
X49762441Y-5210505D01*
X49656006Y-5357002D01*
X49573788Y-5518360D01*
X49573787Y-5518363D01*
X49517829Y-5690589D01*
X49492473Y-5850678D01*
X49462544Y-5913813D01*
X49403232Y-5950744D01*
X49333369Y-5949746D01*
X49275137Y-5911136D01*
X49247527Y-5850678D01*
X49223570Y-5699425D01*
X49222171Y-5690591D01*
X49179550Y-5559415D01*
X49166212Y-5518363D01*
X49166211Y-5518360D01*
X49130055Y-5447401D01*
X49083996Y-5357006D01*
X49070396Y-5338287D01*
X48977558Y-5210505D01*
X48977554Y-5210500D01*
X48849499Y-5082445D01*
X48849494Y-5082441D01*
X48702997Y-4976006D01*
X48702996Y-4976005D01*
X48702994Y-4976004D01*
X48627187Y-4937378D01*
X48541639Y-4893788D01*
X48541636Y-4893787D01*
X48369410Y-4837829D01*
X48190551Y-4809500D01*
X48190546Y-4809500D01*
X48009454Y-4809500D01*
X48009449Y-4809500D01*
X47830589Y-4837829D01*
X47658363Y-4893787D01*
X47658360Y-4893788D01*
X47497002Y-4976006D01*
X47350505Y-5082441D01*
X47350500Y-5082445D01*
X47222445Y-5210500D01*
X47222441Y-5210505D01*
X47116006Y-5357002D01*
X47033788Y-5518360D01*
X47033787Y-5518363D01*
X46977829Y-5690589D01*
X46952473Y-5850678D01*
X46922544Y-5913813D01*
X46863232Y-5950744D01*
X46793369Y-5949746D01*
X46735137Y-5911136D01*
X46707527Y-5850678D01*
X46683570Y-5699425D01*
X46682171Y-5690591D01*
X46639550Y-5559415D01*
X46626212Y-5518363D01*
X46626211Y-5518360D01*
X46590055Y-5447401D01*
X46543996Y-5357006D01*
X46530396Y-5338287D01*
X46437558Y-5210505D01*
X46437554Y-5210500D01*
X46309499Y-5082445D01*
X46309494Y-5082441D01*
X46162997Y-4976006D01*
X46162996Y-4976005D01*
X46162994Y-4976004D01*
X46087187Y-4937378D01*
X46001639Y-4893788D01*
X46001636Y-4893787D01*
X45829410Y-4837829D01*
X45650551Y-4809500D01*
X45650546Y-4809500D01*
X45469454Y-4809500D01*
X45469449Y-4809500D01*
X45290589Y-4837829D01*
X45118363Y-4893787D01*
X45118360Y-4893788D01*
X44957002Y-4976006D01*
X44810505Y-5082441D01*
X44810500Y-5082445D01*
X44682445Y-5210500D01*
X44682441Y-5210505D01*
X44576006Y-5357002D01*
X44493788Y-5518360D01*
X44493787Y-5518363D01*
X44437829Y-5690589D01*
X44412473Y-5850678D01*
X44382544Y-5913813D01*
X44323232Y-5950744D01*
X44253369Y-5949746D01*
X44195137Y-5911136D01*
X44167527Y-5850678D01*
X44143570Y-5699425D01*
X44142171Y-5690591D01*
X44099550Y-5559415D01*
X44086212Y-5518363D01*
X44086211Y-5518360D01*
X44050055Y-5447401D01*
X44003996Y-5357006D01*
X43990396Y-5338287D01*
X43897558Y-5210505D01*
X43897554Y-5210500D01*
X43769499Y-5082445D01*
X43769494Y-5082441D01*
X43622997Y-4976006D01*
X43622996Y-4976005D01*
X43622994Y-4976004D01*
X43547187Y-4937378D01*
X43461639Y-4893788D01*
X43461636Y-4893787D01*
X43289410Y-4837829D01*
X43110551Y-4809500D01*
X43110546Y-4809500D01*
X42929454Y-4809500D01*
X42929449Y-4809500D01*
X42750589Y-4837829D01*
X42578363Y-4893787D01*
X42578360Y-4893788D01*
X42417002Y-4976006D01*
X42270505Y-5082441D01*
X42270500Y-5082445D01*
X42142445Y-5210500D01*
X42142441Y-5210505D01*
X42036006Y-5357002D01*
X41953788Y-5518360D01*
X41953787Y-5518363D01*
X41897829Y-5690589D01*
X41872473Y-5850678D01*
X41842544Y-5913813D01*
X41783232Y-5950744D01*
X41713369Y-5949746D01*
X41655137Y-5911136D01*
X41627527Y-5850678D01*
X41603570Y-5699425D01*
X41602171Y-5690591D01*
X41559550Y-5559415D01*
X41546212Y-5518363D01*
X41546211Y-5518360D01*
X41510055Y-5447401D01*
X41463996Y-5357006D01*
X41450396Y-5338287D01*
X41357558Y-5210505D01*
X41357554Y-5210500D01*
X41229499Y-5082445D01*
X41229494Y-5082441D01*
X41082997Y-4976006D01*
X41082996Y-4976005D01*
X41082994Y-4976004D01*
X41007187Y-4937378D01*
X40921639Y-4893788D01*
X40921636Y-4893787D01*
X40749410Y-4837829D01*
X40570551Y-4809500D01*
X40570546Y-4809500D01*
X40389454Y-4809500D01*
X40389449Y-4809500D01*
X40210589Y-4837829D01*
X40038363Y-4893787D01*
X40038360Y-4893788D01*
X39877002Y-4976006D01*
X39730505Y-5082441D01*
X39730500Y-5082445D01*
X39602445Y-5210500D01*
X39602441Y-5210505D01*
X39496006Y-5357002D01*
X39413788Y-5518360D01*
X39413787Y-5518363D01*
X39357829Y-5690589D01*
X39332473Y-5850678D01*
X39302544Y-5913813D01*
X39243232Y-5950744D01*
X39173369Y-5949746D01*
X39115137Y-5911136D01*
X39087527Y-5850678D01*
X39063570Y-5699425D01*
X39062171Y-5690591D01*
X39019550Y-5559415D01*
X39006212Y-5518363D01*
X39006211Y-5518360D01*
X38970055Y-5447401D01*
X38923996Y-5357006D01*
X38910396Y-5338287D01*
X38817558Y-5210505D01*
X38817554Y-5210500D01*
X38689499Y-5082445D01*
X38689494Y-5082441D01*
X38542997Y-4976006D01*
X38542996Y-4976005D01*
X38542994Y-4976004D01*
X38467187Y-4937378D01*
X38381639Y-4893788D01*
X38381636Y-4893787D01*
X38209410Y-4837829D01*
X38030551Y-4809500D01*
X38030546Y-4809500D01*
X37849454Y-4809500D01*
X37849449Y-4809500D01*
X37670589Y-4837829D01*
X37498363Y-4893787D01*
X37498360Y-4893788D01*
X37337002Y-4976006D01*
X37190505Y-5082441D01*
X37190500Y-5082445D01*
X37062445Y-5210500D01*
X37062441Y-5210505D01*
X36956006Y-5357002D01*
X36873788Y-5518360D01*
X36873787Y-5518363D01*
X36817829Y-5690589D01*
X36792473Y-5850678D01*
X36762544Y-5913813D01*
X36703232Y-5950744D01*
X36633369Y-5949746D01*
X36575137Y-5911136D01*
X36547527Y-5850678D01*
X36523570Y-5699425D01*
X36522171Y-5690591D01*
X36479550Y-5559415D01*
X36466212Y-5518363D01*
X36466211Y-5518360D01*
X36430055Y-5447401D01*
X36383996Y-5357006D01*
X36370396Y-5338287D01*
X36277558Y-5210505D01*
X36277554Y-5210500D01*
X36149499Y-5082445D01*
X36149494Y-5082441D01*
X36002997Y-4976006D01*
X36002996Y-4976005D01*
X36002994Y-4976004D01*
X35927187Y-4937378D01*
X35841639Y-4893788D01*
X35841636Y-4893787D01*
X35669410Y-4837829D01*
X35490551Y-4809500D01*
X35490546Y-4809500D01*
X35309454Y-4809500D01*
X35309449Y-4809500D01*
X35130589Y-4837829D01*
X34958363Y-4893787D01*
X34958360Y-4893788D01*
X34797002Y-4976006D01*
X34650505Y-5082441D01*
X34650500Y-5082445D01*
X34522445Y-5210500D01*
X34522441Y-5210505D01*
X34416006Y-5357002D01*
X34333788Y-5518360D01*
X34333787Y-5518363D01*
X34277829Y-5690589D01*
X34252473Y-5850678D01*
X34222544Y-5913813D01*
X34163232Y-5950744D01*
X34093369Y-5949746D01*
X34035137Y-5911136D01*
X34007527Y-5850678D01*
X33983570Y-5699425D01*
X33982171Y-5690591D01*
X33939550Y-5559415D01*
X33926212Y-5518363D01*
X33926211Y-5518360D01*
X33890055Y-5447401D01*
X33843996Y-5357006D01*
X33830396Y-5338287D01*
X33737558Y-5210505D01*
X33737554Y-5210500D01*
X33609499Y-5082445D01*
X33609494Y-5082441D01*
X33462997Y-4976006D01*
X33462996Y-4976005D01*
X33462994Y-4976004D01*
X33387187Y-4937378D01*
X33301639Y-4893788D01*
X33301636Y-4893787D01*
X33129410Y-4837829D01*
X32950551Y-4809500D01*
X32950546Y-4809500D01*
X32769454Y-4809500D01*
X32769449Y-4809500D01*
X32590589Y-4837829D01*
X32418363Y-4893787D01*
X32418360Y-4893788D01*
X32257002Y-4976006D01*
X32110505Y-5082441D01*
X32110500Y-5082445D01*
X31982445Y-5210500D01*
X31982441Y-5210505D01*
X31876006Y-5357002D01*
X31793788Y-5518360D01*
X31793787Y-5518363D01*
X31737829Y-5690589D01*
X31712473Y-5850678D01*
X31682544Y-5913813D01*
X31623232Y-5950744D01*
X31553369Y-5949746D01*
X31495137Y-5911136D01*
X31467527Y-5850678D01*
X31443570Y-5699425D01*
X31442171Y-5690591D01*
X31399550Y-5559415D01*
X31386212Y-5518363D01*
X31386211Y-5518360D01*
X31350055Y-5447401D01*
X31303996Y-5357006D01*
X31290396Y-5338287D01*
X31197558Y-5210505D01*
X31197554Y-5210500D01*
X31069499Y-5082445D01*
X31069494Y-5082441D01*
X30922997Y-4976006D01*
X30922996Y-4976005D01*
X30922994Y-4976004D01*
X30847187Y-4937378D01*
X30761639Y-4893788D01*
X30761636Y-4893787D01*
X30589410Y-4837829D01*
X30410551Y-4809500D01*
X30410546Y-4809500D01*
X30229454Y-4809500D01*
X30229449Y-4809500D01*
X30050589Y-4837829D01*
X29878363Y-4893787D01*
X29878360Y-4893788D01*
X29717002Y-4976006D01*
X29570505Y-5082441D01*
X29570500Y-5082445D01*
X29442445Y-5210500D01*
X29442441Y-5210505D01*
X29336006Y-5357002D01*
X29253788Y-5518360D01*
X29253787Y-5518363D01*
X29197829Y-5690589D01*
X29172473Y-5850678D01*
X29142544Y-5913813D01*
X29083232Y-5950744D01*
X29013369Y-5949746D01*
X28955137Y-5911136D01*
X28927527Y-5850678D01*
X28903570Y-5699425D01*
X28902171Y-5690591D01*
X28859550Y-5559415D01*
X28846212Y-5518363D01*
X28846211Y-5518360D01*
X28810055Y-5447401D01*
X28763996Y-5357006D01*
X28750396Y-5338287D01*
X28657558Y-5210505D01*
X28657554Y-5210500D01*
X28529499Y-5082445D01*
X28529494Y-5082441D01*
X28382997Y-4976006D01*
X28382996Y-4976005D01*
X28382994Y-4976004D01*
X28307187Y-4937378D01*
X28221639Y-4893788D01*
X28221636Y-4893787D01*
X28049410Y-4837829D01*
X27870551Y-4809500D01*
X27870546Y-4809500D01*
X27689454Y-4809500D01*
X27689449Y-4809500D01*
X27510589Y-4837829D01*
X27338363Y-4893787D01*
X27338360Y-4893788D01*
X27177002Y-4976006D01*
X27030505Y-5082441D01*
X27030500Y-5082445D01*
X26902445Y-5210500D01*
X26902441Y-5210505D01*
X26796006Y-5357002D01*
X26713788Y-5518360D01*
X26713787Y-5518363D01*
X26657829Y-5690589D01*
X26632473Y-5850678D01*
X26602544Y-5913813D01*
X26543232Y-5950744D01*
X26473369Y-5949746D01*
X26415137Y-5911136D01*
X26387527Y-5850678D01*
X26363570Y-5699425D01*
X26362171Y-5690591D01*
X26319550Y-5559415D01*
X26306212Y-5518363D01*
X26306211Y-5518360D01*
X26270055Y-5447401D01*
X26223996Y-5357006D01*
X26210396Y-5338287D01*
X26117558Y-5210505D01*
X26117554Y-5210500D01*
X25989499Y-5082445D01*
X25989494Y-5082441D01*
X25842997Y-4976006D01*
X25842996Y-4976005D01*
X25842994Y-4976004D01*
X25767187Y-4937378D01*
X25681639Y-4893788D01*
X25681636Y-4893787D01*
X25509410Y-4837829D01*
X25330551Y-4809500D01*
X25330546Y-4809500D01*
X25149454Y-4809500D01*
X25149449Y-4809500D01*
X24970589Y-4837829D01*
X24798363Y-4893787D01*
X24798360Y-4893788D01*
X24637002Y-4976006D01*
X24490505Y-5082441D01*
X24490500Y-5082445D01*
X24362445Y-5210500D01*
X24362441Y-5210505D01*
X24256006Y-5357002D01*
X24173788Y-5518360D01*
X24173787Y-5518363D01*
X24117829Y-5690589D01*
X24092473Y-5850678D01*
X24062544Y-5913813D01*
X24003232Y-5950744D01*
X23933369Y-5949746D01*
X23875137Y-5911136D01*
X23847527Y-5850678D01*
X23823570Y-5699425D01*
X23822171Y-5690591D01*
X23779550Y-5559415D01*
X23766212Y-5518363D01*
X23766211Y-5518360D01*
X23730055Y-5447401D01*
X23683996Y-5357006D01*
X23670396Y-5338287D01*
X23577558Y-5210505D01*
X23577554Y-5210500D01*
X23449499Y-5082445D01*
X23449494Y-5082441D01*
X23302997Y-4976006D01*
X23302996Y-4976005D01*
X23302994Y-4976004D01*
X23227187Y-4937378D01*
X23141639Y-4893788D01*
X23141636Y-4893787D01*
X22969410Y-4837829D01*
X22790551Y-4809500D01*
X22790546Y-4809500D01*
X22609454Y-4809500D01*
X22609449Y-4809500D01*
X22430589Y-4837829D01*
X22258363Y-4893787D01*
X22258360Y-4893788D01*
X22097002Y-4976006D01*
X21950505Y-5082441D01*
X21950500Y-5082445D01*
X21822445Y-5210500D01*
X21822441Y-5210505D01*
X21716006Y-5357002D01*
X21633788Y-5518360D01*
X21633787Y-5518363D01*
X21577829Y-5690589D01*
X21552473Y-5850678D01*
X21522544Y-5913813D01*
X21463232Y-5950744D01*
X21393369Y-5949746D01*
X21335137Y-5911136D01*
X21307527Y-5850678D01*
X21283570Y-5699425D01*
X21282171Y-5690591D01*
X21239550Y-5559415D01*
X21226212Y-5518363D01*
X21226211Y-5518360D01*
X21190055Y-5447401D01*
X21143996Y-5357006D01*
X21130396Y-5338287D01*
X21037558Y-5210505D01*
X21037554Y-5210500D01*
X20909499Y-5082445D01*
X20909494Y-5082441D01*
X20762997Y-4976006D01*
X20762996Y-4976005D01*
X20762994Y-4976004D01*
X20687187Y-4937378D01*
X20601639Y-4893788D01*
X20601636Y-4893787D01*
X20429410Y-4837829D01*
X20250551Y-4809500D01*
X20250546Y-4809500D01*
X20069454Y-4809500D01*
X20069449Y-4809500D01*
X19890589Y-4837829D01*
X19718363Y-4893787D01*
X19718360Y-4893788D01*
X19557002Y-4976006D01*
X19410505Y-5082441D01*
X19410500Y-5082445D01*
X19282445Y-5210500D01*
X19282441Y-5210505D01*
X19176006Y-5357002D01*
X19093788Y-5518360D01*
X19093787Y-5518363D01*
X19037829Y-5690589D01*
X19012473Y-5850678D01*
X18982544Y-5913813D01*
X18923232Y-5950744D01*
X18853369Y-5949746D01*
X18795137Y-5911136D01*
X18767527Y-5850678D01*
X18743570Y-5699425D01*
X18742171Y-5690591D01*
X18699550Y-5559415D01*
X18686212Y-5518363D01*
X18686211Y-5518360D01*
X18650055Y-5447401D01*
X18603996Y-5357006D01*
X18590396Y-5338287D01*
X18497558Y-5210505D01*
X18497554Y-5210500D01*
X18369499Y-5082445D01*
X18369494Y-5082441D01*
X18222997Y-4976006D01*
X18222996Y-4976005D01*
X18222994Y-4976004D01*
X18147187Y-4937378D01*
X18061639Y-4893788D01*
X18061636Y-4893787D01*
X17889410Y-4837829D01*
X17710551Y-4809500D01*
X17710546Y-4809500D01*
X17529454Y-4809500D01*
X17529449Y-4809500D01*
X17350589Y-4837829D01*
X17178363Y-4893787D01*
X17178360Y-4893788D01*
X17017002Y-4976006D01*
X16870505Y-5082441D01*
X16870500Y-5082445D01*
X16742445Y-5210500D01*
X16742441Y-5210505D01*
X16636006Y-5357002D01*
X16553788Y-5518360D01*
X16553787Y-5518363D01*
X16497829Y-5690589D01*
X16472473Y-5850678D01*
X16442544Y-5913813D01*
X16383232Y-5950744D01*
X16313369Y-5949746D01*
X16255137Y-5911136D01*
X16227527Y-5850678D01*
X16203570Y-5699425D01*
X16202171Y-5690591D01*
X16159550Y-5559415D01*
X16146212Y-5518363D01*
X16146211Y-5518360D01*
X16110055Y-5447401D01*
X16063996Y-5357006D01*
X16050396Y-5338287D01*
X15957558Y-5210505D01*
X15957554Y-5210500D01*
X15829499Y-5082445D01*
X15829494Y-5082441D01*
X15682997Y-4976006D01*
X15682996Y-4976005D01*
X15682994Y-4976004D01*
X15607187Y-4937378D01*
X15521639Y-4893788D01*
X15521636Y-4893787D01*
X15349410Y-4837829D01*
X15170551Y-4809500D01*
X15170546Y-4809500D01*
X14989454Y-4809500D01*
X14989449Y-4809500D01*
X14810589Y-4837829D01*
X14638363Y-4893787D01*
X14638360Y-4893788D01*
X14477002Y-4976006D01*
X14330505Y-5082441D01*
X14330500Y-5082445D01*
X14202445Y-5210500D01*
X14202441Y-5210505D01*
X14096006Y-5357002D01*
X14013788Y-5518360D01*
X14013787Y-5518363D01*
X13957829Y-5690589D01*
X13932473Y-5850678D01*
X13902544Y-5913813D01*
X13843232Y-5950744D01*
X13773369Y-5949746D01*
X13715137Y-5911136D01*
X13687527Y-5850678D01*
X13663570Y-5699425D01*
X13662171Y-5690591D01*
X13619550Y-5559415D01*
X13606212Y-5518363D01*
X13606211Y-5518360D01*
X13570055Y-5447401D01*
X13523996Y-5357006D01*
X13510396Y-5338287D01*
X13417558Y-5210505D01*
X13417554Y-5210500D01*
X13289499Y-5082445D01*
X13289494Y-5082441D01*
X13142997Y-4976006D01*
X13142996Y-4976005D01*
X13142994Y-4976004D01*
X13067187Y-4937378D01*
X12981639Y-4893788D01*
X12981636Y-4893787D01*
X12809410Y-4837829D01*
X12630551Y-4809500D01*
X12630546Y-4809500D01*
X12449454Y-4809500D01*
X12449449Y-4809500D01*
X12270589Y-4837829D01*
X12098363Y-4893787D01*
X12098360Y-4893788D01*
X11937002Y-4976006D01*
X11790505Y-5082441D01*
X11790500Y-5082445D01*
X11662445Y-5210500D01*
X11662441Y-5210505D01*
X11556006Y-5357002D01*
X11473788Y-5518360D01*
X11473787Y-5518363D01*
X11417829Y-5690589D01*
X11392473Y-5850678D01*
X11362544Y-5913813D01*
X11303232Y-5950744D01*
X11233369Y-5949746D01*
X11175137Y-5911136D01*
X11147527Y-5850678D01*
X11123570Y-5699425D01*
X11122171Y-5690591D01*
X11079550Y-5559415D01*
X11066212Y-5518363D01*
X11066211Y-5518360D01*
X11030055Y-5447401D01*
X10983996Y-5357006D01*
X10970396Y-5338287D01*
X10877558Y-5210505D01*
X10877554Y-5210500D01*
X10749499Y-5082445D01*
X10749494Y-5082441D01*
X10602997Y-4976006D01*
X10602996Y-4976005D01*
X10602994Y-4976004D01*
X10527187Y-4937378D01*
X10441639Y-4893788D01*
X10441636Y-4893787D01*
X10269410Y-4837829D01*
X10090551Y-4809500D01*
X10090546Y-4809500D01*
X9909454Y-4809500D01*
X9909449Y-4809500D01*
X9730589Y-4837829D01*
X9558363Y-4893787D01*
X9558360Y-4893788D01*
X9397002Y-4976006D01*
X9250505Y-5082441D01*
X9250500Y-5082445D01*
X9122445Y-5210500D01*
X9122441Y-5210505D01*
X9016006Y-5357002D01*
X8933788Y-5518360D01*
X8933787Y-5518363D01*
X8877829Y-5690589D01*
X8849500Y-5869448D01*
X8849500Y-6050551D01*
X8877829Y-6229410D01*
X8915905Y-6346597D01*
X8917900Y-6416438D01*
X8885655Y-6472596D01*
X6882295Y-8475955D01*
X6882296Y-8475956D01*
X6820514Y-8537738D01*
X6820513Y-8537740D01*
X6764498Y-8634760D01*
X6764497Y-8634763D01*
X6735500Y-8742982D01*
X6735500Y-18124902D01*
X6715815Y-18191941D01*
X6699181Y-18212583D01*
X6680481Y-18231282D01*
X6680475Y-18231290D01*
X6601426Y-18368209D01*
X6601423Y-18368216D01*
X6560500Y-18520943D01*
X500500Y-18520943D01*
X500500Y-3378711D01*
X1649500Y-3378711D01*
X1649500Y-3621288D01*
X1681161Y-3861785D01*
X1743947Y-4096104D01*
X1791178Y-4210129D01*
X1836776Y-4320212D01*
X1958064Y-4530289D01*
X1958066Y-4530292D01*
X1958067Y-4530293D01*
X2105733Y-4722736D01*
X2105739Y-4722743D01*
X2277256Y-4894260D01*
X2277263Y-4894266D01*
X2333448Y-4937378D01*
X2469711Y-5041936D01*
X2679788Y-5163224D01*
X2903900Y-5256054D01*
X3138211Y-5318838D01*
X3305389Y-5340847D01*
X3378711Y-5350500D01*
X3378712Y-5350500D01*
X3621289Y-5350500D01*
X3694611Y-5340847D01*
X3861789Y-5318838D01*
X4096100Y-5256054D01*
X4320212Y-5163224D01*
X4530289Y-5041936D01*
X4722738Y-4894265D01*
X4894265Y-4722738D01*
X5041936Y-4530289D01*
X5163224Y-4320212D01*
X5256054Y-4096100D01*
X5318838Y-3861789D01*
X5350500Y-3621288D01*
X5350500Y-3378712D01*
X5350500Y-3378711D01*
X95149500Y-3378711D01*
X95149500Y-3621288D01*
X95181161Y-3861785D01*
X95243947Y-4096104D01*
X95291178Y-4210129D01*
X95336776Y-4320212D01*
X95458064Y-4530289D01*
X95458066Y-4530292D01*
X95458067Y-4530293D01*
X95605733Y-4722736D01*
X95605739Y-4722743D01*
X95777256Y-4894260D01*
X95777263Y-4894266D01*
X95833448Y-4937378D01*
X95969711Y-5041936D01*
X96179788Y-5163224D01*
X96403900Y-5256054D01*
X96638211Y-5318838D01*
X96805389Y-5340847D01*
X96878711Y-5350500D01*
X96878712Y-5350500D01*
X97121289Y-5350500D01*
X97194611Y-5340847D01*
X97361789Y-5318838D01*
X97596100Y-5256054D01*
X97820212Y-5163224D01*
X98030289Y-5041936D01*
X98222738Y-4894265D01*
X98394265Y-4722738D01*
X98541936Y-4530289D01*
X98620788Y-4393713D01*
X112924500Y-4393713D01*
X112924500Y-4606286D01*
X112956434Y-4807914D01*
X112957754Y-4816243D01*
X113009664Y-4976006D01*
X113023444Y-5018414D01*
X113119951Y-5207820D01*
X113244890Y-5379786D01*
X113395213Y-5530109D01*
X113567179Y-5655048D01*
X113567181Y-5655049D01*
X113567184Y-5655051D01*
X113756588Y-5751557D01*
X113958757Y-5817246D01*
X114168713Y-5850500D01*
X114168714Y-5850500D01*
X114381286Y-5850500D01*
X114381287Y-5850500D01*
X114591243Y-5817246D01*
X114793412Y-5751557D01*
X114982816Y-5655051D01*
X115004789Y-5639086D01*
X115154786Y-5530109D01*
X115154792Y-5530104D01*
X115181655Y-5503241D01*
X115305104Y-5379792D01*
X115305106Y-5379788D01*
X115305109Y-5379786D01*
X115430048Y-5207820D01*
X115430047Y-5207820D01*
X115430051Y-5207816D01*
X115526557Y-5018412D01*
X115592246Y-4816243D01*
X115625500Y-4606287D01*
X115625500Y-4393713D01*
X118374500Y-4393713D01*
X118374500Y-4606286D01*
X118406434Y-4807914D01*
X118407754Y-4816243D01*
X118459664Y-4976006D01*
X118473444Y-5018414D01*
X118569951Y-5207820D01*
X118694890Y-5379786D01*
X118845213Y-5530109D01*
X119017179Y-5655048D01*
X119017181Y-5655049D01*
X119017184Y-5655051D01*
X119206588Y-5751557D01*
X119408757Y-5817246D01*
X119618713Y-5850500D01*
X119618714Y-5850500D01*
X119831286Y-5850500D01*
X119831287Y-5850500D01*
X120041243Y-5817246D01*
X120243412Y-5751557D01*
X120432816Y-5655051D01*
X120454789Y-5639086D01*
X120604786Y-5530109D01*
X120604792Y-5530104D01*
X120631655Y-5503241D01*
X120755104Y-5379792D01*
X120755106Y-5379788D01*
X120755109Y-5379786D01*
X120880048Y-5207820D01*
X120880047Y-5207820D01*
X120880051Y-5207816D01*
X120976557Y-5018412D01*
X121042246Y-4816243D01*
X121075500Y-4606287D01*
X121075500Y-4393713D01*
X121042246Y-4183757D01*
X120976557Y-3981588D01*
X120880051Y-3792184D01*
X120880049Y-3792181D01*
X120880048Y-3792179D01*
X120755109Y-3620213D01*
X120604786Y-3469890D01*
X120432820Y-3344951D01*
X120243414Y-3248444D01*
X120243413Y-3248443D01*
X120243412Y-3248443D01*
X120041243Y-3182754D01*
X120041241Y-3182753D01*
X120041240Y-3182753D01*
X119879957Y-3157208D01*
X119831287Y-3149500D01*
X119618713Y-3149500D01*
X119570042Y-3157208D01*
X119408760Y-3182753D01*
X119206585Y-3248444D01*
X119017179Y-3344951D01*
X118845213Y-3469890D01*
X118694890Y-3620213D01*
X118569951Y-3792179D01*
X118473444Y-3981585D01*
X118407753Y-4183760D01*
X118374500Y-4393713D01*
X115625500Y-4393713D01*
X115592246Y-4183757D01*
X115526557Y-3981588D01*
X115430051Y-3792184D01*
X115430049Y-3792181D01*
X115430048Y-3792179D01*
X115305109Y-3620213D01*
X115154786Y-3469890D01*
X114982820Y-3344951D01*
X114793414Y-3248444D01*
X114793413Y-3248443D01*
X114793412Y-3248443D01*
X114591243Y-3182754D01*
X114591241Y-3182753D01*
X114591240Y-3182753D01*
X114429957Y-3157208D01*
X114381287Y-3149500D01*
X114168713Y-3149500D01*
X114120042Y-3157208D01*
X113958760Y-3182753D01*
X113756585Y-3248444D01*
X113567179Y-3344951D01*
X113395213Y-3469890D01*
X113244890Y-3620213D01*
X113119951Y-3792179D01*
X113023444Y-3981585D01*
X112957753Y-4183760D01*
X112924500Y-4393713D01*
X98620788Y-4393713D01*
X98655959Y-4332795D01*
X98659397Y-4326841D01*
X98659397Y-4326840D01*
X98663224Y-4320212D01*
X98756054Y-4096100D01*
X98818838Y-3861789D01*
X98850500Y-3621288D01*
X98850500Y-3378712D01*
X98818838Y-3138211D01*
X98756054Y-2903900D01*
X98663224Y-2679788D01*
X98541936Y-2469711D01*
X98394265Y-2277262D01*
X98394260Y-2277256D01*
X98222743Y-2105739D01*
X98222736Y-2105733D01*
X98030293Y-1958067D01*
X98030292Y-1958066D01*
X98030289Y-1958064D01*
X97820212Y-1836776D01*
X97820205Y-1836773D01*
X97596104Y-1743947D01*
X97361785Y-1681161D01*
X97121289Y-1649500D01*
X97121288Y-1649500D01*
X96878712Y-1649500D01*
X96878711Y-1649500D01*
X96638214Y-1681161D01*
X96403895Y-1743947D01*
X96179794Y-1836773D01*
X96179785Y-1836777D01*
X95969706Y-1958067D01*
X95777263Y-2105733D01*
X95777256Y-2105739D01*
X95605739Y-2277256D01*
X95605733Y-2277263D01*
X95458067Y-2469706D01*
X95336777Y-2679785D01*
X95336773Y-2679794D01*
X95243947Y-2903895D01*
X95181161Y-3138214D01*
X95149500Y-3378711D01*
X5350500Y-3378711D01*
X5318838Y-3138211D01*
X5256054Y-2903900D01*
X5163224Y-2679788D01*
X5041936Y-2469711D01*
X4894265Y-2277262D01*
X4894260Y-2277256D01*
X4722743Y-2105739D01*
X4722736Y-2105733D01*
X4530293Y-1958067D01*
X4530292Y-1958066D01*
X4530289Y-1958064D01*
X4320212Y-1836776D01*
X4320205Y-1836773D01*
X4096104Y-1743947D01*
X3861785Y-1681161D01*
X3621289Y-1649500D01*
X3621288Y-1649500D01*
X3378712Y-1649500D01*
X3378711Y-1649500D01*
X3138214Y-1681161D01*
X2903895Y-1743947D01*
X2679794Y-1836773D01*
X2679785Y-1836777D01*
X2469706Y-1958067D01*
X2277263Y-2105733D01*
X2277256Y-2105739D01*
X2105739Y-2277256D01*
X2105733Y-2277263D01*
X1958067Y-2469706D01*
X1836777Y-2679785D01*
X1836773Y-2679794D01*
X1743947Y-2903895D01*
X1681161Y-3138214D01*
X1649500Y-3378711D01*
X500500Y-3378711D01*
X500500Y-624500D01*
X520185Y-557461D01*
X572989Y-511706D01*
X624500Y-500500D01*
X134375500Y-500500D01*
X134442539Y-520185D01*
G37*
G04 #@! TD.AperFunction*
M02*
