M48
; DRILL file {KiCad 9.0.4} date 2026-09-29T14:32:56+0300
; FORMAT={-:-/ absolute / metric / decimal}
; #@! TF.CreationDate,2026-09-29T14:32:56+03:00
; #@! TF.GenerationSoftware,Kicad,Pcbnew,9.0.4
; #@! TF.FileFunction,Plated,1,2,PTH
FMAT,2
METRIC
; #@! TA.AperFunction,Plated,PTH,ViaDrill
T1C0.300
; #@! TA.AperFunction,Plated,PTH,ViaDrill
T2C0.400
; #@! TA.AperFunction,Plated,PTH,ComponentDrill
T3C1.000
; #@! TA.AperFunction,Plated,PTH,ComponentDrill
T4C1.100
%
G90
G05
T1
X5.5Y-47.0
X5.5Y-72.5
X6.5Y-35.5
X7.161Y-18.6
X7.183Y-20.39
X7.197Y-19.498
X9.175Y-20.838
X10.806Y-17.8
X10.835Y-20.408
X11.191Y-19.625
X12.278Y-19.4
X12.675Y-36.181
X12.676Y-37.451
X12.8Y-38.862
X13.455Y-34.911
X14.127Y-20.834
X14.541Y-10.475
X14.999Y-39.991
X15.179Y-56.606
X15.196Y-57.6
X16.001Y-60.46
X16.045Y-84.95
X16.102Y-18.642
X16.106Y-17.8
X16.266Y-19.625
X16.289Y-45.071
X16.333Y-20.462
X16.389Y-69.286
X16.827Y-59.838
X17.229Y-39.644
X17.394Y-27.987
X17.502Y-20.395
X17.655Y-19.125
X18.005Y-16.713
X18.125Y-83.575
X18.253Y-38.821
X18.81Y-33.057
X18.812Y-56.615
X18.832Y-38.242
X18.933Y-69.96
X19.106Y-34.285
X19.175Y-58.361
X19.191Y-57.375
X19.298Y-36.199
X19.328Y-37.469
X19.375Y-83.57
X19.419Y-30.938
X19.773Y-20.833
X19.877Y-58.99
X20.378Y-29.92
X20.563Y-71.65
X20.625Y-83.563
X21.406Y-17.8
X21.419Y-19.4
X21.45Y-69.286
X21.964Y-70.249
X22.478Y-83.75
X22.951Y-19.125
X23.305Y-17.125
X23.943Y-85.567
X24.727Y-20.872
X25.564Y-54.208
X26.729Y-17.598
X26.871Y-20.882
X26.872Y-19.4
X27.122Y-18.375
X27.627Y-56.8
X27.688Y-57.639
X28.0Y-40.0
X28.18Y-58.4
X28.366Y-18.459
X28.394Y-19.4
X29.827Y-59.873
X30.027Y-20.87
X31.817Y-59.2
X31.821Y-56.608
X32.0Y-35.0
X32.002Y-17.624
X32.027Y-57.556
X32.081Y-18.6
X32.45Y-20.409
X32.945Y-19.771
X33.0Y-85.5
X33.228Y-46.358
X33.367Y-18.969
X33.5Y-77.0
X33.709Y-17.328
X35.491Y-20.714
X36.882Y-39.18
X37.039Y-36.181
X37.306Y-17.801
X37.403Y-37.451
X37.413Y-34.912
X37.466Y-19.625
X38.5Y-64.543
X38.965Y-20.409
X38.995Y-19.254
X39.02Y-39.991
X39.457Y-28.4
X40.204Y-28.871
X41.123Y-21.013
X41.287Y-10.406
X41.492Y-37.469
X41.642Y-39.686
X42.212Y-39.123
X42.579Y-38.115
X42.605Y-18.65
X42.606Y-17.8
X43.017Y-32.575
X43.017Y-35.555
X43.511Y-18.004
X44.28Y-18.375
X44.473Y-20.864
X46.169Y-58.544
X46.194Y-57.6
X46.915Y-21.81
X47.827Y-56.166
X47.827Y-59.837
X47.906Y-17.8
X48.045Y-84.95
X48.099Y-19.771
X48.901Y-19.501
X48.94Y-17.859
X49.558Y-83.707
X49.58Y-18.375
X49.819Y-56.608
X50.221Y-58.128
X50.844Y-71.885
X51.266Y-32.389
X51.375Y-83.591
X51.762Y-36.199
X51.771Y-37.469
X51.773Y-38.74
X51.835Y-34.929
X52.074Y-33.659
X52.195Y-83.569
X53.144Y-20.733
X53.376Y-19.625
X53.875Y-83.597
X53.884Y-17.866
X54.75Y-18.374
X54.807Y-21.938
X54.896Y-20.2
X55.941Y-84.95
X56.0Y-45.0
X56.804Y-17.231
X58.642Y-19.625
X59.049Y-18.875
X60.173Y-68.35
X63.093Y-18.075
X65.669Y-37.45
X66.861Y-32.365
X67.116Y-36.432
X67.304Y-33.632
X67.316Y-34.91
X67.327Y-39.991
X67.5Y-85.5
X67.631Y-58.573
X67.927Y-57.375
X68.5Y-67.5
X73.072Y-54.886
X73.5Y-16.5
X73.5Y-40.5
X76.194Y-57.6
X76.195Y-58.637
X77.827Y-56.163
X77.827Y-59.835
X78.5Y-32.0
X79.817Y-59.39
X79.819Y-56.608
X80.057Y-85.49
X80.187Y-57.375
X80.187Y-58.623
X81.644Y-83.603
X81.751Y-34.929
X81.822Y-35.868
X81.985Y-32.43
X82.028Y-33.659
X83.376Y-83.575
X84.361Y-83.585
X84.69Y-38.738
X84.907Y-35.746
X85.875Y-83.566
X87.955Y-84.95
X89.191Y-56.618
X89.194Y-57.6
X89.506Y-72.606
X90.126Y-38.739
X90.655Y-35.408
X90.896Y-36.21
X90.896Y-40.009
X91.0Y-17.0
X91.173Y-56.164
X91.289Y-41.279
X91.328Y-37.469
X92.82Y-57.6
X98.679Y-60.0
X99.989Y-35.175
X103.737Y-35.912
X104.0Y-9.5
X104.412Y-52.459
X104.453Y-34.047
X105.0Y-23.0
X105.278Y-17.723
X105.48Y-20.435
X107.675Y-64.971
X109.236Y-50.819
X114.547Y-81.368
X125.127Y-53.729
X130.0Y-48.0
X130.5Y-9.0
T2
X15.224Y-65.584
X23.18Y-48.171
X23.35Y-30.159
X25.835Y-70.736
X26.942Y-66.719
X36.964Y-43.693
X46.351Y-45.65
X47.362Y-30.13
X48.397Y-48.254
X48.751Y-44.642
X56.57Y-65.154
X60.089Y-71.65
X92.447Y-70.647
X99.37Y-64.855
X102.0Y-36.701
X102.525Y-59.986
X102.939Y-55.011
X105.067Y-21.918
X105.17Y-50.755
X109.563Y-10.083
X111.74Y-68.86
X113.406Y-84.606
X124.469Y-4.264
X125.092Y-15.817
T3
X10.0Y-5.96
X10.0Y-8.5
X12.54Y-5.96
X12.54Y-8.5
X15.08Y-5.96
X15.08Y-8.5
X17.62Y-5.96
X17.62Y-8.5
X20.16Y-5.96
X20.16Y-8.5
X22.7Y-5.96
X22.7Y-8.5
X25.24Y-5.96
X25.24Y-8.5
X27.78Y-5.96
X27.78Y-8.5
X30.32Y-5.96
X30.32Y-8.5
X32.86Y-5.96
X32.86Y-8.5
X35.4Y-5.96
X35.4Y-8.5
X37.94Y-5.96
X37.94Y-8.5
X40.48Y-5.96
X40.48Y-8.5
X43.02Y-5.96
X43.02Y-8.5
X45.56Y-5.96
X45.56Y-8.5
X48.1Y-5.96
X48.1Y-8.5
X50.64Y-5.96
X50.64Y-8.5
X53.18Y-5.96
X53.18Y-8.5
X55.72Y-5.96
X55.72Y-8.5
X58.26Y-5.96
X58.26Y-8.5
X103.0Y-44.0
X103.0Y-46.54
X103.0Y-49.08
X103.0Y-51.62
X121.0Y-74.0
X128.6Y-74.0
T4
X99.0Y-75.0
X99.0Y-79.5
X105.5Y-75.0
X105.5Y-79.5
M30
