G04 #@! TF.GenerationSoftware,KiCad,Pcbnew,9.0.4*
G04 #@! TF.CreationDate,2026-09-29T14:32:55+03:00*
G04 #@! TF.ProjectId,cable_tester,6361626c-655f-4746-9573-7465722e6b69,rev?*
G04 #@! TF.SameCoordinates,Original*
G04 #@! TF.FileFunction,Soldermask,Top*
G04 #@! TF.FilePolarity,Negative*
%FSLAX46Y46*%
G04 Gerber Fmt 4.6, Leading zero omitted, Abs format (unit mm)*
G04 Created by KiCad (PCBNEW 9.0.4) date 2026-09-29 14:32:55*
%MOMM*%
%LPD*%
G01*
G04 APERTURE LIST*
G04 Aperture macros list*
%AMRoundRect*
0 Rectangle with rounded corners*
0 $1 Rounding radius*
0 $2 $3 $4 $5 $6 $7 $8 $9 X,Y pos of 4 corners*
0 Add a 4 corners polygon primitive as box body*
4,1,4,$2,$3,$4,$5,$6,$7,$8,$9,$2,$3,0*
0 Add four circle primitives for the rounded corners*
1,1,$1+$1,$2,$3*
1,1,$1+$1,$4,$5*
1,1,$1+$1,$6,$7*
1,1,$1+$1,$8,$9*
0 Add four rect primitives between the rounded corners*
20,1,$1+$1,$2,$3,$4,$5,0*
20,1,$1+$1,$4,$5,$6,$7,0*
20,1,$1+$1,$6,$7,$8,$9,0*
20,1,$1+$1,$8,$9,$2,$3,0*%
%AMFreePoly0*
4,1,37,0.800000,0.796148,0.878414,0.796148,1.032228,0.765552,1.177117,0.705537,1.307515,0.618408,1.418408,0.507515,1.505537,0.377117,1.565552,0.232228,1.596148,0.078414,1.596148,-0.078414,1.565552,-0.232228,1.505537,-0.377117,1.418408,-0.507515,1.307515,-0.618408,1.177117,-0.705537,1.032228,-0.765552,0.878414,-0.796148,0.800000,-0.796148,0.800000,-0.800000,-1.400000,-0.800000,
-1.403843,-0.796157,-1.439018,-0.796157,-1.511114,-0.766294,-1.566294,-0.711114,-1.596157,-0.639018,-1.596157,-0.603843,-1.600000,-0.600000,-1.600000,0.600000,-1.596157,0.603843,-1.596157,0.639018,-1.566294,0.711114,-1.511114,0.766294,-1.439018,0.796157,-1.403843,0.796157,-1.400000,0.800000,0.800000,0.800000,0.800000,0.796148,0.800000,0.796148,$1*%
%AMFreePoly1*
4,1,37,1.403843,0.796157,1.439018,0.796157,1.511114,0.766294,1.566294,0.711114,1.596157,0.639018,1.596157,0.603843,1.600000,0.600000,1.600000,-0.600000,1.596157,-0.603843,1.596157,-0.639018,1.566294,-0.711114,1.511114,-0.766294,1.439018,-0.796157,1.403843,-0.796157,1.400000,-0.800000,-0.800000,-0.800000,-0.800000,-0.796148,-0.878414,-0.796148,-1.032228,-0.765552,-1.177117,-0.705537,
-1.307515,-0.618408,-1.418408,-0.507515,-1.505537,-0.377117,-1.565552,-0.232228,-1.596148,-0.078414,-1.596148,0.078414,-1.565552,0.232228,-1.505537,0.377117,-1.418408,0.507515,-1.307515,0.618408,-1.177117,0.705537,-1.032228,0.765552,-0.878414,0.796148,-0.800000,0.796148,-0.800000,0.800000,1.400000,0.800000,1.403843,0.796157,1.403843,0.796157,$1*%
%AMFreePoly2*
4,1,37,1.600000,0.796148,1.678414,0.796148,1.832228,0.765552,1.977117,0.705537,2.107515,0.618408,2.218408,0.507515,2.305537,0.377117,2.365552,0.232228,2.396148,0.078414,2.396148,-0.078414,2.365552,-0.232228,2.305537,-0.377117,2.218408,-0.507515,2.107515,-0.618408,1.977117,-0.705537,1.832228,-0.765552,1.678414,-0.796148,1.600000,-0.796148,1.600000,-0.800000,-0.600000,-0.800000,
-0.603843,-0.796157,-0.639018,-0.796157,-0.711114,-0.766294,-0.766294,-0.711114,-0.796157,-0.639018,-0.796157,-0.603843,-0.800000,-0.600000,-0.800000,0.600000,-0.796157,0.603843,-0.796157,0.639018,-0.766294,0.711114,-0.711114,0.766294,-0.639018,0.796157,-0.603843,0.796157,-0.600000,0.800000,1.600000,0.800000,1.600000,0.796148,1.600000,0.796148,$1*%
G04 Aperture macros list end*
%ADD10RoundRect,0.090000X-0.660000X-0.360000X0.660000X-0.360000X0.660000X0.360000X-0.660000X0.360000X0*%
%ADD11R,0.800000X0.500000*%
%ADD12R,0.800000X0.400000*%
%ADD13RoundRect,0.225000X-0.225000X-0.250000X0.225000X-0.250000X0.225000X0.250000X-0.225000X0.250000X0*%
%ADD14RoundRect,0.225000X-0.225000X-0.375000X0.225000X-0.375000X0.225000X0.375000X-0.225000X0.375000X0*%
%ADD15RoundRect,0.150000X-0.587500X-0.150000X0.587500X-0.150000X0.587500X0.150000X-0.587500X0.150000X0*%
%ADD16RoundRect,0.150000X-0.875000X-0.150000X0.875000X-0.150000X0.875000X0.150000X-0.875000X0.150000X0*%
%ADD17C,3.200000*%
%ADD18C,2.000000*%
%ADD19RoundRect,0.225000X-0.250000X0.225000X-0.250000X-0.225000X0.250000X-0.225000X0.250000X0.225000X0*%
%ADD20RoundRect,0.150000X-0.150000X-0.700000X0.150000X-0.700000X0.150000X0.700000X-0.150000X0.700000X0*%
%ADD21RoundRect,0.250000X-0.250000X-1.100000X0.250000X-1.100000X0.250000X1.100000X-0.250000X1.100000X0*%
%ADD22RoundRect,0.200000X0.275000X-0.200000X0.275000X0.200000X-0.275000X0.200000X-0.275000X-0.200000X0*%
%ADD23RoundRect,0.200000X-0.200000X-0.275000X0.200000X-0.275000X0.200000X0.275000X-0.200000X0.275000X0*%
%ADD24RoundRect,0.250000X-0.250000X-0.475000X0.250000X-0.475000X0.250000X0.475000X-0.250000X0.475000X0*%
%ADD25R,1.700000X1.700000*%
%ADD26C,1.700000*%
%ADD27C,2.200000*%
%ADD28C,1.850000*%
%ADD29FreePoly0,0.000000*%
%ADD30RoundRect,0.800000X-0.800000X-0.000010X0.800000X-0.000010X0.800000X0.000010X-0.800000X0.000010X0*%
%ADD31FreePoly1,0.000000*%
%ADD32RoundRect,0.800000X0.000010X-0.800000X0.000010X0.800000X-0.000010X0.800000X-0.000010X-0.800000X0*%
%ADD33FreePoly2,270.000000*%
%ADD34R,2.000000X2.000000*%
%ADD35RoundRect,0.150000X-0.512500X-0.150000X0.512500X-0.150000X0.512500X0.150000X-0.512500X0.150000X0*%
G04 APERTURE END LIST*
D10*
X88550000Y-68350000D03*
X88550000Y-71650000D03*
X93450000Y-71650000D03*
X93450000Y-68350000D03*
D11*
X77100000Y-56800000D03*
D12*
X77100000Y-57600000D03*
X77100000Y-58400000D03*
D11*
X77100000Y-59200000D03*
X78900000Y-59200000D03*
D12*
X78900000Y-58400000D03*
X78900000Y-57600000D03*
D11*
X78900000Y-56800000D03*
X45200000Y-17800000D03*
D12*
X45200000Y-18600000D03*
X45200000Y-19400000D03*
D11*
X45200000Y-20200000D03*
X47000000Y-20200000D03*
D12*
X47000000Y-19400000D03*
X47000000Y-18600000D03*
D11*
X47000000Y-17800000D03*
X8100000Y-17800000D03*
D12*
X8100000Y-18600000D03*
X8100000Y-19400000D03*
D11*
X8100000Y-20200000D03*
X9900000Y-20200000D03*
D12*
X9900000Y-19400000D03*
X9900000Y-18600000D03*
D11*
X9900000Y-17800000D03*
D13*
X83225000Y-65500000D03*
X84775000Y-65500000D03*
X19225000Y-65500000D03*
X20775000Y-65500000D03*
D14*
X110850000Y-71000000D03*
X114150000Y-71000000D03*
D13*
X100225000Y-64000000D03*
X101775000Y-64000000D03*
D15*
X111562500Y-66050000D03*
X111562500Y-67950000D03*
X113437500Y-67000000D03*
D13*
X90225000Y-65500000D03*
X91775000Y-65500000D03*
X44225000Y-65500000D03*
X45775000Y-65500000D03*
D11*
X47100000Y-56800000D03*
D12*
X47100000Y-57600000D03*
X47100000Y-58400000D03*
D11*
X47100000Y-59200000D03*
X48900000Y-59200000D03*
D12*
X48900000Y-58400000D03*
X48900000Y-57600000D03*
D11*
X48900000Y-56800000D03*
D16*
X59350000Y-31745000D03*
X59350000Y-33015000D03*
X59350000Y-34285000D03*
X59350000Y-35555000D03*
X59350000Y-36825000D03*
X59350000Y-38095000D03*
X59350000Y-39365000D03*
X59350000Y-40635000D03*
X59350000Y-41905000D03*
X59350000Y-43175000D03*
X59350000Y-44445000D03*
X59350000Y-45715000D03*
X59350000Y-46985000D03*
X59350000Y-48255000D03*
X68650000Y-48255000D03*
X68650000Y-46985000D03*
X68650000Y-45715000D03*
X68650000Y-44445000D03*
X68650000Y-43175000D03*
X68650000Y-41905000D03*
X68650000Y-40635000D03*
X68650000Y-39365000D03*
X68650000Y-38095000D03*
X68650000Y-36825000D03*
X68650000Y-35555000D03*
X68650000Y-34285000D03*
X68650000Y-33015000D03*
X68650000Y-31745000D03*
D17*
X3500000Y-86500000D03*
D18*
X99000000Y-75000000D03*
X105500000Y-75000000D03*
X99000000Y-79500000D03*
X105500000Y-79500000D03*
D11*
X34600000Y-17800000D03*
D12*
X34600000Y-18600000D03*
X34600000Y-19400000D03*
D11*
X34600000Y-20200000D03*
X36400000Y-20200000D03*
D12*
X36400000Y-19400000D03*
X36400000Y-18600000D03*
D11*
X36400000Y-17800000D03*
D13*
X58225000Y-65500000D03*
X59775000Y-65500000D03*
X76225000Y-65500000D03*
X77775000Y-65500000D03*
D19*
X9245000Y-41765000D03*
X9245000Y-43315000D03*
D20*
X48875000Y-84950000D03*
X50125000Y-84950000D03*
X51375000Y-84950000D03*
X52625000Y-84950000D03*
X53875000Y-84950000D03*
X55125000Y-84950000D03*
D21*
X47025000Y-88150000D03*
X56975000Y-88150000D03*
D22*
X105000000Y-60825000D03*
X105000000Y-59175000D03*
D13*
X12225000Y-65500000D03*
X13775000Y-65500000D03*
D10*
X56550000Y-68350000D03*
X56550000Y-71650000D03*
X61450000Y-71650000D03*
X61450000Y-68350000D03*
D11*
X39900000Y-17800000D03*
D12*
X39900000Y-18600000D03*
X39900000Y-19400000D03*
D11*
X39900000Y-20200000D03*
X41700000Y-20200000D03*
D12*
X41700000Y-19400000D03*
X41700000Y-18600000D03*
D11*
X41700000Y-17800000D03*
D10*
X74550000Y-68350000D03*
X74550000Y-71650000D03*
X79450000Y-71650000D03*
X79450000Y-68350000D03*
D20*
X16875000Y-84950000D03*
X18125000Y-84950000D03*
X19375000Y-84950000D03*
X20625000Y-84950000D03*
X21875000Y-84950000D03*
X23125000Y-84950000D03*
D21*
X15025000Y-88150000D03*
X24975000Y-88150000D03*
D11*
X50500000Y-17800000D03*
D12*
X50500000Y-18600000D03*
X50500000Y-19400000D03*
D11*
X50500000Y-20200000D03*
X52300000Y-20200000D03*
D12*
X52300000Y-19400000D03*
X52300000Y-18600000D03*
D11*
X52300000Y-17800000D03*
D10*
X81550000Y-68350000D03*
X81550000Y-71650000D03*
X86450000Y-71650000D03*
X86450000Y-68350000D03*
D17*
X97000000Y-3500000D03*
D13*
X51225000Y-65500000D03*
X52775000Y-65500000D03*
D11*
X29300000Y-17800000D03*
D12*
X29300000Y-18600000D03*
X29300000Y-19400000D03*
D11*
X29300000Y-20200000D03*
X31100000Y-20200000D03*
D12*
X31100000Y-19400000D03*
X31100000Y-18600000D03*
D11*
X31100000Y-17800000D03*
D23*
X107675000Y-68500000D03*
X109325000Y-68500000D03*
D10*
X109550000Y-82350000D03*
X109550000Y-85650000D03*
X114450000Y-85650000D03*
X114450000Y-82350000D03*
D13*
X26225000Y-65500000D03*
X27775000Y-65500000D03*
D10*
X10550000Y-68350000D03*
X10550000Y-71650000D03*
X15450000Y-71650000D03*
X15450000Y-68350000D03*
D11*
X55800000Y-17800000D03*
D12*
X55800000Y-18600000D03*
X55800000Y-19400000D03*
D11*
X55800000Y-20200000D03*
X57600000Y-20200000D03*
D12*
X57600000Y-19400000D03*
X57600000Y-18600000D03*
D11*
X57600000Y-17800000D03*
D24*
X100050000Y-40000000D03*
X101950000Y-40000000D03*
D19*
X33245000Y-41765000D03*
X33245000Y-43315000D03*
D25*
X10000000Y-8500000D03*
D26*
X10000000Y-5960000D03*
X12540000Y-8500000D03*
X12540000Y-5960000D03*
X15080000Y-8500000D03*
X15080000Y-5960000D03*
X17620000Y-8500000D03*
X17620000Y-5960000D03*
X20160000Y-8500000D03*
X20160000Y-5960000D03*
X22700000Y-8500000D03*
X22700000Y-5960000D03*
X25240000Y-8500000D03*
X25240000Y-5960000D03*
X27780000Y-8500000D03*
X27780000Y-5960000D03*
X30320000Y-8500000D03*
X30320000Y-5960000D03*
X32860000Y-8500000D03*
X32860000Y-5960000D03*
X35400000Y-8500000D03*
X35400000Y-5960000D03*
X37940000Y-8500000D03*
X37940000Y-5960000D03*
X40480000Y-8500000D03*
X40480000Y-5960000D03*
X43020000Y-8500000D03*
X43020000Y-5960000D03*
X45560000Y-8500000D03*
X45560000Y-5960000D03*
X48100000Y-8500000D03*
X48100000Y-5960000D03*
X50640000Y-8500000D03*
X50640000Y-5960000D03*
X53180000Y-8500000D03*
X53180000Y-5960000D03*
X55720000Y-8500000D03*
X55720000Y-5960000D03*
X58260000Y-8500000D03*
X58260000Y-5960000D03*
D17*
X3500000Y-3500000D03*
D11*
X24000000Y-17800000D03*
D12*
X24000000Y-18600000D03*
X24000000Y-19400000D03*
D11*
X24000000Y-20200000D03*
X25800000Y-20200000D03*
D12*
X25800000Y-19400000D03*
X25800000Y-18600000D03*
D11*
X25800000Y-17800000D03*
X18700000Y-17800000D03*
D12*
X18700000Y-18600000D03*
X18700000Y-19400000D03*
D11*
X18700000Y-20200000D03*
X20500000Y-20200000D03*
D12*
X20500000Y-19400000D03*
X20500000Y-18600000D03*
D11*
X20500000Y-17800000D03*
D22*
X101000000Y-36825000D03*
X101000000Y-35175000D03*
D19*
X57245000Y-41765000D03*
X57245000Y-43315000D03*
X81245000Y-41765000D03*
X81245000Y-43315000D03*
D17*
X131500000Y-86500000D03*
D24*
X100050000Y-56000000D03*
X101950000Y-56000000D03*
D13*
X111225000Y-79500000D03*
X112775000Y-79500000D03*
D11*
X90100000Y-56800000D03*
D12*
X90100000Y-57600000D03*
X90100000Y-58400000D03*
D11*
X90100000Y-59200000D03*
X91900000Y-59200000D03*
D12*
X91900000Y-58400000D03*
X91900000Y-57600000D03*
D11*
X91900000Y-56800000D03*
D10*
X24550000Y-68350000D03*
X24550000Y-71650000D03*
X29450000Y-71650000D03*
X29450000Y-68350000D03*
D16*
X83350000Y-31745000D03*
X83350000Y-33015000D03*
X83350000Y-34285000D03*
X83350000Y-35555000D03*
X83350000Y-36825000D03*
X83350000Y-38095000D03*
X83350000Y-39365000D03*
X83350000Y-40635000D03*
X83350000Y-41905000D03*
X83350000Y-43175000D03*
X83350000Y-44445000D03*
X83350000Y-45715000D03*
X83350000Y-46985000D03*
X83350000Y-48255000D03*
X92650000Y-48255000D03*
X92650000Y-46985000D03*
X92650000Y-45715000D03*
X92650000Y-44445000D03*
X92650000Y-43175000D03*
X92650000Y-41905000D03*
X92650000Y-40635000D03*
X92650000Y-39365000D03*
X92650000Y-38095000D03*
X92650000Y-36825000D03*
X92650000Y-35555000D03*
X92650000Y-34285000D03*
X92650000Y-33015000D03*
X92650000Y-31745000D03*
D25*
X103000000Y-44000000D03*
D26*
X103000000Y-46540000D03*
X103000000Y-49080000D03*
X103000000Y-51620000D03*
D11*
X13400000Y-17800000D03*
D12*
X13400000Y-18600000D03*
X13400000Y-19400000D03*
D11*
X13400000Y-20200000D03*
X15200000Y-20200000D03*
D12*
X15200000Y-19400000D03*
X15200000Y-18600000D03*
D11*
X15200000Y-17800000D03*
D10*
X42550000Y-68350000D03*
X42550000Y-71650000D03*
X47450000Y-71650000D03*
X47450000Y-68350000D03*
D16*
X11350000Y-31745000D03*
X11350000Y-33015000D03*
X11350000Y-34285000D03*
X11350000Y-35555000D03*
X11350000Y-36825000D03*
X11350000Y-38095000D03*
X11350000Y-39365000D03*
X11350000Y-40635000D03*
X11350000Y-41905000D03*
X11350000Y-43175000D03*
X11350000Y-44445000D03*
X11350000Y-45715000D03*
X11350000Y-46985000D03*
X11350000Y-48255000D03*
X20650000Y-48255000D03*
X20650000Y-46985000D03*
X20650000Y-45715000D03*
X20650000Y-44445000D03*
X20650000Y-43175000D03*
X20650000Y-41905000D03*
X20650000Y-40635000D03*
X20650000Y-39365000D03*
X20650000Y-38095000D03*
X20650000Y-36825000D03*
X20650000Y-35555000D03*
X20650000Y-34285000D03*
X20650000Y-33015000D03*
X20650000Y-31745000D03*
D20*
X80875000Y-84950000D03*
X82125000Y-84950000D03*
X83375000Y-84950000D03*
X84625000Y-84950000D03*
X85875000Y-84950000D03*
X87125000Y-84950000D03*
D21*
X79025000Y-88150000D03*
X88975000Y-88150000D03*
D10*
X17550000Y-68350000D03*
X17550000Y-71650000D03*
X22450000Y-71650000D03*
X22450000Y-68350000D03*
D27*
X114275000Y-4500000D03*
D28*
X114575000Y-7530000D03*
X119425000Y-7530000D03*
D27*
X119725000Y-4500000D03*
D29*
X107310000Y-4370000D03*
D30*
X107310000Y-6910000D03*
D31*
X107310000Y-9450000D03*
D30*
X107310000Y-11990000D03*
X107310000Y-14530000D03*
X107310000Y-17070000D03*
X107310000Y-19610000D03*
D31*
X107310000Y-22150000D03*
D30*
X107310000Y-24690000D03*
X107310000Y-27230000D03*
X107310000Y-29770000D03*
X107310000Y-32310000D03*
D31*
X107310000Y-34850000D03*
D30*
X107310000Y-37390000D03*
X107310000Y-39930000D03*
X107310000Y-42470000D03*
X107310000Y-45010000D03*
D31*
X107310000Y-47550000D03*
D30*
X107310000Y-50090000D03*
X107310000Y-52630000D03*
X126690000Y-52630000D03*
X126690000Y-50090000D03*
D29*
X126690000Y-47550000D03*
D30*
X126690000Y-45010000D03*
X126690000Y-42470000D03*
X126690000Y-39930000D03*
X126690000Y-37390000D03*
D29*
X126690000Y-34850000D03*
D30*
X126690000Y-32310000D03*
X126690000Y-29770000D03*
X126690000Y-27230000D03*
X126690000Y-24690000D03*
D29*
X126690000Y-22150000D03*
D30*
X126690000Y-19610000D03*
X126690000Y-17070000D03*
X126690000Y-14530000D03*
X126690000Y-11990000D03*
D29*
X126690000Y-9450000D03*
D30*
X126690000Y-6910000D03*
X126690000Y-4370000D03*
D32*
X114460000Y-53200000D03*
D33*
X117000000Y-52400000D03*
D32*
X119540000Y-53200000D03*
D22*
X103000000Y-36825000D03*
X103000000Y-35175000D03*
D34*
X121000000Y-74000000D03*
D18*
X128600000Y-74000000D03*
D11*
X16100000Y-56800000D03*
D12*
X16100000Y-57600000D03*
X16100000Y-58400000D03*
D11*
X16100000Y-59200000D03*
X17900000Y-59200000D03*
D12*
X17900000Y-58400000D03*
X17900000Y-57600000D03*
D11*
X17900000Y-56800000D03*
D23*
X107675000Y-66000000D03*
X109325000Y-66000000D03*
D35*
X99862500Y-59050000D03*
X99862500Y-60000000D03*
X99862500Y-60950000D03*
X102137500Y-60950000D03*
X102137500Y-59050000D03*
D16*
X35350000Y-31745000D03*
X35350000Y-33015000D03*
X35350000Y-34285000D03*
X35350000Y-35555000D03*
X35350000Y-36825000D03*
X35350000Y-38095000D03*
X35350000Y-39365000D03*
X35350000Y-40635000D03*
X35350000Y-41905000D03*
X35350000Y-43175000D03*
X35350000Y-44445000D03*
X35350000Y-45715000D03*
X35350000Y-46985000D03*
X35350000Y-48255000D03*
X44650000Y-48255000D03*
X44650000Y-46985000D03*
X44650000Y-45715000D03*
X44650000Y-44445000D03*
X44650000Y-43175000D03*
X44650000Y-41905000D03*
X44650000Y-40635000D03*
X44650000Y-39365000D03*
X44650000Y-38095000D03*
X44650000Y-36825000D03*
X44650000Y-35555000D03*
X44650000Y-34285000D03*
X44650000Y-33015000D03*
X44650000Y-31745000D03*
D11*
X29100000Y-56800000D03*
D12*
X29100000Y-57600000D03*
X29100000Y-58400000D03*
D11*
X29100000Y-59200000D03*
X30900000Y-59200000D03*
D12*
X30900000Y-58400000D03*
X30900000Y-57600000D03*
D11*
X30900000Y-56800000D03*
D10*
X49550000Y-68350000D03*
X49550000Y-71650000D03*
X54450000Y-71650000D03*
X54450000Y-68350000D03*
M02*
