G04 #@! TF.GenerationSoftware,KiCad,Pcbnew,9.0.4*
G04 #@! TF.CreationDate,2026-09-29T14:32:55+03:00*
G04 #@! TF.ProjectId,cable_tester,6361626c-655f-4746-9573-7465722e6b69,rev?*
G04 #@! TF.SameCoordinates,Original*
G04 #@! TF.FileFunction,Legend,Top*
G04 #@! TF.FilePolarity,Positive*
%FSLAX46Y46*%
G04 Gerber Fmt 4.6, Leading zero omitted, Abs format (unit mm)*
G04 Created by KiCad (PCBNEW 9.0.4) date 2026-09-29 14:32:55*
%MOMM*%
%LPD*%
G01*
G04 APERTURE LIST*
G04 Aperture macros list*
%AMRoundRect*
0 Rectangle with rounded corners*
0 $1 Rounding radius*
0 $2 $3 $4 $5 $6 $7 $8 $9 X,Y pos of 4 corners*
0 Add a 4 corners polygon primitive as box body*
4,1,4,$2,$3,$4,$5,$6,$7,$8,$9,$2,$3,0*
0 Add four circle primitives for the rounded corners*
1,1,$1+$1,$2,$3*
1,1,$1+$1,$4,$5*
1,1,$1+$1,$6,$7*
1,1,$1+$1,$8,$9*
0 Add four rect primitives between the rounded corners*
20,1,$1+$1,$2,$3,$4,$5,0*
20,1,$1+$1,$4,$5,$6,$7,0*
20,1,$1+$1,$6,$7,$8,$9,0*
20,1,$1+$1,$8,$9,$2,$3,0*%
%AMFreePoly0*
4,1,37,0.800000,0.796148,0.878414,0.796148,1.032228,0.765552,1.177117,0.705537,1.307515,0.618408,1.418408,0.507515,1.505537,0.377117,1.565552,0.232228,1.596148,0.078414,1.596148,-0.078414,1.565552,-0.232228,1.505537,-0.377117,1.418408,-0.507515,1.307515,-0.618408,1.177117,-0.705537,1.032228,-0.765552,0.878414,-0.796148,0.800000,-0.796148,0.800000,-0.800000,-1.400000,-0.800000,
-1.403843,-0.796157,-1.439018,-0.796157,-1.511114,-0.766294,-1.566294,-0.711114,-1.596157,-0.639018,-1.596157,-0.603843,-1.600000,-0.600000,-1.600000,0.600000,-1.596157,0.603843,-1.596157,0.639018,-1.566294,0.711114,-1.511114,0.766294,-1.439018,0.796157,-1.403843,0.796157,-1.400000,0.800000,0.800000,0.800000,0.800000,0.796148,0.800000,0.796148,$1*%
%AMFreePoly1*
4,1,37,1.403843,0.796157,1.439018,0.796157,1.511114,0.766294,1.566294,0.711114,1.596157,0.639018,1.596157,0.603843,1.600000,0.600000,1.600000,-0.600000,1.596157,-0.603843,1.596157,-0.639018,1.566294,-0.711114,1.511114,-0.766294,1.439018,-0.796157,1.403843,-0.796157,1.400000,-0.800000,-0.800000,-0.800000,-0.800000,-0.796148,-0.878414,-0.796148,-1.032228,-0.765552,-1.177117,-0.705537,
-1.307515,-0.618408,-1.418408,-0.507515,-1.505537,-0.377117,-1.565552,-0.232228,-1.596148,-0.078414,-1.596148,0.078414,-1.565552,0.232228,-1.505537,0.377117,-1.418408,0.507515,-1.307515,0.618408,-1.177117,0.705537,-1.032228,0.765552,-0.878414,0.796148,-0.800000,0.796148,-0.800000,0.800000,1.400000,0.800000,1.403843,0.796157,1.403843,0.796157,$1*%
%AMFreePoly2*
4,1,37,1.600000,0.796148,1.678414,0.796148,1.832228,0.765552,1.977117,0.705537,2.107515,0.618408,2.218408,0.507515,2.305537,0.377117,2.365552,0.232228,2.396148,0.078414,2.396148,-0.078414,2.365552,-0.232228,2.305537,-0.377117,2.218408,-0.507515,2.107515,-0.618408,1.977117,-0.705537,1.832228,-0.765552,1.678414,-0.796148,1.600000,-0.796148,1.600000,-0.800000,-0.600000,-0.800000,
-0.603843,-0.796157,-0.639018,-0.796157,-0.711114,-0.766294,-0.766294,-0.711114,-0.796157,-0.639018,-0.796157,-0.603843,-0.800000,-0.600000,-0.800000,0.600000,-0.796157,0.603843,-0.796157,0.639018,-0.766294,0.711114,-0.711114,0.766294,-0.639018,0.796157,-0.603843,0.796157,-0.600000,0.800000,1.600000,0.800000,1.600000,0.796148,1.600000,0.796148,$1*%
G04 Aperture macros list end*
%ADD10C,0.200000*%
%ADD11C,0.280000*%
%ADD12C,0.135000*%
%ADD13C,0.120000*%
%ADD14C,0.150000*%
%ADD15RoundRect,0.090000X-0.660000X-0.360000X0.660000X-0.360000X0.660000X0.360000X-0.660000X0.360000X0*%
%ADD16R,0.800000X0.500000*%
%ADD17R,0.800000X0.400000*%
%ADD18RoundRect,0.225000X-0.225000X-0.250000X0.225000X-0.250000X0.225000X0.250000X-0.225000X0.250000X0*%
%ADD19RoundRect,0.225000X-0.225000X-0.375000X0.225000X-0.375000X0.225000X0.375000X-0.225000X0.375000X0*%
%ADD20RoundRect,0.150000X-0.587500X-0.150000X0.587500X-0.150000X0.587500X0.150000X-0.587500X0.150000X0*%
%ADD21RoundRect,0.150000X-0.875000X-0.150000X0.875000X-0.150000X0.875000X0.150000X-0.875000X0.150000X0*%
%ADD22C,3.200000*%
%ADD23C,2.000000*%
%ADD24RoundRect,0.225000X-0.250000X0.225000X-0.250000X-0.225000X0.250000X-0.225000X0.250000X0.225000X0*%
%ADD25RoundRect,0.150000X-0.150000X-0.700000X0.150000X-0.700000X0.150000X0.700000X-0.150000X0.700000X0*%
%ADD26RoundRect,0.250000X-0.250000X-1.100000X0.250000X-1.100000X0.250000X1.100000X-0.250000X1.100000X0*%
%ADD27RoundRect,0.200000X0.275000X-0.200000X0.275000X0.200000X-0.275000X0.200000X-0.275000X-0.200000X0*%
%ADD28RoundRect,0.200000X-0.200000X-0.275000X0.200000X-0.275000X0.200000X0.275000X-0.200000X0.275000X0*%
%ADD29RoundRect,0.250000X-0.250000X-0.475000X0.250000X-0.475000X0.250000X0.475000X-0.250000X0.475000X0*%
%ADD30R,1.700000X1.700000*%
%ADD31C,1.700000*%
%ADD32C,2.200000*%
%ADD33C,1.850000*%
%ADD34FreePoly0,0.000000*%
%ADD35RoundRect,0.800000X-0.800000X-0.000010X0.800000X-0.000010X0.800000X0.000010X-0.800000X0.000010X0*%
%ADD36FreePoly1,0.000000*%
%ADD37RoundRect,0.800000X0.000010X-0.800000X0.000010X0.800000X-0.000010X0.800000X-0.000010X-0.800000X0*%
%ADD38FreePoly2,270.000000*%
%ADD39R,2.000000X2.000000*%
%ADD40RoundRect,0.150000X-0.512500X-0.150000X0.512500X-0.150000X0.512500X0.150000X-0.512500X0.150000X0*%
G04 APERTURE END LIST*
D10*
X83833333Y-74752219D02*
X83500000Y-74276028D01*
X83261905Y-74752219D02*
X83261905Y-73752219D01*
X83261905Y-73752219D02*
X83642857Y-73752219D01*
X83642857Y-73752219D02*
X83738095Y-73799838D01*
X83738095Y-73799838D02*
X83785714Y-73847457D01*
X83785714Y-73847457D02*
X83833333Y-73942695D01*
X83833333Y-73942695D02*
X83833333Y-74085552D01*
X83833333Y-74085552D02*
X83785714Y-74180790D01*
X83785714Y-74180790D02*
X83738095Y-74228409D01*
X83738095Y-74228409D02*
X83642857Y-74276028D01*
X83642857Y-74276028D02*
X83261905Y-74276028D01*
X84166667Y-73752219D02*
X84833333Y-74752219D01*
X84833333Y-73752219D02*
X84166667Y-74752219D01*
X58238095Y-73799838D02*
X58142857Y-73752219D01*
X58142857Y-73752219D02*
X58000000Y-73752219D01*
X58000000Y-73752219D02*
X57857143Y-73799838D01*
X57857143Y-73799838D02*
X57761905Y-73895076D01*
X57761905Y-73895076D02*
X57714286Y-73990314D01*
X57714286Y-73990314D02*
X57666667Y-74180790D01*
X57666667Y-74180790D02*
X57666667Y-74323647D01*
X57666667Y-74323647D02*
X57714286Y-74514123D01*
X57714286Y-74514123D02*
X57761905Y-74609361D01*
X57761905Y-74609361D02*
X57857143Y-74704600D01*
X57857143Y-74704600D02*
X58000000Y-74752219D01*
X58000000Y-74752219D02*
X58095238Y-74752219D01*
X58095238Y-74752219D02*
X58238095Y-74704600D01*
X58238095Y-74704600D02*
X58285714Y-74656980D01*
X58285714Y-74656980D02*
X58285714Y-74323647D01*
X58285714Y-74323647D02*
X58095238Y-74323647D01*
X58714286Y-74752219D02*
X58714286Y-73752219D01*
X58714286Y-73752219D02*
X59285714Y-74752219D01*
X59285714Y-74752219D02*
X59285714Y-73752219D01*
X59761905Y-74752219D02*
X59761905Y-73752219D01*
X59761905Y-73752219D02*
X60000000Y-73752219D01*
X60000000Y-73752219D02*
X60142857Y-73799838D01*
X60142857Y-73799838D02*
X60238095Y-73895076D01*
X60238095Y-73895076D02*
X60285714Y-73990314D01*
X60285714Y-73990314D02*
X60333333Y-74180790D01*
X60333333Y-74180790D02*
X60333333Y-74323647D01*
X60333333Y-74323647D02*
X60285714Y-74514123D01*
X60285714Y-74514123D02*
X60238095Y-74609361D01*
X60238095Y-74609361D02*
X60142857Y-74704600D01*
X60142857Y-74704600D02*
X60000000Y-74752219D01*
X60000000Y-74752219D02*
X59761905Y-74752219D01*
X109523809Y-88704600D02*
X109666666Y-88752219D01*
X109666666Y-88752219D02*
X109904761Y-88752219D01*
X109904761Y-88752219D02*
X109999999Y-88704600D01*
X109999999Y-88704600D02*
X110047618Y-88656980D01*
X110047618Y-88656980D02*
X110095237Y-88561742D01*
X110095237Y-88561742D02*
X110095237Y-88466504D01*
X110095237Y-88466504D02*
X110047618Y-88371266D01*
X110047618Y-88371266D02*
X109999999Y-88323647D01*
X109999999Y-88323647D02*
X109904761Y-88276028D01*
X109904761Y-88276028D02*
X109714285Y-88228409D01*
X109714285Y-88228409D02*
X109619047Y-88180790D01*
X109619047Y-88180790D02*
X109571428Y-88133171D01*
X109571428Y-88133171D02*
X109523809Y-88037933D01*
X109523809Y-88037933D02*
X109523809Y-87942695D01*
X109523809Y-87942695D02*
X109571428Y-87847457D01*
X109571428Y-87847457D02*
X109619047Y-87799838D01*
X109619047Y-87799838D02*
X109714285Y-87752219D01*
X109714285Y-87752219D02*
X109952380Y-87752219D01*
X109952380Y-87752219D02*
X110095237Y-87799838D01*
X110380952Y-87752219D02*
X110952380Y-87752219D01*
X110666666Y-88752219D02*
X110666666Y-87752219D01*
X111238095Y-88466504D02*
X111714285Y-88466504D01*
X111142857Y-88752219D02*
X111476190Y-87752219D01*
X111476190Y-87752219D02*
X111809523Y-88752219D01*
X112000000Y-87752219D02*
X112571428Y-87752219D01*
X112285714Y-88752219D02*
X112285714Y-87752219D01*
X112904762Y-87752219D02*
X112904762Y-88561742D01*
X112904762Y-88561742D02*
X112952381Y-88656980D01*
X112952381Y-88656980D02*
X113000000Y-88704600D01*
X113000000Y-88704600D02*
X113095238Y-88752219D01*
X113095238Y-88752219D02*
X113285714Y-88752219D01*
X113285714Y-88752219D02*
X113380952Y-88704600D01*
X113380952Y-88704600D02*
X113428571Y-88656980D01*
X113428571Y-88656980D02*
X113476190Y-88561742D01*
X113476190Y-88561742D02*
X113476190Y-87752219D01*
X113904762Y-88704600D02*
X114047619Y-88752219D01*
X114047619Y-88752219D02*
X114285714Y-88752219D01*
X114285714Y-88752219D02*
X114380952Y-88704600D01*
X114380952Y-88704600D02*
X114428571Y-88656980D01*
X114428571Y-88656980D02*
X114476190Y-88561742D01*
X114476190Y-88561742D02*
X114476190Y-88466504D01*
X114476190Y-88466504D02*
X114428571Y-88371266D01*
X114428571Y-88371266D02*
X114380952Y-88323647D01*
X114380952Y-88323647D02*
X114285714Y-88276028D01*
X114285714Y-88276028D02*
X114095238Y-88228409D01*
X114095238Y-88228409D02*
X114000000Y-88180790D01*
X114000000Y-88180790D02*
X113952381Y-88133171D01*
X113952381Y-88133171D02*
X113904762Y-88037933D01*
X113904762Y-88037933D02*
X113904762Y-87942695D01*
X113904762Y-87942695D02*
X113952381Y-87847457D01*
X113952381Y-87847457D02*
X114000000Y-87799838D01*
X114000000Y-87799838D02*
X114095238Y-87752219D01*
X114095238Y-87752219D02*
X114333333Y-87752219D01*
X114333333Y-87752219D02*
X114476190Y-87799838D01*
D11*
X80300000Y-77533106D02*
X81100000Y-77533106D01*
X80700000Y-78933106D02*
X80700000Y-77533106D01*
X81566667Y-78199773D02*
X82033334Y-78199773D01*
X82233334Y-78933106D02*
X81566667Y-78933106D01*
X81566667Y-78933106D02*
X81566667Y-77533106D01*
X81566667Y-77533106D02*
X82233334Y-77533106D01*
X83500001Y-78933106D02*
X82833334Y-78933106D01*
X82833334Y-78933106D02*
X82833334Y-77533106D01*
X83966667Y-78199773D02*
X84433334Y-78199773D01*
X84633334Y-78933106D02*
X83966667Y-78933106D01*
X83966667Y-78933106D02*
X83966667Y-77533106D01*
X83966667Y-77533106D02*
X84633334Y-77533106D01*
X85233334Y-78933106D02*
X85233334Y-77533106D01*
X85233334Y-77533106D02*
X85700001Y-78533106D01*
X85700001Y-78533106D02*
X86166667Y-77533106D01*
X86166667Y-77533106D02*
X86166667Y-78933106D01*
X86700001Y-77533106D02*
X87566667Y-77533106D01*
X87566667Y-77533106D02*
X87100001Y-78066440D01*
X87100001Y-78066440D02*
X87300001Y-78066440D01*
X87300001Y-78066440D02*
X87433334Y-78133106D01*
X87433334Y-78133106D02*
X87500001Y-78199773D01*
X87500001Y-78199773D02*
X87566667Y-78333106D01*
X87566667Y-78333106D02*
X87566667Y-78666440D01*
X87566667Y-78666440D02*
X87500001Y-78799773D01*
X87500001Y-78799773D02*
X87433334Y-78866440D01*
X87433334Y-78866440D02*
X87300001Y-78933106D01*
X87300001Y-78933106D02*
X86900001Y-78933106D01*
X86900001Y-78933106D02*
X86766667Y-78866440D01*
X86766667Y-78866440D02*
X86700001Y-78799773D01*
D10*
X115738095Y-2452219D02*
X115738095Y-3261742D01*
X115738095Y-3261742D02*
X115785714Y-3356980D01*
X115785714Y-3356980D02*
X115833333Y-3404600D01*
X115833333Y-3404600D02*
X115928571Y-3452219D01*
X115928571Y-3452219D02*
X116119047Y-3452219D01*
X116119047Y-3452219D02*
X116214285Y-3404600D01*
X116214285Y-3404600D02*
X116261904Y-3356980D01*
X116261904Y-3356980D02*
X116309523Y-3261742D01*
X116309523Y-3261742D02*
X116309523Y-2452219D01*
X116738095Y-3404600D02*
X116880952Y-3452219D01*
X116880952Y-3452219D02*
X117119047Y-3452219D01*
X117119047Y-3452219D02*
X117214285Y-3404600D01*
X117214285Y-3404600D02*
X117261904Y-3356980D01*
X117261904Y-3356980D02*
X117309523Y-3261742D01*
X117309523Y-3261742D02*
X117309523Y-3166504D01*
X117309523Y-3166504D02*
X117261904Y-3071266D01*
X117261904Y-3071266D02*
X117214285Y-3023647D01*
X117214285Y-3023647D02*
X117119047Y-2976028D01*
X117119047Y-2976028D02*
X116928571Y-2928409D01*
X116928571Y-2928409D02*
X116833333Y-2880790D01*
X116833333Y-2880790D02*
X116785714Y-2833171D01*
X116785714Y-2833171D02*
X116738095Y-2737933D01*
X116738095Y-2737933D02*
X116738095Y-2642695D01*
X116738095Y-2642695D02*
X116785714Y-2547457D01*
X116785714Y-2547457D02*
X116833333Y-2499838D01*
X116833333Y-2499838D02*
X116928571Y-2452219D01*
X116928571Y-2452219D02*
X117166666Y-2452219D01*
X117166666Y-2452219D02*
X117309523Y-2499838D01*
X118071428Y-2928409D02*
X118214285Y-2976028D01*
X118214285Y-2976028D02*
X118261904Y-3023647D01*
X118261904Y-3023647D02*
X118309523Y-3118885D01*
X118309523Y-3118885D02*
X118309523Y-3261742D01*
X118309523Y-3261742D02*
X118261904Y-3356980D01*
X118261904Y-3356980D02*
X118214285Y-3404600D01*
X118214285Y-3404600D02*
X118119047Y-3452219D01*
X118119047Y-3452219D02*
X117738095Y-3452219D01*
X117738095Y-3452219D02*
X117738095Y-2452219D01*
X117738095Y-2452219D02*
X118071428Y-2452219D01*
X118071428Y-2452219D02*
X118166666Y-2499838D01*
X118166666Y-2499838D02*
X118214285Y-2547457D01*
X118214285Y-2547457D02*
X118261904Y-2642695D01*
X118261904Y-2642695D02*
X118261904Y-2737933D01*
X118261904Y-2737933D02*
X118214285Y-2833171D01*
X118214285Y-2833171D02*
X118166666Y-2880790D01*
X118166666Y-2880790D02*
X118071428Y-2928409D01*
X118071428Y-2928409D02*
X117738095Y-2928409D01*
X90238095Y-73799838D02*
X90142857Y-73752219D01*
X90142857Y-73752219D02*
X90000000Y-73752219D01*
X90000000Y-73752219D02*
X89857143Y-73799838D01*
X89857143Y-73799838D02*
X89761905Y-73895076D01*
X89761905Y-73895076D02*
X89714286Y-73990314D01*
X89714286Y-73990314D02*
X89666667Y-74180790D01*
X89666667Y-74180790D02*
X89666667Y-74323647D01*
X89666667Y-74323647D02*
X89714286Y-74514123D01*
X89714286Y-74514123D02*
X89761905Y-74609361D01*
X89761905Y-74609361D02*
X89857143Y-74704600D01*
X89857143Y-74704600D02*
X90000000Y-74752219D01*
X90000000Y-74752219D02*
X90095238Y-74752219D01*
X90095238Y-74752219D02*
X90238095Y-74704600D01*
X90238095Y-74704600D02*
X90285714Y-74656980D01*
X90285714Y-74656980D02*
X90285714Y-74323647D01*
X90285714Y-74323647D02*
X90095238Y-74323647D01*
X90714286Y-74752219D02*
X90714286Y-73752219D01*
X90714286Y-73752219D02*
X91285714Y-74752219D01*
X91285714Y-74752219D02*
X91285714Y-73752219D01*
X91761905Y-74752219D02*
X91761905Y-73752219D01*
X91761905Y-73752219D02*
X92000000Y-73752219D01*
X92000000Y-73752219D02*
X92142857Y-73799838D01*
X92142857Y-73799838D02*
X92238095Y-73895076D01*
X92238095Y-73895076D02*
X92285714Y-73990314D01*
X92285714Y-73990314D02*
X92333333Y-74180790D01*
X92333333Y-74180790D02*
X92333333Y-74323647D01*
X92333333Y-74323647D02*
X92285714Y-74514123D01*
X92285714Y-74514123D02*
X92238095Y-74609361D01*
X92238095Y-74609361D02*
X92142857Y-74704600D01*
X92142857Y-74704600D02*
X92000000Y-74752219D01*
X92000000Y-74752219D02*
X91761905Y-74752219D01*
X12238095Y-73752219D02*
X12809523Y-73752219D01*
X12523809Y-74752219D02*
X12523809Y-73752219D01*
X13047619Y-73752219D02*
X13714285Y-74752219D01*
X13714285Y-73752219D02*
X13047619Y-74752219D01*
D12*
X14585713Y-1909337D02*
X14285713Y-1480765D01*
X14071427Y-1909337D02*
X14071427Y-1009337D01*
X14071427Y-1009337D02*
X14414284Y-1009337D01*
X14414284Y-1009337D02*
X14499999Y-1052194D01*
X14499999Y-1052194D02*
X14542856Y-1095051D01*
X14542856Y-1095051D02*
X14585713Y-1180765D01*
X14585713Y-1180765D02*
X14585713Y-1309337D01*
X14585713Y-1309337D02*
X14542856Y-1395051D01*
X14542856Y-1395051D02*
X14499999Y-1437908D01*
X14499999Y-1437908D02*
X14414284Y-1480765D01*
X14414284Y-1480765D02*
X14071427Y-1480765D01*
X14971427Y-1909337D02*
X14971427Y-1009337D01*
X14971427Y-1009337D02*
X15314284Y-1009337D01*
X15314284Y-1009337D02*
X15399999Y-1052194D01*
X15399999Y-1052194D02*
X15442856Y-1095051D01*
X15442856Y-1095051D02*
X15485713Y-1180765D01*
X15485713Y-1180765D02*
X15485713Y-1309337D01*
X15485713Y-1309337D02*
X15442856Y-1395051D01*
X15442856Y-1395051D02*
X15399999Y-1437908D01*
X15399999Y-1437908D02*
X15314284Y-1480765D01*
X15314284Y-1480765D02*
X14971427Y-1480765D01*
X15871427Y-1909337D02*
X15871427Y-1309337D01*
X15871427Y-1009337D02*
X15828570Y-1052194D01*
X15828570Y-1052194D02*
X15871427Y-1095051D01*
X15871427Y-1095051D02*
X15914284Y-1052194D01*
X15914284Y-1052194D02*
X15871427Y-1009337D01*
X15871427Y-1009337D02*
X15871427Y-1095051D01*
X17371427Y-1309337D02*
X17371427Y-1909337D01*
X17157141Y-966480D02*
X16942855Y-1609337D01*
X16942855Y-1609337D02*
X17499998Y-1609337D01*
X18014284Y-1009337D02*
X18099998Y-1009337D01*
X18099998Y-1009337D02*
X18185712Y-1052194D01*
X18185712Y-1052194D02*
X18228570Y-1095051D01*
X18228570Y-1095051D02*
X18271427Y-1180765D01*
X18271427Y-1180765D02*
X18314284Y-1352194D01*
X18314284Y-1352194D02*
X18314284Y-1566480D01*
X18314284Y-1566480D02*
X18271427Y-1737908D01*
X18271427Y-1737908D02*
X18228570Y-1823622D01*
X18228570Y-1823622D02*
X18185712Y-1866480D01*
X18185712Y-1866480D02*
X18099998Y-1909337D01*
X18099998Y-1909337D02*
X18014284Y-1909337D01*
X18014284Y-1909337D02*
X17928570Y-1866480D01*
X17928570Y-1866480D02*
X17885712Y-1823622D01*
X17885712Y-1823622D02*
X17842855Y-1737908D01*
X17842855Y-1737908D02*
X17799998Y-1566480D01*
X17799998Y-1566480D02*
X17799998Y-1352194D01*
X17799998Y-1352194D02*
X17842855Y-1180765D01*
X17842855Y-1180765D02*
X17885712Y-1095051D01*
X17885712Y-1095051D02*
X17928570Y-1052194D01*
X17928570Y-1052194D02*
X18014284Y-1009337D01*
X18699998Y-1566480D02*
X19385713Y-1566480D01*
X19814284Y-1909337D02*
X19814284Y-1009337D01*
X19814284Y-1009337D02*
X20157141Y-1009337D01*
X20157141Y-1009337D02*
X20242856Y-1052194D01*
X20242856Y-1052194D02*
X20285713Y-1095051D01*
X20285713Y-1095051D02*
X20328570Y-1180765D01*
X20328570Y-1180765D02*
X20328570Y-1309337D01*
X20328570Y-1309337D02*
X20285713Y-1395051D01*
X20285713Y-1395051D02*
X20242856Y-1437908D01*
X20242856Y-1437908D02*
X20157141Y-1480765D01*
X20157141Y-1480765D02*
X19814284Y-1480765D01*
X20714284Y-1909337D02*
X20714284Y-1009337D01*
X21142855Y-1909337D02*
X21142855Y-1009337D01*
X21142855Y-1009337D02*
X21657141Y-1909337D01*
X21657141Y-1909337D02*
X21657141Y-1009337D01*
X23714283Y-2252194D02*
X23671426Y-2209337D01*
X23671426Y-2209337D02*
X23585712Y-2080765D01*
X23585712Y-2080765D02*
X23542855Y-1995051D01*
X23542855Y-1995051D02*
X23499997Y-1866480D01*
X23499997Y-1866480D02*
X23457140Y-1652194D01*
X23457140Y-1652194D02*
X23457140Y-1480765D01*
X23457140Y-1480765D02*
X23499997Y-1266480D01*
X23499997Y-1266480D02*
X23542855Y-1137908D01*
X23542855Y-1137908D02*
X23585712Y-1052194D01*
X23585712Y-1052194D02*
X23671426Y-923622D01*
X23671426Y-923622D02*
X23714283Y-880765D01*
X24057140Y-1309337D02*
X24057140Y-2209337D01*
X24057140Y-1352194D02*
X24142855Y-1309337D01*
X24142855Y-1309337D02*
X24314283Y-1309337D01*
X24314283Y-1309337D02*
X24399997Y-1352194D01*
X24399997Y-1352194D02*
X24442855Y-1395051D01*
X24442855Y-1395051D02*
X24485712Y-1480765D01*
X24485712Y-1480765D02*
X24485712Y-1737908D01*
X24485712Y-1737908D02*
X24442855Y-1823622D01*
X24442855Y-1823622D02*
X24399997Y-1866480D01*
X24399997Y-1866480D02*
X24314283Y-1909337D01*
X24314283Y-1909337D02*
X24142855Y-1909337D01*
X24142855Y-1909337D02*
X24057140Y-1866480D01*
X24999998Y-1909337D02*
X24914283Y-1866480D01*
X24914283Y-1866480D02*
X24871426Y-1780765D01*
X24871426Y-1780765D02*
X24871426Y-1009337D01*
X25728570Y-1309337D02*
X25728570Y-1909337D01*
X25342855Y-1309337D02*
X25342855Y-1780765D01*
X25342855Y-1780765D02*
X25385712Y-1866480D01*
X25385712Y-1866480D02*
X25471427Y-1909337D01*
X25471427Y-1909337D02*
X25599998Y-1909337D01*
X25599998Y-1909337D02*
X25685712Y-1866480D01*
X25685712Y-1866480D02*
X25728570Y-1823622D01*
X26542856Y-1309337D02*
X26542856Y-2037908D01*
X26542856Y-2037908D02*
X26499998Y-2123622D01*
X26499998Y-2123622D02*
X26457141Y-2166480D01*
X26457141Y-2166480D02*
X26371427Y-2209337D01*
X26371427Y-2209337D02*
X26242856Y-2209337D01*
X26242856Y-2209337D02*
X26157141Y-2166480D01*
X26542856Y-1866480D02*
X26457141Y-1909337D01*
X26457141Y-1909337D02*
X26285713Y-1909337D01*
X26285713Y-1909337D02*
X26199998Y-1866480D01*
X26199998Y-1866480D02*
X26157141Y-1823622D01*
X26157141Y-1823622D02*
X26114284Y-1737908D01*
X26114284Y-1737908D02*
X26114284Y-1480765D01*
X26114284Y-1480765D02*
X26157141Y-1395051D01*
X26157141Y-1395051D02*
X26199998Y-1352194D01*
X26199998Y-1352194D02*
X26285713Y-1309337D01*
X26285713Y-1309337D02*
X26457141Y-1309337D01*
X26457141Y-1309337D02*
X26542856Y-1352194D01*
X28042856Y-1866480D02*
X27957141Y-1909337D01*
X27957141Y-1909337D02*
X27785713Y-1909337D01*
X27785713Y-1909337D02*
X27699998Y-1866480D01*
X27699998Y-1866480D02*
X27657141Y-1823622D01*
X27657141Y-1823622D02*
X27614284Y-1737908D01*
X27614284Y-1737908D02*
X27614284Y-1480765D01*
X27614284Y-1480765D02*
X27657141Y-1395051D01*
X27657141Y-1395051D02*
X27699998Y-1352194D01*
X27699998Y-1352194D02*
X27785713Y-1309337D01*
X27785713Y-1309337D02*
X27957141Y-1309337D01*
X27957141Y-1309337D02*
X28042856Y-1352194D01*
X28814285Y-1909337D02*
X28814285Y-1437908D01*
X28814285Y-1437908D02*
X28771427Y-1352194D01*
X28771427Y-1352194D02*
X28685713Y-1309337D01*
X28685713Y-1309337D02*
X28514285Y-1309337D01*
X28514285Y-1309337D02*
X28428570Y-1352194D01*
X28814285Y-1866480D02*
X28728570Y-1909337D01*
X28728570Y-1909337D02*
X28514285Y-1909337D01*
X28514285Y-1909337D02*
X28428570Y-1866480D01*
X28428570Y-1866480D02*
X28385713Y-1780765D01*
X28385713Y-1780765D02*
X28385713Y-1695051D01*
X28385713Y-1695051D02*
X28428570Y-1609337D01*
X28428570Y-1609337D02*
X28514285Y-1566480D01*
X28514285Y-1566480D02*
X28728570Y-1566480D01*
X28728570Y-1566480D02*
X28814285Y-1523622D01*
X29242856Y-1909337D02*
X29242856Y-1009337D01*
X29242856Y-1352194D02*
X29328571Y-1309337D01*
X29328571Y-1309337D02*
X29499999Y-1309337D01*
X29499999Y-1309337D02*
X29585713Y-1352194D01*
X29585713Y-1352194D02*
X29628571Y-1395051D01*
X29628571Y-1395051D02*
X29671428Y-1480765D01*
X29671428Y-1480765D02*
X29671428Y-1737908D01*
X29671428Y-1737908D02*
X29628571Y-1823622D01*
X29628571Y-1823622D02*
X29585713Y-1866480D01*
X29585713Y-1866480D02*
X29499999Y-1909337D01*
X29499999Y-1909337D02*
X29328571Y-1909337D01*
X29328571Y-1909337D02*
X29242856Y-1866480D01*
X30185714Y-1909337D02*
X30099999Y-1866480D01*
X30099999Y-1866480D02*
X30057142Y-1780765D01*
X30057142Y-1780765D02*
X30057142Y-1009337D01*
X30871428Y-1866480D02*
X30785714Y-1909337D01*
X30785714Y-1909337D02*
X30614286Y-1909337D01*
X30614286Y-1909337D02*
X30528571Y-1866480D01*
X30528571Y-1866480D02*
X30485714Y-1780765D01*
X30485714Y-1780765D02*
X30485714Y-1437908D01*
X30485714Y-1437908D02*
X30528571Y-1352194D01*
X30528571Y-1352194D02*
X30614286Y-1309337D01*
X30614286Y-1309337D02*
X30785714Y-1309337D01*
X30785714Y-1309337D02*
X30871428Y-1352194D01*
X30871428Y-1352194D02*
X30914286Y-1437908D01*
X30914286Y-1437908D02*
X30914286Y-1523622D01*
X30914286Y-1523622D02*
X30485714Y-1609337D01*
X32328571Y-1866480D02*
X32242857Y-1909337D01*
X32242857Y-1909337D02*
X32071429Y-1909337D01*
X32071429Y-1909337D02*
X31985714Y-1866480D01*
X31985714Y-1866480D02*
X31942857Y-1780765D01*
X31942857Y-1780765D02*
X31942857Y-1437908D01*
X31942857Y-1437908D02*
X31985714Y-1352194D01*
X31985714Y-1352194D02*
X32071429Y-1309337D01*
X32071429Y-1309337D02*
X32242857Y-1309337D01*
X32242857Y-1309337D02*
X32328571Y-1352194D01*
X32328571Y-1352194D02*
X32371429Y-1437908D01*
X32371429Y-1437908D02*
X32371429Y-1523622D01*
X32371429Y-1523622D02*
X31942857Y-1609337D01*
X32671429Y-1909337D02*
X33142858Y-1309337D01*
X32671429Y-1309337D02*
X33142858Y-1909337D01*
X33871429Y-1909337D02*
X33871429Y-1437908D01*
X33871429Y-1437908D02*
X33828571Y-1352194D01*
X33828571Y-1352194D02*
X33742857Y-1309337D01*
X33742857Y-1309337D02*
X33571429Y-1309337D01*
X33571429Y-1309337D02*
X33485714Y-1352194D01*
X33871429Y-1866480D02*
X33785714Y-1909337D01*
X33785714Y-1909337D02*
X33571429Y-1909337D01*
X33571429Y-1909337D02*
X33485714Y-1866480D01*
X33485714Y-1866480D02*
X33442857Y-1780765D01*
X33442857Y-1780765D02*
X33442857Y-1695051D01*
X33442857Y-1695051D02*
X33485714Y-1609337D01*
X33485714Y-1609337D02*
X33571429Y-1566480D01*
X33571429Y-1566480D02*
X33785714Y-1566480D01*
X33785714Y-1566480D02*
X33871429Y-1523622D01*
X34685715Y-1866480D02*
X34600000Y-1909337D01*
X34600000Y-1909337D02*
X34428572Y-1909337D01*
X34428572Y-1909337D02*
X34342857Y-1866480D01*
X34342857Y-1866480D02*
X34300000Y-1823622D01*
X34300000Y-1823622D02*
X34257143Y-1737908D01*
X34257143Y-1737908D02*
X34257143Y-1480765D01*
X34257143Y-1480765D02*
X34300000Y-1395051D01*
X34300000Y-1395051D02*
X34342857Y-1352194D01*
X34342857Y-1352194D02*
X34428572Y-1309337D01*
X34428572Y-1309337D02*
X34600000Y-1309337D01*
X34600000Y-1309337D02*
X34685715Y-1352194D01*
X34942858Y-1309337D02*
X35285715Y-1309337D01*
X35071429Y-1009337D02*
X35071429Y-1780765D01*
X35071429Y-1780765D02*
X35114286Y-1866480D01*
X35114286Y-1866480D02*
X35200001Y-1909337D01*
X35200001Y-1909337D02*
X35285715Y-1909337D01*
X35714287Y-1909337D02*
X35628572Y-1866480D01*
X35628572Y-1866480D02*
X35585715Y-1780765D01*
X35585715Y-1780765D02*
X35585715Y-1009337D01*
X35971430Y-1309337D02*
X36185716Y-1909337D01*
X36400001Y-1309337D02*
X36185716Y-1909337D01*
X36185716Y-1909337D02*
X36100001Y-2123622D01*
X36100001Y-2123622D02*
X36057144Y-2166480D01*
X36057144Y-2166480D02*
X35971430Y-2209337D01*
X37814287Y-1909337D02*
X37814287Y-1437908D01*
X37814287Y-1437908D02*
X37771429Y-1352194D01*
X37771429Y-1352194D02*
X37685715Y-1309337D01*
X37685715Y-1309337D02*
X37514287Y-1309337D01*
X37514287Y-1309337D02*
X37428572Y-1352194D01*
X37814287Y-1866480D02*
X37728572Y-1909337D01*
X37728572Y-1909337D02*
X37514287Y-1909337D01*
X37514287Y-1909337D02*
X37428572Y-1866480D01*
X37428572Y-1866480D02*
X37385715Y-1780765D01*
X37385715Y-1780765D02*
X37385715Y-1695051D01*
X37385715Y-1695051D02*
X37428572Y-1609337D01*
X37428572Y-1609337D02*
X37514287Y-1566480D01*
X37514287Y-1566480D02*
X37728572Y-1566480D01*
X37728572Y-1566480D02*
X37814287Y-1523622D01*
X38200001Y-1866480D02*
X38285715Y-1909337D01*
X38285715Y-1909337D02*
X38457144Y-1909337D01*
X38457144Y-1909337D02*
X38542858Y-1866480D01*
X38542858Y-1866480D02*
X38585715Y-1780765D01*
X38585715Y-1780765D02*
X38585715Y-1737908D01*
X38585715Y-1737908D02*
X38542858Y-1652194D01*
X38542858Y-1652194D02*
X38457144Y-1609337D01*
X38457144Y-1609337D02*
X38328573Y-1609337D01*
X38328573Y-1609337D02*
X38242858Y-1566480D01*
X38242858Y-1566480D02*
X38200001Y-1480765D01*
X38200001Y-1480765D02*
X38200001Y-1437908D01*
X38200001Y-1437908D02*
X38242858Y-1352194D01*
X38242858Y-1352194D02*
X38328573Y-1309337D01*
X38328573Y-1309337D02*
X38457144Y-1309337D01*
X38457144Y-1309337D02*
X38542858Y-1352194D01*
X39785715Y-1909337D02*
X39700000Y-1866480D01*
X39700000Y-1866480D02*
X39657143Y-1823622D01*
X39657143Y-1823622D02*
X39614286Y-1737908D01*
X39614286Y-1737908D02*
X39614286Y-1480765D01*
X39614286Y-1480765D02*
X39657143Y-1395051D01*
X39657143Y-1395051D02*
X39700000Y-1352194D01*
X39700000Y-1352194D02*
X39785715Y-1309337D01*
X39785715Y-1309337D02*
X39914286Y-1309337D01*
X39914286Y-1309337D02*
X40000000Y-1352194D01*
X40000000Y-1352194D02*
X40042858Y-1395051D01*
X40042858Y-1395051D02*
X40085715Y-1480765D01*
X40085715Y-1480765D02*
X40085715Y-1737908D01*
X40085715Y-1737908D02*
X40042858Y-1823622D01*
X40042858Y-1823622D02*
X40000000Y-1866480D01*
X40000000Y-1866480D02*
X39914286Y-1909337D01*
X39914286Y-1909337D02*
X39785715Y-1909337D01*
X40471429Y-1309337D02*
X40471429Y-1909337D01*
X40471429Y-1395051D02*
X40514286Y-1352194D01*
X40514286Y-1352194D02*
X40600001Y-1309337D01*
X40600001Y-1309337D02*
X40728572Y-1309337D01*
X40728572Y-1309337D02*
X40814286Y-1352194D01*
X40814286Y-1352194D02*
X40857144Y-1437908D01*
X40857144Y-1437908D02*
X40857144Y-1909337D01*
X41842858Y-1309337D02*
X42185715Y-1309337D01*
X41971429Y-1009337D02*
X41971429Y-1780765D01*
X41971429Y-1780765D02*
X42014286Y-1866480D01*
X42014286Y-1866480D02*
X42100001Y-1909337D01*
X42100001Y-1909337D02*
X42185715Y-1909337D01*
X42485715Y-1909337D02*
X42485715Y-1009337D01*
X42871430Y-1909337D02*
X42871430Y-1437908D01*
X42871430Y-1437908D02*
X42828572Y-1352194D01*
X42828572Y-1352194D02*
X42742858Y-1309337D01*
X42742858Y-1309337D02*
X42614287Y-1309337D01*
X42614287Y-1309337D02*
X42528572Y-1352194D01*
X42528572Y-1352194D02*
X42485715Y-1395051D01*
X43642858Y-1866480D02*
X43557144Y-1909337D01*
X43557144Y-1909337D02*
X43385716Y-1909337D01*
X43385716Y-1909337D02*
X43300001Y-1866480D01*
X43300001Y-1866480D02*
X43257144Y-1780765D01*
X43257144Y-1780765D02*
X43257144Y-1437908D01*
X43257144Y-1437908D02*
X43300001Y-1352194D01*
X43300001Y-1352194D02*
X43385716Y-1309337D01*
X43385716Y-1309337D02*
X43557144Y-1309337D01*
X43557144Y-1309337D02*
X43642858Y-1352194D01*
X43642858Y-1352194D02*
X43685716Y-1437908D01*
X43685716Y-1437908D02*
X43685716Y-1523622D01*
X43685716Y-1523622D02*
X43257144Y-1609337D01*
X44757144Y-1909337D02*
X44757144Y-1009337D01*
X44757144Y-1009337D02*
X45100001Y-1009337D01*
X45100001Y-1009337D02*
X45185716Y-1052194D01*
X45185716Y-1052194D02*
X45228573Y-1095051D01*
X45228573Y-1095051D02*
X45271430Y-1180765D01*
X45271430Y-1180765D02*
X45271430Y-1309337D01*
X45271430Y-1309337D02*
X45228573Y-1395051D01*
X45228573Y-1395051D02*
X45185716Y-1437908D01*
X45185716Y-1437908D02*
X45100001Y-1480765D01*
X45100001Y-1480765D02*
X44757144Y-1480765D01*
X45657144Y-1909337D02*
X45657144Y-1309337D01*
X45657144Y-1009337D02*
X45614287Y-1052194D01*
X45614287Y-1052194D02*
X45657144Y-1095051D01*
X45657144Y-1095051D02*
X45700001Y-1052194D01*
X45700001Y-1052194D02*
X45657144Y-1009337D01*
X45657144Y-1009337D02*
X45657144Y-1095051D01*
X46128572Y-1866480D02*
X46128572Y-1909337D01*
X46128572Y-1909337D02*
X46085715Y-1995051D01*
X46085715Y-1995051D02*
X46042858Y-2037908D01*
X47200000Y-1309337D02*
X47200000Y-2209337D01*
X47200000Y-1352194D02*
X47285715Y-1309337D01*
X47285715Y-1309337D02*
X47457143Y-1309337D01*
X47457143Y-1309337D02*
X47542857Y-1352194D01*
X47542857Y-1352194D02*
X47585715Y-1395051D01*
X47585715Y-1395051D02*
X47628572Y-1480765D01*
X47628572Y-1480765D02*
X47628572Y-1737908D01*
X47628572Y-1737908D02*
X47585715Y-1823622D01*
X47585715Y-1823622D02*
X47542857Y-1866480D01*
X47542857Y-1866480D02*
X47457143Y-1909337D01*
X47457143Y-1909337D02*
X47285715Y-1909337D01*
X47285715Y-1909337D02*
X47200000Y-1866480D01*
X48014286Y-1909337D02*
X48014286Y-1309337D01*
X48014286Y-1009337D02*
X47971429Y-1052194D01*
X47971429Y-1052194D02*
X48014286Y-1095051D01*
X48014286Y-1095051D02*
X48057143Y-1052194D01*
X48057143Y-1052194D02*
X48014286Y-1009337D01*
X48014286Y-1009337D02*
X48014286Y-1095051D01*
X48442857Y-1309337D02*
X48442857Y-1909337D01*
X48442857Y-1395051D02*
X48485714Y-1352194D01*
X48485714Y-1352194D02*
X48571429Y-1309337D01*
X48571429Y-1309337D02*
X48700000Y-1309337D01*
X48700000Y-1309337D02*
X48785714Y-1352194D01*
X48785714Y-1352194D02*
X48828572Y-1437908D01*
X48828572Y-1437908D02*
X48828572Y-1909337D01*
X50414286Y-1909337D02*
X49900000Y-1909337D01*
X50157143Y-1909337D02*
X50157143Y-1009337D01*
X50157143Y-1009337D02*
X50071429Y-1137908D01*
X50071429Y-1137908D02*
X49985714Y-1223622D01*
X49985714Y-1223622D02*
X49900000Y-1266480D01*
X51614286Y-1909337D02*
X51528571Y-1866480D01*
X51528571Y-1866480D02*
X51485714Y-1780765D01*
X51485714Y-1780765D02*
X51485714Y-1009337D01*
X52300000Y-1866480D02*
X52214286Y-1909337D01*
X52214286Y-1909337D02*
X52042858Y-1909337D01*
X52042858Y-1909337D02*
X51957143Y-1866480D01*
X51957143Y-1866480D02*
X51914286Y-1780765D01*
X51914286Y-1780765D02*
X51914286Y-1437908D01*
X51914286Y-1437908D02*
X51957143Y-1352194D01*
X51957143Y-1352194D02*
X52042858Y-1309337D01*
X52042858Y-1309337D02*
X52214286Y-1309337D01*
X52214286Y-1309337D02*
X52300000Y-1352194D01*
X52300000Y-1352194D02*
X52342858Y-1437908D01*
X52342858Y-1437908D02*
X52342858Y-1523622D01*
X52342858Y-1523622D02*
X51914286Y-1609337D01*
X52600001Y-1309337D02*
X52942858Y-1309337D01*
X52728572Y-1909337D02*
X52728572Y-1137908D01*
X52728572Y-1137908D02*
X52771429Y-1052194D01*
X52771429Y-1052194D02*
X52857144Y-1009337D01*
X52857144Y-1009337D02*
X52942858Y-1009337D01*
X53114287Y-1309337D02*
X53457144Y-1309337D01*
X53242858Y-1009337D02*
X53242858Y-1780765D01*
X53242858Y-1780765D02*
X53285715Y-1866480D01*
X53285715Y-1866480D02*
X53371430Y-1909337D01*
X53371430Y-1909337D02*
X53457144Y-1909337D01*
X53671430Y-2252194D02*
X53714287Y-2209337D01*
X53714287Y-2209337D02*
X53800001Y-2080765D01*
X53800001Y-2080765D02*
X53842859Y-1995051D01*
X53842859Y-1995051D02*
X53885716Y-1866480D01*
X53885716Y-1866480D02*
X53928573Y-1652194D01*
X53928573Y-1652194D02*
X53928573Y-1480765D01*
X53928573Y-1480765D02*
X53885716Y-1266480D01*
X53885716Y-1266480D02*
X53842859Y-1137908D01*
X53842859Y-1137908D02*
X53800001Y-1052194D01*
X53800001Y-1052194D02*
X53714287Y-923622D01*
X53714287Y-923622D02*
X53671430Y-880765D01*
D10*
X8685714Y-11252219D02*
X8114286Y-11252219D01*
X8400000Y-11252219D02*
X8400000Y-10252219D01*
X8400000Y-10252219D02*
X8304762Y-10395076D01*
X8304762Y-10395076D02*
X8209524Y-10490314D01*
X8209524Y-10490314D02*
X8114286Y-10537933D01*
X19833333Y-74752219D02*
X19500000Y-74276028D01*
X19261905Y-74752219D02*
X19261905Y-73752219D01*
X19261905Y-73752219D02*
X19642857Y-73752219D01*
X19642857Y-73752219D02*
X19738095Y-73799838D01*
X19738095Y-73799838D02*
X19785714Y-73847457D01*
X19785714Y-73847457D02*
X19833333Y-73942695D01*
X19833333Y-73942695D02*
X19833333Y-74085552D01*
X19833333Y-74085552D02*
X19785714Y-74180790D01*
X19785714Y-74180790D02*
X19738095Y-74228409D01*
X19738095Y-74228409D02*
X19642857Y-74276028D01*
X19642857Y-74276028D02*
X19261905Y-74276028D01*
X20166667Y-73752219D02*
X20833333Y-74752219D01*
X20833333Y-73752219D02*
X20166667Y-74752219D01*
D13*
X101838095Y-52863855D02*
X101990476Y-52863855D01*
X101990476Y-52863855D02*
X102066666Y-52901950D01*
X102066666Y-52901950D02*
X102142857Y-52978140D01*
X102142857Y-52978140D02*
X102180952Y-53130521D01*
X102180952Y-53130521D02*
X102180952Y-53397188D01*
X102180952Y-53397188D02*
X102142857Y-53549569D01*
X102142857Y-53549569D02*
X102066666Y-53625760D01*
X102066666Y-53625760D02*
X101990476Y-53663855D01*
X101990476Y-53663855D02*
X101838095Y-53663855D01*
X101838095Y-53663855D02*
X101761904Y-53625760D01*
X101761904Y-53625760D02*
X101685714Y-53549569D01*
X101685714Y-53549569D02*
X101647618Y-53397188D01*
X101647618Y-53397188D02*
X101647618Y-53130521D01*
X101647618Y-53130521D02*
X101685714Y-52978140D01*
X101685714Y-52978140D02*
X101761904Y-52901950D01*
X101761904Y-52901950D02*
X101838095Y-52863855D01*
X102904761Y-53663855D02*
X102523809Y-53663855D01*
X102523809Y-53663855D02*
X102523809Y-52863855D01*
X103171428Y-53244807D02*
X103438094Y-53244807D01*
X103552380Y-53663855D02*
X103171428Y-53663855D01*
X103171428Y-53663855D02*
X103171428Y-52863855D01*
X103171428Y-52863855D02*
X103552380Y-52863855D01*
X103895238Y-53663855D02*
X103895238Y-52863855D01*
X103895238Y-52863855D02*
X104085714Y-52863855D01*
X104085714Y-52863855D02*
X104200000Y-52901950D01*
X104200000Y-52901950D02*
X104276190Y-52978140D01*
X104276190Y-52978140D02*
X104314285Y-53054331D01*
X104314285Y-53054331D02*
X104352381Y-53206712D01*
X104352381Y-53206712D02*
X104352381Y-53320998D01*
X104352381Y-53320998D02*
X104314285Y-53473379D01*
X104314285Y-53473379D02*
X104276190Y-53549569D01*
X104276190Y-53549569D02*
X104200000Y-53625760D01*
X104200000Y-53625760D02*
X104085714Y-53663855D01*
X104085714Y-53663855D02*
X103895238Y-53663855D01*
D11*
X48300000Y-77533106D02*
X49100000Y-77533106D01*
X48700000Y-78933106D02*
X48700000Y-77533106D01*
X49566667Y-78199773D02*
X50033334Y-78199773D01*
X50233334Y-78933106D02*
X49566667Y-78933106D01*
X49566667Y-78933106D02*
X49566667Y-77533106D01*
X49566667Y-77533106D02*
X50233334Y-77533106D01*
X51500001Y-78933106D02*
X50833334Y-78933106D01*
X50833334Y-78933106D02*
X50833334Y-77533106D01*
X51966667Y-78199773D02*
X52433334Y-78199773D01*
X52633334Y-78933106D02*
X51966667Y-78933106D01*
X51966667Y-78933106D02*
X51966667Y-77533106D01*
X51966667Y-77533106D02*
X52633334Y-77533106D01*
X53233334Y-78933106D02*
X53233334Y-77533106D01*
X53233334Y-77533106D02*
X53700001Y-78533106D01*
X53700001Y-78533106D02*
X54166667Y-77533106D01*
X54166667Y-77533106D02*
X54166667Y-78933106D01*
X54766667Y-77666440D02*
X54833334Y-77599773D01*
X54833334Y-77599773D02*
X54966667Y-77533106D01*
X54966667Y-77533106D02*
X55300001Y-77533106D01*
X55300001Y-77533106D02*
X55433334Y-77599773D01*
X55433334Y-77599773D02*
X55500001Y-77666440D01*
X55500001Y-77666440D02*
X55566667Y-77799773D01*
X55566667Y-77799773D02*
X55566667Y-77933106D01*
X55566667Y-77933106D02*
X55500001Y-78133106D01*
X55500001Y-78133106D02*
X54700001Y-78933106D01*
X54700001Y-78933106D02*
X55566667Y-78933106D01*
D13*
X43657141Y-81030521D02*
X43657141Y-81678140D01*
X43657141Y-81678140D02*
X43619046Y-81754331D01*
X43619046Y-81754331D02*
X43580950Y-81792426D01*
X43580950Y-81792426D02*
X43504760Y-81830521D01*
X43504760Y-81830521D02*
X43390474Y-81830521D01*
X43390474Y-81830521D02*
X43314284Y-81792426D01*
X43657141Y-81525760D02*
X43580950Y-81563855D01*
X43580950Y-81563855D02*
X43428569Y-81563855D01*
X43428569Y-81563855D02*
X43352379Y-81525760D01*
X43352379Y-81525760D02*
X43314284Y-81487664D01*
X43314284Y-81487664D02*
X43276188Y-81411474D01*
X43276188Y-81411474D02*
X43276188Y-81182902D01*
X43276188Y-81182902D02*
X43314284Y-81106712D01*
X43314284Y-81106712D02*
X43352379Y-81068617D01*
X43352379Y-81068617D02*
X43428569Y-81030521D01*
X43428569Y-81030521D02*
X43580950Y-81030521D01*
X43580950Y-81030521D02*
X43657141Y-81068617D01*
X44038094Y-81563855D02*
X44038094Y-81030521D01*
X44038094Y-81182902D02*
X44076189Y-81106712D01*
X44076189Y-81106712D02*
X44114284Y-81068617D01*
X44114284Y-81068617D02*
X44190475Y-81030521D01*
X44190475Y-81030521D02*
X44266665Y-81030521D01*
X44838094Y-81525760D02*
X44761903Y-81563855D01*
X44761903Y-81563855D02*
X44609522Y-81563855D01*
X44609522Y-81563855D02*
X44533332Y-81525760D01*
X44533332Y-81525760D02*
X44495236Y-81449569D01*
X44495236Y-81449569D02*
X44495236Y-81144807D01*
X44495236Y-81144807D02*
X44533332Y-81068617D01*
X44533332Y-81068617D02*
X44609522Y-81030521D01*
X44609522Y-81030521D02*
X44761903Y-81030521D01*
X44761903Y-81030521D02*
X44838094Y-81068617D01*
X44838094Y-81068617D02*
X44876189Y-81144807D01*
X44876189Y-81144807D02*
X44876189Y-81220998D01*
X44876189Y-81220998D02*
X44495236Y-81297188D01*
X45523808Y-81525760D02*
X45447617Y-81563855D01*
X45447617Y-81563855D02*
X45295236Y-81563855D01*
X45295236Y-81563855D02*
X45219046Y-81525760D01*
X45219046Y-81525760D02*
X45180950Y-81449569D01*
X45180950Y-81449569D02*
X45180950Y-81144807D01*
X45180950Y-81144807D02*
X45219046Y-81068617D01*
X45219046Y-81068617D02*
X45295236Y-81030521D01*
X45295236Y-81030521D02*
X45447617Y-81030521D01*
X45447617Y-81030521D02*
X45523808Y-81068617D01*
X45523808Y-81068617D02*
X45561903Y-81144807D01*
X45561903Y-81144807D02*
X45561903Y-81220998D01*
X45561903Y-81220998D02*
X45180950Y-81297188D01*
X45904760Y-81030521D02*
X45904760Y-81563855D01*
X45904760Y-81106712D02*
X45942855Y-81068617D01*
X45942855Y-81068617D02*
X46019045Y-81030521D01*
X46019045Y-81030521D02*
X46133331Y-81030521D01*
X46133331Y-81030521D02*
X46209522Y-81068617D01*
X46209522Y-81068617D02*
X46247617Y-81144807D01*
X46247617Y-81144807D02*
X46247617Y-81563855D01*
X46628570Y-81144807D02*
X47238094Y-81144807D01*
X47238094Y-81373379D02*
X46628570Y-81373379D01*
X47771427Y-80763855D02*
X47923808Y-80763855D01*
X47923808Y-80763855D02*
X47999998Y-80801950D01*
X47999998Y-80801950D02*
X48076189Y-80878140D01*
X48076189Y-80878140D02*
X48114284Y-81030521D01*
X48114284Y-81030521D02*
X48114284Y-81297188D01*
X48114284Y-81297188D02*
X48076189Y-81449569D01*
X48076189Y-81449569D02*
X47999998Y-81525760D01*
X47999998Y-81525760D02*
X47923808Y-81563855D01*
X47923808Y-81563855D02*
X47771427Y-81563855D01*
X47771427Y-81563855D02*
X47695236Y-81525760D01*
X47695236Y-81525760D02*
X47619046Y-81449569D01*
X47619046Y-81449569D02*
X47580950Y-81297188D01*
X47580950Y-81297188D02*
X47580950Y-81030521D01*
X47580950Y-81030521D02*
X47619046Y-80878140D01*
X47619046Y-80878140D02*
X47695236Y-80801950D01*
X47695236Y-80801950D02*
X47771427Y-80763855D01*
X48457141Y-81563855D02*
X48457141Y-80763855D01*
X48914284Y-81563855D02*
X48571426Y-81106712D01*
X48914284Y-80763855D02*
X48457141Y-81220998D01*
X49866665Y-81563855D02*
X49866665Y-81030521D01*
X49866665Y-81182902D02*
X49904760Y-81106712D01*
X49904760Y-81106712D02*
X49942855Y-81068617D01*
X49942855Y-81068617D02*
X50019046Y-81030521D01*
X50019046Y-81030521D02*
X50095236Y-81030521D01*
X50666665Y-81525760D02*
X50590474Y-81563855D01*
X50590474Y-81563855D02*
X50438093Y-81563855D01*
X50438093Y-81563855D02*
X50361903Y-81525760D01*
X50361903Y-81525760D02*
X50323807Y-81449569D01*
X50323807Y-81449569D02*
X50323807Y-81144807D01*
X50323807Y-81144807D02*
X50361903Y-81068617D01*
X50361903Y-81068617D02*
X50438093Y-81030521D01*
X50438093Y-81030521D02*
X50590474Y-81030521D01*
X50590474Y-81030521D02*
X50666665Y-81068617D01*
X50666665Y-81068617D02*
X50704760Y-81144807D01*
X50704760Y-81144807D02*
X50704760Y-81220998D01*
X50704760Y-81220998D02*
X50323807Y-81297188D01*
X51390474Y-81563855D02*
X51390474Y-80763855D01*
X51390474Y-81525760D02*
X51314283Y-81563855D01*
X51314283Y-81563855D02*
X51161902Y-81563855D01*
X51161902Y-81563855D02*
X51085712Y-81525760D01*
X51085712Y-81525760D02*
X51047617Y-81487664D01*
X51047617Y-81487664D02*
X51009521Y-81411474D01*
X51009521Y-81411474D02*
X51009521Y-81182902D01*
X51009521Y-81182902D02*
X51047617Y-81106712D01*
X51047617Y-81106712D02*
X51085712Y-81068617D01*
X51085712Y-81068617D02*
X51161902Y-81030521D01*
X51161902Y-81030521D02*
X51314283Y-81030521D01*
X51314283Y-81030521D02*
X51390474Y-81068617D01*
X51771427Y-81144807D02*
X52380951Y-81144807D01*
X52380951Y-81373379D02*
X51771427Y-81373379D01*
X52914284Y-80763855D02*
X53066665Y-80763855D01*
X53066665Y-80763855D02*
X53142855Y-80801950D01*
X53142855Y-80801950D02*
X53219046Y-80878140D01*
X53219046Y-80878140D02*
X53257141Y-81030521D01*
X53257141Y-81030521D02*
X53257141Y-81297188D01*
X53257141Y-81297188D02*
X53219046Y-81449569D01*
X53219046Y-81449569D02*
X53142855Y-81525760D01*
X53142855Y-81525760D02*
X53066665Y-81563855D01*
X53066665Y-81563855D02*
X52914284Y-81563855D01*
X52914284Y-81563855D02*
X52838093Y-81525760D01*
X52838093Y-81525760D02*
X52761903Y-81449569D01*
X52761903Y-81449569D02*
X52723807Y-81297188D01*
X52723807Y-81297188D02*
X52723807Y-81030521D01*
X52723807Y-81030521D02*
X52761903Y-80878140D01*
X52761903Y-80878140D02*
X52838093Y-80801950D01*
X52838093Y-80801950D02*
X52914284Y-80763855D01*
X53599998Y-81563855D02*
X53599998Y-80763855D01*
X53599998Y-80763855D02*
X53904760Y-80763855D01*
X53904760Y-80763855D02*
X53980950Y-80801950D01*
X53980950Y-80801950D02*
X54019045Y-80840045D01*
X54019045Y-80840045D02*
X54057141Y-80916236D01*
X54057141Y-80916236D02*
X54057141Y-81030521D01*
X54057141Y-81030521D02*
X54019045Y-81106712D01*
X54019045Y-81106712D02*
X53980950Y-81144807D01*
X53980950Y-81144807D02*
X53904760Y-81182902D01*
X53904760Y-81182902D02*
X53599998Y-81182902D01*
X54399998Y-81144807D02*
X54666664Y-81144807D01*
X54780950Y-81563855D02*
X54399998Y-81563855D01*
X54399998Y-81563855D02*
X54399998Y-80763855D01*
X54399998Y-80763855D02*
X54780950Y-80763855D01*
X55123808Y-81563855D02*
X55123808Y-80763855D01*
X55123808Y-80763855D02*
X55580951Y-81563855D01*
X55580951Y-81563855D02*
X55580951Y-80763855D01*
X56685712Y-81563855D02*
X56609522Y-81525760D01*
X56609522Y-81525760D02*
X56571427Y-81487664D01*
X56571427Y-81487664D02*
X56533331Y-81411474D01*
X56533331Y-81411474D02*
X56533331Y-81182902D01*
X56533331Y-81182902D02*
X56571427Y-81106712D01*
X56571427Y-81106712D02*
X56609522Y-81068617D01*
X56609522Y-81068617D02*
X56685712Y-81030521D01*
X56685712Y-81030521D02*
X56799998Y-81030521D01*
X56799998Y-81030521D02*
X56876189Y-81068617D01*
X56876189Y-81068617D02*
X56914284Y-81106712D01*
X56914284Y-81106712D02*
X56952379Y-81182902D01*
X56952379Y-81182902D02*
X56952379Y-81411474D01*
X56952379Y-81411474D02*
X56914284Y-81487664D01*
X56914284Y-81487664D02*
X56876189Y-81525760D01*
X56876189Y-81525760D02*
X56799998Y-81563855D01*
X56799998Y-81563855D02*
X56685712Y-81563855D01*
X57295237Y-81563855D02*
X57295237Y-81030521D01*
X57295237Y-81182902D02*
X57333332Y-81106712D01*
X57333332Y-81106712D02*
X57371427Y-81068617D01*
X57371427Y-81068617D02*
X57447618Y-81030521D01*
X57447618Y-81030521D02*
X57523808Y-81030521D01*
X58133332Y-81563855D02*
X58133332Y-81144807D01*
X58133332Y-81144807D02*
X58095237Y-81068617D01*
X58095237Y-81068617D02*
X58019046Y-81030521D01*
X58019046Y-81030521D02*
X57866665Y-81030521D01*
X57866665Y-81030521D02*
X57790475Y-81068617D01*
X58133332Y-81525760D02*
X58057141Y-81563855D01*
X58057141Y-81563855D02*
X57866665Y-81563855D01*
X57866665Y-81563855D02*
X57790475Y-81525760D01*
X57790475Y-81525760D02*
X57752379Y-81449569D01*
X57752379Y-81449569D02*
X57752379Y-81373379D01*
X57752379Y-81373379D02*
X57790475Y-81297188D01*
X57790475Y-81297188D02*
X57866665Y-81259093D01*
X57866665Y-81259093D02*
X58057141Y-81259093D01*
X58057141Y-81259093D02*
X58133332Y-81220998D01*
X58514285Y-81030521D02*
X58514285Y-81563855D01*
X58514285Y-81106712D02*
X58552380Y-81068617D01*
X58552380Y-81068617D02*
X58628570Y-81030521D01*
X58628570Y-81030521D02*
X58742856Y-81030521D01*
X58742856Y-81030521D02*
X58819047Y-81068617D01*
X58819047Y-81068617D02*
X58857142Y-81144807D01*
X58857142Y-81144807D02*
X58857142Y-81563855D01*
X59580952Y-81030521D02*
X59580952Y-81678140D01*
X59580952Y-81678140D02*
X59542857Y-81754331D01*
X59542857Y-81754331D02*
X59504761Y-81792426D01*
X59504761Y-81792426D02*
X59428571Y-81830521D01*
X59428571Y-81830521D02*
X59314285Y-81830521D01*
X59314285Y-81830521D02*
X59238095Y-81792426D01*
X59580952Y-81525760D02*
X59504761Y-81563855D01*
X59504761Y-81563855D02*
X59352380Y-81563855D01*
X59352380Y-81563855D02*
X59276190Y-81525760D01*
X59276190Y-81525760D02*
X59238095Y-81487664D01*
X59238095Y-81487664D02*
X59199999Y-81411474D01*
X59199999Y-81411474D02*
X59199999Y-81182902D01*
X59199999Y-81182902D02*
X59238095Y-81106712D01*
X59238095Y-81106712D02*
X59276190Y-81068617D01*
X59276190Y-81068617D02*
X59352380Y-81030521D01*
X59352380Y-81030521D02*
X59504761Y-81030521D01*
X59504761Y-81030521D02*
X59580952Y-81068617D01*
X60266667Y-81525760D02*
X60190476Y-81563855D01*
X60190476Y-81563855D02*
X60038095Y-81563855D01*
X60038095Y-81563855D02*
X59961905Y-81525760D01*
X59961905Y-81525760D02*
X59923809Y-81449569D01*
X59923809Y-81449569D02*
X59923809Y-81144807D01*
X59923809Y-81144807D02*
X59961905Y-81068617D01*
X59961905Y-81068617D02*
X60038095Y-81030521D01*
X60038095Y-81030521D02*
X60190476Y-81030521D01*
X60190476Y-81030521D02*
X60266667Y-81068617D01*
X60266667Y-81068617D02*
X60304762Y-81144807D01*
X60304762Y-81144807D02*
X60304762Y-81220998D01*
X60304762Y-81220998D02*
X59923809Y-81297188D01*
X60647619Y-81144807D02*
X61257143Y-81144807D01*
X61257143Y-81373379D02*
X60647619Y-81373379D01*
X61638095Y-81563855D02*
X61638095Y-80763855D01*
X61638095Y-80763855D02*
X61904761Y-81335283D01*
X61904761Y-81335283D02*
X62171428Y-80763855D01*
X62171428Y-80763855D02*
X62171428Y-81563855D01*
X62552381Y-81563855D02*
X62552381Y-80763855D01*
X62895237Y-81525760D02*
X63009523Y-81563855D01*
X63009523Y-81563855D02*
X63199999Y-81563855D01*
X63199999Y-81563855D02*
X63276190Y-81525760D01*
X63276190Y-81525760D02*
X63314285Y-81487664D01*
X63314285Y-81487664D02*
X63352380Y-81411474D01*
X63352380Y-81411474D02*
X63352380Y-81335283D01*
X63352380Y-81335283D02*
X63314285Y-81259093D01*
X63314285Y-81259093D02*
X63276190Y-81220998D01*
X63276190Y-81220998D02*
X63199999Y-81182902D01*
X63199999Y-81182902D02*
X63047618Y-81144807D01*
X63047618Y-81144807D02*
X62971428Y-81106712D01*
X62971428Y-81106712D02*
X62933333Y-81068617D01*
X62933333Y-81068617D02*
X62895237Y-80992426D01*
X62895237Y-80992426D02*
X62895237Y-80916236D01*
X62895237Y-80916236D02*
X62933333Y-80840045D01*
X62933333Y-80840045D02*
X62971428Y-80801950D01*
X62971428Y-80801950D02*
X63047618Y-80763855D01*
X63047618Y-80763855D02*
X63238095Y-80763855D01*
X63238095Y-80763855D02*
X63352380Y-80801950D01*
X63619047Y-80763855D02*
X63809523Y-81563855D01*
X63809523Y-81563855D02*
X63961904Y-80992426D01*
X63961904Y-80992426D02*
X64114285Y-81563855D01*
X64114285Y-81563855D02*
X64304762Y-80763855D01*
X64609524Y-81563855D02*
X64609524Y-80763855D01*
X65447619Y-81563855D02*
X65180952Y-81182902D01*
X64990476Y-81563855D02*
X64990476Y-80763855D01*
X64990476Y-80763855D02*
X65295238Y-80763855D01*
X65295238Y-80763855D02*
X65371428Y-80801950D01*
X65371428Y-80801950D02*
X65409523Y-80840045D01*
X65409523Y-80840045D02*
X65447619Y-80916236D01*
X65447619Y-80916236D02*
X65447619Y-81030521D01*
X65447619Y-81030521D02*
X65409523Y-81106712D01*
X65409523Y-81106712D02*
X65371428Y-81144807D01*
X65371428Y-81144807D02*
X65295238Y-81182902D01*
X65295238Y-81182902D02*
X64990476Y-81182902D01*
X65790476Y-81144807D02*
X66057142Y-81144807D01*
X66171428Y-81563855D02*
X65790476Y-81563855D01*
X65790476Y-81563855D02*
X65790476Y-80763855D01*
X65790476Y-80763855D02*
X66171428Y-80763855D01*
X67123810Y-81563855D02*
X67123810Y-81030521D01*
X67123810Y-81106712D02*
X67161905Y-81068617D01*
X67161905Y-81068617D02*
X67238095Y-81030521D01*
X67238095Y-81030521D02*
X67352381Y-81030521D01*
X67352381Y-81030521D02*
X67428572Y-81068617D01*
X67428572Y-81068617D02*
X67466667Y-81144807D01*
X67466667Y-81144807D02*
X67466667Y-81563855D01*
X67466667Y-81144807D02*
X67504762Y-81068617D01*
X67504762Y-81068617D02*
X67580953Y-81030521D01*
X67580953Y-81030521D02*
X67695238Y-81030521D01*
X67695238Y-81030521D02*
X67771429Y-81068617D01*
X67771429Y-81068617D02*
X67809524Y-81144807D01*
X67809524Y-81144807D02*
X67809524Y-81563855D01*
X68533334Y-81563855D02*
X68533334Y-81144807D01*
X68533334Y-81144807D02*
X68495239Y-81068617D01*
X68495239Y-81068617D02*
X68419048Y-81030521D01*
X68419048Y-81030521D02*
X68266667Y-81030521D01*
X68266667Y-81030521D02*
X68190477Y-81068617D01*
X68533334Y-81525760D02*
X68457143Y-81563855D01*
X68457143Y-81563855D02*
X68266667Y-81563855D01*
X68266667Y-81563855D02*
X68190477Y-81525760D01*
X68190477Y-81525760D02*
X68152381Y-81449569D01*
X68152381Y-81449569D02*
X68152381Y-81373379D01*
X68152381Y-81373379D02*
X68190477Y-81297188D01*
X68190477Y-81297188D02*
X68266667Y-81259093D01*
X68266667Y-81259093D02*
X68457143Y-81259093D01*
X68457143Y-81259093D02*
X68533334Y-81220998D01*
X69257144Y-81030521D02*
X69257144Y-81678140D01*
X69257144Y-81678140D02*
X69219049Y-81754331D01*
X69219049Y-81754331D02*
X69180953Y-81792426D01*
X69180953Y-81792426D02*
X69104763Y-81830521D01*
X69104763Y-81830521D02*
X68990477Y-81830521D01*
X68990477Y-81830521D02*
X68914287Y-81792426D01*
X69257144Y-81525760D02*
X69180953Y-81563855D01*
X69180953Y-81563855D02*
X69028572Y-81563855D01*
X69028572Y-81563855D02*
X68952382Y-81525760D01*
X68952382Y-81525760D02*
X68914287Y-81487664D01*
X68914287Y-81487664D02*
X68876191Y-81411474D01*
X68876191Y-81411474D02*
X68876191Y-81182902D01*
X68876191Y-81182902D02*
X68914287Y-81106712D01*
X68914287Y-81106712D02*
X68952382Y-81068617D01*
X68952382Y-81068617D02*
X69028572Y-81030521D01*
X69028572Y-81030521D02*
X69180953Y-81030521D01*
X69180953Y-81030521D02*
X69257144Y-81068617D01*
X69942859Y-81525760D02*
X69866668Y-81563855D01*
X69866668Y-81563855D02*
X69714287Y-81563855D01*
X69714287Y-81563855D02*
X69638097Y-81525760D01*
X69638097Y-81525760D02*
X69600001Y-81449569D01*
X69600001Y-81449569D02*
X69600001Y-81144807D01*
X69600001Y-81144807D02*
X69638097Y-81068617D01*
X69638097Y-81068617D02*
X69714287Y-81030521D01*
X69714287Y-81030521D02*
X69866668Y-81030521D01*
X69866668Y-81030521D02*
X69942859Y-81068617D01*
X69942859Y-81068617D02*
X69980954Y-81144807D01*
X69980954Y-81144807D02*
X69980954Y-81220998D01*
X69980954Y-81220998D02*
X69600001Y-81297188D01*
X70323811Y-81030521D02*
X70323811Y-81563855D01*
X70323811Y-81106712D02*
X70361906Y-81068617D01*
X70361906Y-81068617D02*
X70438096Y-81030521D01*
X70438096Y-81030521D02*
X70552382Y-81030521D01*
X70552382Y-81030521D02*
X70628573Y-81068617D01*
X70628573Y-81068617D02*
X70666668Y-81144807D01*
X70666668Y-81144807D02*
X70666668Y-81563855D01*
X70933335Y-81030521D02*
X71238097Y-81030521D01*
X71047621Y-80763855D02*
X71047621Y-81449569D01*
X71047621Y-81449569D02*
X71085716Y-81525760D01*
X71085716Y-81525760D02*
X71161906Y-81563855D01*
X71161906Y-81563855D02*
X71238097Y-81563855D01*
X71847621Y-81563855D02*
X71847621Y-81144807D01*
X71847621Y-81144807D02*
X71809526Y-81068617D01*
X71809526Y-81068617D02*
X71733335Y-81030521D01*
X71733335Y-81030521D02*
X71580954Y-81030521D01*
X71580954Y-81030521D02*
X71504764Y-81068617D01*
X71847621Y-81525760D02*
X71771430Y-81563855D01*
X71771430Y-81563855D02*
X71580954Y-81563855D01*
X71580954Y-81563855D02*
X71504764Y-81525760D01*
X71504764Y-81525760D02*
X71466668Y-81449569D01*
X71466668Y-81449569D02*
X71466668Y-81373379D01*
X71466668Y-81373379D02*
X71504764Y-81297188D01*
X71504764Y-81297188D02*
X71580954Y-81259093D01*
X71580954Y-81259093D02*
X71771430Y-81259093D01*
X71771430Y-81259093D02*
X71847621Y-81220998D01*
X72228574Y-81144807D02*
X72838098Y-81144807D01*
X72838098Y-81373379D02*
X72228574Y-81373379D01*
X73180954Y-81525760D02*
X73295240Y-81563855D01*
X73295240Y-81563855D02*
X73485716Y-81563855D01*
X73485716Y-81563855D02*
X73561907Y-81525760D01*
X73561907Y-81525760D02*
X73600002Y-81487664D01*
X73600002Y-81487664D02*
X73638097Y-81411474D01*
X73638097Y-81411474D02*
X73638097Y-81335283D01*
X73638097Y-81335283D02*
X73600002Y-81259093D01*
X73600002Y-81259093D02*
X73561907Y-81220998D01*
X73561907Y-81220998D02*
X73485716Y-81182902D01*
X73485716Y-81182902D02*
X73333335Y-81144807D01*
X73333335Y-81144807D02*
X73257145Y-81106712D01*
X73257145Y-81106712D02*
X73219050Y-81068617D01*
X73219050Y-81068617D02*
X73180954Y-80992426D01*
X73180954Y-80992426D02*
X73180954Y-80916236D01*
X73180954Y-80916236D02*
X73219050Y-80840045D01*
X73219050Y-80840045D02*
X73257145Y-80801950D01*
X73257145Y-80801950D02*
X73333335Y-80763855D01*
X73333335Y-80763855D02*
X73523812Y-80763855D01*
X73523812Y-80763855D02*
X73638097Y-80801950D01*
X73980955Y-81563855D02*
X73980955Y-80763855D01*
X73980955Y-81144807D02*
X74438098Y-81144807D01*
X74438098Y-81563855D02*
X74438098Y-80763855D01*
X74971431Y-80763855D02*
X75123812Y-80763855D01*
X75123812Y-80763855D02*
X75200002Y-80801950D01*
X75200002Y-80801950D02*
X75276193Y-80878140D01*
X75276193Y-80878140D02*
X75314288Y-81030521D01*
X75314288Y-81030521D02*
X75314288Y-81297188D01*
X75314288Y-81297188D02*
X75276193Y-81449569D01*
X75276193Y-81449569D02*
X75200002Y-81525760D01*
X75200002Y-81525760D02*
X75123812Y-81563855D01*
X75123812Y-81563855D02*
X74971431Y-81563855D01*
X74971431Y-81563855D02*
X74895240Y-81525760D01*
X74895240Y-81525760D02*
X74819050Y-81449569D01*
X74819050Y-81449569D02*
X74780954Y-81297188D01*
X74780954Y-81297188D02*
X74780954Y-81030521D01*
X74780954Y-81030521D02*
X74819050Y-80878140D01*
X74819050Y-80878140D02*
X74895240Y-80801950D01*
X74895240Y-80801950D02*
X74971431Y-80763855D01*
X76114288Y-81563855D02*
X75847621Y-81182902D01*
X75657145Y-81563855D02*
X75657145Y-80763855D01*
X75657145Y-80763855D02*
X75961907Y-80763855D01*
X75961907Y-80763855D02*
X76038097Y-80801950D01*
X76038097Y-80801950D02*
X76076192Y-80840045D01*
X76076192Y-80840045D02*
X76114288Y-80916236D01*
X76114288Y-80916236D02*
X76114288Y-81030521D01*
X76114288Y-81030521D02*
X76076192Y-81106712D01*
X76076192Y-81106712D02*
X76038097Y-81144807D01*
X76038097Y-81144807D02*
X75961907Y-81182902D01*
X75961907Y-81182902D02*
X75657145Y-81182902D01*
X76342859Y-80763855D02*
X76800002Y-80763855D01*
X76571430Y-81563855D02*
X76571430Y-80763855D01*
D10*
X51833333Y-74752219D02*
X51500000Y-74276028D01*
X51261905Y-74752219D02*
X51261905Y-73752219D01*
X51261905Y-73752219D02*
X51642857Y-73752219D01*
X51642857Y-73752219D02*
X51738095Y-73799838D01*
X51738095Y-73799838D02*
X51785714Y-73847457D01*
X51785714Y-73847457D02*
X51833333Y-73942695D01*
X51833333Y-73942695D02*
X51833333Y-74085552D01*
X51833333Y-74085552D02*
X51785714Y-74180790D01*
X51785714Y-74180790D02*
X51738095Y-74228409D01*
X51738095Y-74228409D02*
X51642857Y-74276028D01*
X51642857Y-74276028D02*
X51261905Y-74276028D01*
X52166667Y-73752219D02*
X52833333Y-74752219D01*
X52833333Y-73752219D02*
X52166667Y-74752219D01*
X100323809Y-83604600D02*
X100466666Y-83652219D01*
X100466666Y-83652219D02*
X100704761Y-83652219D01*
X100704761Y-83652219D02*
X100799999Y-83604600D01*
X100799999Y-83604600D02*
X100847618Y-83556980D01*
X100847618Y-83556980D02*
X100895237Y-83461742D01*
X100895237Y-83461742D02*
X100895237Y-83366504D01*
X100895237Y-83366504D02*
X100847618Y-83271266D01*
X100847618Y-83271266D02*
X100799999Y-83223647D01*
X100799999Y-83223647D02*
X100704761Y-83176028D01*
X100704761Y-83176028D02*
X100514285Y-83128409D01*
X100514285Y-83128409D02*
X100419047Y-83080790D01*
X100419047Y-83080790D02*
X100371428Y-83033171D01*
X100371428Y-83033171D02*
X100323809Y-82937933D01*
X100323809Y-82937933D02*
X100323809Y-82842695D01*
X100323809Y-82842695D02*
X100371428Y-82747457D01*
X100371428Y-82747457D02*
X100419047Y-82699838D01*
X100419047Y-82699838D02*
X100514285Y-82652219D01*
X100514285Y-82652219D02*
X100752380Y-82652219D01*
X100752380Y-82652219D02*
X100895237Y-82699838D01*
X101180952Y-82652219D02*
X101752380Y-82652219D01*
X101466666Y-83652219D02*
X101466666Y-82652219D01*
X102038095Y-83366504D02*
X102514285Y-83366504D01*
X101942857Y-83652219D02*
X102276190Y-82652219D01*
X102276190Y-82652219D02*
X102609523Y-83652219D01*
X103514285Y-83652219D02*
X103180952Y-83176028D01*
X102942857Y-83652219D02*
X102942857Y-82652219D01*
X102942857Y-82652219D02*
X103323809Y-82652219D01*
X103323809Y-82652219D02*
X103419047Y-82699838D01*
X103419047Y-82699838D02*
X103466666Y-82747457D01*
X103466666Y-82747457D02*
X103514285Y-82842695D01*
X103514285Y-82842695D02*
X103514285Y-82985552D01*
X103514285Y-82985552D02*
X103466666Y-83080790D01*
X103466666Y-83080790D02*
X103419047Y-83128409D01*
X103419047Y-83128409D02*
X103323809Y-83176028D01*
X103323809Y-83176028D02*
X102942857Y-83176028D01*
X103800000Y-82652219D02*
X104371428Y-82652219D01*
X104085714Y-83652219D02*
X104085714Y-82652219D01*
X76238095Y-73752219D02*
X76809523Y-73752219D01*
X76523809Y-74752219D02*
X76523809Y-73752219D01*
X77047619Y-73752219D02*
X77714285Y-74752219D01*
X77714285Y-73752219D02*
X77047619Y-74752219D01*
D13*
X97842856Y-85163855D02*
X97842856Y-84363855D01*
X98185713Y-85163855D02*
X98185713Y-84744807D01*
X98185713Y-84744807D02*
X98147618Y-84668617D01*
X98147618Y-84668617D02*
X98071427Y-84630521D01*
X98071427Y-84630521D02*
X97957141Y-84630521D01*
X97957141Y-84630521D02*
X97880951Y-84668617D01*
X97880951Y-84668617D02*
X97842856Y-84706712D01*
X98680951Y-85163855D02*
X98604761Y-85125760D01*
X98604761Y-85125760D02*
X98566666Y-85087664D01*
X98566666Y-85087664D02*
X98528570Y-85011474D01*
X98528570Y-85011474D02*
X98528570Y-84782902D01*
X98528570Y-84782902D02*
X98566666Y-84706712D01*
X98566666Y-84706712D02*
X98604761Y-84668617D01*
X98604761Y-84668617D02*
X98680951Y-84630521D01*
X98680951Y-84630521D02*
X98795237Y-84630521D01*
X98795237Y-84630521D02*
X98871428Y-84668617D01*
X98871428Y-84668617D02*
X98909523Y-84706712D01*
X98909523Y-84706712D02*
X98947618Y-84782902D01*
X98947618Y-84782902D02*
X98947618Y-85011474D01*
X98947618Y-85011474D02*
X98909523Y-85087664D01*
X98909523Y-85087664D02*
X98871428Y-85125760D01*
X98871428Y-85125760D02*
X98795237Y-85163855D01*
X98795237Y-85163855D02*
X98680951Y-85163855D01*
X99404761Y-85163855D02*
X99328571Y-85125760D01*
X99328571Y-85125760D02*
X99290476Y-85049569D01*
X99290476Y-85049569D02*
X99290476Y-84363855D01*
X100052381Y-85163855D02*
X100052381Y-84363855D01*
X100052381Y-85125760D02*
X99976190Y-85163855D01*
X99976190Y-85163855D02*
X99823809Y-85163855D01*
X99823809Y-85163855D02*
X99747619Y-85125760D01*
X99747619Y-85125760D02*
X99709524Y-85087664D01*
X99709524Y-85087664D02*
X99671428Y-85011474D01*
X99671428Y-85011474D02*
X99671428Y-84782902D01*
X99671428Y-84782902D02*
X99709524Y-84706712D01*
X99709524Y-84706712D02*
X99747619Y-84668617D01*
X99747619Y-84668617D02*
X99823809Y-84630521D01*
X99823809Y-84630521D02*
X99976190Y-84630521D01*
X99976190Y-84630521D02*
X100052381Y-84668617D01*
X100966667Y-84363855D02*
X101461905Y-84363855D01*
X101461905Y-84363855D02*
X101195239Y-84668617D01*
X101195239Y-84668617D02*
X101309524Y-84668617D01*
X101309524Y-84668617D02*
X101385715Y-84706712D01*
X101385715Y-84706712D02*
X101423810Y-84744807D01*
X101423810Y-84744807D02*
X101461905Y-84820998D01*
X101461905Y-84820998D02*
X101461905Y-85011474D01*
X101461905Y-85011474D02*
X101423810Y-85087664D01*
X101423810Y-85087664D02*
X101385715Y-85125760D01*
X101385715Y-85125760D02*
X101309524Y-85163855D01*
X101309524Y-85163855D02*
X101080953Y-85163855D01*
X101080953Y-85163855D02*
X101004762Y-85125760D01*
X101004762Y-85125760D02*
X100966667Y-85087664D01*
X101766667Y-85125760D02*
X101842858Y-85163855D01*
X101842858Y-85163855D02*
X101995239Y-85163855D01*
X101995239Y-85163855D02*
X102071429Y-85125760D01*
X102071429Y-85125760D02*
X102109525Y-85049569D01*
X102109525Y-85049569D02*
X102109525Y-85011474D01*
X102109525Y-85011474D02*
X102071429Y-84935283D01*
X102071429Y-84935283D02*
X101995239Y-84897188D01*
X101995239Y-84897188D02*
X101880953Y-84897188D01*
X101880953Y-84897188D02*
X101804763Y-84859093D01*
X101804763Y-84859093D02*
X101766667Y-84782902D01*
X101766667Y-84782902D02*
X101766667Y-84744807D01*
X101766667Y-84744807D02*
X101804763Y-84668617D01*
X101804763Y-84668617D02*
X101880953Y-84630521D01*
X101880953Y-84630521D02*
X101995239Y-84630521D01*
X101995239Y-84630521D02*
X102071429Y-84668617D01*
X102452382Y-85087664D02*
X102490477Y-85125760D01*
X102490477Y-85125760D02*
X102452382Y-85163855D01*
X102452382Y-85163855D02*
X102414286Y-85125760D01*
X102414286Y-85125760D02*
X102452382Y-85087664D01*
X102452382Y-85087664D02*
X102452382Y-85163855D01*
X102452382Y-84668617D02*
X102490477Y-84706712D01*
X102490477Y-84706712D02*
X102452382Y-84744807D01*
X102452382Y-84744807D02*
X102414286Y-84706712D01*
X102414286Y-84706712D02*
X102452382Y-84668617D01*
X102452382Y-84668617D02*
X102452382Y-84744807D01*
X103823810Y-85163855D02*
X103442858Y-85163855D01*
X103442858Y-85163855D02*
X103442858Y-84363855D01*
X104090477Y-84744807D02*
X104357143Y-84744807D01*
X104471429Y-85163855D02*
X104090477Y-85163855D01*
X104090477Y-85163855D02*
X104090477Y-84363855D01*
X104090477Y-84363855D02*
X104471429Y-84363855D01*
X104776191Y-84935283D02*
X105157144Y-84935283D01*
X104700001Y-85163855D02*
X104966668Y-84363855D01*
X104966668Y-84363855D02*
X105233334Y-85163855D01*
X105957144Y-85163855D02*
X105690477Y-84782902D01*
X105500001Y-85163855D02*
X105500001Y-84363855D01*
X105500001Y-84363855D02*
X105804763Y-84363855D01*
X105804763Y-84363855D02*
X105880953Y-84401950D01*
X105880953Y-84401950D02*
X105919048Y-84440045D01*
X105919048Y-84440045D02*
X105957144Y-84516236D01*
X105957144Y-84516236D02*
X105957144Y-84630521D01*
X105957144Y-84630521D02*
X105919048Y-84706712D01*
X105919048Y-84706712D02*
X105880953Y-84744807D01*
X105880953Y-84744807D02*
X105804763Y-84782902D01*
X105804763Y-84782902D02*
X105500001Y-84782902D01*
X106300001Y-85163855D02*
X106300001Y-84363855D01*
X106300001Y-84363855D02*
X106757144Y-85163855D01*
X106757144Y-85163855D02*
X106757144Y-84363855D01*
D10*
X44238095Y-73752219D02*
X44809523Y-73752219D01*
X44523809Y-74752219D02*
X44523809Y-73752219D01*
X45047619Y-73752219D02*
X45714285Y-74752219D01*
X45714285Y-73752219D02*
X45047619Y-74752219D01*
D11*
X16300000Y-77533106D02*
X17100000Y-77533106D01*
X16700000Y-78933106D02*
X16700000Y-77533106D01*
X17566667Y-78199773D02*
X18033334Y-78199773D01*
X18233334Y-78933106D02*
X17566667Y-78933106D01*
X17566667Y-78933106D02*
X17566667Y-77533106D01*
X17566667Y-77533106D02*
X18233334Y-77533106D01*
X19500001Y-78933106D02*
X18833334Y-78933106D01*
X18833334Y-78933106D02*
X18833334Y-77533106D01*
X19966667Y-78199773D02*
X20433334Y-78199773D01*
X20633334Y-78933106D02*
X19966667Y-78933106D01*
X19966667Y-78933106D02*
X19966667Y-77533106D01*
X19966667Y-77533106D02*
X20633334Y-77533106D01*
X21233334Y-78933106D02*
X21233334Y-77533106D01*
X21233334Y-77533106D02*
X21700001Y-78533106D01*
X21700001Y-78533106D02*
X22166667Y-77533106D01*
X22166667Y-77533106D02*
X22166667Y-78933106D01*
X23566667Y-78933106D02*
X22766667Y-78933106D01*
X23166667Y-78933106D02*
X23166667Y-77533106D01*
X23166667Y-77533106D02*
X23033334Y-77733106D01*
X23033334Y-77733106D02*
X22900001Y-77866440D01*
X22900001Y-77866440D02*
X22766667Y-77933106D01*
D10*
X26238095Y-73799838D02*
X26142857Y-73752219D01*
X26142857Y-73752219D02*
X26000000Y-73752219D01*
X26000000Y-73752219D02*
X25857143Y-73799838D01*
X25857143Y-73799838D02*
X25761905Y-73895076D01*
X25761905Y-73895076D02*
X25714286Y-73990314D01*
X25714286Y-73990314D02*
X25666667Y-74180790D01*
X25666667Y-74180790D02*
X25666667Y-74323647D01*
X25666667Y-74323647D02*
X25714286Y-74514123D01*
X25714286Y-74514123D02*
X25761905Y-74609361D01*
X25761905Y-74609361D02*
X25857143Y-74704600D01*
X25857143Y-74704600D02*
X26000000Y-74752219D01*
X26000000Y-74752219D02*
X26095238Y-74752219D01*
X26095238Y-74752219D02*
X26238095Y-74704600D01*
X26238095Y-74704600D02*
X26285714Y-74656980D01*
X26285714Y-74656980D02*
X26285714Y-74323647D01*
X26285714Y-74323647D02*
X26095238Y-74323647D01*
X26714286Y-74752219D02*
X26714286Y-73752219D01*
X26714286Y-73752219D02*
X27285714Y-74752219D01*
X27285714Y-74752219D02*
X27285714Y-73752219D01*
X27761905Y-74752219D02*
X27761905Y-73752219D01*
X27761905Y-73752219D02*
X28000000Y-73752219D01*
X28000000Y-73752219D02*
X28142857Y-73799838D01*
X28142857Y-73799838D02*
X28238095Y-73895076D01*
X28238095Y-73895076D02*
X28285714Y-73990314D01*
X28285714Y-73990314D02*
X28333333Y-74180790D01*
X28333333Y-74180790D02*
X28333333Y-74323647D01*
X28333333Y-74323647D02*
X28285714Y-74514123D01*
X28285714Y-74514123D02*
X28238095Y-74609361D01*
X28238095Y-74609361D02*
X28142857Y-74704600D01*
X28142857Y-74704600D02*
X28000000Y-74752219D01*
X28000000Y-74752219D02*
X27761905Y-74752219D01*
D11*
X27799998Y-54133106D02*
X27333331Y-53466440D01*
X26999998Y-54133106D02*
X26999998Y-52733106D01*
X26999998Y-52733106D02*
X27533331Y-52733106D01*
X27533331Y-52733106D02*
X27666665Y-52799773D01*
X27666665Y-52799773D02*
X27733331Y-52866440D01*
X27733331Y-52866440D02*
X27799998Y-52999773D01*
X27799998Y-52999773D02*
X27799998Y-53199773D01*
X27799998Y-53199773D02*
X27733331Y-53333106D01*
X27733331Y-53333106D02*
X27666665Y-53399773D01*
X27666665Y-53399773D02*
X27533331Y-53466440D01*
X27533331Y-53466440D02*
X26999998Y-53466440D01*
X28399998Y-54133106D02*
X28399998Y-52733106D01*
X28399998Y-52733106D02*
X28933331Y-52733106D01*
X28933331Y-52733106D02*
X29066665Y-52799773D01*
X29066665Y-52799773D02*
X29133331Y-52866440D01*
X29133331Y-52866440D02*
X29199998Y-52999773D01*
X29199998Y-52999773D02*
X29199998Y-53199773D01*
X29199998Y-53199773D02*
X29133331Y-53333106D01*
X29133331Y-53333106D02*
X29066665Y-53399773D01*
X29066665Y-53399773D02*
X28933331Y-53466440D01*
X28933331Y-53466440D02*
X28399998Y-53466440D01*
X29799998Y-54133106D02*
X29799998Y-53199773D01*
X29799998Y-52733106D02*
X29733331Y-52799773D01*
X29733331Y-52799773D02*
X29799998Y-52866440D01*
X29799998Y-52866440D02*
X29866665Y-52799773D01*
X29866665Y-52799773D02*
X29799998Y-52733106D01*
X29799998Y-52733106D02*
X29799998Y-52866440D01*
X32599999Y-53199773D02*
X31533332Y-53599773D01*
X31533332Y-53599773D02*
X32599999Y-53999773D01*
X33266665Y-53599773D02*
X34333332Y-53599773D01*
X34999998Y-53199773D02*
X36066665Y-53599773D01*
X36066665Y-53599773D02*
X34999998Y-53999773D01*
X38599998Y-53999773D02*
X38533331Y-54066440D01*
X38533331Y-54066440D02*
X38333331Y-54133106D01*
X38333331Y-54133106D02*
X38199998Y-54133106D01*
X38199998Y-54133106D02*
X37999998Y-54066440D01*
X37999998Y-54066440D02*
X37866665Y-53933106D01*
X37866665Y-53933106D02*
X37799998Y-53799773D01*
X37799998Y-53799773D02*
X37733331Y-53533106D01*
X37733331Y-53533106D02*
X37733331Y-53333106D01*
X37733331Y-53333106D02*
X37799998Y-53066440D01*
X37799998Y-53066440D02*
X37866665Y-52933106D01*
X37866665Y-52933106D02*
X37999998Y-52799773D01*
X37999998Y-52799773D02*
X38199998Y-52733106D01*
X38199998Y-52733106D02*
X38333331Y-52733106D01*
X38333331Y-52733106D02*
X38533331Y-52799773D01*
X38533331Y-52799773D02*
X38599998Y-52866440D01*
X39199998Y-52733106D02*
X39199998Y-53866440D01*
X39199998Y-53866440D02*
X39266665Y-53999773D01*
X39266665Y-53999773D02*
X39333331Y-54066440D01*
X39333331Y-54066440D02*
X39466665Y-54133106D01*
X39466665Y-54133106D02*
X39733331Y-54133106D01*
X39733331Y-54133106D02*
X39866665Y-54066440D01*
X39866665Y-54066440D02*
X39933331Y-53999773D01*
X39933331Y-53999773D02*
X39999998Y-53866440D01*
X39999998Y-53866440D02*
X39999998Y-52733106D01*
X40599998Y-53733106D02*
X41266665Y-53733106D01*
X40466665Y-54133106D02*
X40933332Y-52733106D01*
X40933332Y-52733106D02*
X41399998Y-54133106D01*
X41666665Y-52733106D02*
X42133332Y-54133106D01*
X42133332Y-54133106D02*
X42599998Y-52733106D01*
X43999999Y-52733106D02*
X44933332Y-54133106D01*
X44933332Y-52733106D02*
X43999999Y-54133106D01*
X45333332Y-52733106D02*
X46266665Y-52733106D01*
X46266665Y-52733106D02*
X45666665Y-54133106D01*
X47666665Y-52733106D02*
X48466665Y-52733106D01*
X48066665Y-54133106D02*
X48066665Y-52733106D01*
X48933332Y-53399773D02*
X49399999Y-53399773D01*
X49599999Y-54133106D02*
X48933332Y-54133106D01*
X48933332Y-54133106D02*
X48933332Y-52733106D01*
X48933332Y-52733106D02*
X49599999Y-52733106D01*
X50866666Y-54133106D02*
X50199999Y-54133106D01*
X50199999Y-54133106D02*
X50199999Y-52733106D01*
X51333332Y-53399773D02*
X51799999Y-53399773D01*
X51999999Y-54133106D02*
X51333332Y-54133106D01*
X51333332Y-54133106D02*
X51333332Y-52733106D01*
X51333332Y-52733106D02*
X51999999Y-52733106D01*
X52599999Y-54133106D02*
X52599999Y-52733106D01*
X52599999Y-52733106D02*
X53066666Y-53733106D01*
X53066666Y-53733106D02*
X53533332Y-52733106D01*
X53533332Y-52733106D02*
X53533332Y-54133106D01*
X56066666Y-53999773D02*
X55999999Y-54066440D01*
X55999999Y-54066440D02*
X55799999Y-54133106D01*
X55799999Y-54133106D02*
X55666666Y-54133106D01*
X55666666Y-54133106D02*
X55466666Y-54066440D01*
X55466666Y-54066440D02*
X55333333Y-53933106D01*
X55333333Y-53933106D02*
X55266666Y-53799773D01*
X55266666Y-53799773D02*
X55199999Y-53533106D01*
X55199999Y-53533106D02*
X55199999Y-53333106D01*
X55199999Y-53333106D02*
X55266666Y-53066440D01*
X55266666Y-53066440D02*
X55333333Y-52933106D01*
X55333333Y-52933106D02*
X55466666Y-52799773D01*
X55466666Y-52799773D02*
X55666666Y-52733106D01*
X55666666Y-52733106D02*
X55799999Y-52733106D01*
X55799999Y-52733106D02*
X55999999Y-52799773D01*
X55999999Y-52799773D02*
X56066666Y-52866440D01*
X56599999Y-53733106D02*
X57266666Y-53733106D01*
X56466666Y-54133106D02*
X56933333Y-52733106D01*
X56933333Y-52733106D02*
X57399999Y-54133106D01*
X58333333Y-53399773D02*
X58533333Y-53466440D01*
X58533333Y-53466440D02*
X58599999Y-53533106D01*
X58599999Y-53533106D02*
X58666666Y-53666440D01*
X58666666Y-53666440D02*
X58666666Y-53866440D01*
X58666666Y-53866440D02*
X58599999Y-53999773D01*
X58599999Y-53999773D02*
X58533333Y-54066440D01*
X58533333Y-54066440D02*
X58399999Y-54133106D01*
X58399999Y-54133106D02*
X57866666Y-54133106D01*
X57866666Y-54133106D02*
X57866666Y-52733106D01*
X57866666Y-52733106D02*
X58333333Y-52733106D01*
X58333333Y-52733106D02*
X58466666Y-52799773D01*
X58466666Y-52799773D02*
X58533333Y-52866440D01*
X58533333Y-52866440D02*
X58599999Y-52999773D01*
X58599999Y-52999773D02*
X58599999Y-53133106D01*
X58599999Y-53133106D02*
X58533333Y-53266440D01*
X58533333Y-53266440D02*
X58466666Y-53333106D01*
X58466666Y-53333106D02*
X58333333Y-53399773D01*
X58333333Y-53399773D02*
X57866666Y-53399773D01*
X59933333Y-54133106D02*
X59266666Y-54133106D01*
X59266666Y-54133106D02*
X59266666Y-52733106D01*
X60399999Y-53399773D02*
X60866666Y-53399773D01*
X61066666Y-54133106D02*
X60399999Y-54133106D01*
X60399999Y-54133106D02*
X60399999Y-52733106D01*
X60399999Y-52733106D02*
X61066666Y-52733106D01*
X62533333Y-52733106D02*
X63333333Y-52733106D01*
X62933333Y-54133106D02*
X62933333Y-52733106D01*
X63800000Y-53399773D02*
X64266667Y-53399773D01*
X64466667Y-54133106D02*
X63800000Y-54133106D01*
X63800000Y-54133106D02*
X63800000Y-52733106D01*
X63800000Y-52733106D02*
X64466667Y-52733106D01*
X65000000Y-54066440D02*
X65200000Y-54133106D01*
X65200000Y-54133106D02*
X65533334Y-54133106D01*
X65533334Y-54133106D02*
X65666667Y-54066440D01*
X65666667Y-54066440D02*
X65733334Y-53999773D01*
X65733334Y-53999773D02*
X65800000Y-53866440D01*
X65800000Y-53866440D02*
X65800000Y-53733106D01*
X65800000Y-53733106D02*
X65733334Y-53599773D01*
X65733334Y-53599773D02*
X65666667Y-53533106D01*
X65666667Y-53533106D02*
X65533334Y-53466440D01*
X65533334Y-53466440D02*
X65266667Y-53399773D01*
X65266667Y-53399773D02*
X65133334Y-53333106D01*
X65133334Y-53333106D02*
X65066667Y-53266440D01*
X65066667Y-53266440D02*
X65000000Y-53133106D01*
X65000000Y-53133106D02*
X65000000Y-52999773D01*
X65000000Y-52999773D02*
X65066667Y-52866440D01*
X65066667Y-52866440D02*
X65133334Y-52799773D01*
X65133334Y-52799773D02*
X65266667Y-52733106D01*
X65266667Y-52733106D02*
X65600000Y-52733106D01*
X65600000Y-52733106D02*
X65800000Y-52799773D01*
X66200000Y-52733106D02*
X67000000Y-52733106D01*
X66600000Y-54133106D02*
X66600000Y-52733106D01*
X67466667Y-53399773D02*
X67933334Y-53399773D01*
X68133334Y-54133106D02*
X67466667Y-54133106D01*
X67466667Y-54133106D02*
X67466667Y-52733106D01*
X67466667Y-52733106D02*
X68133334Y-52733106D01*
X69533334Y-54133106D02*
X69066667Y-53466440D01*
X68733334Y-54133106D02*
X68733334Y-52733106D01*
X68733334Y-52733106D02*
X69266667Y-52733106D01*
X69266667Y-52733106D02*
X69400001Y-52799773D01*
X69400001Y-52799773D02*
X69466667Y-52866440D01*
X69466667Y-52866440D02*
X69533334Y-52999773D01*
X69533334Y-52999773D02*
X69533334Y-53199773D01*
X69533334Y-53199773D02*
X69466667Y-53333106D01*
X69466667Y-53333106D02*
X69400001Y-53399773D01*
X69400001Y-53399773D02*
X69266667Y-53466440D01*
X69266667Y-53466440D02*
X68733334Y-53466440D01*
X72266668Y-54133106D02*
X72266668Y-53199773D01*
X72266668Y-53466440D02*
X72333335Y-53333106D01*
X72333335Y-53333106D02*
X72400001Y-53266440D01*
X72400001Y-53266440D02*
X72533335Y-53199773D01*
X72533335Y-53199773D02*
X72666668Y-53199773D01*
X73666668Y-54066440D02*
X73533335Y-54133106D01*
X73533335Y-54133106D02*
X73266668Y-54133106D01*
X73266668Y-54133106D02*
X73133335Y-54066440D01*
X73133335Y-54066440D02*
X73066668Y-53933106D01*
X73066668Y-53933106D02*
X73066668Y-53399773D01*
X73066668Y-53399773D02*
X73133335Y-53266440D01*
X73133335Y-53266440D02*
X73266668Y-53199773D01*
X73266668Y-53199773D02*
X73533335Y-53199773D01*
X73533335Y-53199773D02*
X73666668Y-53266440D01*
X73666668Y-53266440D02*
X73733335Y-53399773D01*
X73733335Y-53399773D02*
X73733335Y-53533106D01*
X73733335Y-53533106D02*
X73066668Y-53666440D01*
X74200002Y-53199773D02*
X74533335Y-54133106D01*
X74533335Y-54133106D02*
X74866668Y-53199773D01*
X76400002Y-53733106D02*
X77066669Y-53733106D01*
X76266669Y-54133106D02*
X76733336Y-52733106D01*
X76733336Y-52733106D02*
X77200002Y-54133106D01*
D14*
X90261905Y-66954819D02*
X90261905Y-65954819D01*
X90261905Y-65954819D02*
X90500000Y-65954819D01*
X90500000Y-65954819D02*
X90642857Y-66002438D01*
X90642857Y-66002438D02*
X90738095Y-66097676D01*
X90738095Y-66097676D02*
X90785714Y-66192914D01*
X90785714Y-66192914D02*
X90833333Y-66383390D01*
X90833333Y-66383390D02*
X90833333Y-66526247D01*
X90833333Y-66526247D02*
X90785714Y-66716723D01*
X90785714Y-66716723D02*
X90738095Y-66811961D01*
X90738095Y-66811961D02*
X90642857Y-66907200D01*
X90642857Y-66907200D02*
X90500000Y-66954819D01*
X90500000Y-66954819D02*
X90261905Y-66954819D01*
X91309524Y-66954819D02*
X91500000Y-66954819D01*
X91500000Y-66954819D02*
X91595238Y-66907200D01*
X91595238Y-66907200D02*
X91642857Y-66859580D01*
X91642857Y-66859580D02*
X91738095Y-66716723D01*
X91738095Y-66716723D02*
X91785714Y-66526247D01*
X91785714Y-66526247D02*
X91785714Y-66145295D01*
X91785714Y-66145295D02*
X91738095Y-66050057D01*
X91738095Y-66050057D02*
X91690476Y-66002438D01*
X91690476Y-66002438D02*
X91595238Y-65954819D01*
X91595238Y-65954819D02*
X91404762Y-65954819D01*
X91404762Y-65954819D02*
X91309524Y-66002438D01*
X91309524Y-66002438D02*
X91261905Y-66050057D01*
X91261905Y-66050057D02*
X91214286Y-66145295D01*
X91214286Y-66145295D02*
X91214286Y-66383390D01*
X91214286Y-66383390D02*
X91261905Y-66478628D01*
X91261905Y-66478628D02*
X91309524Y-66526247D01*
X91309524Y-66526247D02*
X91404762Y-66573866D01*
X91404762Y-66573866D02*
X91595238Y-66573866D01*
X91595238Y-66573866D02*
X91690476Y-66526247D01*
X91690476Y-66526247D02*
X91738095Y-66478628D01*
X91738095Y-66478628D02*
X91785714Y-66383390D01*
X87228571Y-68762295D02*
X86771428Y-68762295D01*
X87000000Y-68762295D02*
X87000000Y-67962295D01*
X87000000Y-67962295D02*
X86923809Y-68076580D01*
X86923809Y-68076580D02*
X86847619Y-68152771D01*
X86847619Y-68152771D02*
X86771428Y-68190866D01*
D13*
X77066667Y-55563855D02*
X76800000Y-55182902D01*
X76609524Y-55563855D02*
X76609524Y-54763855D01*
X76609524Y-54763855D02*
X76914286Y-54763855D01*
X76914286Y-54763855D02*
X76990476Y-54801950D01*
X76990476Y-54801950D02*
X77028571Y-54840045D01*
X77028571Y-54840045D02*
X77066667Y-54916236D01*
X77066667Y-54916236D02*
X77066667Y-55030521D01*
X77066667Y-55030521D02*
X77028571Y-55106712D01*
X77028571Y-55106712D02*
X76990476Y-55144807D01*
X76990476Y-55144807D02*
X76914286Y-55182902D01*
X76914286Y-55182902D02*
X76609524Y-55182902D01*
X77409524Y-55563855D02*
X77409524Y-54763855D01*
X77409524Y-54763855D02*
X77866667Y-55563855D01*
X77866667Y-55563855D02*
X77866667Y-54763855D01*
X78666666Y-55563855D02*
X78209523Y-55563855D01*
X78438095Y-55563855D02*
X78438095Y-54763855D01*
X78438095Y-54763855D02*
X78361904Y-54878140D01*
X78361904Y-54878140D02*
X78285714Y-54954331D01*
X78285714Y-54954331D02*
X78209523Y-54992426D01*
X79352381Y-55030521D02*
X79352381Y-55563855D01*
X79161905Y-54725760D02*
X78971428Y-55297188D01*
X78971428Y-55297188D02*
X79466667Y-55297188D01*
X45547619Y-16563855D02*
X45280952Y-16182902D01*
X45090476Y-16563855D02*
X45090476Y-15763855D01*
X45090476Y-15763855D02*
X45395238Y-15763855D01*
X45395238Y-15763855D02*
X45471428Y-15801950D01*
X45471428Y-15801950D02*
X45509523Y-15840045D01*
X45509523Y-15840045D02*
X45547619Y-15916236D01*
X45547619Y-15916236D02*
X45547619Y-16030521D01*
X45547619Y-16030521D02*
X45509523Y-16106712D01*
X45509523Y-16106712D02*
X45471428Y-16144807D01*
X45471428Y-16144807D02*
X45395238Y-16182902D01*
X45395238Y-16182902D02*
X45090476Y-16182902D01*
X45890476Y-16563855D02*
X45890476Y-15763855D01*
X45890476Y-15763855D02*
X46347619Y-16563855D01*
X46347619Y-16563855D02*
X46347619Y-15763855D01*
X46842856Y-16106712D02*
X46766666Y-16068617D01*
X46766666Y-16068617D02*
X46728571Y-16030521D01*
X46728571Y-16030521D02*
X46690475Y-15954331D01*
X46690475Y-15954331D02*
X46690475Y-15916236D01*
X46690475Y-15916236D02*
X46728571Y-15840045D01*
X46728571Y-15840045D02*
X46766666Y-15801950D01*
X46766666Y-15801950D02*
X46842856Y-15763855D01*
X46842856Y-15763855D02*
X46995237Y-15763855D01*
X46995237Y-15763855D02*
X47071428Y-15801950D01*
X47071428Y-15801950D02*
X47109523Y-15840045D01*
X47109523Y-15840045D02*
X47147618Y-15916236D01*
X47147618Y-15916236D02*
X47147618Y-15954331D01*
X47147618Y-15954331D02*
X47109523Y-16030521D01*
X47109523Y-16030521D02*
X47071428Y-16068617D01*
X47071428Y-16068617D02*
X46995237Y-16106712D01*
X46995237Y-16106712D02*
X46842856Y-16106712D01*
X46842856Y-16106712D02*
X46766666Y-16144807D01*
X46766666Y-16144807D02*
X46728571Y-16182902D01*
X46728571Y-16182902D02*
X46690475Y-16259093D01*
X46690475Y-16259093D02*
X46690475Y-16411474D01*
X46690475Y-16411474D02*
X46728571Y-16487664D01*
X46728571Y-16487664D02*
X46766666Y-16525760D01*
X46766666Y-16525760D02*
X46842856Y-16563855D01*
X46842856Y-16563855D02*
X46995237Y-16563855D01*
X46995237Y-16563855D02*
X47071428Y-16525760D01*
X47071428Y-16525760D02*
X47109523Y-16487664D01*
X47109523Y-16487664D02*
X47147618Y-16411474D01*
X47147618Y-16411474D02*
X47147618Y-16259093D01*
X47147618Y-16259093D02*
X47109523Y-16182902D01*
X47109523Y-16182902D02*
X47071428Y-16144807D01*
X47071428Y-16144807D02*
X46995237Y-16106712D01*
X8447619Y-16563855D02*
X8180952Y-16182902D01*
X7990476Y-16563855D02*
X7990476Y-15763855D01*
X7990476Y-15763855D02*
X8295238Y-15763855D01*
X8295238Y-15763855D02*
X8371428Y-15801950D01*
X8371428Y-15801950D02*
X8409523Y-15840045D01*
X8409523Y-15840045D02*
X8447619Y-15916236D01*
X8447619Y-15916236D02*
X8447619Y-16030521D01*
X8447619Y-16030521D02*
X8409523Y-16106712D01*
X8409523Y-16106712D02*
X8371428Y-16144807D01*
X8371428Y-16144807D02*
X8295238Y-16182902D01*
X8295238Y-16182902D02*
X7990476Y-16182902D01*
X8790476Y-16563855D02*
X8790476Y-15763855D01*
X8790476Y-15763855D02*
X9247619Y-16563855D01*
X9247619Y-16563855D02*
X9247619Y-15763855D01*
X10047618Y-16563855D02*
X9590475Y-16563855D01*
X9819047Y-16563855D02*
X9819047Y-15763855D01*
X9819047Y-15763855D02*
X9742856Y-15878140D01*
X9742856Y-15878140D02*
X9666666Y-15954331D01*
X9666666Y-15954331D02*
X9590475Y-15992426D01*
X83485714Y-64357664D02*
X83447618Y-64395760D01*
X83447618Y-64395760D02*
X83333333Y-64433855D01*
X83333333Y-64433855D02*
X83257142Y-64433855D01*
X83257142Y-64433855D02*
X83142856Y-64395760D01*
X83142856Y-64395760D02*
X83066666Y-64319569D01*
X83066666Y-64319569D02*
X83028571Y-64243379D01*
X83028571Y-64243379D02*
X82990475Y-64090998D01*
X82990475Y-64090998D02*
X82990475Y-63976712D01*
X82990475Y-63976712D02*
X83028571Y-63824331D01*
X83028571Y-63824331D02*
X83066666Y-63748140D01*
X83066666Y-63748140D02*
X83142856Y-63671950D01*
X83142856Y-63671950D02*
X83257142Y-63633855D01*
X83257142Y-63633855D02*
X83333333Y-63633855D01*
X83333333Y-63633855D02*
X83447618Y-63671950D01*
X83447618Y-63671950D02*
X83485714Y-63710045D01*
X84247618Y-64433855D02*
X83790475Y-64433855D01*
X84019047Y-64433855D02*
X84019047Y-63633855D01*
X84019047Y-63633855D02*
X83942856Y-63748140D01*
X83942856Y-63748140D02*
X83866666Y-63824331D01*
X83866666Y-63824331D02*
X83790475Y-63862426D01*
X84971428Y-63633855D02*
X84590476Y-63633855D01*
X84590476Y-63633855D02*
X84552380Y-64014807D01*
X84552380Y-64014807D02*
X84590476Y-63976712D01*
X84590476Y-63976712D02*
X84666666Y-63938617D01*
X84666666Y-63938617D02*
X84857142Y-63938617D01*
X84857142Y-63938617D02*
X84933333Y-63976712D01*
X84933333Y-63976712D02*
X84971428Y-64014807D01*
X84971428Y-64014807D02*
X85009523Y-64090998D01*
X85009523Y-64090998D02*
X85009523Y-64281474D01*
X85009523Y-64281474D02*
X84971428Y-64357664D01*
X84971428Y-64357664D02*
X84933333Y-64395760D01*
X84933333Y-64395760D02*
X84857142Y-64433855D01*
X84857142Y-64433855D02*
X84666666Y-64433855D01*
X84666666Y-64433855D02*
X84590476Y-64395760D01*
X84590476Y-64395760D02*
X84552380Y-64357664D01*
X19866667Y-64357664D02*
X19828571Y-64395760D01*
X19828571Y-64395760D02*
X19714286Y-64433855D01*
X19714286Y-64433855D02*
X19638095Y-64433855D01*
X19638095Y-64433855D02*
X19523809Y-64395760D01*
X19523809Y-64395760D02*
X19447619Y-64319569D01*
X19447619Y-64319569D02*
X19409524Y-64243379D01*
X19409524Y-64243379D02*
X19371428Y-64090998D01*
X19371428Y-64090998D02*
X19371428Y-63976712D01*
X19371428Y-63976712D02*
X19409524Y-63824331D01*
X19409524Y-63824331D02*
X19447619Y-63748140D01*
X19447619Y-63748140D02*
X19523809Y-63671950D01*
X19523809Y-63671950D02*
X19638095Y-63633855D01*
X19638095Y-63633855D02*
X19714286Y-63633855D01*
X19714286Y-63633855D02*
X19828571Y-63671950D01*
X19828571Y-63671950D02*
X19866667Y-63710045D01*
X20247619Y-64433855D02*
X20400000Y-64433855D01*
X20400000Y-64433855D02*
X20476190Y-64395760D01*
X20476190Y-64395760D02*
X20514286Y-64357664D01*
X20514286Y-64357664D02*
X20590476Y-64243379D01*
X20590476Y-64243379D02*
X20628571Y-64090998D01*
X20628571Y-64090998D02*
X20628571Y-63786236D01*
X20628571Y-63786236D02*
X20590476Y-63710045D01*
X20590476Y-63710045D02*
X20552381Y-63671950D01*
X20552381Y-63671950D02*
X20476190Y-63633855D01*
X20476190Y-63633855D02*
X20323809Y-63633855D01*
X20323809Y-63633855D02*
X20247619Y-63671950D01*
X20247619Y-63671950D02*
X20209524Y-63710045D01*
X20209524Y-63710045D02*
X20171428Y-63786236D01*
X20171428Y-63786236D02*
X20171428Y-63976712D01*
X20171428Y-63976712D02*
X20209524Y-64052902D01*
X20209524Y-64052902D02*
X20247619Y-64090998D01*
X20247619Y-64090998D02*
X20323809Y-64129093D01*
X20323809Y-64129093D02*
X20476190Y-64129093D01*
X20476190Y-64129093D02*
X20552381Y-64090998D01*
X20552381Y-64090998D02*
X20590476Y-64052902D01*
X20590476Y-64052902D02*
X20628571Y-63976712D01*
D14*
X111285714Y-69454819D02*
X111285714Y-68454819D01*
X111285714Y-68454819D02*
X111523809Y-68454819D01*
X111523809Y-68454819D02*
X111666666Y-68502438D01*
X111666666Y-68502438D02*
X111761904Y-68597676D01*
X111761904Y-68597676D02*
X111809523Y-68692914D01*
X111809523Y-68692914D02*
X111857142Y-68883390D01*
X111857142Y-68883390D02*
X111857142Y-69026247D01*
X111857142Y-69026247D02*
X111809523Y-69216723D01*
X111809523Y-69216723D02*
X111761904Y-69311961D01*
X111761904Y-69311961D02*
X111666666Y-69407200D01*
X111666666Y-69407200D02*
X111523809Y-69454819D01*
X111523809Y-69454819D02*
X111285714Y-69454819D01*
X112809523Y-69454819D02*
X112238095Y-69454819D01*
X112523809Y-69454819D02*
X112523809Y-68454819D01*
X112523809Y-68454819D02*
X112428571Y-68597676D01*
X112428571Y-68597676D02*
X112333333Y-68692914D01*
X112333333Y-68692914D02*
X112238095Y-68740533D01*
X113761904Y-69454819D02*
X113190476Y-69454819D01*
X113476190Y-69454819D02*
X113476190Y-68454819D01*
X113476190Y-68454819D02*
X113380952Y-68597676D01*
X113380952Y-68597676D02*
X113285714Y-68692914D01*
X113285714Y-68692914D02*
X113190476Y-68740533D01*
D13*
X100866667Y-62857664D02*
X100828571Y-62895760D01*
X100828571Y-62895760D02*
X100714286Y-62933855D01*
X100714286Y-62933855D02*
X100638095Y-62933855D01*
X100638095Y-62933855D02*
X100523809Y-62895760D01*
X100523809Y-62895760D02*
X100447619Y-62819569D01*
X100447619Y-62819569D02*
X100409524Y-62743379D01*
X100409524Y-62743379D02*
X100371428Y-62590998D01*
X100371428Y-62590998D02*
X100371428Y-62476712D01*
X100371428Y-62476712D02*
X100409524Y-62324331D01*
X100409524Y-62324331D02*
X100447619Y-62248140D01*
X100447619Y-62248140D02*
X100523809Y-62171950D01*
X100523809Y-62171950D02*
X100638095Y-62133855D01*
X100638095Y-62133855D02*
X100714286Y-62133855D01*
X100714286Y-62133855D02*
X100828571Y-62171950D01*
X100828571Y-62171950D02*
X100866667Y-62210045D01*
X101590476Y-62133855D02*
X101209524Y-62133855D01*
X101209524Y-62133855D02*
X101171428Y-62514807D01*
X101171428Y-62514807D02*
X101209524Y-62476712D01*
X101209524Y-62476712D02*
X101285714Y-62438617D01*
X101285714Y-62438617D02*
X101476190Y-62438617D01*
X101476190Y-62438617D02*
X101552381Y-62476712D01*
X101552381Y-62476712D02*
X101590476Y-62514807D01*
X101590476Y-62514807D02*
X101628571Y-62590998D01*
X101628571Y-62590998D02*
X101628571Y-62781474D01*
X101628571Y-62781474D02*
X101590476Y-62857664D01*
X101590476Y-62857664D02*
X101552381Y-62895760D01*
X101552381Y-62895760D02*
X101476190Y-62933855D01*
X101476190Y-62933855D02*
X101285714Y-62933855D01*
X101285714Y-62933855D02*
X101209524Y-62895760D01*
X101209524Y-62895760D02*
X101171428Y-62857664D01*
D14*
X112404761Y-65150057D02*
X112309523Y-65102438D01*
X112309523Y-65102438D02*
X112214285Y-65007200D01*
X112214285Y-65007200D02*
X112071428Y-64864342D01*
X112071428Y-64864342D02*
X111976190Y-64816723D01*
X111976190Y-64816723D02*
X111880952Y-64816723D01*
X111928571Y-65054819D02*
X111833333Y-65007200D01*
X111833333Y-65007200D02*
X111738095Y-64911961D01*
X111738095Y-64911961D02*
X111690476Y-64721485D01*
X111690476Y-64721485D02*
X111690476Y-64388152D01*
X111690476Y-64388152D02*
X111738095Y-64197676D01*
X111738095Y-64197676D02*
X111833333Y-64102438D01*
X111833333Y-64102438D02*
X111928571Y-64054819D01*
X111928571Y-64054819D02*
X112119047Y-64054819D01*
X112119047Y-64054819D02*
X112214285Y-64102438D01*
X112214285Y-64102438D02*
X112309523Y-64197676D01*
X112309523Y-64197676D02*
X112357142Y-64388152D01*
X112357142Y-64388152D02*
X112357142Y-64721485D01*
X112357142Y-64721485D02*
X112309523Y-64911961D01*
X112309523Y-64911961D02*
X112214285Y-65007200D01*
X112214285Y-65007200D02*
X112119047Y-65054819D01*
X112119047Y-65054819D02*
X111928571Y-65054819D01*
X113309523Y-65054819D02*
X112738095Y-65054819D01*
X113023809Y-65054819D02*
X113023809Y-64054819D01*
X113023809Y-64054819D02*
X112928571Y-64197676D01*
X112928571Y-64197676D02*
X112833333Y-64292914D01*
X112833333Y-64292914D02*
X112738095Y-64340533D01*
D13*
X90485714Y-64357664D02*
X90447618Y-64395760D01*
X90447618Y-64395760D02*
X90333333Y-64433855D01*
X90333333Y-64433855D02*
X90257142Y-64433855D01*
X90257142Y-64433855D02*
X90142856Y-64395760D01*
X90142856Y-64395760D02*
X90066666Y-64319569D01*
X90066666Y-64319569D02*
X90028571Y-64243379D01*
X90028571Y-64243379D02*
X89990475Y-64090998D01*
X89990475Y-64090998D02*
X89990475Y-63976712D01*
X89990475Y-63976712D02*
X90028571Y-63824331D01*
X90028571Y-63824331D02*
X90066666Y-63748140D01*
X90066666Y-63748140D02*
X90142856Y-63671950D01*
X90142856Y-63671950D02*
X90257142Y-63633855D01*
X90257142Y-63633855D02*
X90333333Y-63633855D01*
X90333333Y-63633855D02*
X90447618Y-63671950D01*
X90447618Y-63671950D02*
X90485714Y-63710045D01*
X91247618Y-64433855D02*
X90790475Y-64433855D01*
X91019047Y-64433855D02*
X91019047Y-63633855D01*
X91019047Y-63633855D02*
X90942856Y-63748140D01*
X90942856Y-63748140D02*
X90866666Y-63824331D01*
X90866666Y-63824331D02*
X90790475Y-63862426D01*
X91933333Y-63633855D02*
X91780952Y-63633855D01*
X91780952Y-63633855D02*
X91704761Y-63671950D01*
X91704761Y-63671950D02*
X91666666Y-63710045D01*
X91666666Y-63710045D02*
X91590476Y-63824331D01*
X91590476Y-63824331D02*
X91552380Y-63976712D01*
X91552380Y-63976712D02*
X91552380Y-64281474D01*
X91552380Y-64281474D02*
X91590476Y-64357664D01*
X91590476Y-64357664D02*
X91628571Y-64395760D01*
X91628571Y-64395760D02*
X91704761Y-64433855D01*
X91704761Y-64433855D02*
X91857142Y-64433855D01*
X91857142Y-64433855D02*
X91933333Y-64395760D01*
X91933333Y-64395760D02*
X91971428Y-64357664D01*
X91971428Y-64357664D02*
X92009523Y-64281474D01*
X92009523Y-64281474D02*
X92009523Y-64090998D01*
X92009523Y-64090998D02*
X91971428Y-64014807D01*
X91971428Y-64014807D02*
X91933333Y-63976712D01*
X91933333Y-63976712D02*
X91857142Y-63938617D01*
X91857142Y-63938617D02*
X91704761Y-63938617D01*
X91704761Y-63938617D02*
X91628571Y-63976712D01*
X91628571Y-63976712D02*
X91590476Y-64014807D01*
X91590476Y-64014807D02*
X91552380Y-64090998D01*
X44485714Y-64357664D02*
X44447618Y-64395760D01*
X44447618Y-64395760D02*
X44333333Y-64433855D01*
X44333333Y-64433855D02*
X44257142Y-64433855D01*
X44257142Y-64433855D02*
X44142856Y-64395760D01*
X44142856Y-64395760D02*
X44066666Y-64319569D01*
X44066666Y-64319569D02*
X44028571Y-64243379D01*
X44028571Y-64243379D02*
X43990475Y-64090998D01*
X43990475Y-64090998D02*
X43990475Y-63976712D01*
X43990475Y-63976712D02*
X44028571Y-63824331D01*
X44028571Y-63824331D02*
X44066666Y-63748140D01*
X44066666Y-63748140D02*
X44142856Y-63671950D01*
X44142856Y-63671950D02*
X44257142Y-63633855D01*
X44257142Y-63633855D02*
X44333333Y-63633855D01*
X44333333Y-63633855D02*
X44447618Y-63671950D01*
X44447618Y-63671950D02*
X44485714Y-63710045D01*
X45247618Y-64433855D02*
X44790475Y-64433855D01*
X45019047Y-64433855D02*
X45019047Y-63633855D01*
X45019047Y-63633855D02*
X44942856Y-63748140D01*
X44942856Y-63748140D02*
X44866666Y-63824331D01*
X44866666Y-63824331D02*
X44790475Y-63862426D01*
X46009523Y-64433855D02*
X45552380Y-64433855D01*
X45780952Y-64433855D02*
X45780952Y-63633855D01*
X45780952Y-63633855D02*
X45704761Y-63748140D01*
X45704761Y-63748140D02*
X45628571Y-63824331D01*
X45628571Y-63824331D02*
X45552380Y-63862426D01*
X47066667Y-55563855D02*
X46800000Y-55182902D01*
X46609524Y-55563855D02*
X46609524Y-54763855D01*
X46609524Y-54763855D02*
X46914286Y-54763855D01*
X46914286Y-54763855D02*
X46990476Y-54801950D01*
X46990476Y-54801950D02*
X47028571Y-54840045D01*
X47028571Y-54840045D02*
X47066667Y-54916236D01*
X47066667Y-54916236D02*
X47066667Y-55030521D01*
X47066667Y-55030521D02*
X47028571Y-55106712D01*
X47028571Y-55106712D02*
X46990476Y-55144807D01*
X46990476Y-55144807D02*
X46914286Y-55182902D01*
X46914286Y-55182902D02*
X46609524Y-55182902D01*
X47409524Y-55563855D02*
X47409524Y-54763855D01*
X47409524Y-54763855D02*
X47866667Y-55563855D01*
X47866667Y-55563855D02*
X47866667Y-54763855D01*
X48666666Y-55563855D02*
X48209523Y-55563855D01*
X48438095Y-55563855D02*
X48438095Y-54763855D01*
X48438095Y-54763855D02*
X48361904Y-54878140D01*
X48361904Y-54878140D02*
X48285714Y-54954331D01*
X48285714Y-54954331D02*
X48209523Y-54992426D01*
X48933333Y-54763855D02*
X49428571Y-54763855D01*
X49428571Y-54763855D02*
X49161905Y-55068617D01*
X49161905Y-55068617D02*
X49276190Y-55068617D01*
X49276190Y-55068617D02*
X49352381Y-55106712D01*
X49352381Y-55106712D02*
X49390476Y-55144807D01*
X49390476Y-55144807D02*
X49428571Y-55220998D01*
X49428571Y-55220998D02*
X49428571Y-55411474D01*
X49428571Y-55411474D02*
X49390476Y-55487664D01*
X49390476Y-55487664D02*
X49352381Y-55525760D01*
X49352381Y-55525760D02*
X49276190Y-55563855D01*
X49276190Y-55563855D02*
X49047619Y-55563855D01*
X49047619Y-55563855D02*
X48971428Y-55525760D01*
X48971428Y-55525760D02*
X48933333Y-55487664D01*
D14*
X63238095Y-29554819D02*
X63238095Y-30364342D01*
X63238095Y-30364342D02*
X63285714Y-30459580D01*
X63285714Y-30459580D02*
X63333333Y-30507200D01*
X63333333Y-30507200D02*
X63428571Y-30554819D01*
X63428571Y-30554819D02*
X63619047Y-30554819D01*
X63619047Y-30554819D02*
X63714285Y-30507200D01*
X63714285Y-30507200D02*
X63761904Y-30459580D01*
X63761904Y-30459580D02*
X63809523Y-30364342D01*
X63809523Y-30364342D02*
X63809523Y-29554819D01*
X64190476Y-29554819D02*
X64809523Y-29554819D01*
X64809523Y-29554819D02*
X64476190Y-29935771D01*
X64476190Y-29935771D02*
X64619047Y-29935771D01*
X64619047Y-29935771D02*
X64714285Y-29983390D01*
X64714285Y-29983390D02*
X64761904Y-30031009D01*
X64761904Y-30031009D02*
X64809523Y-30126247D01*
X64809523Y-30126247D02*
X64809523Y-30364342D01*
X64809523Y-30364342D02*
X64761904Y-30459580D01*
X64761904Y-30459580D02*
X64714285Y-30507200D01*
X64714285Y-30507200D02*
X64619047Y-30554819D01*
X64619047Y-30554819D02*
X64333333Y-30554819D01*
X64333333Y-30554819D02*
X64238095Y-30507200D01*
X64238095Y-30507200D02*
X64190476Y-30459580D01*
X2166667Y-82804819D02*
X2166667Y-81804819D01*
X2166667Y-81804819D02*
X2500000Y-82519104D01*
X2500000Y-82519104D02*
X2833333Y-81804819D01*
X2833333Y-81804819D02*
X2833333Y-82804819D01*
X3309524Y-82804819D02*
X3309524Y-81804819D01*
X3309524Y-82281009D02*
X3880952Y-82281009D01*
X3880952Y-82804819D02*
X3880952Y-81804819D01*
X4261905Y-81804819D02*
X4880952Y-81804819D01*
X4880952Y-81804819D02*
X4547619Y-82185771D01*
X4547619Y-82185771D02*
X4690476Y-82185771D01*
X4690476Y-82185771D02*
X4785714Y-82233390D01*
X4785714Y-82233390D02*
X4833333Y-82281009D01*
X4833333Y-82281009D02*
X4880952Y-82376247D01*
X4880952Y-82376247D02*
X4880952Y-82614342D01*
X4880952Y-82614342D02*
X4833333Y-82709580D01*
X4833333Y-82709580D02*
X4785714Y-82757200D01*
X4785714Y-82757200D02*
X4690476Y-82804819D01*
X4690476Y-82804819D02*
X4404762Y-82804819D01*
X4404762Y-82804819D02*
X4309524Y-82757200D01*
X4309524Y-82757200D02*
X4261905Y-82709580D01*
X100916667Y-73407200D02*
X101059524Y-73454819D01*
X101059524Y-73454819D02*
X101297619Y-73454819D01*
X101297619Y-73454819D02*
X101392857Y-73407200D01*
X101392857Y-73407200D02*
X101440476Y-73359580D01*
X101440476Y-73359580D02*
X101488095Y-73264342D01*
X101488095Y-73264342D02*
X101488095Y-73169104D01*
X101488095Y-73169104D02*
X101440476Y-73073866D01*
X101440476Y-73073866D02*
X101392857Y-73026247D01*
X101392857Y-73026247D02*
X101297619Y-72978628D01*
X101297619Y-72978628D02*
X101107143Y-72931009D01*
X101107143Y-72931009D02*
X101011905Y-72883390D01*
X101011905Y-72883390D02*
X100964286Y-72835771D01*
X100964286Y-72835771D02*
X100916667Y-72740533D01*
X100916667Y-72740533D02*
X100916667Y-72645295D01*
X100916667Y-72645295D02*
X100964286Y-72550057D01*
X100964286Y-72550057D02*
X101011905Y-72502438D01*
X101011905Y-72502438D02*
X101107143Y-72454819D01*
X101107143Y-72454819D02*
X101345238Y-72454819D01*
X101345238Y-72454819D02*
X101488095Y-72502438D01*
X101821429Y-72454819D02*
X102059524Y-73454819D01*
X102059524Y-73454819D02*
X102250000Y-72740533D01*
X102250000Y-72740533D02*
X102440476Y-73454819D01*
X102440476Y-73454819D02*
X102678572Y-72454819D01*
X103583333Y-73454819D02*
X103011905Y-73454819D01*
X103297619Y-73454819D02*
X103297619Y-72454819D01*
X103297619Y-72454819D02*
X103202381Y-72597676D01*
X103202381Y-72597676D02*
X103107143Y-72692914D01*
X103107143Y-72692914D02*
X103011905Y-72740533D01*
D13*
X34947619Y-16563855D02*
X34680952Y-16182902D01*
X34490476Y-16563855D02*
X34490476Y-15763855D01*
X34490476Y-15763855D02*
X34795238Y-15763855D01*
X34795238Y-15763855D02*
X34871428Y-15801950D01*
X34871428Y-15801950D02*
X34909523Y-15840045D01*
X34909523Y-15840045D02*
X34947619Y-15916236D01*
X34947619Y-15916236D02*
X34947619Y-16030521D01*
X34947619Y-16030521D02*
X34909523Y-16106712D01*
X34909523Y-16106712D02*
X34871428Y-16144807D01*
X34871428Y-16144807D02*
X34795238Y-16182902D01*
X34795238Y-16182902D02*
X34490476Y-16182902D01*
X35290476Y-16563855D02*
X35290476Y-15763855D01*
X35290476Y-15763855D02*
X35747619Y-16563855D01*
X35747619Y-16563855D02*
X35747619Y-15763855D01*
X36471428Y-15763855D02*
X36319047Y-15763855D01*
X36319047Y-15763855D02*
X36242856Y-15801950D01*
X36242856Y-15801950D02*
X36204761Y-15840045D01*
X36204761Y-15840045D02*
X36128571Y-15954331D01*
X36128571Y-15954331D02*
X36090475Y-16106712D01*
X36090475Y-16106712D02*
X36090475Y-16411474D01*
X36090475Y-16411474D02*
X36128571Y-16487664D01*
X36128571Y-16487664D02*
X36166666Y-16525760D01*
X36166666Y-16525760D02*
X36242856Y-16563855D01*
X36242856Y-16563855D02*
X36395237Y-16563855D01*
X36395237Y-16563855D02*
X36471428Y-16525760D01*
X36471428Y-16525760D02*
X36509523Y-16487664D01*
X36509523Y-16487664D02*
X36547618Y-16411474D01*
X36547618Y-16411474D02*
X36547618Y-16220998D01*
X36547618Y-16220998D02*
X36509523Y-16144807D01*
X36509523Y-16144807D02*
X36471428Y-16106712D01*
X36471428Y-16106712D02*
X36395237Y-16068617D01*
X36395237Y-16068617D02*
X36242856Y-16068617D01*
X36242856Y-16068617D02*
X36166666Y-16106712D01*
X36166666Y-16106712D02*
X36128571Y-16144807D01*
X36128571Y-16144807D02*
X36090475Y-16220998D01*
X58485714Y-64357664D02*
X58447618Y-64395760D01*
X58447618Y-64395760D02*
X58333333Y-64433855D01*
X58333333Y-64433855D02*
X58257142Y-64433855D01*
X58257142Y-64433855D02*
X58142856Y-64395760D01*
X58142856Y-64395760D02*
X58066666Y-64319569D01*
X58066666Y-64319569D02*
X58028571Y-64243379D01*
X58028571Y-64243379D02*
X57990475Y-64090998D01*
X57990475Y-64090998D02*
X57990475Y-63976712D01*
X57990475Y-63976712D02*
X58028571Y-63824331D01*
X58028571Y-63824331D02*
X58066666Y-63748140D01*
X58066666Y-63748140D02*
X58142856Y-63671950D01*
X58142856Y-63671950D02*
X58257142Y-63633855D01*
X58257142Y-63633855D02*
X58333333Y-63633855D01*
X58333333Y-63633855D02*
X58447618Y-63671950D01*
X58447618Y-63671950D02*
X58485714Y-63710045D01*
X59247618Y-64433855D02*
X58790475Y-64433855D01*
X59019047Y-64433855D02*
X59019047Y-63633855D01*
X59019047Y-63633855D02*
X58942856Y-63748140D01*
X58942856Y-63748140D02*
X58866666Y-63824331D01*
X58866666Y-63824331D02*
X58790475Y-63862426D01*
X59514285Y-63633855D02*
X60009523Y-63633855D01*
X60009523Y-63633855D02*
X59742857Y-63938617D01*
X59742857Y-63938617D02*
X59857142Y-63938617D01*
X59857142Y-63938617D02*
X59933333Y-63976712D01*
X59933333Y-63976712D02*
X59971428Y-64014807D01*
X59971428Y-64014807D02*
X60009523Y-64090998D01*
X60009523Y-64090998D02*
X60009523Y-64281474D01*
X60009523Y-64281474D02*
X59971428Y-64357664D01*
X59971428Y-64357664D02*
X59933333Y-64395760D01*
X59933333Y-64395760D02*
X59857142Y-64433855D01*
X59857142Y-64433855D02*
X59628571Y-64433855D01*
X59628571Y-64433855D02*
X59552380Y-64395760D01*
X59552380Y-64395760D02*
X59514285Y-64357664D01*
X76485714Y-64357664D02*
X76447618Y-64395760D01*
X76447618Y-64395760D02*
X76333333Y-64433855D01*
X76333333Y-64433855D02*
X76257142Y-64433855D01*
X76257142Y-64433855D02*
X76142856Y-64395760D01*
X76142856Y-64395760D02*
X76066666Y-64319569D01*
X76066666Y-64319569D02*
X76028571Y-64243379D01*
X76028571Y-64243379D02*
X75990475Y-64090998D01*
X75990475Y-64090998D02*
X75990475Y-63976712D01*
X75990475Y-63976712D02*
X76028571Y-63824331D01*
X76028571Y-63824331D02*
X76066666Y-63748140D01*
X76066666Y-63748140D02*
X76142856Y-63671950D01*
X76142856Y-63671950D02*
X76257142Y-63633855D01*
X76257142Y-63633855D02*
X76333333Y-63633855D01*
X76333333Y-63633855D02*
X76447618Y-63671950D01*
X76447618Y-63671950D02*
X76485714Y-63710045D01*
X77247618Y-64433855D02*
X76790475Y-64433855D01*
X77019047Y-64433855D02*
X77019047Y-63633855D01*
X77019047Y-63633855D02*
X76942856Y-63748140D01*
X76942856Y-63748140D02*
X76866666Y-63824331D01*
X76866666Y-63824331D02*
X76790475Y-63862426D01*
X77933333Y-63900521D02*
X77933333Y-64433855D01*
X77742857Y-63595760D02*
X77552380Y-64167188D01*
X77552380Y-64167188D02*
X78047619Y-64167188D01*
X10962664Y-42673332D02*
X11000760Y-42711428D01*
X11000760Y-42711428D02*
X11038855Y-42825713D01*
X11038855Y-42825713D02*
X11038855Y-42901904D01*
X11038855Y-42901904D02*
X11000760Y-43016190D01*
X11000760Y-43016190D02*
X10924569Y-43092380D01*
X10924569Y-43092380D02*
X10848379Y-43130475D01*
X10848379Y-43130475D02*
X10695998Y-43168571D01*
X10695998Y-43168571D02*
X10581712Y-43168571D01*
X10581712Y-43168571D02*
X10429331Y-43130475D01*
X10429331Y-43130475D02*
X10353140Y-43092380D01*
X10353140Y-43092380D02*
X10276950Y-43016190D01*
X10276950Y-43016190D02*
X10238855Y-42901904D01*
X10238855Y-42901904D02*
X10238855Y-42825713D01*
X10238855Y-42825713D02*
X10276950Y-42711428D01*
X10276950Y-42711428D02*
X10315045Y-42673332D01*
X11038855Y-41911428D02*
X11038855Y-42368571D01*
X11038855Y-42139999D02*
X10238855Y-42139999D01*
X10238855Y-42139999D02*
X10353140Y-42216190D01*
X10353140Y-42216190D02*
X10429331Y-42292380D01*
X10429331Y-42292380D02*
X10467426Y-42368571D01*
D14*
X51666666Y-82354819D02*
X51666666Y-83069104D01*
X51666666Y-83069104D02*
X51619047Y-83211961D01*
X51619047Y-83211961D02*
X51523809Y-83307200D01*
X51523809Y-83307200D02*
X51380952Y-83354819D01*
X51380952Y-83354819D02*
X51285714Y-83354819D01*
X52047619Y-82354819D02*
X52666666Y-82354819D01*
X52666666Y-82354819D02*
X52333333Y-82735771D01*
X52333333Y-82735771D02*
X52476190Y-82735771D01*
X52476190Y-82735771D02*
X52571428Y-82783390D01*
X52571428Y-82783390D02*
X52619047Y-82831009D01*
X52619047Y-82831009D02*
X52666666Y-82926247D01*
X52666666Y-82926247D02*
X52666666Y-83164342D01*
X52666666Y-83164342D02*
X52619047Y-83259580D01*
X52619047Y-83259580D02*
X52571428Y-83307200D01*
X52571428Y-83307200D02*
X52476190Y-83354819D01*
X52476190Y-83354819D02*
X52190476Y-83354819D01*
X52190476Y-83354819D02*
X52095238Y-83307200D01*
X52095238Y-83307200D02*
X52047619Y-83259580D01*
D13*
X103933855Y-60133332D02*
X103552902Y-60399999D01*
X103933855Y-60590475D02*
X103133855Y-60590475D01*
X103133855Y-60590475D02*
X103133855Y-60285713D01*
X103133855Y-60285713D02*
X103171950Y-60209523D01*
X103171950Y-60209523D02*
X103210045Y-60171428D01*
X103210045Y-60171428D02*
X103286236Y-60133332D01*
X103286236Y-60133332D02*
X103400521Y-60133332D01*
X103400521Y-60133332D02*
X103476712Y-60171428D01*
X103476712Y-60171428D02*
X103514807Y-60209523D01*
X103514807Y-60209523D02*
X103552902Y-60285713D01*
X103552902Y-60285713D02*
X103552902Y-60590475D01*
X103933855Y-59371428D02*
X103933855Y-59828571D01*
X103933855Y-59599999D02*
X103133855Y-59599999D01*
X103133855Y-59599999D02*
X103248140Y-59676190D01*
X103248140Y-59676190D02*
X103324331Y-59752380D01*
X103324331Y-59752380D02*
X103362426Y-59828571D01*
X12866667Y-64357664D02*
X12828571Y-64395760D01*
X12828571Y-64395760D02*
X12714286Y-64433855D01*
X12714286Y-64433855D02*
X12638095Y-64433855D01*
X12638095Y-64433855D02*
X12523809Y-64395760D01*
X12523809Y-64395760D02*
X12447619Y-64319569D01*
X12447619Y-64319569D02*
X12409524Y-64243379D01*
X12409524Y-64243379D02*
X12371428Y-64090998D01*
X12371428Y-64090998D02*
X12371428Y-63976712D01*
X12371428Y-63976712D02*
X12409524Y-63824331D01*
X12409524Y-63824331D02*
X12447619Y-63748140D01*
X12447619Y-63748140D02*
X12523809Y-63671950D01*
X12523809Y-63671950D02*
X12638095Y-63633855D01*
X12638095Y-63633855D02*
X12714286Y-63633855D01*
X12714286Y-63633855D02*
X12828571Y-63671950D01*
X12828571Y-63671950D02*
X12866667Y-63710045D01*
X13323809Y-63976712D02*
X13247619Y-63938617D01*
X13247619Y-63938617D02*
X13209524Y-63900521D01*
X13209524Y-63900521D02*
X13171428Y-63824331D01*
X13171428Y-63824331D02*
X13171428Y-63786236D01*
X13171428Y-63786236D02*
X13209524Y-63710045D01*
X13209524Y-63710045D02*
X13247619Y-63671950D01*
X13247619Y-63671950D02*
X13323809Y-63633855D01*
X13323809Y-63633855D02*
X13476190Y-63633855D01*
X13476190Y-63633855D02*
X13552381Y-63671950D01*
X13552381Y-63671950D02*
X13590476Y-63710045D01*
X13590476Y-63710045D02*
X13628571Y-63786236D01*
X13628571Y-63786236D02*
X13628571Y-63824331D01*
X13628571Y-63824331D02*
X13590476Y-63900521D01*
X13590476Y-63900521D02*
X13552381Y-63938617D01*
X13552381Y-63938617D02*
X13476190Y-63976712D01*
X13476190Y-63976712D02*
X13323809Y-63976712D01*
X13323809Y-63976712D02*
X13247619Y-64014807D01*
X13247619Y-64014807D02*
X13209524Y-64052902D01*
X13209524Y-64052902D02*
X13171428Y-64129093D01*
X13171428Y-64129093D02*
X13171428Y-64281474D01*
X13171428Y-64281474D02*
X13209524Y-64357664D01*
X13209524Y-64357664D02*
X13247619Y-64395760D01*
X13247619Y-64395760D02*
X13323809Y-64433855D01*
X13323809Y-64433855D02*
X13476190Y-64433855D01*
X13476190Y-64433855D02*
X13552381Y-64395760D01*
X13552381Y-64395760D02*
X13590476Y-64357664D01*
X13590476Y-64357664D02*
X13628571Y-64281474D01*
X13628571Y-64281474D02*
X13628571Y-64129093D01*
X13628571Y-64129093D02*
X13590476Y-64052902D01*
X13590476Y-64052902D02*
X13552381Y-64014807D01*
X13552381Y-64014807D02*
X13476190Y-63976712D01*
D14*
X58261905Y-66954819D02*
X58261905Y-65954819D01*
X58261905Y-65954819D02*
X58500000Y-65954819D01*
X58500000Y-65954819D02*
X58642857Y-66002438D01*
X58642857Y-66002438D02*
X58738095Y-66097676D01*
X58738095Y-66097676D02*
X58785714Y-66192914D01*
X58785714Y-66192914D02*
X58833333Y-66383390D01*
X58833333Y-66383390D02*
X58833333Y-66526247D01*
X58833333Y-66526247D02*
X58785714Y-66716723D01*
X58785714Y-66716723D02*
X58738095Y-66811961D01*
X58738095Y-66811961D02*
X58642857Y-66907200D01*
X58642857Y-66907200D02*
X58500000Y-66954819D01*
X58500000Y-66954819D02*
X58261905Y-66954819D01*
X59690476Y-65954819D02*
X59500000Y-65954819D01*
X59500000Y-65954819D02*
X59404762Y-66002438D01*
X59404762Y-66002438D02*
X59357143Y-66050057D01*
X59357143Y-66050057D02*
X59261905Y-66192914D01*
X59261905Y-66192914D02*
X59214286Y-66383390D01*
X59214286Y-66383390D02*
X59214286Y-66764342D01*
X59214286Y-66764342D02*
X59261905Y-66859580D01*
X59261905Y-66859580D02*
X59309524Y-66907200D01*
X59309524Y-66907200D02*
X59404762Y-66954819D01*
X59404762Y-66954819D02*
X59595238Y-66954819D01*
X59595238Y-66954819D02*
X59690476Y-66907200D01*
X59690476Y-66907200D02*
X59738095Y-66859580D01*
X59738095Y-66859580D02*
X59785714Y-66764342D01*
X59785714Y-66764342D02*
X59785714Y-66526247D01*
X59785714Y-66526247D02*
X59738095Y-66431009D01*
X59738095Y-66431009D02*
X59690476Y-66383390D01*
X59690476Y-66383390D02*
X59595238Y-66335771D01*
X59595238Y-66335771D02*
X59404762Y-66335771D01*
X59404762Y-66335771D02*
X59309524Y-66383390D01*
X59309524Y-66383390D02*
X59261905Y-66431009D01*
X59261905Y-66431009D02*
X59214286Y-66526247D01*
X55228571Y-68762295D02*
X54771428Y-68762295D01*
X55000000Y-68762295D02*
X55000000Y-67962295D01*
X55000000Y-67962295D02*
X54923809Y-68076580D01*
X54923809Y-68076580D02*
X54847619Y-68152771D01*
X54847619Y-68152771D02*
X54771428Y-68190866D01*
D13*
X40247619Y-16563855D02*
X39980952Y-16182902D01*
X39790476Y-16563855D02*
X39790476Y-15763855D01*
X39790476Y-15763855D02*
X40095238Y-15763855D01*
X40095238Y-15763855D02*
X40171428Y-15801950D01*
X40171428Y-15801950D02*
X40209523Y-15840045D01*
X40209523Y-15840045D02*
X40247619Y-15916236D01*
X40247619Y-15916236D02*
X40247619Y-16030521D01*
X40247619Y-16030521D02*
X40209523Y-16106712D01*
X40209523Y-16106712D02*
X40171428Y-16144807D01*
X40171428Y-16144807D02*
X40095238Y-16182902D01*
X40095238Y-16182902D02*
X39790476Y-16182902D01*
X40590476Y-16563855D02*
X40590476Y-15763855D01*
X40590476Y-15763855D02*
X41047619Y-16563855D01*
X41047619Y-16563855D02*
X41047619Y-15763855D01*
X41352380Y-15763855D02*
X41885714Y-15763855D01*
X41885714Y-15763855D02*
X41542856Y-16563855D01*
D14*
X76261905Y-66954819D02*
X76261905Y-65954819D01*
X76261905Y-65954819D02*
X76500000Y-65954819D01*
X76500000Y-65954819D02*
X76642857Y-66002438D01*
X76642857Y-66002438D02*
X76738095Y-66097676D01*
X76738095Y-66097676D02*
X76785714Y-66192914D01*
X76785714Y-66192914D02*
X76833333Y-66383390D01*
X76833333Y-66383390D02*
X76833333Y-66526247D01*
X76833333Y-66526247D02*
X76785714Y-66716723D01*
X76785714Y-66716723D02*
X76738095Y-66811961D01*
X76738095Y-66811961D02*
X76642857Y-66907200D01*
X76642857Y-66907200D02*
X76500000Y-66954819D01*
X76500000Y-66954819D02*
X76261905Y-66954819D01*
X77166667Y-65954819D02*
X77833333Y-65954819D01*
X77833333Y-65954819D02*
X77404762Y-66954819D01*
X73228571Y-68762295D02*
X72771428Y-68762295D01*
X73000000Y-68762295D02*
X73000000Y-67962295D01*
X73000000Y-67962295D02*
X72923809Y-68076580D01*
X72923809Y-68076580D02*
X72847619Y-68152771D01*
X72847619Y-68152771D02*
X72771428Y-68190866D01*
X19666666Y-82354819D02*
X19666666Y-83069104D01*
X19666666Y-83069104D02*
X19619047Y-83211961D01*
X19619047Y-83211961D02*
X19523809Y-83307200D01*
X19523809Y-83307200D02*
X19380952Y-83354819D01*
X19380952Y-83354819D02*
X19285714Y-83354819D01*
X20095238Y-82450057D02*
X20142857Y-82402438D01*
X20142857Y-82402438D02*
X20238095Y-82354819D01*
X20238095Y-82354819D02*
X20476190Y-82354819D01*
X20476190Y-82354819D02*
X20571428Y-82402438D01*
X20571428Y-82402438D02*
X20619047Y-82450057D01*
X20619047Y-82450057D02*
X20666666Y-82545295D01*
X20666666Y-82545295D02*
X20666666Y-82640533D01*
X20666666Y-82640533D02*
X20619047Y-82783390D01*
X20619047Y-82783390D02*
X20047619Y-83354819D01*
X20047619Y-83354819D02*
X20666666Y-83354819D01*
D13*
X50847619Y-16563855D02*
X50580952Y-16182902D01*
X50390476Y-16563855D02*
X50390476Y-15763855D01*
X50390476Y-15763855D02*
X50695238Y-15763855D01*
X50695238Y-15763855D02*
X50771428Y-15801950D01*
X50771428Y-15801950D02*
X50809523Y-15840045D01*
X50809523Y-15840045D02*
X50847619Y-15916236D01*
X50847619Y-15916236D02*
X50847619Y-16030521D01*
X50847619Y-16030521D02*
X50809523Y-16106712D01*
X50809523Y-16106712D02*
X50771428Y-16144807D01*
X50771428Y-16144807D02*
X50695238Y-16182902D01*
X50695238Y-16182902D02*
X50390476Y-16182902D01*
X51190476Y-16563855D02*
X51190476Y-15763855D01*
X51190476Y-15763855D02*
X51647619Y-16563855D01*
X51647619Y-16563855D02*
X51647619Y-15763855D01*
X52066666Y-16563855D02*
X52219047Y-16563855D01*
X52219047Y-16563855D02*
X52295237Y-16525760D01*
X52295237Y-16525760D02*
X52333333Y-16487664D01*
X52333333Y-16487664D02*
X52409523Y-16373379D01*
X52409523Y-16373379D02*
X52447618Y-16220998D01*
X52447618Y-16220998D02*
X52447618Y-15916236D01*
X52447618Y-15916236D02*
X52409523Y-15840045D01*
X52409523Y-15840045D02*
X52371428Y-15801950D01*
X52371428Y-15801950D02*
X52295237Y-15763855D01*
X52295237Y-15763855D02*
X52142856Y-15763855D01*
X52142856Y-15763855D02*
X52066666Y-15801950D01*
X52066666Y-15801950D02*
X52028571Y-15840045D01*
X52028571Y-15840045D02*
X51990475Y-15916236D01*
X51990475Y-15916236D02*
X51990475Y-16106712D01*
X51990475Y-16106712D02*
X52028571Y-16182902D01*
X52028571Y-16182902D02*
X52066666Y-16220998D01*
X52066666Y-16220998D02*
X52142856Y-16259093D01*
X52142856Y-16259093D02*
X52295237Y-16259093D01*
X52295237Y-16259093D02*
X52371428Y-16220998D01*
X52371428Y-16220998D02*
X52409523Y-16182902D01*
X52409523Y-16182902D02*
X52447618Y-16106712D01*
D14*
X83261905Y-66954819D02*
X83261905Y-65954819D01*
X83261905Y-65954819D02*
X83500000Y-65954819D01*
X83500000Y-65954819D02*
X83642857Y-66002438D01*
X83642857Y-66002438D02*
X83738095Y-66097676D01*
X83738095Y-66097676D02*
X83785714Y-66192914D01*
X83785714Y-66192914D02*
X83833333Y-66383390D01*
X83833333Y-66383390D02*
X83833333Y-66526247D01*
X83833333Y-66526247D02*
X83785714Y-66716723D01*
X83785714Y-66716723D02*
X83738095Y-66811961D01*
X83738095Y-66811961D02*
X83642857Y-66907200D01*
X83642857Y-66907200D02*
X83500000Y-66954819D01*
X83500000Y-66954819D02*
X83261905Y-66954819D01*
X84404762Y-66383390D02*
X84309524Y-66335771D01*
X84309524Y-66335771D02*
X84261905Y-66288152D01*
X84261905Y-66288152D02*
X84214286Y-66192914D01*
X84214286Y-66192914D02*
X84214286Y-66145295D01*
X84214286Y-66145295D02*
X84261905Y-66050057D01*
X84261905Y-66050057D02*
X84309524Y-66002438D01*
X84309524Y-66002438D02*
X84404762Y-65954819D01*
X84404762Y-65954819D02*
X84595238Y-65954819D01*
X84595238Y-65954819D02*
X84690476Y-66002438D01*
X84690476Y-66002438D02*
X84738095Y-66050057D01*
X84738095Y-66050057D02*
X84785714Y-66145295D01*
X84785714Y-66145295D02*
X84785714Y-66192914D01*
X84785714Y-66192914D02*
X84738095Y-66288152D01*
X84738095Y-66288152D02*
X84690476Y-66335771D01*
X84690476Y-66335771D02*
X84595238Y-66383390D01*
X84595238Y-66383390D02*
X84404762Y-66383390D01*
X84404762Y-66383390D02*
X84309524Y-66431009D01*
X84309524Y-66431009D02*
X84261905Y-66478628D01*
X84261905Y-66478628D02*
X84214286Y-66573866D01*
X84214286Y-66573866D02*
X84214286Y-66764342D01*
X84214286Y-66764342D02*
X84261905Y-66859580D01*
X84261905Y-66859580D02*
X84309524Y-66907200D01*
X84309524Y-66907200D02*
X84404762Y-66954819D01*
X84404762Y-66954819D02*
X84595238Y-66954819D01*
X84595238Y-66954819D02*
X84690476Y-66907200D01*
X84690476Y-66907200D02*
X84738095Y-66859580D01*
X84738095Y-66859580D02*
X84785714Y-66764342D01*
X84785714Y-66764342D02*
X84785714Y-66573866D01*
X84785714Y-66573866D02*
X84738095Y-66478628D01*
X84738095Y-66478628D02*
X84690476Y-66431009D01*
X84690476Y-66431009D02*
X84595238Y-66383390D01*
X80228571Y-68762295D02*
X79771428Y-68762295D01*
X80000000Y-68762295D02*
X80000000Y-67962295D01*
X80000000Y-67962295D02*
X79923809Y-68076580D01*
X79923809Y-68076580D02*
X79847619Y-68152771D01*
X79847619Y-68152771D02*
X79771428Y-68190866D01*
X95666667Y195180D02*
X95666667Y1195180D01*
X95666667Y1195180D02*
X96000000Y480895D01*
X96000000Y480895D02*
X96333333Y1195180D01*
X96333333Y1195180D02*
X96333333Y195180D01*
X96809524Y195180D02*
X96809524Y1195180D01*
X96809524Y718990D02*
X97380952Y718990D01*
X97380952Y195180D02*
X97380952Y1195180D01*
X97809524Y1099942D02*
X97857143Y1147561D01*
X97857143Y1147561D02*
X97952381Y1195180D01*
X97952381Y1195180D02*
X98190476Y1195180D01*
X98190476Y1195180D02*
X98285714Y1147561D01*
X98285714Y1147561D02*
X98333333Y1099942D01*
X98333333Y1099942D02*
X98380952Y1004704D01*
X98380952Y1004704D02*
X98380952Y909466D01*
X98380952Y909466D02*
X98333333Y766609D01*
X98333333Y766609D02*
X97761905Y195180D01*
X97761905Y195180D02*
X98380952Y195180D01*
D13*
X51485714Y-64357664D02*
X51447618Y-64395760D01*
X51447618Y-64395760D02*
X51333333Y-64433855D01*
X51333333Y-64433855D02*
X51257142Y-64433855D01*
X51257142Y-64433855D02*
X51142856Y-64395760D01*
X51142856Y-64395760D02*
X51066666Y-64319569D01*
X51066666Y-64319569D02*
X51028571Y-64243379D01*
X51028571Y-64243379D02*
X50990475Y-64090998D01*
X50990475Y-64090998D02*
X50990475Y-63976712D01*
X50990475Y-63976712D02*
X51028571Y-63824331D01*
X51028571Y-63824331D02*
X51066666Y-63748140D01*
X51066666Y-63748140D02*
X51142856Y-63671950D01*
X51142856Y-63671950D02*
X51257142Y-63633855D01*
X51257142Y-63633855D02*
X51333333Y-63633855D01*
X51333333Y-63633855D02*
X51447618Y-63671950D01*
X51447618Y-63671950D02*
X51485714Y-63710045D01*
X52247618Y-64433855D02*
X51790475Y-64433855D01*
X52019047Y-64433855D02*
X52019047Y-63633855D01*
X52019047Y-63633855D02*
X51942856Y-63748140D01*
X51942856Y-63748140D02*
X51866666Y-63824331D01*
X51866666Y-63824331D02*
X51790475Y-63862426D01*
X52552380Y-63710045D02*
X52590476Y-63671950D01*
X52590476Y-63671950D02*
X52666666Y-63633855D01*
X52666666Y-63633855D02*
X52857142Y-63633855D01*
X52857142Y-63633855D02*
X52933333Y-63671950D01*
X52933333Y-63671950D02*
X52971428Y-63710045D01*
X52971428Y-63710045D02*
X53009523Y-63786236D01*
X53009523Y-63786236D02*
X53009523Y-63862426D01*
X53009523Y-63862426D02*
X52971428Y-63976712D01*
X52971428Y-63976712D02*
X52514285Y-64433855D01*
X52514285Y-64433855D02*
X53009523Y-64433855D01*
X29647619Y-16563855D02*
X29380952Y-16182902D01*
X29190476Y-16563855D02*
X29190476Y-15763855D01*
X29190476Y-15763855D02*
X29495238Y-15763855D01*
X29495238Y-15763855D02*
X29571428Y-15801950D01*
X29571428Y-15801950D02*
X29609523Y-15840045D01*
X29609523Y-15840045D02*
X29647619Y-15916236D01*
X29647619Y-15916236D02*
X29647619Y-16030521D01*
X29647619Y-16030521D02*
X29609523Y-16106712D01*
X29609523Y-16106712D02*
X29571428Y-16144807D01*
X29571428Y-16144807D02*
X29495238Y-16182902D01*
X29495238Y-16182902D02*
X29190476Y-16182902D01*
X29990476Y-16563855D02*
X29990476Y-15763855D01*
X29990476Y-15763855D02*
X30447619Y-16563855D01*
X30447619Y-16563855D02*
X30447619Y-15763855D01*
X31209523Y-15763855D02*
X30828571Y-15763855D01*
X30828571Y-15763855D02*
X30790475Y-16144807D01*
X30790475Y-16144807D02*
X30828571Y-16106712D01*
X30828571Y-16106712D02*
X30904761Y-16068617D01*
X30904761Y-16068617D02*
X31095237Y-16068617D01*
X31095237Y-16068617D02*
X31171428Y-16106712D01*
X31171428Y-16106712D02*
X31209523Y-16144807D01*
X31209523Y-16144807D02*
X31247618Y-16220998D01*
X31247618Y-16220998D02*
X31247618Y-16411474D01*
X31247618Y-16411474D02*
X31209523Y-16487664D01*
X31209523Y-16487664D02*
X31171428Y-16525760D01*
X31171428Y-16525760D02*
X31095237Y-16563855D01*
X31095237Y-16563855D02*
X30904761Y-16563855D01*
X30904761Y-16563855D02*
X30828571Y-16525760D01*
X30828571Y-16525760D02*
X30790475Y-16487664D01*
X108366667Y-67433855D02*
X108100000Y-67052902D01*
X107909524Y-67433855D02*
X107909524Y-66633855D01*
X107909524Y-66633855D02*
X108214286Y-66633855D01*
X108214286Y-66633855D02*
X108290476Y-66671950D01*
X108290476Y-66671950D02*
X108328571Y-66710045D01*
X108328571Y-66710045D02*
X108366667Y-66786236D01*
X108366667Y-66786236D02*
X108366667Y-66900521D01*
X108366667Y-66900521D02*
X108328571Y-66976712D01*
X108328571Y-66976712D02*
X108290476Y-67014807D01*
X108290476Y-67014807D02*
X108214286Y-67052902D01*
X108214286Y-67052902D02*
X107909524Y-67052902D01*
X109090476Y-66633855D02*
X108709524Y-66633855D01*
X108709524Y-66633855D02*
X108671428Y-67014807D01*
X108671428Y-67014807D02*
X108709524Y-66976712D01*
X108709524Y-66976712D02*
X108785714Y-66938617D01*
X108785714Y-66938617D02*
X108976190Y-66938617D01*
X108976190Y-66938617D02*
X109052381Y-66976712D01*
X109052381Y-66976712D02*
X109090476Y-67014807D01*
X109090476Y-67014807D02*
X109128571Y-67090998D01*
X109128571Y-67090998D02*
X109128571Y-67281474D01*
X109128571Y-67281474D02*
X109090476Y-67357664D01*
X109090476Y-67357664D02*
X109052381Y-67395760D01*
X109052381Y-67395760D02*
X108976190Y-67433855D01*
X108976190Y-67433855D02*
X108785714Y-67433855D01*
X108785714Y-67433855D02*
X108709524Y-67395760D01*
X108709524Y-67395760D02*
X108671428Y-67357664D01*
D14*
X110785714Y-80954819D02*
X110785714Y-79954819D01*
X110785714Y-79954819D02*
X111023809Y-79954819D01*
X111023809Y-79954819D02*
X111166666Y-80002438D01*
X111166666Y-80002438D02*
X111261904Y-80097676D01*
X111261904Y-80097676D02*
X111309523Y-80192914D01*
X111309523Y-80192914D02*
X111357142Y-80383390D01*
X111357142Y-80383390D02*
X111357142Y-80526247D01*
X111357142Y-80526247D02*
X111309523Y-80716723D01*
X111309523Y-80716723D02*
X111261904Y-80811961D01*
X111261904Y-80811961D02*
X111166666Y-80907200D01*
X111166666Y-80907200D02*
X111023809Y-80954819D01*
X111023809Y-80954819D02*
X110785714Y-80954819D01*
X112309523Y-80954819D02*
X111738095Y-80954819D01*
X112023809Y-80954819D02*
X112023809Y-79954819D01*
X112023809Y-79954819D02*
X111928571Y-80097676D01*
X111928571Y-80097676D02*
X111833333Y-80192914D01*
X111833333Y-80192914D02*
X111738095Y-80240533D01*
X112928571Y-79954819D02*
X113023809Y-79954819D01*
X113023809Y-79954819D02*
X113119047Y-80002438D01*
X113119047Y-80002438D02*
X113166666Y-80050057D01*
X113166666Y-80050057D02*
X113214285Y-80145295D01*
X113214285Y-80145295D02*
X113261904Y-80335771D01*
X113261904Y-80335771D02*
X113261904Y-80573866D01*
X113261904Y-80573866D02*
X113214285Y-80764342D01*
X113214285Y-80764342D02*
X113166666Y-80859580D01*
X113166666Y-80859580D02*
X113119047Y-80907200D01*
X113119047Y-80907200D02*
X113023809Y-80954819D01*
X113023809Y-80954819D02*
X112928571Y-80954819D01*
X112928571Y-80954819D02*
X112833333Y-80907200D01*
X112833333Y-80907200D02*
X112785714Y-80859580D01*
X112785714Y-80859580D02*
X112738095Y-80764342D01*
X112738095Y-80764342D02*
X112690476Y-80573866D01*
X112690476Y-80573866D02*
X112690476Y-80335771D01*
X112690476Y-80335771D02*
X112738095Y-80145295D01*
X112738095Y-80145295D02*
X112785714Y-80050057D01*
X112785714Y-80050057D02*
X112833333Y-80002438D01*
X112833333Y-80002438D02*
X112928571Y-79954819D01*
X108228571Y-82762295D02*
X107771428Y-82762295D01*
X108000000Y-82762295D02*
X108000000Y-81962295D01*
X108000000Y-81962295D02*
X107923809Y-82076580D01*
X107923809Y-82076580D02*
X107847619Y-82152771D01*
X107847619Y-82152771D02*
X107771428Y-82190866D01*
D13*
X26485714Y-64357664D02*
X26447618Y-64395760D01*
X26447618Y-64395760D02*
X26333333Y-64433855D01*
X26333333Y-64433855D02*
X26257142Y-64433855D01*
X26257142Y-64433855D02*
X26142856Y-64395760D01*
X26142856Y-64395760D02*
X26066666Y-64319569D01*
X26066666Y-64319569D02*
X26028571Y-64243379D01*
X26028571Y-64243379D02*
X25990475Y-64090998D01*
X25990475Y-64090998D02*
X25990475Y-63976712D01*
X25990475Y-63976712D02*
X26028571Y-63824331D01*
X26028571Y-63824331D02*
X26066666Y-63748140D01*
X26066666Y-63748140D02*
X26142856Y-63671950D01*
X26142856Y-63671950D02*
X26257142Y-63633855D01*
X26257142Y-63633855D02*
X26333333Y-63633855D01*
X26333333Y-63633855D02*
X26447618Y-63671950D01*
X26447618Y-63671950D02*
X26485714Y-63710045D01*
X27247618Y-64433855D02*
X26790475Y-64433855D01*
X27019047Y-64433855D02*
X27019047Y-63633855D01*
X27019047Y-63633855D02*
X26942856Y-63748140D01*
X26942856Y-63748140D02*
X26866666Y-63824331D01*
X26866666Y-63824331D02*
X26790475Y-63862426D01*
X27742857Y-63633855D02*
X27819047Y-63633855D01*
X27819047Y-63633855D02*
X27895238Y-63671950D01*
X27895238Y-63671950D02*
X27933333Y-63710045D01*
X27933333Y-63710045D02*
X27971428Y-63786236D01*
X27971428Y-63786236D02*
X28009523Y-63938617D01*
X28009523Y-63938617D02*
X28009523Y-64129093D01*
X28009523Y-64129093D02*
X27971428Y-64281474D01*
X27971428Y-64281474D02*
X27933333Y-64357664D01*
X27933333Y-64357664D02*
X27895238Y-64395760D01*
X27895238Y-64395760D02*
X27819047Y-64433855D01*
X27819047Y-64433855D02*
X27742857Y-64433855D01*
X27742857Y-64433855D02*
X27666666Y-64395760D01*
X27666666Y-64395760D02*
X27628571Y-64357664D01*
X27628571Y-64357664D02*
X27590476Y-64281474D01*
X27590476Y-64281474D02*
X27552380Y-64129093D01*
X27552380Y-64129093D02*
X27552380Y-63938617D01*
X27552380Y-63938617D02*
X27590476Y-63786236D01*
X27590476Y-63786236D02*
X27628571Y-63710045D01*
X27628571Y-63710045D02*
X27666666Y-63671950D01*
X27666666Y-63671950D02*
X27742857Y-63633855D01*
D14*
X12261905Y-66954819D02*
X12261905Y-65954819D01*
X12261905Y-65954819D02*
X12500000Y-65954819D01*
X12500000Y-65954819D02*
X12642857Y-66002438D01*
X12642857Y-66002438D02*
X12738095Y-66097676D01*
X12738095Y-66097676D02*
X12785714Y-66192914D01*
X12785714Y-66192914D02*
X12833333Y-66383390D01*
X12833333Y-66383390D02*
X12833333Y-66526247D01*
X12833333Y-66526247D02*
X12785714Y-66716723D01*
X12785714Y-66716723D02*
X12738095Y-66811961D01*
X12738095Y-66811961D02*
X12642857Y-66907200D01*
X12642857Y-66907200D02*
X12500000Y-66954819D01*
X12500000Y-66954819D02*
X12261905Y-66954819D01*
X13785714Y-66954819D02*
X13214286Y-66954819D01*
X13500000Y-66954819D02*
X13500000Y-65954819D01*
X13500000Y-65954819D02*
X13404762Y-66097676D01*
X13404762Y-66097676D02*
X13309524Y-66192914D01*
X13309524Y-66192914D02*
X13214286Y-66240533D01*
X9228571Y-68762295D02*
X8771428Y-68762295D01*
X9000000Y-68762295D02*
X9000000Y-67962295D01*
X9000000Y-67962295D02*
X8923809Y-68076580D01*
X8923809Y-68076580D02*
X8847619Y-68152771D01*
X8847619Y-68152771D02*
X8771428Y-68190866D01*
D13*
X55766667Y-16563855D02*
X55500000Y-16182902D01*
X55309524Y-16563855D02*
X55309524Y-15763855D01*
X55309524Y-15763855D02*
X55614286Y-15763855D01*
X55614286Y-15763855D02*
X55690476Y-15801950D01*
X55690476Y-15801950D02*
X55728571Y-15840045D01*
X55728571Y-15840045D02*
X55766667Y-15916236D01*
X55766667Y-15916236D02*
X55766667Y-16030521D01*
X55766667Y-16030521D02*
X55728571Y-16106712D01*
X55728571Y-16106712D02*
X55690476Y-16144807D01*
X55690476Y-16144807D02*
X55614286Y-16182902D01*
X55614286Y-16182902D02*
X55309524Y-16182902D01*
X56109524Y-16563855D02*
X56109524Y-15763855D01*
X56109524Y-15763855D02*
X56566667Y-16563855D01*
X56566667Y-16563855D02*
X56566667Y-15763855D01*
X57366666Y-16563855D02*
X56909523Y-16563855D01*
X57138095Y-16563855D02*
X57138095Y-15763855D01*
X57138095Y-15763855D02*
X57061904Y-15878140D01*
X57061904Y-15878140D02*
X56985714Y-15954331D01*
X56985714Y-15954331D02*
X56909523Y-15992426D01*
X57861905Y-15763855D02*
X57938095Y-15763855D01*
X57938095Y-15763855D02*
X58014286Y-15801950D01*
X58014286Y-15801950D02*
X58052381Y-15840045D01*
X58052381Y-15840045D02*
X58090476Y-15916236D01*
X58090476Y-15916236D02*
X58128571Y-16068617D01*
X58128571Y-16068617D02*
X58128571Y-16259093D01*
X58128571Y-16259093D02*
X58090476Y-16411474D01*
X58090476Y-16411474D02*
X58052381Y-16487664D01*
X58052381Y-16487664D02*
X58014286Y-16525760D01*
X58014286Y-16525760D02*
X57938095Y-16563855D01*
X57938095Y-16563855D02*
X57861905Y-16563855D01*
X57861905Y-16563855D02*
X57785714Y-16525760D01*
X57785714Y-16525760D02*
X57747619Y-16487664D01*
X57747619Y-16487664D02*
X57709524Y-16411474D01*
X57709524Y-16411474D02*
X57671428Y-16259093D01*
X57671428Y-16259093D02*
X57671428Y-16068617D01*
X57671428Y-16068617D02*
X57709524Y-15916236D01*
X57709524Y-15916236D02*
X57747619Y-15840045D01*
X57747619Y-15840045D02*
X57785714Y-15801950D01*
X57785714Y-15801950D02*
X57861905Y-15763855D01*
X100866667Y-38607664D02*
X100828571Y-38645760D01*
X100828571Y-38645760D02*
X100714286Y-38683855D01*
X100714286Y-38683855D02*
X100638095Y-38683855D01*
X100638095Y-38683855D02*
X100523809Y-38645760D01*
X100523809Y-38645760D02*
X100447619Y-38569569D01*
X100447619Y-38569569D02*
X100409524Y-38493379D01*
X100409524Y-38493379D02*
X100371428Y-38340998D01*
X100371428Y-38340998D02*
X100371428Y-38226712D01*
X100371428Y-38226712D02*
X100409524Y-38074331D01*
X100409524Y-38074331D02*
X100447619Y-37998140D01*
X100447619Y-37998140D02*
X100523809Y-37921950D01*
X100523809Y-37921950D02*
X100638095Y-37883855D01*
X100638095Y-37883855D02*
X100714286Y-37883855D01*
X100714286Y-37883855D02*
X100828571Y-37921950D01*
X100828571Y-37921950D02*
X100866667Y-37960045D01*
X101552381Y-37883855D02*
X101400000Y-37883855D01*
X101400000Y-37883855D02*
X101323809Y-37921950D01*
X101323809Y-37921950D02*
X101285714Y-37960045D01*
X101285714Y-37960045D02*
X101209524Y-38074331D01*
X101209524Y-38074331D02*
X101171428Y-38226712D01*
X101171428Y-38226712D02*
X101171428Y-38531474D01*
X101171428Y-38531474D02*
X101209524Y-38607664D01*
X101209524Y-38607664D02*
X101247619Y-38645760D01*
X101247619Y-38645760D02*
X101323809Y-38683855D01*
X101323809Y-38683855D02*
X101476190Y-38683855D01*
X101476190Y-38683855D02*
X101552381Y-38645760D01*
X101552381Y-38645760D02*
X101590476Y-38607664D01*
X101590476Y-38607664D02*
X101628571Y-38531474D01*
X101628571Y-38531474D02*
X101628571Y-38340998D01*
X101628571Y-38340998D02*
X101590476Y-38264807D01*
X101590476Y-38264807D02*
X101552381Y-38226712D01*
X101552381Y-38226712D02*
X101476190Y-38188617D01*
X101476190Y-38188617D02*
X101323809Y-38188617D01*
X101323809Y-38188617D02*
X101247619Y-38226712D01*
X101247619Y-38226712D02*
X101209524Y-38264807D01*
X101209524Y-38264807D02*
X101171428Y-38340998D01*
X34962664Y-42673332D02*
X35000760Y-42711428D01*
X35000760Y-42711428D02*
X35038855Y-42825713D01*
X35038855Y-42825713D02*
X35038855Y-42901904D01*
X35038855Y-42901904D02*
X35000760Y-43016190D01*
X35000760Y-43016190D02*
X34924569Y-43092380D01*
X34924569Y-43092380D02*
X34848379Y-43130475D01*
X34848379Y-43130475D02*
X34695998Y-43168571D01*
X34695998Y-43168571D02*
X34581712Y-43168571D01*
X34581712Y-43168571D02*
X34429331Y-43130475D01*
X34429331Y-43130475D02*
X34353140Y-43092380D01*
X34353140Y-43092380D02*
X34276950Y-43016190D01*
X34276950Y-43016190D02*
X34238855Y-42901904D01*
X34238855Y-42901904D02*
X34238855Y-42825713D01*
X34238855Y-42825713D02*
X34276950Y-42711428D01*
X34276950Y-42711428D02*
X34315045Y-42673332D01*
X34315045Y-42368571D02*
X34276950Y-42330475D01*
X34276950Y-42330475D02*
X34238855Y-42254285D01*
X34238855Y-42254285D02*
X34238855Y-42063809D01*
X34238855Y-42063809D02*
X34276950Y-41987618D01*
X34276950Y-41987618D02*
X34315045Y-41949523D01*
X34315045Y-41949523D02*
X34391236Y-41911428D01*
X34391236Y-41911428D02*
X34467426Y-41911428D01*
X34467426Y-41911428D02*
X34581712Y-41949523D01*
X34581712Y-41949523D02*
X35038855Y-42406666D01*
X35038855Y-42406666D02*
X35038855Y-41911428D01*
D14*
X7074819Y-7563333D02*
X7789104Y-7563333D01*
X7789104Y-7563333D02*
X7931961Y-7610952D01*
X7931961Y-7610952D02*
X8027200Y-7706190D01*
X8027200Y-7706190D02*
X8074819Y-7849047D01*
X8074819Y-7849047D02*
X8074819Y-7944285D01*
X8074819Y-6563333D02*
X8074819Y-7134761D01*
X8074819Y-6849047D02*
X7074819Y-6849047D01*
X7074819Y-6849047D02*
X7217676Y-6944285D01*
X7217676Y-6944285D02*
X7312914Y-7039523D01*
X7312914Y-7039523D02*
X7360533Y-7134761D01*
X2166667Y195180D02*
X2166667Y1195180D01*
X2166667Y1195180D02*
X2500000Y480895D01*
X2500000Y480895D02*
X2833333Y1195180D01*
X2833333Y1195180D02*
X2833333Y195180D01*
X3309524Y195180D02*
X3309524Y1195180D01*
X3309524Y718990D02*
X3880952Y718990D01*
X3880952Y195180D02*
X3880952Y1195180D01*
X4880952Y195180D02*
X4309524Y195180D01*
X4595238Y195180D02*
X4595238Y1195180D01*
X4595238Y1195180D02*
X4500000Y1052323D01*
X4500000Y1052323D02*
X4404762Y957085D01*
X4404762Y957085D02*
X4309524Y909466D01*
D13*
X24347619Y-16563855D02*
X24080952Y-16182902D01*
X23890476Y-16563855D02*
X23890476Y-15763855D01*
X23890476Y-15763855D02*
X24195238Y-15763855D01*
X24195238Y-15763855D02*
X24271428Y-15801950D01*
X24271428Y-15801950D02*
X24309523Y-15840045D01*
X24309523Y-15840045D02*
X24347619Y-15916236D01*
X24347619Y-15916236D02*
X24347619Y-16030521D01*
X24347619Y-16030521D02*
X24309523Y-16106712D01*
X24309523Y-16106712D02*
X24271428Y-16144807D01*
X24271428Y-16144807D02*
X24195238Y-16182902D01*
X24195238Y-16182902D02*
X23890476Y-16182902D01*
X24690476Y-16563855D02*
X24690476Y-15763855D01*
X24690476Y-15763855D02*
X25147619Y-16563855D01*
X25147619Y-16563855D02*
X25147619Y-15763855D01*
X25871428Y-16030521D02*
X25871428Y-16563855D01*
X25680952Y-15725760D02*
X25490475Y-16297188D01*
X25490475Y-16297188D02*
X25985714Y-16297188D01*
X19047619Y-16563855D02*
X18780952Y-16182902D01*
X18590476Y-16563855D02*
X18590476Y-15763855D01*
X18590476Y-15763855D02*
X18895238Y-15763855D01*
X18895238Y-15763855D02*
X18971428Y-15801950D01*
X18971428Y-15801950D02*
X19009523Y-15840045D01*
X19009523Y-15840045D02*
X19047619Y-15916236D01*
X19047619Y-15916236D02*
X19047619Y-16030521D01*
X19047619Y-16030521D02*
X19009523Y-16106712D01*
X19009523Y-16106712D02*
X18971428Y-16144807D01*
X18971428Y-16144807D02*
X18895238Y-16182902D01*
X18895238Y-16182902D02*
X18590476Y-16182902D01*
X19390476Y-16563855D02*
X19390476Y-15763855D01*
X19390476Y-15763855D02*
X19847619Y-16563855D01*
X19847619Y-16563855D02*
X19847619Y-15763855D01*
X20152380Y-15763855D02*
X20647618Y-15763855D01*
X20647618Y-15763855D02*
X20380952Y-16068617D01*
X20380952Y-16068617D02*
X20495237Y-16068617D01*
X20495237Y-16068617D02*
X20571428Y-16106712D01*
X20571428Y-16106712D02*
X20609523Y-16144807D01*
X20609523Y-16144807D02*
X20647618Y-16220998D01*
X20647618Y-16220998D02*
X20647618Y-16411474D01*
X20647618Y-16411474D02*
X20609523Y-16487664D01*
X20609523Y-16487664D02*
X20571428Y-16525760D01*
X20571428Y-16525760D02*
X20495237Y-16563855D01*
X20495237Y-16563855D02*
X20266666Y-16563855D01*
X20266666Y-16563855D02*
X20190475Y-16525760D01*
X20190475Y-16525760D02*
X20152380Y-16487664D01*
X99933855Y-36133332D02*
X99552902Y-36399999D01*
X99933855Y-36590475D02*
X99133855Y-36590475D01*
X99133855Y-36590475D02*
X99133855Y-36285713D01*
X99133855Y-36285713D02*
X99171950Y-36209523D01*
X99171950Y-36209523D02*
X99210045Y-36171428D01*
X99210045Y-36171428D02*
X99286236Y-36133332D01*
X99286236Y-36133332D02*
X99400521Y-36133332D01*
X99400521Y-36133332D02*
X99476712Y-36171428D01*
X99476712Y-36171428D02*
X99514807Y-36209523D01*
X99514807Y-36209523D02*
X99552902Y-36285713D01*
X99552902Y-36285713D02*
X99552902Y-36590475D01*
X99210045Y-35828571D02*
X99171950Y-35790475D01*
X99171950Y-35790475D02*
X99133855Y-35714285D01*
X99133855Y-35714285D02*
X99133855Y-35523809D01*
X99133855Y-35523809D02*
X99171950Y-35447618D01*
X99171950Y-35447618D02*
X99210045Y-35409523D01*
X99210045Y-35409523D02*
X99286236Y-35371428D01*
X99286236Y-35371428D02*
X99362426Y-35371428D01*
X99362426Y-35371428D02*
X99476712Y-35409523D01*
X99476712Y-35409523D02*
X99933855Y-35866666D01*
X99933855Y-35866666D02*
X99933855Y-35371428D01*
X58962664Y-42673332D02*
X59000760Y-42711428D01*
X59000760Y-42711428D02*
X59038855Y-42825713D01*
X59038855Y-42825713D02*
X59038855Y-42901904D01*
X59038855Y-42901904D02*
X59000760Y-43016190D01*
X59000760Y-43016190D02*
X58924569Y-43092380D01*
X58924569Y-43092380D02*
X58848379Y-43130475D01*
X58848379Y-43130475D02*
X58695998Y-43168571D01*
X58695998Y-43168571D02*
X58581712Y-43168571D01*
X58581712Y-43168571D02*
X58429331Y-43130475D01*
X58429331Y-43130475D02*
X58353140Y-43092380D01*
X58353140Y-43092380D02*
X58276950Y-43016190D01*
X58276950Y-43016190D02*
X58238855Y-42901904D01*
X58238855Y-42901904D02*
X58238855Y-42825713D01*
X58238855Y-42825713D02*
X58276950Y-42711428D01*
X58276950Y-42711428D02*
X58315045Y-42673332D01*
X58238855Y-42406666D02*
X58238855Y-41911428D01*
X58238855Y-41911428D02*
X58543617Y-42178094D01*
X58543617Y-42178094D02*
X58543617Y-42063809D01*
X58543617Y-42063809D02*
X58581712Y-41987618D01*
X58581712Y-41987618D02*
X58619807Y-41949523D01*
X58619807Y-41949523D02*
X58695998Y-41911428D01*
X58695998Y-41911428D02*
X58886474Y-41911428D01*
X58886474Y-41911428D02*
X58962664Y-41949523D01*
X58962664Y-41949523D02*
X59000760Y-41987618D01*
X59000760Y-41987618D02*
X59038855Y-42063809D01*
X59038855Y-42063809D02*
X59038855Y-42292380D01*
X59038855Y-42292380D02*
X59000760Y-42368571D01*
X59000760Y-42368571D02*
X58962664Y-42406666D01*
X82962664Y-42673332D02*
X83000760Y-42711428D01*
X83000760Y-42711428D02*
X83038855Y-42825713D01*
X83038855Y-42825713D02*
X83038855Y-42901904D01*
X83038855Y-42901904D02*
X83000760Y-43016190D01*
X83000760Y-43016190D02*
X82924569Y-43092380D01*
X82924569Y-43092380D02*
X82848379Y-43130475D01*
X82848379Y-43130475D02*
X82695998Y-43168571D01*
X82695998Y-43168571D02*
X82581712Y-43168571D01*
X82581712Y-43168571D02*
X82429331Y-43130475D01*
X82429331Y-43130475D02*
X82353140Y-43092380D01*
X82353140Y-43092380D02*
X82276950Y-43016190D01*
X82276950Y-43016190D02*
X82238855Y-42901904D01*
X82238855Y-42901904D02*
X82238855Y-42825713D01*
X82238855Y-42825713D02*
X82276950Y-42711428D01*
X82276950Y-42711428D02*
X82315045Y-42673332D01*
X82505521Y-41987618D02*
X83038855Y-41987618D01*
X82200760Y-42178094D02*
X82772188Y-42368571D01*
X82772188Y-42368571D02*
X82772188Y-41873332D01*
D14*
X130166667Y-82804819D02*
X130166667Y-81804819D01*
X130166667Y-81804819D02*
X130500000Y-82519104D01*
X130500000Y-82519104D02*
X130833333Y-81804819D01*
X130833333Y-81804819D02*
X130833333Y-82804819D01*
X131309524Y-82804819D02*
X131309524Y-81804819D01*
X131309524Y-82281009D02*
X131880952Y-82281009D01*
X131880952Y-82804819D02*
X131880952Y-81804819D01*
X132785714Y-82138152D02*
X132785714Y-82804819D01*
X132547619Y-81757200D02*
X132309524Y-82471485D01*
X132309524Y-82471485D02*
X132928571Y-82471485D01*
D13*
X100866667Y-54607664D02*
X100828571Y-54645760D01*
X100828571Y-54645760D02*
X100714286Y-54683855D01*
X100714286Y-54683855D02*
X100638095Y-54683855D01*
X100638095Y-54683855D02*
X100523809Y-54645760D01*
X100523809Y-54645760D02*
X100447619Y-54569569D01*
X100447619Y-54569569D02*
X100409524Y-54493379D01*
X100409524Y-54493379D02*
X100371428Y-54340998D01*
X100371428Y-54340998D02*
X100371428Y-54226712D01*
X100371428Y-54226712D02*
X100409524Y-54074331D01*
X100409524Y-54074331D02*
X100447619Y-53998140D01*
X100447619Y-53998140D02*
X100523809Y-53921950D01*
X100523809Y-53921950D02*
X100638095Y-53883855D01*
X100638095Y-53883855D02*
X100714286Y-53883855D01*
X100714286Y-53883855D02*
X100828571Y-53921950D01*
X100828571Y-53921950D02*
X100866667Y-53960045D01*
X101133333Y-53883855D02*
X101666667Y-53883855D01*
X101666667Y-53883855D02*
X101323809Y-54683855D01*
X111485714Y-78357664D02*
X111447618Y-78395760D01*
X111447618Y-78395760D02*
X111333333Y-78433855D01*
X111333333Y-78433855D02*
X111257142Y-78433855D01*
X111257142Y-78433855D02*
X111142856Y-78395760D01*
X111142856Y-78395760D02*
X111066666Y-78319569D01*
X111066666Y-78319569D02*
X111028571Y-78243379D01*
X111028571Y-78243379D02*
X110990475Y-78090998D01*
X110990475Y-78090998D02*
X110990475Y-77976712D01*
X110990475Y-77976712D02*
X111028571Y-77824331D01*
X111028571Y-77824331D02*
X111066666Y-77748140D01*
X111066666Y-77748140D02*
X111142856Y-77671950D01*
X111142856Y-77671950D02*
X111257142Y-77633855D01*
X111257142Y-77633855D02*
X111333333Y-77633855D01*
X111333333Y-77633855D02*
X111447618Y-77671950D01*
X111447618Y-77671950D02*
X111485714Y-77710045D01*
X112247618Y-78433855D02*
X111790475Y-78433855D01*
X112019047Y-78433855D02*
X112019047Y-77633855D01*
X112019047Y-77633855D02*
X111942856Y-77748140D01*
X111942856Y-77748140D02*
X111866666Y-77824331D01*
X111866666Y-77824331D02*
X111790475Y-77862426D01*
X112514285Y-77633855D02*
X113047619Y-77633855D01*
X113047619Y-77633855D02*
X112704761Y-78433855D01*
X90066667Y-55563855D02*
X89800000Y-55182902D01*
X89609524Y-55563855D02*
X89609524Y-54763855D01*
X89609524Y-54763855D02*
X89914286Y-54763855D01*
X89914286Y-54763855D02*
X89990476Y-54801950D01*
X89990476Y-54801950D02*
X90028571Y-54840045D01*
X90028571Y-54840045D02*
X90066667Y-54916236D01*
X90066667Y-54916236D02*
X90066667Y-55030521D01*
X90066667Y-55030521D02*
X90028571Y-55106712D01*
X90028571Y-55106712D02*
X89990476Y-55144807D01*
X89990476Y-55144807D02*
X89914286Y-55182902D01*
X89914286Y-55182902D02*
X89609524Y-55182902D01*
X90409524Y-55563855D02*
X90409524Y-54763855D01*
X90409524Y-54763855D02*
X90866667Y-55563855D01*
X90866667Y-55563855D02*
X90866667Y-54763855D01*
X91666666Y-55563855D02*
X91209523Y-55563855D01*
X91438095Y-55563855D02*
X91438095Y-54763855D01*
X91438095Y-54763855D02*
X91361904Y-54878140D01*
X91361904Y-54878140D02*
X91285714Y-54954331D01*
X91285714Y-54954331D02*
X91209523Y-54992426D01*
X92390476Y-54763855D02*
X92009524Y-54763855D01*
X92009524Y-54763855D02*
X91971428Y-55144807D01*
X91971428Y-55144807D02*
X92009524Y-55106712D01*
X92009524Y-55106712D02*
X92085714Y-55068617D01*
X92085714Y-55068617D02*
X92276190Y-55068617D01*
X92276190Y-55068617D02*
X92352381Y-55106712D01*
X92352381Y-55106712D02*
X92390476Y-55144807D01*
X92390476Y-55144807D02*
X92428571Y-55220998D01*
X92428571Y-55220998D02*
X92428571Y-55411474D01*
X92428571Y-55411474D02*
X92390476Y-55487664D01*
X92390476Y-55487664D02*
X92352381Y-55525760D01*
X92352381Y-55525760D02*
X92276190Y-55563855D01*
X92276190Y-55563855D02*
X92085714Y-55563855D01*
X92085714Y-55563855D02*
X92009524Y-55525760D01*
X92009524Y-55525760D02*
X91971428Y-55487664D01*
D14*
X26261905Y-66954819D02*
X26261905Y-65954819D01*
X26261905Y-65954819D02*
X26500000Y-65954819D01*
X26500000Y-65954819D02*
X26642857Y-66002438D01*
X26642857Y-66002438D02*
X26738095Y-66097676D01*
X26738095Y-66097676D02*
X26785714Y-66192914D01*
X26785714Y-66192914D02*
X26833333Y-66383390D01*
X26833333Y-66383390D02*
X26833333Y-66526247D01*
X26833333Y-66526247D02*
X26785714Y-66716723D01*
X26785714Y-66716723D02*
X26738095Y-66811961D01*
X26738095Y-66811961D02*
X26642857Y-66907200D01*
X26642857Y-66907200D02*
X26500000Y-66954819D01*
X26500000Y-66954819D02*
X26261905Y-66954819D01*
X27166667Y-65954819D02*
X27785714Y-65954819D01*
X27785714Y-65954819D02*
X27452381Y-66335771D01*
X27452381Y-66335771D02*
X27595238Y-66335771D01*
X27595238Y-66335771D02*
X27690476Y-66383390D01*
X27690476Y-66383390D02*
X27738095Y-66431009D01*
X27738095Y-66431009D02*
X27785714Y-66526247D01*
X27785714Y-66526247D02*
X27785714Y-66764342D01*
X27785714Y-66764342D02*
X27738095Y-66859580D01*
X27738095Y-66859580D02*
X27690476Y-66907200D01*
X27690476Y-66907200D02*
X27595238Y-66954819D01*
X27595238Y-66954819D02*
X27309524Y-66954819D01*
X27309524Y-66954819D02*
X27214286Y-66907200D01*
X27214286Y-66907200D02*
X27166667Y-66859580D01*
X23228571Y-68762295D02*
X22771428Y-68762295D01*
X23000000Y-68762295D02*
X23000000Y-67962295D01*
X23000000Y-67962295D02*
X22923809Y-68076580D01*
X22923809Y-68076580D02*
X22847619Y-68152771D01*
X22847619Y-68152771D02*
X22771428Y-68190866D01*
X87238095Y-29554819D02*
X87238095Y-30364342D01*
X87238095Y-30364342D02*
X87285714Y-30459580D01*
X87285714Y-30459580D02*
X87333333Y-30507200D01*
X87333333Y-30507200D02*
X87428571Y-30554819D01*
X87428571Y-30554819D02*
X87619047Y-30554819D01*
X87619047Y-30554819D02*
X87714285Y-30507200D01*
X87714285Y-30507200D02*
X87761904Y-30459580D01*
X87761904Y-30459580D02*
X87809523Y-30364342D01*
X87809523Y-30364342D02*
X87809523Y-29554819D01*
X88714285Y-29888152D02*
X88714285Y-30554819D01*
X88476190Y-29507200D02*
X88238095Y-30221485D01*
X88238095Y-30221485D02*
X88857142Y-30221485D01*
X102666666Y-41074819D02*
X102666666Y-41789104D01*
X102666666Y-41789104D02*
X102619047Y-41931961D01*
X102619047Y-41931961D02*
X102523809Y-42027200D01*
X102523809Y-42027200D02*
X102380952Y-42074819D01*
X102380952Y-42074819D02*
X102285714Y-42074819D01*
X103619047Y-41074819D02*
X103142857Y-41074819D01*
X103142857Y-41074819D02*
X103095238Y-41551009D01*
X103095238Y-41551009D02*
X103142857Y-41503390D01*
X103142857Y-41503390D02*
X103238095Y-41455771D01*
X103238095Y-41455771D02*
X103476190Y-41455771D01*
X103476190Y-41455771D02*
X103571428Y-41503390D01*
X103571428Y-41503390D02*
X103619047Y-41551009D01*
X103619047Y-41551009D02*
X103666666Y-41646247D01*
X103666666Y-41646247D02*
X103666666Y-41884342D01*
X103666666Y-41884342D02*
X103619047Y-41979580D01*
X103619047Y-41979580D02*
X103571428Y-42027200D01*
X103571428Y-42027200D02*
X103476190Y-42074819D01*
X103476190Y-42074819D02*
X103238095Y-42074819D01*
X103238095Y-42074819D02*
X103142857Y-42027200D01*
X103142857Y-42027200D02*
X103095238Y-41979580D01*
D13*
X13747619Y-16563855D02*
X13480952Y-16182902D01*
X13290476Y-16563855D02*
X13290476Y-15763855D01*
X13290476Y-15763855D02*
X13595238Y-15763855D01*
X13595238Y-15763855D02*
X13671428Y-15801950D01*
X13671428Y-15801950D02*
X13709523Y-15840045D01*
X13709523Y-15840045D02*
X13747619Y-15916236D01*
X13747619Y-15916236D02*
X13747619Y-16030521D01*
X13747619Y-16030521D02*
X13709523Y-16106712D01*
X13709523Y-16106712D02*
X13671428Y-16144807D01*
X13671428Y-16144807D02*
X13595238Y-16182902D01*
X13595238Y-16182902D02*
X13290476Y-16182902D01*
X14090476Y-16563855D02*
X14090476Y-15763855D01*
X14090476Y-15763855D02*
X14547619Y-16563855D01*
X14547619Y-16563855D02*
X14547619Y-15763855D01*
X14890475Y-15840045D02*
X14928571Y-15801950D01*
X14928571Y-15801950D02*
X15004761Y-15763855D01*
X15004761Y-15763855D02*
X15195237Y-15763855D01*
X15195237Y-15763855D02*
X15271428Y-15801950D01*
X15271428Y-15801950D02*
X15309523Y-15840045D01*
X15309523Y-15840045D02*
X15347618Y-15916236D01*
X15347618Y-15916236D02*
X15347618Y-15992426D01*
X15347618Y-15992426D02*
X15309523Y-16106712D01*
X15309523Y-16106712D02*
X14852380Y-16563855D01*
X14852380Y-16563855D02*
X15347618Y-16563855D01*
D14*
X44261905Y-66954819D02*
X44261905Y-65954819D01*
X44261905Y-65954819D02*
X44500000Y-65954819D01*
X44500000Y-65954819D02*
X44642857Y-66002438D01*
X44642857Y-66002438D02*
X44738095Y-66097676D01*
X44738095Y-66097676D02*
X44785714Y-66192914D01*
X44785714Y-66192914D02*
X44833333Y-66383390D01*
X44833333Y-66383390D02*
X44833333Y-66526247D01*
X44833333Y-66526247D02*
X44785714Y-66716723D01*
X44785714Y-66716723D02*
X44738095Y-66811961D01*
X44738095Y-66811961D02*
X44642857Y-66907200D01*
X44642857Y-66907200D02*
X44500000Y-66954819D01*
X44500000Y-66954819D02*
X44261905Y-66954819D01*
X45690476Y-66288152D02*
X45690476Y-66954819D01*
X45452381Y-65907200D02*
X45214286Y-66621485D01*
X45214286Y-66621485D02*
X45833333Y-66621485D01*
X41228571Y-68762295D02*
X40771428Y-68762295D01*
X41000000Y-68762295D02*
X41000000Y-67962295D01*
X41000000Y-67962295D02*
X40923809Y-68076580D01*
X40923809Y-68076580D02*
X40847619Y-68152771D01*
X40847619Y-68152771D02*
X40771428Y-68190866D01*
X15238095Y-29554819D02*
X15238095Y-30364342D01*
X15238095Y-30364342D02*
X15285714Y-30459580D01*
X15285714Y-30459580D02*
X15333333Y-30507200D01*
X15333333Y-30507200D02*
X15428571Y-30554819D01*
X15428571Y-30554819D02*
X15619047Y-30554819D01*
X15619047Y-30554819D02*
X15714285Y-30507200D01*
X15714285Y-30507200D02*
X15761904Y-30459580D01*
X15761904Y-30459580D02*
X15809523Y-30364342D01*
X15809523Y-30364342D02*
X15809523Y-29554819D01*
X16809523Y-30554819D02*
X16238095Y-30554819D01*
X16523809Y-30554819D02*
X16523809Y-29554819D01*
X16523809Y-29554819D02*
X16428571Y-29697676D01*
X16428571Y-29697676D02*
X16333333Y-29792914D01*
X16333333Y-29792914D02*
X16238095Y-29840533D01*
X83666666Y-82354819D02*
X83666666Y-83069104D01*
X83666666Y-83069104D02*
X83619047Y-83211961D01*
X83619047Y-83211961D02*
X83523809Y-83307200D01*
X83523809Y-83307200D02*
X83380952Y-83354819D01*
X83380952Y-83354819D02*
X83285714Y-83354819D01*
X84571428Y-82688152D02*
X84571428Y-83354819D01*
X84333333Y-82307200D02*
X84095238Y-83021485D01*
X84095238Y-83021485D02*
X84714285Y-83021485D01*
X19261905Y-66954819D02*
X19261905Y-65954819D01*
X19261905Y-65954819D02*
X19500000Y-65954819D01*
X19500000Y-65954819D02*
X19642857Y-66002438D01*
X19642857Y-66002438D02*
X19738095Y-66097676D01*
X19738095Y-66097676D02*
X19785714Y-66192914D01*
X19785714Y-66192914D02*
X19833333Y-66383390D01*
X19833333Y-66383390D02*
X19833333Y-66526247D01*
X19833333Y-66526247D02*
X19785714Y-66716723D01*
X19785714Y-66716723D02*
X19738095Y-66811961D01*
X19738095Y-66811961D02*
X19642857Y-66907200D01*
X19642857Y-66907200D02*
X19500000Y-66954819D01*
X19500000Y-66954819D02*
X19261905Y-66954819D01*
X20214286Y-66050057D02*
X20261905Y-66002438D01*
X20261905Y-66002438D02*
X20357143Y-65954819D01*
X20357143Y-65954819D02*
X20595238Y-65954819D01*
X20595238Y-65954819D02*
X20690476Y-66002438D01*
X20690476Y-66002438D02*
X20738095Y-66050057D01*
X20738095Y-66050057D02*
X20785714Y-66145295D01*
X20785714Y-66145295D02*
X20785714Y-66240533D01*
X20785714Y-66240533D02*
X20738095Y-66383390D01*
X20738095Y-66383390D02*
X20166667Y-66954819D01*
X20166667Y-66954819D02*
X20785714Y-66954819D01*
X16228571Y-68762295D02*
X15771428Y-68762295D01*
X16000000Y-68762295D02*
X16000000Y-67962295D01*
X16000000Y-67962295D02*
X15923809Y-68076580D01*
X15923809Y-68076580D02*
X15847619Y-68152771D01*
X15847619Y-68152771D02*
X15771428Y-68190866D01*
X129036660Y-53434104D02*
X129512850Y-53434104D01*
X128941422Y-53719819D02*
X129274755Y-52719819D01*
X129274755Y-52719819D02*
X129608088Y-53719819D01*
X130465231Y-53719819D02*
X129893803Y-53719819D01*
X130179517Y-53719819D02*
X130179517Y-52719819D01*
X130179517Y-52719819D02*
X130084279Y-52862676D01*
X130084279Y-52862676D02*
X129989041Y-52957914D01*
X129989041Y-52957914D02*
X129893803Y-53005533D01*
D13*
X101933855Y-36133332D02*
X101552902Y-36399999D01*
X101933855Y-36590475D02*
X101133855Y-36590475D01*
X101133855Y-36590475D02*
X101133855Y-36285713D01*
X101133855Y-36285713D02*
X101171950Y-36209523D01*
X101171950Y-36209523D02*
X101210045Y-36171428D01*
X101210045Y-36171428D02*
X101286236Y-36133332D01*
X101286236Y-36133332D02*
X101400521Y-36133332D01*
X101400521Y-36133332D02*
X101476712Y-36171428D01*
X101476712Y-36171428D02*
X101514807Y-36209523D01*
X101514807Y-36209523D02*
X101552902Y-36285713D01*
X101552902Y-36285713D02*
X101552902Y-36590475D01*
X101133855Y-35866666D02*
X101133855Y-35371428D01*
X101133855Y-35371428D02*
X101438617Y-35638094D01*
X101438617Y-35638094D02*
X101438617Y-35523809D01*
X101438617Y-35523809D02*
X101476712Y-35447618D01*
X101476712Y-35447618D02*
X101514807Y-35409523D01*
X101514807Y-35409523D02*
X101590998Y-35371428D01*
X101590998Y-35371428D02*
X101781474Y-35371428D01*
X101781474Y-35371428D02*
X101857664Y-35409523D01*
X101857664Y-35409523D02*
X101895760Y-35447618D01*
X101895760Y-35447618D02*
X101933855Y-35523809D01*
X101933855Y-35523809D02*
X101933855Y-35752380D01*
X101933855Y-35752380D02*
X101895760Y-35828571D01*
X101895760Y-35828571D02*
X101857664Y-35866666D01*
D14*
X123919047Y-66731009D02*
X124061904Y-66778628D01*
X124061904Y-66778628D02*
X124109523Y-66826247D01*
X124109523Y-66826247D02*
X124157142Y-66921485D01*
X124157142Y-66921485D02*
X124157142Y-67064342D01*
X124157142Y-67064342D02*
X124109523Y-67159580D01*
X124109523Y-67159580D02*
X124061904Y-67207200D01*
X124061904Y-67207200D02*
X123966666Y-67254819D01*
X123966666Y-67254819D02*
X123585714Y-67254819D01*
X123585714Y-67254819D02*
X123585714Y-66254819D01*
X123585714Y-66254819D02*
X123919047Y-66254819D01*
X123919047Y-66254819D02*
X124014285Y-66302438D01*
X124014285Y-66302438D02*
X124061904Y-66350057D01*
X124061904Y-66350057D02*
X124109523Y-66445295D01*
X124109523Y-66445295D02*
X124109523Y-66540533D01*
X124109523Y-66540533D02*
X124061904Y-66635771D01*
X124061904Y-66635771D02*
X124014285Y-66683390D01*
X124014285Y-66683390D02*
X123919047Y-66731009D01*
X123919047Y-66731009D02*
X123585714Y-66731009D01*
X124490476Y-66254819D02*
X125157142Y-66254819D01*
X125157142Y-66254819D02*
X124490476Y-67254819D01*
X124490476Y-67254819D02*
X125157142Y-67254819D01*
X126061904Y-67254819D02*
X125490476Y-67254819D01*
X125776190Y-67254819D02*
X125776190Y-66254819D01*
X125776190Y-66254819D02*
X125680952Y-66397676D01*
X125680952Y-66397676D02*
X125585714Y-66492914D01*
X125585714Y-66492914D02*
X125490476Y-66540533D01*
X120609048Y-71533866D02*
X121370953Y-71533866D01*
X120990000Y-71914819D02*
X120990000Y-71152914D01*
D13*
X16066667Y-55563855D02*
X15800000Y-55182902D01*
X15609524Y-55563855D02*
X15609524Y-54763855D01*
X15609524Y-54763855D02*
X15914286Y-54763855D01*
X15914286Y-54763855D02*
X15990476Y-54801950D01*
X15990476Y-54801950D02*
X16028571Y-54840045D01*
X16028571Y-54840045D02*
X16066667Y-54916236D01*
X16066667Y-54916236D02*
X16066667Y-55030521D01*
X16066667Y-55030521D02*
X16028571Y-55106712D01*
X16028571Y-55106712D02*
X15990476Y-55144807D01*
X15990476Y-55144807D02*
X15914286Y-55182902D01*
X15914286Y-55182902D02*
X15609524Y-55182902D01*
X16409524Y-55563855D02*
X16409524Y-54763855D01*
X16409524Y-54763855D02*
X16866667Y-55563855D01*
X16866667Y-55563855D02*
X16866667Y-54763855D01*
X17666666Y-55563855D02*
X17209523Y-55563855D01*
X17438095Y-55563855D02*
X17438095Y-54763855D01*
X17438095Y-54763855D02*
X17361904Y-54878140D01*
X17361904Y-54878140D02*
X17285714Y-54954331D01*
X17285714Y-54954331D02*
X17209523Y-54992426D01*
X18428571Y-55563855D02*
X17971428Y-55563855D01*
X18200000Y-55563855D02*
X18200000Y-54763855D01*
X18200000Y-54763855D02*
X18123809Y-54878140D01*
X18123809Y-54878140D02*
X18047619Y-54954331D01*
X18047619Y-54954331D02*
X17971428Y-54992426D01*
X108366667Y-64933855D02*
X108100000Y-64552902D01*
X107909524Y-64933855D02*
X107909524Y-64133855D01*
X107909524Y-64133855D02*
X108214286Y-64133855D01*
X108214286Y-64133855D02*
X108290476Y-64171950D01*
X108290476Y-64171950D02*
X108328571Y-64210045D01*
X108328571Y-64210045D02*
X108366667Y-64286236D01*
X108366667Y-64286236D02*
X108366667Y-64400521D01*
X108366667Y-64400521D02*
X108328571Y-64476712D01*
X108328571Y-64476712D02*
X108290476Y-64514807D01*
X108290476Y-64514807D02*
X108214286Y-64552902D01*
X108214286Y-64552902D02*
X107909524Y-64552902D01*
X109052381Y-64400521D02*
X109052381Y-64933855D01*
X108861905Y-64095760D02*
X108671428Y-64667188D01*
X108671428Y-64667188D02*
X109166667Y-64667188D01*
D14*
X100238095Y-57054819D02*
X100238095Y-57864342D01*
X100238095Y-57864342D02*
X100285714Y-57959580D01*
X100285714Y-57959580D02*
X100333333Y-58007200D01*
X100333333Y-58007200D02*
X100428571Y-58054819D01*
X100428571Y-58054819D02*
X100619047Y-58054819D01*
X100619047Y-58054819D02*
X100714285Y-58007200D01*
X100714285Y-58007200D02*
X100761904Y-57959580D01*
X100761904Y-57959580D02*
X100809523Y-57864342D01*
X100809523Y-57864342D02*
X100809523Y-57054819D01*
X101761904Y-57054819D02*
X101285714Y-57054819D01*
X101285714Y-57054819D02*
X101238095Y-57531009D01*
X101238095Y-57531009D02*
X101285714Y-57483390D01*
X101285714Y-57483390D02*
X101380952Y-57435771D01*
X101380952Y-57435771D02*
X101619047Y-57435771D01*
X101619047Y-57435771D02*
X101714285Y-57483390D01*
X101714285Y-57483390D02*
X101761904Y-57531009D01*
X101761904Y-57531009D02*
X101809523Y-57626247D01*
X101809523Y-57626247D02*
X101809523Y-57864342D01*
X101809523Y-57864342D02*
X101761904Y-57959580D01*
X101761904Y-57959580D02*
X101714285Y-58007200D01*
X101714285Y-58007200D02*
X101619047Y-58054819D01*
X101619047Y-58054819D02*
X101380952Y-58054819D01*
X101380952Y-58054819D02*
X101285714Y-58007200D01*
X101285714Y-58007200D02*
X101238095Y-57959580D01*
X39238095Y-29554819D02*
X39238095Y-30364342D01*
X39238095Y-30364342D02*
X39285714Y-30459580D01*
X39285714Y-30459580D02*
X39333333Y-30507200D01*
X39333333Y-30507200D02*
X39428571Y-30554819D01*
X39428571Y-30554819D02*
X39619047Y-30554819D01*
X39619047Y-30554819D02*
X39714285Y-30507200D01*
X39714285Y-30507200D02*
X39761904Y-30459580D01*
X39761904Y-30459580D02*
X39809523Y-30364342D01*
X39809523Y-30364342D02*
X39809523Y-29554819D01*
X40238095Y-29650057D02*
X40285714Y-29602438D01*
X40285714Y-29602438D02*
X40380952Y-29554819D01*
X40380952Y-29554819D02*
X40619047Y-29554819D01*
X40619047Y-29554819D02*
X40714285Y-29602438D01*
X40714285Y-29602438D02*
X40761904Y-29650057D01*
X40761904Y-29650057D02*
X40809523Y-29745295D01*
X40809523Y-29745295D02*
X40809523Y-29840533D01*
X40809523Y-29840533D02*
X40761904Y-29983390D01*
X40761904Y-29983390D02*
X40190476Y-30554819D01*
X40190476Y-30554819D02*
X40809523Y-30554819D01*
D13*
X29066667Y-55563855D02*
X28800000Y-55182902D01*
X28609524Y-55563855D02*
X28609524Y-54763855D01*
X28609524Y-54763855D02*
X28914286Y-54763855D01*
X28914286Y-54763855D02*
X28990476Y-54801950D01*
X28990476Y-54801950D02*
X29028571Y-54840045D01*
X29028571Y-54840045D02*
X29066667Y-54916236D01*
X29066667Y-54916236D02*
X29066667Y-55030521D01*
X29066667Y-55030521D02*
X29028571Y-55106712D01*
X29028571Y-55106712D02*
X28990476Y-55144807D01*
X28990476Y-55144807D02*
X28914286Y-55182902D01*
X28914286Y-55182902D02*
X28609524Y-55182902D01*
X29409524Y-55563855D02*
X29409524Y-54763855D01*
X29409524Y-54763855D02*
X29866667Y-55563855D01*
X29866667Y-55563855D02*
X29866667Y-54763855D01*
X30666666Y-55563855D02*
X30209523Y-55563855D01*
X30438095Y-55563855D02*
X30438095Y-54763855D01*
X30438095Y-54763855D02*
X30361904Y-54878140D01*
X30361904Y-54878140D02*
X30285714Y-54954331D01*
X30285714Y-54954331D02*
X30209523Y-54992426D01*
X30971428Y-54840045D02*
X31009524Y-54801950D01*
X31009524Y-54801950D02*
X31085714Y-54763855D01*
X31085714Y-54763855D02*
X31276190Y-54763855D01*
X31276190Y-54763855D02*
X31352381Y-54801950D01*
X31352381Y-54801950D02*
X31390476Y-54840045D01*
X31390476Y-54840045D02*
X31428571Y-54916236D01*
X31428571Y-54916236D02*
X31428571Y-54992426D01*
X31428571Y-54992426D02*
X31390476Y-55106712D01*
X31390476Y-55106712D02*
X30933333Y-55563855D01*
X30933333Y-55563855D02*
X31428571Y-55563855D01*
D14*
X51261905Y-66954819D02*
X51261905Y-65954819D01*
X51261905Y-65954819D02*
X51500000Y-65954819D01*
X51500000Y-65954819D02*
X51642857Y-66002438D01*
X51642857Y-66002438D02*
X51738095Y-66097676D01*
X51738095Y-66097676D02*
X51785714Y-66192914D01*
X51785714Y-66192914D02*
X51833333Y-66383390D01*
X51833333Y-66383390D02*
X51833333Y-66526247D01*
X51833333Y-66526247D02*
X51785714Y-66716723D01*
X51785714Y-66716723D02*
X51738095Y-66811961D01*
X51738095Y-66811961D02*
X51642857Y-66907200D01*
X51642857Y-66907200D02*
X51500000Y-66954819D01*
X51500000Y-66954819D02*
X51261905Y-66954819D01*
X52738095Y-65954819D02*
X52261905Y-65954819D01*
X52261905Y-65954819D02*
X52214286Y-66431009D01*
X52214286Y-66431009D02*
X52261905Y-66383390D01*
X52261905Y-66383390D02*
X52357143Y-66335771D01*
X52357143Y-66335771D02*
X52595238Y-66335771D01*
X52595238Y-66335771D02*
X52690476Y-66383390D01*
X52690476Y-66383390D02*
X52738095Y-66431009D01*
X52738095Y-66431009D02*
X52785714Y-66526247D01*
X52785714Y-66526247D02*
X52785714Y-66764342D01*
X52785714Y-66764342D02*
X52738095Y-66859580D01*
X52738095Y-66859580D02*
X52690476Y-66907200D01*
X52690476Y-66907200D02*
X52595238Y-66954819D01*
X52595238Y-66954819D02*
X52357143Y-66954819D01*
X52357143Y-66954819D02*
X52261905Y-66907200D01*
X52261905Y-66907200D02*
X52214286Y-66859580D01*
X48228571Y-68762295D02*
X47771428Y-68762295D01*
X48000000Y-68762295D02*
X48000000Y-67962295D01*
X48000000Y-67962295D02*
X47923809Y-68076580D01*
X47923809Y-68076580D02*
X47847619Y-68152771D01*
X47847619Y-68152771D02*
X47771428Y-68190866D01*
D13*
X87500000Y-67250000D02*
X87500000Y-72750000D01*
X87500000Y-67250000D02*
X94500000Y-67250000D01*
X87500000Y-72750000D02*
X94050000Y-72750000D01*
X88300000Y-70900000D02*
X88300000Y-69100000D01*
X93700000Y-70900000D02*
X93700000Y-69100000D01*
X94050000Y-72750000D02*
X94500000Y-72300000D01*
X94500000Y-72300000D02*
X94500000Y-67250000D01*
X78500000Y-56320000D02*
X77500000Y-56320000D01*
X78500000Y-59680000D02*
X77500000Y-59680000D01*
X46600000Y-17320000D02*
X45600000Y-17320000D01*
X46600000Y-20680000D02*
X45600000Y-20680000D01*
X9500000Y-17320000D02*
X8500000Y-17320000D01*
X9500000Y-20680000D02*
X8500000Y-20680000D01*
X83859420Y-64990000D02*
X84140580Y-64990000D01*
X83859420Y-66010000D02*
X84140580Y-66010000D01*
X19859420Y-64990000D02*
X20140580Y-64990000D01*
X19859420Y-66010000D02*
X20140580Y-66010000D01*
X110140000Y-70000000D02*
X110140000Y-72000000D01*
X110140000Y-70000000D02*
X114150000Y-70000000D01*
X110140000Y-72000000D02*
X114150000Y-72000000D01*
X100859420Y-63490000D02*
X101140580Y-63490000D01*
X100859420Y-64510000D02*
X101140580Y-64510000D01*
X112500000Y-65440000D02*
X111850000Y-65440000D01*
X112500000Y-65440000D02*
X113150000Y-65440000D01*
X112500000Y-68560000D02*
X111850000Y-68560000D01*
X112500000Y-68560000D02*
X113150000Y-68560000D01*
X111337500Y-65490000D02*
X111097500Y-65160000D01*
X111577500Y-65160000D01*
X111337500Y-65490000D01*
G36*
X111337500Y-65490000D02*
G01*
X111097500Y-65160000D01*
X111577500Y-65160000D01*
X111337500Y-65490000D01*
G37*
X90859420Y-64990000D02*
X91140580Y-64990000D01*
X90859420Y-66010000D02*
X91140580Y-66010000D01*
X44859420Y-64990000D02*
X45140580Y-64990000D01*
X44859420Y-66010000D02*
X45140580Y-66010000D01*
X48500000Y-56320000D02*
X47500000Y-56320000D01*
X48500000Y-59680000D02*
X47500000Y-59680000D01*
X60140000Y-30940000D02*
X60140000Y-31185000D01*
X60140000Y-49060000D02*
X60140000Y-48815000D01*
X64000000Y-30940000D02*
X60140000Y-30940000D01*
X64000000Y-30940000D02*
X67860000Y-30940000D01*
X64000000Y-49060000D02*
X60140000Y-49060000D01*
X64000000Y-49060000D02*
X67860000Y-49060000D01*
X67860000Y-30940000D02*
X67860000Y-31185000D01*
X67860000Y-49060000D02*
X67860000Y-48815000D01*
X59287500Y-31185000D02*
X58947500Y-30715000D01*
X59627500Y-30715000D01*
X59287500Y-31185000D01*
G36*
X59287500Y-31185000D02*
G01*
X58947500Y-30715000D01*
X59627500Y-30715000D01*
X59287500Y-31185000D01*
G37*
X98750000Y-76500000D02*
X98750000Y-78000000D01*
X100000000Y-80500000D02*
X104500000Y-80500000D01*
X104500000Y-74000000D02*
X100000000Y-74000000D01*
X105750000Y-78000000D02*
X105750000Y-76500000D01*
X36000000Y-17320000D02*
X35000000Y-17320000D01*
X36000000Y-20680000D02*
X35000000Y-20680000D01*
X58859420Y-64990000D02*
X59140580Y-64990000D01*
X58859420Y-66010000D02*
X59140580Y-66010000D01*
X76859420Y-64990000D02*
X77140580Y-64990000D01*
X76859420Y-66010000D02*
X77140580Y-66010000D01*
X8735000Y-42399420D02*
X8735000Y-42680580D01*
X9755000Y-42399420D02*
X9755000Y-42680580D01*
X46515000Y-85090000D02*
X48315000Y-85090000D01*
X46515000Y-86540000D02*
X46515000Y-85090000D01*
X47785000Y-89360000D02*
X56215000Y-89360000D01*
X48315000Y-85090000D02*
X48315000Y-84100000D01*
X57485000Y-85090000D02*
X55685000Y-85090000D01*
X57485000Y-86540000D02*
X57485000Y-85090000D01*
X104477500Y-60237258D02*
X104477500Y-59762742D01*
X105522500Y-60237258D02*
X105522500Y-59762742D01*
X12859420Y-64990000D02*
X13140580Y-64990000D01*
X12859420Y-66010000D02*
X13140580Y-66010000D01*
X55500000Y-67250000D02*
X55500000Y-72750000D01*
X55500000Y-67250000D02*
X62500000Y-67250000D01*
X55500000Y-72750000D02*
X62050000Y-72750000D01*
X56300000Y-70900000D02*
X56300000Y-69100000D01*
X61700000Y-70900000D02*
X61700000Y-69100000D01*
X62050000Y-72750000D02*
X62500000Y-72300000D01*
X62500000Y-72300000D02*
X62500000Y-67250000D01*
X41300000Y-17320000D02*
X40300000Y-17320000D01*
X41300000Y-20680000D02*
X40300000Y-20680000D01*
X73500000Y-67250000D02*
X73500000Y-72750000D01*
X73500000Y-67250000D02*
X80500000Y-67250000D01*
X73500000Y-72750000D02*
X80050000Y-72750000D01*
X74300000Y-70900000D02*
X74300000Y-69100000D01*
X79700000Y-70900000D02*
X79700000Y-69100000D01*
X80050000Y-72750000D02*
X80500000Y-72300000D01*
X80500000Y-72300000D02*
X80500000Y-67250000D01*
X14515000Y-85090000D02*
X16315000Y-85090000D01*
X14515000Y-86540000D02*
X14515000Y-85090000D01*
X15785000Y-89360000D02*
X24215000Y-89360000D01*
X16315000Y-85090000D02*
X16315000Y-84100000D01*
X25485000Y-85090000D02*
X23685000Y-85090000D01*
X25485000Y-86540000D02*
X25485000Y-85090000D01*
X51900000Y-17320000D02*
X50900000Y-17320000D01*
X51900000Y-20680000D02*
X50900000Y-20680000D01*
X80500000Y-67250000D02*
X80500000Y-72750000D01*
X80500000Y-67250000D02*
X87500000Y-67250000D01*
X80500000Y-72750000D02*
X87050000Y-72750000D01*
X81300000Y-70900000D02*
X81300000Y-69100000D01*
X86700000Y-70900000D02*
X86700000Y-69100000D01*
X87050000Y-72750000D02*
X87500000Y-72300000D01*
X87500000Y-72300000D02*
X87500000Y-67250000D01*
X51859420Y-64990000D02*
X52140580Y-64990000D01*
X51859420Y-66010000D02*
X52140580Y-66010000D01*
X30700000Y-17320000D02*
X29700000Y-17320000D01*
X30700000Y-20680000D02*
X29700000Y-20680000D01*
X108262742Y-67977500D02*
X108737258Y-67977500D01*
X108262742Y-69022500D02*
X108737258Y-69022500D01*
X108500000Y-81250000D02*
X108500000Y-86750000D01*
X108500000Y-81250000D02*
X115500000Y-81250000D01*
X108500000Y-86750000D02*
X115050000Y-86750000D01*
X109300000Y-84900000D02*
X109300000Y-83100000D01*
X114700000Y-84900000D02*
X114700000Y-83100000D01*
X115050000Y-86750000D02*
X115500000Y-86300000D01*
X115500000Y-86300000D02*
X115500000Y-81250000D01*
X26859420Y-64990000D02*
X27140580Y-64990000D01*
X26859420Y-66010000D02*
X27140580Y-66010000D01*
X9500000Y-67250000D02*
X9500000Y-72750000D01*
X9500000Y-67250000D02*
X16500000Y-67250000D01*
X9500000Y-72750000D02*
X16050000Y-72750000D01*
X10300000Y-70900000D02*
X10300000Y-69100000D01*
X15700000Y-70900000D02*
X15700000Y-69100000D01*
X16050000Y-72750000D02*
X16500000Y-72300000D01*
X16500000Y-72300000D02*
X16500000Y-67250000D01*
X57200000Y-17320000D02*
X56200000Y-17320000D01*
X57200000Y-20680000D02*
X56200000Y-20680000D01*
X100738748Y-39265000D02*
X101261252Y-39265000D01*
X100738748Y-40735000D02*
X101261252Y-40735000D01*
X32735000Y-42399420D02*
X32735000Y-42680580D01*
X33755000Y-42399420D02*
X33755000Y-42680580D01*
X8620000Y-4580000D02*
X59640000Y-4580000D01*
X8620000Y-7230000D02*
X8620000Y-4580000D01*
X8620000Y-9880000D02*
X8620000Y-8500000D01*
X10000000Y-9880000D02*
X8620000Y-9880000D01*
X11270000Y-7230000D02*
X8620000Y-7230000D01*
X11270000Y-9880000D02*
X11270000Y-7230000D01*
X11270000Y-9880000D02*
X59640000Y-9880000D01*
X59640000Y-9880000D02*
X59640000Y-4580000D01*
X25400000Y-17320000D02*
X24400000Y-17320000D01*
X25400000Y-20680000D02*
X24400000Y-20680000D01*
X20100000Y-17320000D02*
X19100000Y-17320000D01*
X20100000Y-20680000D02*
X19100000Y-20680000D01*
X100477500Y-36237258D02*
X100477500Y-35762742D01*
X101522500Y-36237258D02*
X101522500Y-35762742D01*
X56735000Y-42399420D02*
X56735000Y-42680580D01*
X57755000Y-42399420D02*
X57755000Y-42680580D01*
X80735000Y-42399420D02*
X80735000Y-42680580D01*
X81755000Y-42399420D02*
X81755000Y-42680580D01*
X100738748Y-55265000D02*
X101261252Y-55265000D01*
X100738748Y-56735000D02*
X101261252Y-56735000D01*
X111859420Y-78990000D02*
X112140580Y-78990000D01*
X111859420Y-80010000D02*
X112140580Y-80010000D01*
X91500000Y-56320000D02*
X90500000Y-56320000D01*
X91500000Y-59680000D02*
X90500000Y-59680000D01*
X23500000Y-67250000D02*
X23500000Y-72750000D01*
X23500000Y-67250000D02*
X30500000Y-67250000D01*
X23500000Y-72750000D02*
X30050000Y-72750000D01*
X24300000Y-70900000D02*
X24300000Y-69100000D01*
X29700000Y-70900000D02*
X29700000Y-69100000D01*
X30050000Y-72750000D02*
X30500000Y-72300000D01*
X30500000Y-72300000D02*
X30500000Y-67250000D01*
X84140000Y-30940000D02*
X84140000Y-31185000D01*
X84140000Y-49060000D02*
X84140000Y-48815000D01*
X88000000Y-30940000D02*
X84140000Y-30940000D01*
X88000000Y-30940000D02*
X91860000Y-30940000D01*
X88000000Y-49060000D02*
X84140000Y-49060000D01*
X88000000Y-49060000D02*
X91860000Y-49060000D01*
X91860000Y-30940000D02*
X91860000Y-31185000D01*
X91860000Y-49060000D02*
X91860000Y-48815000D01*
X83287500Y-31185000D02*
X82947500Y-30715000D01*
X83627500Y-30715000D01*
X83287500Y-31185000D01*
G36*
X83287500Y-31185000D02*
G01*
X82947500Y-30715000D01*
X83627500Y-30715000D01*
X83287500Y-31185000D01*
G37*
X101620000Y-42620000D02*
X103000000Y-42620000D01*
X101620000Y-44000000D02*
X101620000Y-42620000D01*
X101620000Y-45270000D02*
X101620000Y-53000000D01*
X101620000Y-45270000D02*
X104380000Y-45270000D01*
X101620000Y-53000000D02*
X104380000Y-53000000D01*
X104380000Y-45270000D02*
X104380000Y-53000000D01*
X14800000Y-17320000D02*
X13800000Y-17320000D01*
X14800000Y-20680000D02*
X13800000Y-20680000D01*
X41500000Y-67250000D02*
X41500000Y-72750000D01*
X41500000Y-67250000D02*
X48500000Y-67250000D01*
X41500000Y-72750000D02*
X48050000Y-72750000D01*
X42300000Y-70900000D02*
X42300000Y-69100000D01*
X47700000Y-70900000D02*
X47700000Y-69100000D01*
X48050000Y-72750000D02*
X48500000Y-72300000D01*
X48500000Y-72300000D02*
X48500000Y-67250000D01*
X12140000Y-30940000D02*
X12140000Y-31185000D01*
X12140000Y-49060000D02*
X12140000Y-48815000D01*
X16000000Y-30940000D02*
X12140000Y-30940000D01*
X16000000Y-30940000D02*
X19860000Y-30940000D01*
X16000000Y-49060000D02*
X12140000Y-49060000D01*
X16000000Y-49060000D02*
X19860000Y-49060000D01*
X19860000Y-30940000D02*
X19860000Y-31185000D01*
X19860000Y-49060000D02*
X19860000Y-48815000D01*
X11287500Y-31185000D02*
X10947500Y-30715000D01*
X11627500Y-30715000D01*
X11287500Y-31185000D01*
G36*
X11287500Y-31185000D02*
G01*
X10947500Y-30715000D01*
X11627500Y-30715000D01*
X11287500Y-31185000D01*
G37*
X78515000Y-85090000D02*
X80315000Y-85090000D01*
X78515000Y-86540000D02*
X78515000Y-85090000D01*
X79785000Y-89360000D02*
X88215000Y-89360000D01*
X80315000Y-85090000D02*
X80315000Y-84100000D01*
X89485000Y-85090000D02*
X87685000Y-85090000D01*
X89485000Y-86540000D02*
X89485000Y-85090000D01*
X16500000Y-67250000D02*
X16500000Y-72750000D01*
X16500000Y-67250000D02*
X23500000Y-67250000D01*
X16500000Y-72750000D02*
X23050000Y-72750000D01*
X17300000Y-70900000D02*
X17300000Y-69100000D01*
X22700000Y-70900000D02*
X22700000Y-69100000D01*
X23050000Y-72750000D02*
X23500000Y-72300000D01*
X23500000Y-72300000D02*
X23500000Y-67250000D01*
X106390000Y-5430000D02*
X105910000Y-5430000D01*
X106390000Y-5430000D02*
X106390000Y-5850000D01*
X106390000Y-7970000D02*
X106390000Y-8390000D01*
X106390000Y-10510000D02*
X106390000Y-10930000D01*
X106390000Y-13050000D02*
X106390000Y-13470000D01*
X106390000Y-15590000D02*
X106390000Y-16010000D01*
X106390000Y-18130000D02*
X106390000Y-18550000D01*
X106390000Y-20670000D02*
X106390000Y-21090000D01*
X106390000Y-23210000D02*
X106390000Y-23630000D01*
X106390000Y-25750000D02*
X106390000Y-26170000D01*
X106390000Y-28290000D02*
X106390000Y-28710000D01*
X106390000Y-30830000D02*
X106390000Y-31250000D01*
X106390000Y-33370000D02*
X106390000Y-33790000D01*
X106390000Y-35910000D02*
X106390000Y-36330000D01*
X106390000Y-38450000D02*
X106390000Y-38870000D01*
X106390000Y-40990000D02*
X106390000Y-41410000D01*
X106390000Y-43530000D02*
X106390000Y-43950000D01*
X106390000Y-46070000D02*
X106390000Y-46490000D01*
X106390000Y-48610000D02*
X106390000Y-49030000D01*
X106390000Y-51150000D02*
X106390000Y-51570000D01*
X106420324Y-3310000D02*
X105910000Y-3310000D01*
X107000000Y-2890000D02*
X109490000Y-2890000D01*
X107000000Y-54110000D02*
X110837939Y-54110000D01*
X109490000Y-2890000D02*
X110837940Y-2890000D01*
X111762061Y-2890000D02*
X112765000Y-2890000D01*
X112765000Y-2890000D02*
X121235000Y-2890000D01*
X113100000Y-2890000D02*
X113100000Y-3806000D01*
X113100000Y-6194000D02*
X113100000Y-7410000D01*
X113100000Y-7410000D02*
X113396090Y-7410000D01*
X113400000Y-54110000D02*
X111762061Y-54110000D01*
X115520000Y-54110000D02*
X115940000Y-54110000D01*
X115753910Y-7410000D02*
X118246090Y-7410000D01*
X118060000Y-54110000D02*
X118480000Y-54110000D01*
X120603910Y-7410000D02*
X120900000Y-7410000D01*
X120900000Y-2890000D02*
X120900000Y-3806000D01*
X120900000Y-6194000D02*
X120900000Y-7410000D01*
X121235000Y-2890000D02*
X122237939Y-2890000D01*
X122237939Y-54110000D02*
X120600000Y-54110000D01*
X123162061Y-2890000D02*
X124510000Y-2890000D01*
X123162061Y-54110000D02*
X127000000Y-54110000D01*
X127000000Y-2890000D02*
X124510000Y-2890000D01*
X127610000Y-5430000D02*
X127610000Y-5850000D01*
X127610000Y-7970000D02*
X127610000Y-8390000D01*
X127610000Y-10510000D02*
X127610000Y-10930000D01*
X127610000Y-13050000D02*
X127610000Y-13470000D01*
X127610000Y-15590000D02*
X127610000Y-16010000D01*
X127610000Y-18130000D02*
X127610000Y-18550000D01*
X127610000Y-20670000D02*
X127610000Y-21090000D01*
X127610000Y-23210000D02*
X127610000Y-23630000D01*
X127610000Y-25750000D02*
X127610000Y-26170000D01*
X127610000Y-28290000D02*
X127610000Y-28710000D01*
X127610000Y-30830000D02*
X127610000Y-31250000D01*
X127610000Y-33370000D02*
X127610000Y-33790000D01*
X127610000Y-35910000D02*
X127610000Y-36330000D01*
X127610000Y-38450000D02*
X127610000Y-38870000D01*
X127610000Y-40990000D02*
X127610000Y-41410000D01*
X127610000Y-43530000D02*
X127610000Y-43950000D01*
X127610000Y-46070000D02*
X127610000Y-46490000D01*
X127610000Y-48610000D02*
X127610000Y-49030000D01*
X127610000Y-51150000D02*
X127610000Y-51570000D01*
X106420324Y-3310000D02*
G75*
G02*
X107000000Y-2890000I579692J-190051D01*
G01*
X107000000Y-54110000D02*
G75*
G02*
X106420324Y-53689937I1J610002D01*
G01*
X127000000Y-2890000D02*
G75*
G02*
X127579676Y-3310063I0J-610000D01*
G01*
X127579676Y-53689937D02*
G75*
G02*
X127000000Y-54109948I-579476J189737D01*
G01*
X102477500Y-36237258D02*
X102477500Y-35762742D01*
X103522500Y-36237258D02*
X103522500Y-35762742D01*
X130900000Y-74000000D02*
G75*
G02*
X118700000Y-74000000I-6100000J0D01*
G01*
X118700000Y-74000000D02*
G75*
G02*
X130900000Y-74000000I6100000J0D01*
G01*
X17500000Y-56320000D02*
X16500000Y-56320000D01*
X17500000Y-59680000D02*
X16500000Y-59680000D01*
X108262742Y-65477500D02*
X108737258Y-65477500D01*
X108262742Y-66522500D02*
X108737258Y-66522500D01*
X101000000Y-58440000D02*
X100200000Y-58440000D01*
X101000000Y-58440000D02*
X101800000Y-58440000D01*
X101000000Y-61560000D02*
X100200000Y-61560000D01*
X101000000Y-61560000D02*
X101800000Y-61560000D01*
X99700000Y-58490000D02*
X99460000Y-58160000D01*
X99940000Y-58160000D01*
X99700000Y-58490000D01*
G36*
X99700000Y-58490000D02*
G01*
X99460000Y-58160000D01*
X99940000Y-58160000D01*
X99700000Y-58490000D01*
G37*
X36140000Y-30940000D02*
X36140000Y-31185000D01*
X36140000Y-49060000D02*
X36140000Y-48815000D01*
X40000000Y-30940000D02*
X36140000Y-30940000D01*
X40000000Y-30940000D02*
X43860000Y-30940000D01*
X40000000Y-49060000D02*
X36140000Y-49060000D01*
X40000000Y-49060000D02*
X43860000Y-49060000D01*
X43860000Y-30940000D02*
X43860000Y-31185000D01*
X43860000Y-49060000D02*
X43860000Y-48815000D01*
X35287500Y-31185000D02*
X34947500Y-30715000D01*
X35627500Y-30715000D01*
X35287500Y-31185000D01*
G36*
X35287500Y-31185000D02*
G01*
X34947500Y-30715000D01*
X35627500Y-30715000D01*
X35287500Y-31185000D01*
G37*
X30500000Y-56320000D02*
X29500000Y-56320000D01*
X30500000Y-59680000D02*
X29500000Y-59680000D01*
X48500000Y-67250000D02*
X48500000Y-72750000D01*
X48500000Y-67250000D02*
X55500000Y-67250000D01*
X48500000Y-72750000D02*
X55050000Y-72750000D01*
X49300000Y-70900000D02*
X49300000Y-69100000D01*
X54700000Y-70900000D02*
X54700000Y-69100000D01*
X55050000Y-72750000D02*
X55500000Y-72300000D01*
X55500000Y-72300000D02*
X55500000Y-67250000D01*
%LPC*%
D15*
X88550000Y-68350000D03*
X88550000Y-71650000D03*
X93450000Y-71650000D03*
X93450000Y-68350000D03*
D16*
X77100000Y-56800000D03*
D17*
X77100000Y-57600000D03*
X77100000Y-58400000D03*
D16*
X77100000Y-59200000D03*
X78900000Y-59200000D03*
D17*
X78900000Y-58400000D03*
X78900000Y-57600000D03*
D16*
X78900000Y-56800000D03*
X45200000Y-17800000D03*
D17*
X45200000Y-18600000D03*
X45200000Y-19400000D03*
D16*
X45200000Y-20200000D03*
X47000000Y-20200000D03*
D17*
X47000000Y-19400000D03*
X47000000Y-18600000D03*
D16*
X47000000Y-17800000D03*
X8100000Y-17800000D03*
D17*
X8100000Y-18600000D03*
X8100000Y-19400000D03*
D16*
X8100000Y-20200000D03*
X9900000Y-20200000D03*
D17*
X9900000Y-19400000D03*
X9900000Y-18600000D03*
D16*
X9900000Y-17800000D03*
D18*
X83225000Y-65500000D03*
X84775000Y-65500000D03*
X19225000Y-65500000D03*
X20775000Y-65500000D03*
D19*
X110850000Y-71000000D03*
X114150000Y-71000000D03*
D18*
X100225000Y-64000000D03*
X101775000Y-64000000D03*
D20*
X111562500Y-66050000D03*
X111562500Y-67950000D03*
X113437500Y-67000000D03*
D18*
X90225000Y-65500000D03*
X91775000Y-65500000D03*
X44225000Y-65500000D03*
X45775000Y-65500000D03*
D16*
X47100000Y-56800000D03*
D17*
X47100000Y-57600000D03*
X47100000Y-58400000D03*
D16*
X47100000Y-59200000D03*
X48900000Y-59200000D03*
D17*
X48900000Y-58400000D03*
X48900000Y-57600000D03*
D16*
X48900000Y-56800000D03*
D21*
X59350000Y-31745000D03*
X59350000Y-33015000D03*
X59350000Y-34285000D03*
X59350000Y-35555000D03*
X59350000Y-36825000D03*
X59350000Y-38095000D03*
X59350000Y-39365000D03*
X59350000Y-40635000D03*
X59350000Y-41905000D03*
X59350000Y-43175000D03*
X59350000Y-44445000D03*
X59350000Y-45715000D03*
X59350000Y-46985000D03*
X59350000Y-48255000D03*
X68650000Y-48255000D03*
X68650000Y-46985000D03*
X68650000Y-45715000D03*
X68650000Y-44445000D03*
X68650000Y-43175000D03*
X68650000Y-41905000D03*
X68650000Y-40635000D03*
X68650000Y-39365000D03*
X68650000Y-38095000D03*
X68650000Y-36825000D03*
X68650000Y-35555000D03*
X68650000Y-34285000D03*
X68650000Y-33015000D03*
X68650000Y-31745000D03*
D22*
X3500000Y-86500000D03*
D23*
X99000000Y-75000000D03*
X105500000Y-75000000D03*
X99000000Y-79500000D03*
X105500000Y-79500000D03*
D16*
X34600000Y-17800000D03*
D17*
X34600000Y-18600000D03*
X34600000Y-19400000D03*
D16*
X34600000Y-20200000D03*
X36400000Y-20200000D03*
D17*
X36400000Y-19400000D03*
X36400000Y-18600000D03*
D16*
X36400000Y-17800000D03*
D18*
X58225000Y-65500000D03*
X59775000Y-65500000D03*
X76225000Y-65500000D03*
X77775000Y-65500000D03*
D24*
X9245000Y-41765000D03*
X9245000Y-43315000D03*
D25*
X48875000Y-84950000D03*
X50125000Y-84950000D03*
X51375000Y-84950000D03*
X52625000Y-84950000D03*
X53875000Y-84950000D03*
X55125000Y-84950000D03*
D26*
X47025000Y-88150000D03*
X56975000Y-88150000D03*
D27*
X105000000Y-60825000D03*
X105000000Y-59175000D03*
D18*
X12225000Y-65500000D03*
X13775000Y-65500000D03*
D15*
X56550000Y-68350000D03*
X56550000Y-71650000D03*
X61450000Y-71650000D03*
X61450000Y-68350000D03*
D16*
X39900000Y-17800000D03*
D17*
X39900000Y-18600000D03*
X39900000Y-19400000D03*
D16*
X39900000Y-20200000D03*
X41700000Y-20200000D03*
D17*
X41700000Y-19400000D03*
X41700000Y-18600000D03*
D16*
X41700000Y-17800000D03*
D15*
X74550000Y-68350000D03*
X74550000Y-71650000D03*
X79450000Y-71650000D03*
X79450000Y-68350000D03*
D25*
X16875000Y-84950000D03*
X18125000Y-84950000D03*
X19375000Y-84950000D03*
X20625000Y-84950000D03*
X21875000Y-84950000D03*
X23125000Y-84950000D03*
D26*
X15025000Y-88150000D03*
X24975000Y-88150000D03*
D16*
X50500000Y-17800000D03*
D17*
X50500000Y-18600000D03*
X50500000Y-19400000D03*
D16*
X50500000Y-20200000D03*
X52300000Y-20200000D03*
D17*
X52300000Y-19400000D03*
X52300000Y-18600000D03*
D16*
X52300000Y-17800000D03*
D15*
X81550000Y-68350000D03*
X81550000Y-71650000D03*
X86450000Y-71650000D03*
X86450000Y-68350000D03*
D22*
X97000000Y-3500000D03*
D18*
X51225000Y-65500000D03*
X52775000Y-65500000D03*
D16*
X29300000Y-17800000D03*
D17*
X29300000Y-18600000D03*
X29300000Y-19400000D03*
D16*
X29300000Y-20200000D03*
X31100000Y-20200000D03*
D17*
X31100000Y-19400000D03*
X31100000Y-18600000D03*
D16*
X31100000Y-17800000D03*
D28*
X107675000Y-68500000D03*
X109325000Y-68500000D03*
D15*
X109550000Y-82350000D03*
X109550000Y-85650000D03*
X114450000Y-85650000D03*
X114450000Y-82350000D03*
D18*
X26225000Y-65500000D03*
X27775000Y-65500000D03*
D15*
X10550000Y-68350000D03*
X10550000Y-71650000D03*
X15450000Y-71650000D03*
X15450000Y-68350000D03*
D16*
X55800000Y-17800000D03*
D17*
X55800000Y-18600000D03*
X55800000Y-19400000D03*
D16*
X55800000Y-20200000D03*
X57600000Y-20200000D03*
D17*
X57600000Y-19400000D03*
X57600000Y-18600000D03*
D16*
X57600000Y-17800000D03*
D29*
X100050000Y-40000000D03*
X101950000Y-40000000D03*
D24*
X33245000Y-41765000D03*
X33245000Y-43315000D03*
D30*
X10000000Y-8500000D03*
D31*
X10000000Y-5960000D03*
X12540000Y-8500000D03*
X12540000Y-5960000D03*
X15080000Y-8500000D03*
X15080000Y-5960000D03*
X17620000Y-8500000D03*
X17620000Y-5960000D03*
X20160000Y-8500000D03*
X20160000Y-5960000D03*
X22700000Y-8500000D03*
X22700000Y-5960000D03*
X25240000Y-8500000D03*
X25240000Y-5960000D03*
X27780000Y-8500000D03*
X27780000Y-5960000D03*
X30320000Y-8500000D03*
X30320000Y-5960000D03*
X32860000Y-8500000D03*
X32860000Y-5960000D03*
X35400000Y-8500000D03*
X35400000Y-5960000D03*
X37940000Y-8500000D03*
X37940000Y-5960000D03*
X40480000Y-8500000D03*
X40480000Y-5960000D03*
X43020000Y-8500000D03*
X43020000Y-5960000D03*
X45560000Y-8500000D03*
X45560000Y-5960000D03*
X48100000Y-8500000D03*
X48100000Y-5960000D03*
X50640000Y-8500000D03*
X50640000Y-5960000D03*
X53180000Y-8500000D03*
X53180000Y-5960000D03*
X55720000Y-8500000D03*
X55720000Y-5960000D03*
X58260000Y-8500000D03*
X58260000Y-5960000D03*
D22*
X3500000Y-3500000D03*
D16*
X24000000Y-17800000D03*
D17*
X24000000Y-18600000D03*
X24000000Y-19400000D03*
D16*
X24000000Y-20200000D03*
X25800000Y-20200000D03*
D17*
X25800000Y-19400000D03*
X25800000Y-18600000D03*
D16*
X25800000Y-17800000D03*
X18700000Y-17800000D03*
D17*
X18700000Y-18600000D03*
X18700000Y-19400000D03*
D16*
X18700000Y-20200000D03*
X20500000Y-20200000D03*
D17*
X20500000Y-19400000D03*
X20500000Y-18600000D03*
D16*
X20500000Y-17800000D03*
D27*
X101000000Y-36825000D03*
X101000000Y-35175000D03*
D24*
X57245000Y-41765000D03*
X57245000Y-43315000D03*
X81245000Y-41765000D03*
X81245000Y-43315000D03*
D22*
X131500000Y-86500000D03*
D29*
X100050000Y-56000000D03*
X101950000Y-56000000D03*
D18*
X111225000Y-79500000D03*
X112775000Y-79500000D03*
D16*
X90100000Y-56800000D03*
D17*
X90100000Y-57600000D03*
X90100000Y-58400000D03*
D16*
X90100000Y-59200000D03*
X91900000Y-59200000D03*
D17*
X91900000Y-58400000D03*
X91900000Y-57600000D03*
D16*
X91900000Y-56800000D03*
D15*
X24550000Y-68350000D03*
X24550000Y-71650000D03*
X29450000Y-71650000D03*
X29450000Y-68350000D03*
D21*
X83350000Y-31745000D03*
X83350000Y-33015000D03*
X83350000Y-34285000D03*
X83350000Y-35555000D03*
X83350000Y-36825000D03*
X83350000Y-38095000D03*
X83350000Y-39365000D03*
X83350000Y-40635000D03*
X83350000Y-41905000D03*
X83350000Y-43175000D03*
X83350000Y-44445000D03*
X83350000Y-45715000D03*
X83350000Y-46985000D03*
X83350000Y-48255000D03*
X92650000Y-48255000D03*
X92650000Y-46985000D03*
X92650000Y-45715000D03*
X92650000Y-44445000D03*
X92650000Y-43175000D03*
X92650000Y-41905000D03*
X92650000Y-40635000D03*
X92650000Y-39365000D03*
X92650000Y-38095000D03*
X92650000Y-36825000D03*
X92650000Y-35555000D03*
X92650000Y-34285000D03*
X92650000Y-33015000D03*
X92650000Y-31745000D03*
D30*
X103000000Y-44000000D03*
D31*
X103000000Y-46540000D03*
X103000000Y-49080000D03*
X103000000Y-51620000D03*
D16*
X13400000Y-17800000D03*
D17*
X13400000Y-18600000D03*
X13400000Y-19400000D03*
D16*
X13400000Y-20200000D03*
X15200000Y-20200000D03*
D17*
X15200000Y-19400000D03*
X15200000Y-18600000D03*
D16*
X15200000Y-17800000D03*
D15*
X42550000Y-68350000D03*
X42550000Y-71650000D03*
X47450000Y-71650000D03*
X47450000Y-68350000D03*
D21*
X11350000Y-31745000D03*
X11350000Y-33015000D03*
X11350000Y-34285000D03*
X11350000Y-35555000D03*
X11350000Y-36825000D03*
X11350000Y-38095000D03*
X11350000Y-39365000D03*
X11350000Y-40635000D03*
X11350000Y-41905000D03*
X11350000Y-43175000D03*
X11350000Y-44445000D03*
X11350000Y-45715000D03*
X11350000Y-46985000D03*
X11350000Y-48255000D03*
X20650000Y-48255000D03*
X20650000Y-46985000D03*
X20650000Y-45715000D03*
X20650000Y-44445000D03*
X20650000Y-43175000D03*
X20650000Y-41905000D03*
X20650000Y-40635000D03*
X20650000Y-39365000D03*
X20650000Y-38095000D03*
X20650000Y-36825000D03*
X20650000Y-35555000D03*
X20650000Y-34285000D03*
X20650000Y-33015000D03*
X20650000Y-31745000D03*
D25*
X80875000Y-84950000D03*
X82125000Y-84950000D03*
X83375000Y-84950000D03*
X84625000Y-84950000D03*
X85875000Y-84950000D03*
X87125000Y-84950000D03*
D26*
X79025000Y-88150000D03*
X88975000Y-88150000D03*
D15*
X17550000Y-68350000D03*
X17550000Y-71650000D03*
X22450000Y-71650000D03*
X22450000Y-68350000D03*
D32*
X114275000Y-4500000D03*
D33*
X114575000Y-7530000D03*
X119425000Y-7530000D03*
D32*
X119725000Y-4500000D03*
D34*
X107310000Y-4370000D03*
D35*
X107310000Y-6910000D03*
D36*
X107310000Y-9450000D03*
D35*
X107310000Y-11990000D03*
X107310000Y-14530000D03*
X107310000Y-17070000D03*
X107310000Y-19610000D03*
D36*
X107310000Y-22150000D03*
D35*
X107310000Y-24690000D03*
X107310000Y-27230000D03*
X107310000Y-29770000D03*
X107310000Y-32310000D03*
D36*
X107310000Y-34850000D03*
D35*
X107310000Y-37390000D03*
X107310000Y-39930000D03*
X107310000Y-42470000D03*
X107310000Y-45010000D03*
D36*
X107310000Y-47550000D03*
D35*
X107310000Y-50090000D03*
X107310000Y-52630000D03*
X126690000Y-52630000D03*
X126690000Y-50090000D03*
D34*
X126690000Y-47550000D03*
D35*
X126690000Y-45010000D03*
X126690000Y-42470000D03*
X126690000Y-39930000D03*
X126690000Y-37390000D03*
D34*
X126690000Y-34850000D03*
D35*
X126690000Y-32310000D03*
X126690000Y-29770000D03*
X126690000Y-27230000D03*
X126690000Y-24690000D03*
D34*
X126690000Y-22150000D03*
D35*
X126690000Y-19610000D03*
X126690000Y-17070000D03*
X126690000Y-14530000D03*
X126690000Y-11990000D03*
D34*
X126690000Y-9450000D03*
D35*
X126690000Y-6910000D03*
X126690000Y-4370000D03*
D37*
X114460000Y-53200000D03*
D38*
X117000000Y-52400000D03*
D37*
X119540000Y-53200000D03*
D27*
X103000000Y-36825000D03*
X103000000Y-35175000D03*
D39*
X121000000Y-74000000D03*
D23*
X128600000Y-74000000D03*
D16*
X16100000Y-56800000D03*
D17*
X16100000Y-57600000D03*
X16100000Y-58400000D03*
D16*
X16100000Y-59200000D03*
X17900000Y-59200000D03*
D17*
X17900000Y-58400000D03*
X17900000Y-57600000D03*
D16*
X17900000Y-56800000D03*
D28*
X107675000Y-66000000D03*
X109325000Y-66000000D03*
D40*
X99862500Y-59050000D03*
X99862500Y-60000000D03*
X99862500Y-60950000D03*
X102137500Y-60950000D03*
X102137500Y-59050000D03*
D21*
X35350000Y-31745000D03*
X35350000Y-33015000D03*
X35350000Y-34285000D03*
X35350000Y-35555000D03*
X35350000Y-36825000D03*
X35350000Y-38095000D03*
X35350000Y-39365000D03*
X35350000Y-40635000D03*
X35350000Y-41905000D03*
X35350000Y-43175000D03*
X35350000Y-44445000D03*
X35350000Y-45715000D03*
X35350000Y-46985000D03*
X35350000Y-48255000D03*
X44650000Y-48255000D03*
X44650000Y-46985000D03*
X44650000Y-45715000D03*
X44650000Y-44445000D03*
X44650000Y-43175000D03*
X44650000Y-41905000D03*
X44650000Y-40635000D03*
X44650000Y-39365000D03*
X44650000Y-38095000D03*
X44650000Y-36825000D03*
X44650000Y-35555000D03*
X44650000Y-34285000D03*
X44650000Y-33015000D03*
X44650000Y-31745000D03*
D16*
X29100000Y-56800000D03*
D17*
X29100000Y-57600000D03*
X29100000Y-58400000D03*
D16*
X29100000Y-59200000D03*
X30900000Y-59200000D03*
D17*
X30900000Y-58400000D03*
X30900000Y-57600000D03*
D16*
X30900000Y-56800000D03*
D15*
X49550000Y-68350000D03*
X49550000Y-71650000D03*
X54450000Y-71650000D03*
X54450000Y-68350000D03*
%LPD*%
M02*
